<?xml version="1.0" encoding="iso-8859-1"?>
<!-- Generator: Adobe Illustrator 19.0.0, SVG Export Plug-In . SVG Version: 6.00 Build 0)  -->
<svg version="1.1" id="Layer_1" xmlns="http://www.w3.org/2000/svg" xmlns:xlink="http://www.w3.org/1999/xlink" x="0px" y="0px"
	 viewBox="0 0 504.305 504.305" style="enable-background:new 0 0 504.305 504.305;" xml:space="preserve">
<g>
	<path d="M430.5,381.987c-4.142,0-7.5,3.358-7.5,7.5v47.568c0,10.438-8.492,18.93-18.93,18.93H33.93
		c-10.438,0-18.93-8.492-18.93-18.93v-243.57c0-4.142-3.358-7.5-7.5-7.5s-7.5,3.358-7.5,7.5v243.57
		c0,18.709,15.221,33.93,33.93,33.93h370.14c18.709,0,33.93-15.221,33.93-33.93v-47.568C438,385.345,434.642,381.987,430.5,381.987z
		"/>
	<path d="M48.736,107.326c-3.841-5.832-13.188-3.327-13.717,3.609c-0.506,6.637,7.685,10.578,12.573,6.057
		C50.249,114.533,50.766,110.339,48.736,107.326z"/>
	<path d="M99.736,107.326c-3.707-5.627-12.645-3.538-13.656,3.057c-1.018,6.647,7.008,11.157,12.177,6.898
		C101.181,114.872,101.863,110.482,99.736,107.326z"/>
	<path d="M74.236,107.326c-3.692-5.604-12.68-3.56-13.654,3.057c-0.977,6.639,6.983,11.177,12.176,6.898
		C75.681,114.872,76.363,110.482,74.236,107.326z"/>
	<path d="M504.305,216.974c0-8.63-3.36-16.743-9.463-22.845L438,137.286v-30.371c0-18.709-15.221-33.93-33.93-33.93h-47.682
		c-5.037-10.741-18.457-35.188-37.816-39.133c-6.838-1.393-17.313-0.733-28.375,10.329c-5.62,5.62-8.387,12.896-8.224,21.626
		c0.266,14.255,8.706,32.707,25.117,55c-2.435,3.004-4.344,6.441-5.58,10.177H15v-24.07c0-10.438,8.492-18.93,18.93-18.93h233.213
		c4.142,0,7.5-3.358,7.5-7.5s-3.358-7.5-7.5-7.5H33.93C15.221,72.986,0,88.207,0,106.916v61.568c0,4.142,3.358,7.5,7.5,7.5
		s7.5-3.358,7.5-7.5v-22.498h282.873l-9.21,39.645c-2.542,10.94,0.682,22.214,8.625,30.157l87.948,87.948
		c6.102,6.102,14.215,9.463,22.845,9.463c5.282,0,10.367-1.265,14.919-3.64v54.928c0,4.142,3.358,7.5,7.5,7.5s7.5-3.358,7.5-7.5
		v-67.824l56.842-56.842C500.944,233.717,504.305,225.604,504.305,216.974z M300.803,54.789c7.677-7.677,13.011-6.595,14.764-6.24
		c9.362,1.899,18.31,14.392,23.922,24.437h-22.348c-4.142,0-7.5,3.358-7.5,7.5s3.358,7.5,7.5,7.5h34.229c0.008,0,0.017,0,0.025,0
		h52.675c10.438,0,18.93,8.492,18.93,18.93v15.371l-16.105-16.106c-7.942-7.942-19.214-11.166-30.157-8.625l-51.866,12.05
		c-2.052,0.477-4.025,1.166-5.911,2.019c-12.291-16.724-21.758-33.651-21.99-46.096C296.884,60.903,298.102,57.49,300.803,54.789z
		 M484.235,229.213l-63.916,63.916c-3.269,3.269-7.616,5.069-12.239,5.069s-8.97-1.8-12.239-5.069l-87.948-87.948
		c-4.255-4.255-5.982-10.294-4.62-16.156l11.353-48.872c0.016-0.068,1.506-5.665,2.132-6.892c1.31,1.607,2.649,3.229,4.031,4.87
		c6.028,7.158,12.011,13.765,17.362,19.446c-2.501,4.319-3.84,9.235-3.84,14.359c0,7.674,2.988,14.889,8.415,20.315
		c5.426,5.427,12.641,8.415,20.316,8.415c7.674,0,14.889-2.989,20.315-8.415c5.427-5.426,8.415-12.641,8.415-20.315
		s-2.988-14.889-8.415-20.315c-5.426-5.427-12.641-8.415-20.315-8.415c-5.098,0-9.989,1.326-14.291,3.801
		c-6.467-6.89-13.43-14.714-20.09-22.883l51.469-11.957c5.861-1.361,11.901,0.366,16.156,4.62l87.947,87.948
		c3.269,3.269,5.069,7.615,5.069,12.239C489.305,221.597,487.504,225.944,484.235,229.213z M357.942,177.435
		c1.444,1.34,3.274,2.003,5.1,2.003c2.014,0,4.022-0.806,5.5-2.398c2.817-3.036,2.641-7.781-0.396-10.599
		c-2.326-2.159-5.099-4.821-8.172-7.877c0.997-0.227,2.023-0.357,3.071-0.357c3.667,0,7.116,1.428,9.709,4.022
		s4.021,6.042,4.021,9.709s-1.428,7.115-4.021,9.709c-5.354,5.353-14.065,5.354-19.418,0c-3.344-3.344-4.599-7.997-3.765-12.324
		C354.462,174.196,357.634,177.148,357.942,177.435z"/>
	<path d="M430.803,190.182c-2.929-2.929-7.678-2.929-10.606,0l-38.908,38.908c-2.929,2.929-2.929,7.677,0,10.606
		c1.464,1.465,3.384,2.197,5.303,2.197s3.839-0.732,5.303-2.197l38.908-38.908C433.732,197.86,433.732,193.111,430.803,190.182z"/>
	<path d="M440.697,210.682l-38.908,38.908c-2.929,2.929-2.929,7.677,0,10.606c1.464,1.465,3.384,2.197,5.303,2.197
		s3.839-0.732,5.303-2.197l38.908-38.908c2.929-2.929,2.929-7.677,0-10.606C448.375,207.753,443.625,207.753,440.697,210.682z"/>
	<path d="M54.132,305.865v12.24c0,7.91,5.168,14.626,12.302,16.977l10.271,78.273c1.992,15.182,15.041,26.63,30.353,26.63h100.149
		c15.312,0,28.361-11.448,30.353-26.63l10.271-78.273c7.133-2.35,12.302-9.067,12.302-16.977v-12.24
		c0-9.859-8.021-17.88-17.88-17.88h-60.62v-22.5c0-13.509-10.991-24.5-24.5-24.5s-24.5,10.991-24.5,24.5v22.5h-60.62
		C62.153,287.986,54.132,296.007,54.132,305.865z M222.687,411.404c-1.016,7.743-7.67,13.582-15.48,13.582H107.058
		c-7.809,0-14.464-5.839-15.48-13.582l-9.897-75.418h50.952v10.5c0,13.509,10.991,24.5,24.5,24.5s24.5-10.991,24.5-24.5v-10.5
		h50.952L222.687,411.404z M242.252,302.986c1.588,0,2.88,1.292,2.88,2.88v12.24c0,1.588-1.292,2.88-2.88,2.88h-60.62v-18H242.252z
		 M147.632,265.486c0-5.238,4.262-9.5,9.5-9.5s9.5,4.262,9.5,9.5v81c0,5.238-4.262,9.5-9.5,9.5s-9.5-4.262-9.5-9.5V265.486z
		 M132.632,320.986h-60.62c-1.588,0-2.88-1.292-2.88-2.88v-12.24c0-1.588,1.292-2.88,2.88-2.88h60.62V320.986z"/>
	<path d="M354.197,356.182l-31,31c-2.929,2.929-2.929,7.677,0,10.606c1.464,1.465,3.384,2.197,5.303,2.197s3.839-0.732,5.303-2.197
		l31-31c2.929-2.929,2.929-7.677,0-10.606C361.875,353.253,357.125,353.253,354.197,356.182z"/>
	<path d="M331.426,354.616c-2.542-6.023-11.314-6.048-13.85,0c-1.286,3.068-0.305,6.751,2.321,8.787
		c2.359,1.83,5.656,2.079,8.267,0.627C331.422,362.218,332.88,358.06,331.426,354.616z"/>
	<path d="M362.036,389.136c-6.366,1.192-8.1,9.844-2.821,13.496c2.607,1.804,6.121,1.77,8.694-0.083
		c2.668-1.921,3.761-5.504,2.651-8.591C369.321,390.516,365.637,388.393,362.036,389.136z"/>
	<path d="M52.499,183.985h32c4.142,0,7.5-3.358,7.5-7.5s-3.358-7.5-7.5-7.5h-32c-4.142,0-7.5,3.358-7.5,7.5
		S48.357,183.985,52.499,183.985z"/>
	<path d="M117.499,183.985h104c4.142,0,7.5-3.358,7.5-7.5s-3.358-7.5-7.5-7.5h-104c-4.142,0-7.5,3.358-7.5,7.5
		S113.357,183.985,117.499,183.985z"/>
	<path d="M52.499,218.986h32c4.142,0,7.5-3.358,7.5-7.5s-3.358-7.5-7.5-7.5h-32c-4.142,0-7.5,3.358-7.5,7.5
		S48.357,218.986,52.499,218.986z"/>
	<path d="M117.499,218.986h104c4.142,0,7.5-3.358,7.5-7.5s-3.358-7.5-7.5-7.5h-104c-4.142,0-7.5,3.358-7.5,7.5
		S113.357,218.986,117.499,218.986z"/>
</g>
<g>
</g>
<g>
</g>
<g>
</g>
<g>
</g>
<g>
</g>
<g>
</g>
<g>
</g>
<g>
</g>
<g>
</g>
<g>
</g>
<g>
</g>
<g>
</g>
<g>
</g>
<g>
</g>
<g>
</g>
</svg>
