<?xml version="1.0" encoding="iso-8859-1"?>
<!-- Generator: Adobe Illustrator 19.0.0, SVG Export Plug-In . SVG Version: 6.00 Build 0)  -->
<svg version="1.1" id="Layer_1" xmlns="http://www.w3.org/2000/svg" xmlns:xlink="http://www.w3.org/1999/xlink" x="0px" y="0px"
	 viewBox="0 0 505 505" style="enable-background:new 0 0 505 505;" xml:space="preserve">
<g>
	<path d="M161.802,95.471l10.271,78.274c1.992,15.182,15.042,26.63,30.353,26.63h100.149c15.312,0,28.36-11.448,30.354-26.63
		l3.254-24.795c0.539-4.107-2.354-7.873-6.461-8.412c-4.097-0.539-7.872,2.353-8.412,6.46l-3.254,24.795
		c-1.016,7.743-7.671,13.582-15.48,13.582H202.426c-7.809,0-14.464-5.839-15.481-13.582l-9.896-75.419H228v10.5
		c0,13.509,10.991,24.5,24.5,24.5s24.5-10.991,24.5-24.5v-10.5h50.951l-3.445,26.257c-0.539,4.107,2.354,7.873,6.461,8.412
		c0.331,0.043,0.66,0.064,0.985,0.064c3.708,0,6.931-2.749,7.427-6.525l3.82-29.112c7.133-2.351,12.301-9.067,12.301-16.977v-12.24
		c0-9.859-8.021-17.88-17.88-17.88H277v-22.5c0-13.509-10.99-24.5-24.5-24.5h0c-13.509,0-24.5,10.991-24.5,24.5v22.5h-60.62
		c-9.859,0-17.88,8.021-17.88,17.88v12.24C149.5,86.404,154.668,93.12,161.802,95.471z M337.621,63.374
		c1.588,0,2.88,1.292,2.88,2.88v12.24c0,1.588-1.292,2.88-2.88,2.88H277v-18H337.621z M243,25.874c0-5.238,4.262-9.5,9.5-9.5
		c5.238,0,9.5,4.262,9.5,9.5v81c0,5.238-4.262,9.5-9.5,9.5c-5.238,0-9.5-4.262-9.5-9.5V25.874z M164.5,66.254
		c0-1.588,1.292-2.88,2.88-2.88H228v18h-60.62c-1.588,0-2.88-1.292-2.88-2.88V66.254z"/>
	<path d="M409.473,213.286c-38.377,0-69.599,31.222-69.599,69.599s31.222,69.599,69.599,69.599s69.599-31.222,69.599-69.599
		S447.85,213.286,409.473,213.286z M409.473,337.484c-30.105,0-54.599-24.493-54.599-54.599s24.493-54.599,54.599-54.599
		s54.599,24.493,54.599,54.599S439.579,337.484,409.473,337.484z"/>
	<path d="M206.003,290.395c0-25.088-20.411-45.5-45.5-45.5h-50.001v-27.209c0-4.142-3.358-7.5-7.5-7.5
		c-14.887,0-26.999-12.111-26.999-26.998s12.111-26.998,26.999-26.998c14.887,0,26.998,12.111,26.998,26.998
		c0,4.142,3.358,7.5,7.5,7.5s7.5-3.358,7.5-7.5c0-23.158-18.84-41.998-41.998-41.998c-23.158,0-41.999,18.841-41.999,41.998
		c0,20.598,14.907,37.781,34.499,41.327v20.38H45.5c-25.089,0-45.5,20.411-45.5,45.5s20.411,45.5,45.5,45.5h115.003
		C185.592,335.895,206.003,315.484,206.003,290.395z M160.503,320.895H45.5c-16.818,0-30.5-13.683-30.5-30.5
		c0-16.817,13.682-30.5,30.5-30.5h115.003c16.818,0,30.5,13.682,30.5,30.5S177.321,320.895,160.503,320.895z"/>
	<path d="M409.473,187.358c-52.674,0-95.527,42.853-95.527,95.527s42.854,95.527,95.527,95.527S505,335.558,505,282.885
		S462.147,187.358,409.473,187.358z M409.473,363.412c-44.403,0-80.527-36.125-80.527-80.527s36.124-80.527,80.527-80.527
		S490,238.482,490,282.885S453.876,363.412,409.473,363.412z"/>
	<path d="M416.015,275.696v-18.474c3.083,0.486,5.153,1.535,6.826,2.383c1.44,0.73,2.578,1.306,3.853,1.306
		c4.071,0,5.833-4.978,5.833-7.518c0-5.421-8.484-7.93-16.512-8.482v-1.118c0-2.838-2.31-5.148-5.147-5.148s-5.147,2.31-5.147,5.148
		v1.444c-12.27,2.053-19.301,9.545-19.301,20.584c0,13.57,11.102,17.834,19.301,20.919v20.734c-4.521-0.859-7.462-3.142-9.835-4.984
		c-1.936-1.502-3.464-2.688-5.213-2.688c-3.508,0-6.148,4.625-6.148,7.623c0,5.662,8.692,12.453,21.196,13.232v0.513
		c0,1.587,0.732,3.065,1.99,4.04c0.747,0.704,1.83,1.108,2.974,1.108c0.027,0,0.055-0.002,0.104-0.007l0.079,0.007
		c2.838,0,5.147-2.309,5.147-5.147v-1.089c11.702-2.501,18.407-10.597,18.407-22.241
		C434.422,284.662,425.597,279.394,416.015,275.696z M421.072,299.21c0,3.544-1.746,6.158-5.057,7.578v-15.677
		C419.508,293.176,421.072,295.689,421.072,299.21z M405.72,257.836v13.939c-3.135-1.439-5.95-3.361-5.95-7.323
		C399.77,261.273,401.826,258.99,405.72,257.836z"/>
	<path d="M321.03,358.122l-27.237,27.237c-9.499-7.573-21.106-12.598-33.793-14.031V216.687c0-4.142-3.357-7.5-7.5-7.5
		s-7.5,3.358-7.5,7.5v154.641c-12.688,1.434-24.296,6.46-33.794,14.033l-27.239-27.239c-2.929-2.929-7.678-2.929-10.606,0
		c-2.929,2.929-2.929,7.678,0,10.606l27.239,27.239c-9.043,11.342-14.466,25.691-14.466,41.292c0,6.148,0.841,12.239,2.501,18.104
		c1.129,3.986,5.277,6.301,9.259,5.174c3.985-1.128,6.302-5.273,5.174-9.259c-1.284-4.535-1.935-9.252-1.935-14.019
		c0-28.324,23.043-51.367,51.367-51.367c28.325,0,51.368,23.043,51.368,51.367s-23.043,51.367-51.368,51.367
		c-15.292,0-29.682-6.745-39.482-18.506c-2.652-3.183-7.382-3.612-10.563-0.96c-3.182,2.651-3.612,7.381-0.96,10.563
		c12.659,15.191,31.25,23.903,51.006,23.903c36.595,0,66.368-29.772,66.368-66.367c0-15.601-5.424-29.951-14.468-41.293
		l27.237-27.237c2.929-2.929,2.929-7.678,0-10.606C328.708,355.194,323.959,355.194,321.03,358.122z"/>
</g>
<g>
</g>
<g>
</g>
<g>
</g>
<g>
</g>
<g>
</g>
<g>
</g>
<g>
</g>
<g>
</g>
<g>
</g>
<g>
</g>
<g>
</g>
<g>
</g>
<g>
</g>
<g>
</g>
<g>
</g>
</svg>
