<?xml version="1.0" encoding="iso-8859-1"?>
<!-- Generator: Adobe Illustrator 19.0.0, SVG Export Plug-In . SVG Version: 6.00 Build 0)  -->
<svg version="1.1" id="Layer_1" xmlns="http://www.w3.org/2000/svg" xmlns:xlink="http://www.w3.org/1999/xlink" x="0px" y="0px"
	 viewBox="0 0 505.005 505.005" style="enable-background:new 0 0 505.005 505.005;" xml:space="preserve">
<g>
	<path d="M49.426,51.701c-2.535-6.124-11.523-6.014-13.917,0.171c-1.153,2.977-0.24,6.47,2.235,8.491
		c2.426,1.982,5.901,2.247,8.592,0.649C49.481,59.145,50.849,55.084,49.426,51.701z"/>
	<path d="M100.426,51.701c-1.225-2.892-4.14-4.776-7.292-4.623c-3.134,0.152-5.889,2.317-6.807,5.312
		c-2.005,6.547,5.475,12.125,11.215,8.49C100.556,58.971,101.812,54.995,100.426,51.701z"/>
	<path d="M74.926,51.701c-1.277-3.016-4.387-4.916-7.663-4.597c-3.391,0.331-6.162,3.006-6.682,6.36
		c-0.996,6.413,6.526,10.94,11.775,7.209C75.148,58.689,76.258,54.868,74.926,51.701z"/>
	<path d="M497.505,168.034c4.143,0,7.5-3.358,7.5-7.5V49.997c0-18.709-15.221-33.93-33.93-33.93H33.935
		c-18.709,0-33.93,15.221-33.93,33.93v31.474C0.004,81.503,0,81.535,0,81.568s0.004,0.064,0.005,0.097v298.473
		c0,18.709,15.221,33.93,33.93,33.93h40.823l24.521,69.854c0.658,1.877,2.036,3.416,3.829,4.276c1.022,0.492,2.134,0.74,3.247,0.74
		c0.838,0,1.679-0.141,2.484-0.423l212.08-74.446h150.156c18.709,0,33.93-15.221,33.93-33.93V185.536c0-4.142-3.357-7.5-7.5-7.5
		s-7.5,3.358-7.5,7.5v194.602c0,10.438-8.492,18.93-18.93,18.93H363.65l102.615-36.021c3.908-1.372,5.964-5.652,4.593-9.561
		l-52.907-150.723c-0.659-1.877-2.037-3.416-3.83-4.277c-0.111-0.053-0.226-0.095-0.339-0.142l0.004-0.009l-131.573-55.421
		c0.209-1.429,0.322-2.889,0.322-4.375c0-16.562-13.474-30.035-30.035-30.035s-30.035,13.474-30.035,30.035
		c0,5.378,1.428,10.426,3.914,14.797L48.405,325.159c-0.005,0.004-0.008,0.008-0.013,0.013l-0.156,0.151l0.003,0.003
		c-2.04,1.973-2.871,5.02-1.869,7.874l11.318,32.244c1.371,3.909,5.651,5.966,9.561,4.593c3.908-1.372,5.964-5.652,4.593-9.561
		l-8.835-25.167l343.274-120.5l47.939,136.569l-343.273,120.5l-31.72-90.363c-1.373-3.909-5.649-5.965-9.562-4.593
		c-3.908,1.372-5.964,5.652-4.593,9.561l4.418,12.586H33.935c-10.438,0-18.93-8.492-18.93-18.93V89.068h475v71.467
		C490.005,164.677,493.362,168.034,497.505,168.034z M390.044,204.611L83.353,312.268l153.442-148.139
		c4.573,2.817,9.951,4.446,15.705,4.446c9.727,0,18.385-4.651,23.877-11.843L390.044,204.611z M252.5,123.504
		c8.29,0,15.035,6.745,15.035,15.035s-6.745,15.035-15.035,15.035s-15.035-6.745-15.035-15.035S244.21,123.504,252.5,123.504z
		 M15.005,74.068v-24.07c0-10.438,8.492-18.93,18.93-18.93h437.141c10.438,0,18.93,8.492,18.93,18.93v24.07H15.005z"/>
	<path d="M127.246,368.013c6.99-2.454,9.066,2.819,9.85,4.805c1.083,2.61,3.775,3.18,7.998,1.698c4.273-1.5,6.239-3.311,4.394-8.572
		c-1.783-5.08-5.355-8.604-10.329-10.192c-4.744-1.514-10.435-1.198-16.453,0.914c-5.831,2.047-10.168,5.305-12.542,9.421
		c-2.744,4.757-2.938,10.582-0.576,17.312l7.719,21.988c2.362,6.729,6.154,11.155,11.27,13.154c2.021,0.79,4.251,1.184,6.633,1.184
		c2.832,0,5.879-0.558,9.046-1.669c6.015-2.112,10.626-5.501,13.336-9.801c2.835-4.5,3.348-9.691,1.48-15.011
		c-0.872-2.484-1.954-3.898-3.404-4.452c-1.322-0.504-2.957-0.344-5.466,0.536c-4.16,1.46-5.828,3.519-5.101,6.293
		c0.894,3.349,2.244,8.41-4.309,10.71c-2.401,0.844-4.485,0.821-6.195-0.067c-1.768-0.917-3.15-2.769-4.109-5.503l-7.719-21.989
		c-0.959-2.73-1.04-5.039-0.242-6.861C123.295,370.154,124.883,368.843,127.246,368.013z"/>
	<path d="M185.456,390.093l-15.92-45.352c-0.458-1.304-1.553-2.117-3.167-2.349c-1.37-0.197-3.087,0.031-4.833,0.644
		c-1.747,0.613-3.229,1.507-4.176,2.518c-1.115,1.19-1.462,2.509-1.004,3.813l18.524,52.772c0.447,1.273,1.45,2.12,2.901,2.448
		c0.441,0.1,0.913,0.149,1.403,0.149c0.924,0,1.914-0.175,2.894-0.519l26.221-9.204c1.198-0.42,1.98-1.402,2.263-2.84
		c0.247-1.256,0.094-2.773-0.433-4.272c-0.526-1.499-1.354-2.779-2.333-3.605c-1.118-0.946-2.345-1.222-3.54-0.803L185.456,390.093z
		"/>
	<path d="M213.804,371.514c2.375,6.764,6.163,11.191,11.26,13.157c2.014,0.777,4.207,1.165,6.564,1.165c2.933,0,6.121-0.6,9.538-1.8
		c13.239-4.647,18.074-14.203,13.615-26.907l-7.719-21.989c-4.46-12.704-14.211-17.139-27.445-12.494
		c-6.167,2.165-10.529,5.385-12.967,9.57c-2.75,4.721-2.939,10.544-0.565,17.308L213.804,371.514z M223.661,334.169
		c1.139-0.4,2.206-0.6,3.197-0.6c1.05,0,2.014,0.224,2.883,0.672c1.782,0.917,3.176,2.776,4.141,5.527l7.719,21.988
		c1.879,5.351,0.33,9.072-4.479,10.759c-2.335,0.82-4.366,0.791-6.038-0.086c-1.752-0.92-3.132-2.785-4.1-5.542l-7.719-21.989
		c-0.968-2.757-1.057-5.075-0.264-6.888C219.759,336.281,221.326,334.989,223.661,334.169z"/>
	<path d="M276.888,314.553c4.066-1.428,6.641-1.063,8.709-0.77c1.366,0.193,2.546,0.36,3.766-0.068
		c3.674-1.289,3.654-6.431,2.834-8.77c-1-2.847-3.984-4.139-8.867-3.842c-4.412,0.269-9.052,1.798-10.368,2.26
		c-5.675,1.992-10.36,5.209-13.193,9.058c-3.375,4.585-4.1,10.025-2.096,15.734c3.991,11.37,14.577,12.403,23.082,13.233
		c6.172,0.603,11.501,1.123,12.948,5.248c0.627,1.786,0.263,3.474-1.083,5.018c-1.118,1.283-2.882,2.392-4.966,3.124
		c-4.471,1.57-7.962,0.417-10.767-0.507c-2.057-0.678-3.835-1.265-5.494-0.682c-3.287,1.154-4.251,6.322-3.272,9.11
		c1.297,3.693,6.532,5.764,12.92,5.763c3.482,0,7.309-0.616,11.022-1.919c6.104-2.143,10.699-5.604,13.29-10.008
		c2.716-4.618,3.084-10.1,1.064-15.853c-4.53-12.906-15.814-13.783-24.881-14.488c-5.6-0.436-10.022-0.779-11.121-3.91
		c-0.472-1.343-0.227-2.733,0.71-4.019C272.206,316.781,274.198,315.497,276.888,314.553z"/>
	<path d="M343.699,285.469c-0.513-1.46-1.324-2.705-2.286-3.506c-1.145-0.953-2.434-1.216-3.724-0.762l-29.54,10.37
		c-1.5,0.526-2.773,1.378-3.586,2.397c-0.928,1.164-1.182,2.452-0.735,3.726l18.496,52.689c0.447,1.273,1.45,2.12,2.901,2.449
		c0.441,0.1,0.913,0.149,1.404,0.149c0.923,0,1.914-0.175,2.893-0.519l29.54-10.37c2-0.702,3.401-3.166,2.025-7.088
		c-1.209-3.441-3.705-5.263-6.068-4.433l-22.12,7.765l-4.868-13.87l12.327-4.328c2.761-0.969,3.105-4.009,2.259-6.424
		c-0.904-2.573-3.202-4.695-5.836-3.769l-12.329,4.328l-4.839-13.787l22.119-7.765C344.098,291.892,344.906,288.909,343.699,285.469
		z"/>
	<path d="M374.638,335.283c0.541,0.162,1.132,0.242,1.751,0.242c0.903,0,1.87-0.171,2.834-0.51l14.688-5.156
		c6.175-2.167,10.551-5.392,13.008-9.583c2.775-4.735,2.979-10.563,0.606-17.323l-7.544-21.491
		c-4.46-12.704-14.208-17.14-27.444-12.494l-14.688,5.156c-1.626,0.571-2.957,1.515-3.747,2.657
		c-0.766,1.107-0.979,2.309-0.603,3.383l18.554,52.855C372.43,334.094,373.348,334.897,374.638,335.283z M369.313,283.041
		l7.267-2.551c4.812-1.688,8.345,0.249,10.222,5.6l7.544,21.491c0.955,2.719,1.025,5.031,0.211,6.872
		c-0.779,1.761-2.357,3.069-4.689,3.887l-7.268,2.551L369.313,283.041z"/>
	<path d="M172.573,129.036c0-4.142-3.357-7.5-7.5-7.5H54.079c-4.143,0-7.5,3.358-7.5,7.5s3.357,7.5,7.5,7.5h110.994
		C169.216,136.536,172.573,133.178,172.573,129.036z"/>
	<path d="M54.079,156.034c-4.143,0-7.5,3.358-7.5,7.5s3.357,7.5,7.5,7.5h71.996c4.143,0,7.5-3.358,7.5-7.5s-3.357-7.5-7.5-7.5
		H54.079z"/>
</g>
<g>
</g>
<g>
</g>
<g>
</g>
<g>
</g>
<g>
</g>
<g>
</g>
<g>
</g>
<g>
</g>
<g>
</g>
<g>
</g>
<g>
</g>
<g>
</g>
<g>
</g>
<g>
</g>
<g>
</g>
</svg>
