<?xml version="1.0" encoding="iso-8859-1"?>
<!-- Generator: Adobe Illustrator 19.0.0, SVG Export Plug-In . SVG Version: 6.00 Build 0)  -->
<svg version="1.1" id="Layer_1" xmlns="http://www.w3.org/2000/svg" xmlns:xlink="http://www.w3.org/1999/xlink" x="0px" y="0px"
	 viewBox="0 0 505 505" style="enable-background:new 0 0 505 505;" xml:space="preserve">
<g>
	<path d="M457.222,7.859H47.782c-26.345,0-47.778,21.433-47.778,47.778v18.04C0.003,73.7,0,73.722,0,73.745v271.609
		c0,27.577,22.436,50.012,50.012,50.012h107.691l-9.96,41.72h-20.742c-21.55,0-39.083,17.532-39.083,39.083v13.473
		c0,4.142,3.358,7.5,7.5,7.5h314.163c4.142,0,7.5-3.358,7.5-7.5v-13.473c0-21.55-17.533-39.083-39.083-39.083h-20.742l-9.96-41.72
		h107.691c27.577,0,50.012-22.435,50.012-50.012V182.735c0-4.142-3.358-7.5-7.5-7.5s-7.5,3.358-7.5,7.5v150.118H105.13
		c-4.142,0-7.5,3.358-7.5,7.5s3.358,7.5,7.5,7.5h384.771c-1.287,18.142-16.449,32.512-34.913,32.512H50.012
		c-18.464,0-33.626-14.37-34.913-32.512h65.03c4.142,0,7.5-3.358,7.5-7.5s-3.358-7.5-7.5-7.5H15V138.325
		c10.33,11.19,25.109,18.214,41.503,18.214c20.938,0,39.238-11.457,48.998-28.423c9.76,16.966,28.06,28.423,48.998,28.423
		c20.939,0,39.24-11.458,49-28.426c9.76,16.967,28.061,28.426,49,28.426s39.24-11.458,49-28.426
		c9.76,16.967,28.061,28.426,49,28.426s39.24-11.458,49-28.426c9.76,16.967,28.061,28.426,49,28.426
		c16.392,0,31.17-7.023,41.5-18.211v19.406c0,4.142,3.358,7.5,7.5,7.5s7.5-3.358,7.5-7.5v-57.695V73.745V55.637
		C505,29.292,483.567,7.859,457.222,7.859z M402.082,476.169v5.973H102.918v-5.973c0-13.279,10.804-24.083,24.083-24.083h250.997
		C391.278,452.086,402.082,462.889,402.082,476.169z M331.875,395.366l9.96,41.72H163.165l9.96-41.72H331.875z M56.503,141.539
		c-22.883,0-41.5-18.617-41.5-41.5V55.637c0-18.074,14.704-32.778,32.778-32.778H98v77.18c0,0.023,0.002,0.045,0.002,0.067
		C97.965,122.958,79.364,141.539,56.503,141.539z M154.5,141.539c-22.861,0-41.462-18.581-41.498-41.433
		c0-0.023,0.002-0.045,0.002-0.067v-77.18H196v77.18C196,122.922,177.383,141.539,154.5,141.539z M252.5,141.539
		c-22.883,0-41.5-18.617-41.5-41.5v-77.18h83v77.18C294,122.922,275.383,141.539,252.5,141.539z M350.5,141.539
		c-22.883,0-41.5-18.617-41.5-41.5v-77.18h83v77.18C392,122.922,373.383,141.539,350.5,141.539z M448.5,141.539
		c-22.883,0-41.5-18.617-41.5-41.5v-77.18h50.222c18.074,0,32.778,14.704,32.778,32.778v18.108v26.294
		C490,122.922,471.383,141.539,448.5,141.539z"/>
	<path d="M87.63,310.728h101.995c4.142,0,7.5-3.358,7.5-7.5v-59.685l5.927,3.202c1.751,0.945,3.804,1.156,5.71,0.588
		c1.906-0.569,3.508-1.872,4.453-3.622l19.96-36.952c0.945-1.75,1.157-3.804,0.588-5.71s-1.872-3.508-3.622-4.453l-36.952-19.96
		c-1.095-0.591-2.32-0.901-3.564-0.901H87.63c-1.245,0-2.469,0.31-3.564,0.901l-36.952,19.96c-3.645,1.969-5.003,6.519-3.034,10.163
		l19.959,36.952c0.946,1.75,2.547,3.053,4.454,3.622c1.906,0.569,3.96,0.357,5.71-0.588l5.928-3.202v59.685
		C80.13,307.37,83.488,310.728,87.63,310.728z M165.081,190.734c-3.272,11.531-13.888,20.004-26.453,20.004
		s-23.181-8.474-26.453-20.004H165.081z M73.673,229.983l-12.831-23.754l28.685-15.494h7.276
		c3.553,19.87,20.949,35.004,41.825,35.004s38.272-15.134,41.825-35.004h7.277l28.685,15.494l-12.831,23.754l-10.393-5.614
		c-2.323-1.255-5.137-1.196-7.406,0.157c-2.269,1.353-3.658,3.8-3.658,6.441v64.761H95.13v-64.761c0-2.642-1.39-5.088-3.658-6.441
		c-2.269-1.354-5.083-1.413-7.406-0.157L73.673,229.983z"/>
	<path d="M303.117,203.736h-37.498c-4.142,0-7.5,3.358-7.5,7.5s3.358,7.5,7.5,7.5h37.498c4.142,0,7.5-3.358,7.5-7.5
		S307.259,203.736,303.117,203.736z"/>
	<path d="M453.11,203.736H332.814c-4.142,0-7.5,3.358-7.5,7.5s3.358,7.5,7.5,7.5H453.11c4.142,0,7.5-3.358,7.5-7.5
		S457.252,203.736,453.11,203.736z"/>
	<path d="M303.117,238.234h-37.498c-4.142,0-7.5,3.358-7.5,7.5s3.358,7.5,7.5,7.5h37.498c4.142,0,7.5-3.358,7.5-7.5
		S307.259,238.234,303.117,238.234z"/>
	<path d="M453.11,238.234H332.814c-4.142,0-7.5,3.358-7.5,7.5s3.358,7.5,7.5,7.5H453.11c4.142,0,7.5-3.358,7.5-7.5
		S457.252,238.234,453.11,238.234z"/>
	<path d="M303.117,272.732h-37.498c-4.142,0-7.5,3.358-7.5,7.5s3.358,7.5,7.5,7.5h37.498c4.142,0,7.5-3.358,7.5-7.5
		S307.259,272.732,303.117,272.732z"/>
	<path d="M453.11,272.732H332.814c-4.142,0-7.5,3.358-7.5,7.5s3.358,7.5,7.5,7.5H453.11c4.142,0,7.5-3.358,7.5-7.5
		S457.252,272.732,453.11,272.732z"/>
</g>
<g>
</g>
<g>
</g>
<g>
</g>
<g>
</g>
<g>
</g>
<g>
</g>
<g>
</g>
<g>
</g>
<g>
</g>
<g>
</g>
<g>
</g>
<g>
</g>
<g>
</g>
<g>
</g>
<g>
</g>
</svg>
