<?xml version="1.0" encoding="iso-8859-1"?>
<!-- Generator: Adobe Illustrator 19.0.0, SVG Export Plug-In . SVG Version: 6.00 Build 0)  -->
<svg version="1.1" id="Layer_1" xmlns="http://www.w3.org/2000/svg" xmlns:xlink="http://www.w3.org/1999/xlink" x="0px" y="0px"
	 viewBox="0 0 505.844 505.844" style="enable-background:new 0 0 505.844 505.844;" xml:space="preserve">
<g>
	<path d="M49.425,74.551c-1.194-2.83-4.025-4.704-7.109-4.625c-3.073,0.078-5.834,2.076-6.874,4.968
		c-2.347,6.524,5.071,12.534,10.975,8.924C49.511,81.926,50.839,77.902,49.425,74.551z"/>
	<path d="M100.425,74.551c-1.194-2.83-4.025-4.704-7.109-4.625c-3.073,0.078-5.834,2.076-6.874,4.968
		c-2.35,6.53,5.069,12.522,10.975,8.924C100.508,81.934,101.836,77.896,100.425,74.551z"/>
	<path d="M74.925,74.551c-1.194-2.83-4.025-4.704-7.109-4.625c-3.073,0.078-5.834,2.076-6.874,4.968
		c-2.347,6.524,5.071,12.534,10.975,8.924C75.011,81.926,76.339,77.902,74.925,74.551z"/>
	<path d="M373.872,186.509l-49.319-26.641c-1.095-0.592-2.32-0.901-3.564-0.901H184.856c-1.245,0-2.469,0.31-3.564,0.901
		l-49.319,26.641c-1.75,0.945-3.053,2.547-3.622,4.453c-0.569,1.906-0.358,3.96,0.588,5.71l26.641,49.319
		c1.969,3.644,6.517,5.004,10.163,3.034l11.614-6.273v83.87c0,4.142,3.358,7.5,7.5,7.5h136.131c4.142,0,7.5-3.358,7.5-7.5v-44.087
		c0-4.142-3.358-7.5-7.5-7.5c-4.142,0-7.5,3.358-7.5,7.5v36.587H192.356v-88.945c0-2.642-1.39-5.088-3.658-6.441
		c-2.27-1.353-5.083-1.412-7.406-0.158l-16.08,8.686L145.7,196.142l41.052-22.175h12.486c3.662,26.358,26.334,46.72,53.684,46.72
		c27.35,0,50.022-20.362,53.684-46.72h12.486l41.052,22.175l-19.512,36.122l-16.08-8.686c-2.324-1.255-5.137-1.196-7.406,0.158
		c-2.269,1.353-3.658,3.8-3.658,6.441v27.356c0,4.142,3.358,7.5,7.5,7.5c4.142,0,7.5-3.358,7.5-7.5v-14.781l11.614,6.273
		c3.646,1.969,8.194,0.611,10.163-3.034l26.641-49.319c0.945-1.75,1.157-3.804,0.588-5.71
		C376.925,189.056,375.622,187.454,373.872,186.509z M252.922,205.687c-19.06,0-34.979-13.671-38.487-31.72h76.975
		C287.901,192.016,271.982,205.687,252.922,205.687z"/>
	<path d="M471.914,38.921H33.93C15.221,38.921,0,54.142,0,72.851v360.142c0,18.709,15.221,33.93,33.93,33.93h18.54
		c4.142,0,7.5-3.358,7.5-7.5s-3.358-7.5-7.5-7.5H33.93c-10.438,0-18.93-8.492-18.93-18.93v-98.87h45.98c4.142,0,7.5-3.358,7.5-7.5
		v-83.875l11.616,6.274c3.646,1.968,8.196,0.61,10.163-3.035l26.641-49.32c0.945-1.75,1.156-3.804,0.587-5.71
		c-0.569-1.906-1.872-3.508-3.622-4.454l-49.32-26.64c-1.095-0.591-2.32-0.901-3.564-0.901H15v-47.042h475.844v47.042h-45.983
		c-1.245,0-2.469,0.31-3.564,0.901l-49.32,26.641c-3.645,1.968-5.003,6.519-3.034,10.163l26.64,49.32
		c1.969,3.644,6.518,5.003,10.164,3.035l11.615-6.274v83.875c0,4.142,3.358,7.5,7.5,7.5h45.983v98.87
		c0,10.438-8.492,18.93-18.93,18.93H77.471c-4.142,0-7.5,3.358-7.5,7.5s3.358,7.5,7.5,7.5h394.443
		c18.709,0,33.93-15.221,33.93-33.93V72.851C505.844,54.142,490.623,38.921,471.914,38.921z M100.137,196.138L80.625,232.26
		l-16.081-8.686c-2.324-1.255-5.138-1.196-7.406,0.158c-2.269,1.353-3.658,3.8-3.658,6.441v88.95H15V215.989
		c17.146-7.626,29.05-23.526,31.606-42.026h12.478L100.137,196.138z M31.411,173.963C29.442,184.165,23.513,193.114,15,198.9
		v-24.937H31.411z M15,96.921v-24.07c0-10.438,8.492-18.93,18.93-18.93h437.984c10.438,0,18.93,8.492,18.93,18.93v24.07H15z
		 M490.844,198.902c-8.514-5.786-14.444-14.736-16.414-24.939h16.414V198.902z M452.361,319.123v-88.95
		c0-2.642-1.39-5.088-3.658-6.441c-2.269-1.353-5.083-1.413-7.406-0.158l-16.081,8.686l-19.512-36.122l41.053-22.175h12.478
		c2.556,18.501,14.462,34.402,31.609,42.027v103.133H452.361z"/>
	<path d="M280.421,390.534c0,4.142,3.358,7.5,7.5,7.5h143.895l-10.922,10.922c-2.929,2.929-2.929,7.678,0,10.606
		c1.464,1.465,3.384,2.197,5.303,2.197s3.839-0.732,5.303-2.197l23.726-23.725c1.407-1.406,2.197-3.314,2.197-5.303
		s-0.79-3.897-2.197-5.303L431.5,361.506c-2.929-2.929-7.678-2.929-10.606,0c-2.929,2.929-2.929,7.678,0,10.606l10.922,10.922
		H287.921C283.779,383.034,280.421,386.392,280.421,390.534z"/>
	<path d="M84.951,361.506c-2.929-2.929-7.678-2.929-10.606,0l-23.726,23.726c-1.407,1.406-2.197,3.314-2.197,5.303
		s0.79,3.897,2.197,5.303l23.726,23.725c1.464,1.464,3.384,2.197,5.303,2.197s3.839-0.732,5.303-2.197
		c2.929-2.929,2.929-7.678,0-10.606l-10.922-10.922h143.892c4.142,0,7.5-3.358,7.5-7.5s-3.358-7.5-7.5-7.5H74.028l10.922-10.922
		C87.88,369.183,87.88,364.434,84.951,361.506z"/>
	<path d="M202.373,416.034c-4.142,0-7.5,3.358-7.5,7.5s3.358,7.5,7.5,7.5h101.098c4.142,0,7.5-3.358,7.5-7.5s-3.358-7.5-7.5-7.5
		H202.373z"/>
</g>
<g>
</g>
<g>
</g>
<g>
</g>
<g>
</g>
<g>
</g>
<g>
</g>
<g>
</g>
<g>
</g>
<g>
</g>
<g>
</g>
<g>
</g>
<g>
</g>
<g>
</g>
<g>
</g>
<g>
</g>
</svg>
