<?xml version="1.0" encoding="iso-8859-1"?>
<!-- Generator: Adobe Illustrator 19.0.0, SVG Export Plug-In . SVG Version: 6.00 Build 0)  -->
<svg version="1.1" id="Layer_1" xmlns="http://www.w3.org/2000/svg" xmlns:xlink="http://www.w3.org/1999/xlink" x="0px" y="0px"
	 viewBox="0 0 505 505" style="enable-background:new 0 0 505 505;" xml:space="preserve">
<g>
	<path d="M376.442,238.236c0,13.569,11.102,17.834,19.301,20.918v20.734c-4.521-0.859-7.462-3.142-9.835-4.984
		c-1.936-1.502-3.464-2.688-5.213-2.688c-3.508,0-6.148,4.625-6.148,7.623c0,5.662,8.692,12.453,21.196,13.232v0.513
		c0,1.587,0.732,3.066,1.991,4.04c0.746,0.705,1.829,1.108,2.973,1.108h0.184c2.838,0,5.147-2.31,5.147-5.148v-1.089
		c11.702-2.501,18.407-10.597,18.407-22.241c0-13.179-8.825-18.447-18.407-22.146v-18.474c3.083,0.486,5.153,1.535,6.826,2.383
		c1.44,0.73,2.578,1.306,3.853,1.306c4.071,0,5.833-4.978,5.833-7.518c0-5.421-8.484-7.93-16.512-8.482v-1.118
		c0-2.838-2.31-5.148-5.147-5.148s-5.147,2.31-5.147,5.148v1.444C383.474,219.704,376.442,227.197,376.442,238.236z
		 M389.793,236.866c0-3.18,2.056-5.462,5.95-6.617v13.939C392.608,242.75,389.793,240.827,389.793,236.866z M406.038,279.202
		v-15.677c3.494,2.065,5.058,4.578,5.058,8.1C411.096,275.168,409.349,277.781,406.038,279.202z"/>
	<path d="M231.692,365.028c1.465,1.464,3.385,2.197,5.304,2.197s3.839-0.732,5.304-2.197l31-31c2.929-2.929,2.929-7.678,0-10.606
		c-2.93-2.929-7.678-2.929-10.607,0l-31,31C228.764,357.35,228.764,362.099,231.692,365.028z"/>
	<path d="M228.834,330.959c2.765,1.869,6.537,1.606,9.056-0.559c2.274-1.954,3.165-5.182,2.221-8.026
		c-0.964-2.905-3.679-4.99-6.747-5.139c-3.206-0.155-6.202,1.81-7.358,4.794C224.758,325.251,225.936,329.051,228.834,330.959z"/>
	<path d="M266.693,358.419c-2.238,2.241-2.808,5.724-1.443,8.575c1.371,2.863,4.521,4.545,7.662,4.17
		c3.3-0.393,6.023-3.054,6.501-6.339c0.449-3.086-1.098-6.215-3.849-7.693C272.683,355.585,269.013,356.1,266.693,358.419z"/>
	<path d="M96.106,311.151c1.368,2.225,3.79,3.573,6.389,3.573c0.087,0,0.174-0.001,0.262-0.004c2.697-0.094,5.136-1.629,6.386-4.021
		l23-44c1.919-3.671,0.499-8.203-3.172-10.121c-3.669-1.918-8.202-0.499-10.121,3.172l-16.881,32.294l-10.083-16.403
		c-2.169-3.53-6.79-4.63-10.317-2.462c-3.528,2.169-4.631,6.788-2.462,10.317L96.106,311.151z"/>
	<path d="M504.996,73.745V55.636c0-26.345-21.434-47.778-47.778-47.778h-57.722H379.56c-4.143,0-7.5,3.358-7.5,7.5
		s3.357,7.5,7.5,7.5h12.437v77.18c0,22.883-18.617,41.5-41.5,41.5s-41.5-18.617-41.5-41.5v-77.18h45.562c4.143,0,7.5-3.358,7.5-7.5
		s-3.357-7.5-7.5-7.5h-53.062h-98h-97.995h-0.005H47.779c-26.345,0-47.778,21.433-47.778,47.778V73.73
		C0.001,73.737,0,73.743,0,73.749v186.376c0,4.142,3.357,7.5,7.5,7.5s7.5-3.358,7.5-7.5V138.327
		c10.33,11.188,25.108,18.212,41.501,18.212c16.39,0,31.165-7.021,41.495-18.206v46.522c-2.81,0.795-5.532,2.03-8.054,3.735
		l-32.976,22.293c-7.65,5.171-12.218,13.772-12.218,23.007v94.958c0,1.359,0.103,2.694,0.292,4.001H15v-47.723
		c0-4.142-3.357-7.5-7.5-7.5s-7.5,3.358-7.5,7.5v60.223c0,27.581,22.435,50.02,50.011,50.02h107.688l-9.958,41.716h-20.743
		c-21.551,0-39.083,17.533-39.083,39.083v13.473c0,4.142,3.357,7.5,7.5,7.5h314.163c4.143,0,7.5-3.358,7.5-7.5v-13.473
		c0-21.55-17.532-39.083-39.083-39.083H357.25l-9.958-41.716H454.98c27.581,0,50.02-22.439,50.02-50.02L504.996,73.745z
		 M489.996,55.636v44.402c0,22.883-18.617,41.5-41.5,41.5s-41.5-18.617-41.5-41.5v-77.18h50.222
		C475.292,22.859,489.996,37.563,489.996,55.636z M399.496,202.683c4.143,0,7.5-3.358,7.5-7.5v-20.375l32.629,22.059
		c3.518,2.378,5.618,6.333,5.618,10.581v89.957c0,7.042-5.729,12.771-12.771,12.771h-65.951c-7.042,0-12.771-5.729-12.771-12.771
		v-89.957c0-4.247,2.101-8.202,5.618-10.581l32.629-22.059v20.375C391.996,199.325,395.354,202.683,399.496,202.683z
		 M350.496,156.538c16.392,0,31.17-7.023,41.5-18.211v20.083c-2.81,0.795-5.532,2.031-8.054,3.736l-32.976,22.293
		c-7.65,5.171-12.218,13.772-12.218,23.007v89.957c0,15.313,12.458,27.771,27.771,27.771h65.951
		c15.313,0,27.771-12.458,27.771-27.771v-89.957c0-9.235-4.567-17.836-12.218-23.007l-32.975-22.293
		c-2.522-1.706-5.244-2.941-8.055-3.736v-20.084c10.33,11.188,25.108,18.211,41.5,18.211c16.393,0,31.171-7.023,41.501-18.211
		L490,332.849H313.243v-39.958c0-9.235-4.567-17.836-12.218-23.007l-32.975-22.293c-2.522-1.706-5.244-2.941-8.055-3.736v-87.83
		c17.758-2.367,32.926-13.007,41.5-27.913C311.256,145.08,329.557,156.538,350.496,156.538z M154.025,210.884l-32.975-22.293
		c-2.522-1.705-5.244-2.941-8.055-3.736v-46.527c10.33,11.188,25.108,18.211,41.5,18.211c20.939,0,39.24-11.458,49-28.426
		c8.574,14.906,23.742,25.545,41.5,27.913v87.83c-2.81,0.795-5.532,2.03-8.054,3.735l-32.976,22.293
		c-7.65,5.171-12.218,13.772-12.218,23.007v39.958h-25.798c0.19-1.307,0.292-2.642,0.292-4.001v-94.958
		C166.243,224.656,161.676,216.055,154.025,210.884z M206.749,387.849v-94.958c0-4.247,2.101-8.202,5.618-10.581l32.629-22.059
		v20.375c0,4.142,3.357,7.5,7.5,7.5s7.5-3.358,7.5-7.5v-20.375l32.629,22.059c3.518,2.378,5.618,6.333,5.618,10.581v94.92
		c0,0.02-0.003,0.039-0.003,0.058c0,0.006,0.001,0.012,0.001,0.019c-0.021,7.024-5.741,12.732-12.77,12.732h-65.951
		C212.479,400.62,206.749,394.891,206.749,387.849z M293.996,100.039c0,22.883-18.617,41.5-41.5,41.5s-41.5-18.617-41.5-41.5v-77.18
		h83V100.039z M195.996,100.039c0,22.883-18.617,41.5-41.5,41.5c-22.851,0-41.445-18.565-41.498-41.403
		c0-0.032,0.002-0.064,0.002-0.096v-77.18h82.995V100.039z M56.501,141.538c-22.883,0-41.5-18.617-41.5-41.5V55.636
		c0-18.074,14.704-32.778,32.778-32.778h50.217v77.18v0.192C97.891,123.025,79.319,141.538,56.501,141.538z M59.749,233.891
		c0-4.247,2.101-8.202,5.618-10.581l32.629-22.059v20.375c0,4.142,3.357,7.5,7.5,7.5s7.5-3.358,7.5-7.5v-20.375l32.629,22.059
		c3.518,2.378,5.618,6.333,5.618,10.581v94.958c0,7.042-5.729,12.771-12.771,12.771H72.521c-7.042,0-12.771-5.729-12.771-12.771
		V233.891z M15.099,347.849h37.195c5.069,5.393,12.259,8.771,20.226,8.771h65.951c7.968,0,15.157-3.378,20.226-8.771h33.051v32.52
		H50.011C31.547,380.369,16.386,365.996,15.099,347.849z M402.078,476.169v5.973H102.915v-5.973
		c0-13.279,10.804-24.083,24.083-24.083h250.997C391.274,452.086,402.078,462.889,402.078,476.169z M341.828,437.086H163.162
		l9.958-41.716h19.672c3.288,11.669,14.021,20.251,26.728,20.251h65.951c12.707,0,23.44-8.582,26.728-20.251h19.67L341.828,437.086z
		 M454.98,380.369H313.243v-32.52h176.658C488.613,365.996,473.449,380.369,454.98,380.369z"/>
</g>
<g>
</g>
<g>
</g>
<g>
</g>
<g>
</g>
<g>
</g>
<g>
</g>
<g>
</g>
<g>
</g>
<g>
</g>
<g>
</g>
<g>
</g>
<g>
</g>
<g>
</g>
<g>
</g>
<g>
</g>
</svg>
