<?xml version="1.0" encoding="iso-8859-1"?>
<!-- Generator: Adobe Illustrator 19.0.0, SVG Export Plug-In . SVG Version: 6.00 Build 0)  -->
<svg version="1.1" id="Layer_1" xmlns="http://www.w3.org/2000/svg" xmlns:xlink="http://www.w3.org/1999/xlink" x="0px" y="0px"
	 viewBox="0 0 505 505" style="enable-background:new 0 0 505 505;" xml:space="preserve">
<g>
	<path d="M497.5,425.782h-24.515v-266.48c0-25.916-21.084-47-47-47h-6.483c3.87-28.655,3.949-48.447,3.949-49.861
		c0-3.232-2.07-6.101-5.139-7.119L254.862,1.104c-1.533-0.509-3.189-0.509-4.723,0L86.69,55.322
		c-3.067,1.018-5.139,3.886-5.139,7.119c0,1.415,0.079,21.206,3.949,49.861h-6.486c-25.916,0-47,21.084-47,47v266.48H7.5
		c-4.143,0-7.5,3.358-7.5,7.5v10.513c0,33.351,27.133,60.483,60.483,60.483h384.034c33.35,0,60.482-27.132,60.482-60.483v-10.513
		C505,429.14,501.643,425.782,497.5,425.782z M298.077,440.782c-1.188,8.464-8.477,14.999-17.263,14.999h-56.628
		c-8.787,0-16.076-6.534-17.264-14.999H298.077z M252.501,16.124l155.824,51.688c-0.559,15.881-3.586,64.686-19.949,115.857
		c-11.561,36.154-27.409,66.291-47.106,89.57c-23.964,28.324-53.822,46.557-88.769,54.21c-34.886-7.641-64.706-25.827-88.648-54.069
		c-19.689-23.226-35.542-53.295-47.117-89.373C100.305,132.799,97.247,83.745,96.681,67.812L252.501,16.124z M47.015,159.302
		c0-17.645,14.355-32,32-32h8.751c0.808,4.839,1.721,9.849,2.753,15H79.015c-9.374,0-17,7.626-17,17v243.98
		c0,4.142,3.357,7.5,7.5,7.5h365.971c4.143,0,7.5-3.358,7.5-7.5v-43.159c0-4.142-3.357-7.5-7.5-7.5s-7.5,3.358-7.5,7.5v35.659
		H77.015v-236.48c0-1.103,0.897-2,2-2H93.79c2.365,10.022,5.183,20.408,8.549,30.937c12.164,38.041,28.968,69.899,49.942,94.69
		c26.524,31.351,59.727,51.381,98.684,59.533c0.507,0.106,1.021,0.159,1.536,0.159s1.029-0.053,1.536-0.159
		c38.957-8.152,72.159-28.182,98.685-59.533c20.975-24.792,37.777-56.65,49.941-94.69c3.367-10.528,6.185-20.914,8.55-30.937h14.772
		c1.103,0,2,0.897,2,2v175.82c0,4.142,3.357,7.5,7.5,7.5s7.5-3.358,7.5-7.5v-175.82c0-9.374-7.626-17-17-17h-11.502
		c1.032-5.151,1.945-10.161,2.753-15h8.749c17.645,0,32,14.355,32,32v266.48H47.015V159.302z M490,443.795
		c0,25.08-20.403,45.483-45.482,45.483H60.483c-25.08,0-45.483-20.403-45.483-45.483v-3.013h176.854
		c1.25,16.75,15.269,29.999,32.333,29.999h56.628c17.064,0,31.081-13.249,32.332-29.999H490V443.795z"/>
	<path d="M148.591,215.234c1.766,3.747,6.232,5.351,9.982,3.585c3.746-1.767,5.351-6.236,3.584-9.982
		c-5.079-10.773-9.708-22.658-13.758-35.326c-9.913-30.999-14.526-60.906-16.672-82.179l120.773-40.062l120.736,40.047
		c-2.21,21.795-6.944,52.353-17.084,83.59c-21.148,65.142-56.018,104.894-103.652,118.187c-32.349-9.03-58.982-30.373-79.188-63.464
		c-2.159-3.535-6.775-4.651-10.31-2.492c-3.535,2.158-4.651,6.774-2.493,10.31c22.69,37.16,52.999,60.937,90.086,70.671
		c0.624,0.164,1.265,0.246,1.904,0.246s1.279-0.082,1.903-0.246c53.873-14.138,92.906-57.398,116.017-128.58
		c11.525-35.508,16.321-70.067,18.316-92.805c0.304-3.462-1.812-6.68-5.11-7.774l-128.765-42.71c-1.533-0.509-3.189-0.509-4.723,0
		L121.342,78.972c-3.297,1.094-5.411,4.307-5.11,7.768c1.926,22.184,6.592,56.039,17.881,91.338
		C138.36,191.368,143.231,203.869,148.591,215.234z"/>
	<path d="M252.501,225.901c6.245,0,11.724-5.478,11.724-11.723c0-6.355-5.369-11.724-11.724-11.724
		c-6.573,0-11.723,5.149-11.723,11.724C240.778,220.642,246.037,225.901,252.501,225.901z"/>
	<path d="M252.331,190.424c3.279,0,8.482-1.793,8.482-6.606c0-11.254,0.606-24.606,1.193-37.518
		c0.587-12.915,1.194-26.27,1.194-37.529c0-5.597-4.47-9.506-10.87-9.506s-10.7,3.82-10.7,9.506c0,11.26,0.563,24.614,1.108,37.529
		c0.545,12.912,1.108,26.264,1.108,37.519C243.848,187.954,247.019,190.424,252.331,190.424z"/>
</g>
<g>
</g>
<g>
</g>
<g>
</g>
<g>
</g>
<g>
</g>
<g>
</g>
<g>
</g>
<g>
</g>
<g>
</g>
<g>
</g>
<g>
</g>
<g>
</g>
<g>
</g>
<g>
</g>
<g>
</g>
</svg>
