<?xml version="1.0" encoding="iso-8859-1"?>
<!-- Generator: Adobe Illustrator 19.0.0, SVG Export Plug-In . SVG Version: 6.00 Build 0)  -->
<svg version="1.1" id="Layer_1" xmlns="http://www.w3.org/2000/svg" xmlns:xlink="http://www.w3.org/1999/xlink" x="0px" y="0px"
	 viewBox="0 0 505 505" style="enable-background:new 0 0 505 505;" xml:space="preserve">
<g>
	<path d="M67.985,258.112H7.5c-4.142,0-7.5,3.358-7.5,7.5v217.201c0,4.142,3.358,7.5,7.5,7.5h60.485c4.142,0,7.5-3.358,7.5-7.5
		v-68.542c0-4.142-3.358-7.5-7.5-7.5s-7.5,3.358-7.5,7.5v61.042H15V273.112h45.485V389.27c0,4.142,3.358,7.5,7.5,7.5
		s7.5-3.358,7.5-7.5V265.612C75.485,261.47,72.127,258.112,67.985,258.112z"/>
	<path d="M175.364,327.907h-60.485c-4.142,0-7.5,3.358-7.5,7.5v147.406c0,4.142,3.358,7.5,7.5,7.5h60.485c4.142,0,7.5-3.358,7.5-7.5
		V335.407C182.864,331.265,179.506,327.907,175.364,327.907z M167.864,475.313h-45.485V342.907h45.485V475.313z"/>
	<path d="M282.743,211.582h-60.485c-4.142,0-7.5,3.358-7.5,7.5v263.731c0,4.142,3.358,7.5,7.5,7.5h60.485c4.142,0,7.5-3.358,7.5-7.5
		V219.082C290.243,214.94,286.885,211.582,282.743,211.582z M275.243,475.313h-45.485V226.582h45.485V475.313z"/>
	<path d="M390.122,246.48h-60.485c-4.142,0-7.5,3.358-7.5,7.5v228.833c0,4.142,3.358,7.5,7.5,7.5h60.485c4.142,0,7.5-3.358,7.5-7.5
		V253.98C397.622,249.838,394.264,246.48,390.122,246.48z M382.622,475.313h-45.485V261.48h45.485V475.313z"/>
	<path d="M497.5,141.787h-60.485c-4.142,0-7.5,3.358-7.5,7.5v98.984c0,4.142,3.358,7.5,7.5,7.5s7.5-3.358,7.5-7.5v-91.484H490
		v318.526h-45.485v-202.04c0-4.142-3.358-7.5-7.5-7.5s-7.5,3.358-7.5,7.5v209.54c0,4.142,3.358,7.5,7.5,7.5H497.5
		c4.142,0,7.5-3.358,7.5-7.5V149.287C505,145.145,501.642,141.787,497.5,141.787z"/>
	<path d="M446.014,83.606c6.056,4.139,13.371,6.565,21.244,6.565C488.069,90.172,505,73.24,505,52.429
		c0-20.811-16.931-37.742-37.742-37.742c-20.812,0-37.743,16.931-37.743,37.742c0,7.525,2.223,14.538,6.033,20.431l-54.427,53.083
		c-6.055-4.139-13.37-6.564-21.242-6.564c-14.066,0-26.351,7.74-32.842,19.179l-37.047-12.032c0.161-1.413,0.252-2.847,0.252-4.302
		c0-20.811-16.931-37.742-37.743-37.742c-20.811,0-37.742,16.931-37.742,37.742c0,8.239,2.661,15.864,7.158,22.077l-57.223,61.988
		c-5.71-3.477-12.411-5.482-19.572-5.482c-10.524,0-20.052,4.334-26.904,11.306l-45.382-29.494c1.703-4.295,2.649-8.97,2.649-13.864
		c0-20.812-16.931-37.743-37.743-37.743S0,147.943,0,168.754c0,20.811,16.931,37.742,37.743,37.742
		c10.526,0,20.055-4.336,26.907-11.31l45.381,29.494c-1.704,4.296-2.651,8.973-2.651,13.869c0,20.811,16.931,37.742,37.743,37.742
		s37.743-16.931,37.743-37.742c0-8.239-2.661-15.864-7.158-22.076l57.223-61.988c5.71,3.477,12.411,5.482,19.571,5.482
		c14.066,0,26.351-7.74,32.842-19.179l37.047,12.032c-0.161,1.413-0.252,2.847-0.252,4.302c0,20.812,16.931,37.743,37.743,37.743
		s37.743-16.931,37.743-37.743c0-7.526-2.223-14.538-6.034-20.432L446.014,83.606z M37.743,191.496
		C25.202,191.496,15,181.294,15,168.754c0-12.541,10.202-22.743,22.743-22.743s22.743,10.202,22.743,22.743
		C60.485,181.294,50.283,191.496,37.743,191.496z M145.122,261.291c-12.541,0-22.743-10.202-22.743-22.742
		c0-12.541,10.202-22.743,22.743-22.743s22.743,10.202,22.743,22.743C167.864,251.089,157.662,261.291,145.122,261.291z
		 M252.5,144.967c-12.54,0-22.742-10.202-22.742-22.743c0-12.54,10.202-22.742,22.742-22.742c12.541,0,22.743,10.202,22.743,22.742
		C275.243,134.764,265.041,144.967,252.5,144.967z M467.258,29.687c12.54,0,22.742,10.202,22.742,22.742
		c0,12.541-10.202,22.743-22.742,22.743c-12.541,0-22.743-10.202-22.743-22.743C444.515,39.889,454.717,29.687,467.258,29.687z
		 M359.879,179.864c-12.541,0-22.743-10.202-22.743-22.743c0-12.54,10.202-22.742,22.743-22.742s22.743,10.202,22.743,22.742
		C382.622,169.662,372.419,179.864,359.879,179.864z"/>
</g>
<g>
</g>
<g>
</g>
<g>
</g>
<g>
</g>
<g>
</g>
<g>
</g>
<g>
</g>
<g>
</g>
<g>
</g>
<g>
</g>
<g>
</g>
<g>
</g>
<g>
</g>
<g>
</g>
<g>
</g>
</svg>
