<?xml version="1.0" encoding="iso-8859-1"?>
<!-- Generator: Adobe Illustrator 19.0.0, SVG Export Plug-In . SVG Version: 6.00 Build 0)  -->
<svg version="1.1" id="Layer_1" xmlns="http://www.w3.org/2000/svg" xmlns:xlink="http://www.w3.org/1999/xlink" x="0px" y="0px"
	 viewBox="0 0 504.997 504.997" style="enable-background:new 0 0 504.997 504.997;" xml:space="preserve">
<g>
	<path d="M48.731,141.078c-3.607-5.489-12.279-3.676-13.59,2.69c-1.379,6.698,6.628,11.519,11.959,7.387
		C50.154,148.789,50.902,144.286,48.731,141.078z"/>
	<path d="M99.731,141.078c-3.557-5.549-12.302-3.622-13.59,2.69c-1.385,6.788,6.798,11.597,12.112,7.264
		C101.191,148.636,101.859,144.223,99.731,141.078z"/>
	<path d="M74.231,141.078c-3.55-5.537-12.318-3.633-13.59,2.69c-1.365,6.786,6.788,11.605,12.112,7.264
		C75.686,148.641,76.356,144.219,74.231,141.078z"/>
	<path d="M474.904,208.334v-31.667c0-4.142-3.357-7.5-7.5-7.5s-7.5,3.358-7.5,7.5v30.914H296.563V137.06
		c0-45.034,36.638-81.671,81.671-81.671s81.671,36.637,81.671,81.671v14.605c0,4.142,3.357,7.5,7.5,7.5s7.5-3.358,7.5-7.5V137.06
		c0-44.541-30.281-82.135-71.336-93.296V21.902c0-11.933-9.708-21.641-21.641-21.641h-7.393c-11.93,0-21.635,9.708-21.635,21.641
		v21.861c-31.296,8.507-56.328,32.374-66.461,62.972H33.93c-18.709,0-33.93,15.221-33.93,33.93v255.487c0,4.142,3.357,7.5,7.5,7.5
		s7.5-3.358,7.5-7.5V179.736h249.059c4.143,0,7.5-3.358,7.5-7.5s-3.357-7.5-7.5-7.5H15v-24.07c0-10.438,8.492-18.93,18.93-18.93
		h248.852c-0.799,4.993-1.219,10.11-1.219,15.324v71.274c-17.148,3.486-30.094,18.679-30.094,36.841
		c0,20.729,16.865,37.594,37.595,37.594h49.274c3.531,18.816,20.072,33.102,39.897,33.102c19.826,0,36.367-14.286,39.898-33.102H423
		v188.036c0,10.438-8.492,18.93-18.93,18.93H33.93c-10.438,0-18.93-8.492-18.93-18.93v-49.651c0-4.142-3.357-7.5-7.5-7.5
		s-7.5,3.358-7.5,7.5v49.651c0,18.709,15.221,33.93,33.93,33.93H404.07c18.709,0,33.93-15.221,33.93-33.93V282.77h29.402
		c20.729,0,37.595-16.865,37.595-37.594C504.997,227.014,492.052,211.821,474.904,208.334z M367.9,21.902
		c0-3.662,2.977-6.641,6.635-6.641h7.393c3.662,0,6.641,2.979,6.641,6.641v19.04c-3.396-0.363-6.844-0.553-10.335-0.553
		c-3.49,0-6.937,0.191-10.333,0.553V21.902z M378.234,300.872c-11.509,0-21.266-7.633-24.48-18.102h48.961
		C399.5,293.238,389.743,300.872,378.234,300.872z M467.402,267.77H289.063c-12.459,0-22.595-10.136-22.595-22.594
		c0-12.448,10.118-22.576,22.562-22.594c0.011,0,0.021,0.001,0.032,0.001c0.016,0,0.032-0.002,0.048-0.002h178.245
		c0.016,0,0.032,0.002,0.048,0.002c0.011,0,0.021-0.001,0.031-0.001c12.444,0.018,22.561,10.146,22.561,22.594
		C489.997,257.634,479.861,267.77,467.402,267.77z"/>
	<path d="M42.361,334.587v12.24c0,7.91,5.168,14.625,12.301,16.976l10.271,78.274c1.993,15.181,15.042,26.629,30.354,26.629h100.149
		c15.312,0,28.361-11.448,30.354-26.63l10.27-78.273c7.133-2.351,12.301-9.067,12.301-16.977v-12.24
		c0-9.859-8.021-17.88-17.88-17.88h-60.62v-22.5c0-13.509-10.99-24.5-24.5-24.5s-24.5,10.991-24.5,24.5v22.5H60.242
		C50.383,316.707,42.361,324.728,42.361,334.587z M210.917,440.125c-1.016,7.743-7.671,13.582-15.48,13.582H95.287
		c-7.81,0-14.465-5.839-15.48-13.581l-9.897-75.419h50.951v10.5c0,13.509,10.99,24.5,24.5,24.5s24.5-10.991,24.5-24.5v-10.5h50.951
		L210.917,440.125z M230.481,331.707c1.588,0,2.88,1.292,2.88,2.88v12.24c0,1.588-1.292,2.88-2.88,2.88h-60.62v-18H230.481z
		 M135.861,294.207c0-5.238,4.262-9.5,9.5-9.5s9.5,4.262,9.5,9.5v81c0,5.238-4.262,9.5-9.5,9.5s-9.5-4.262-9.5-9.5V294.207z
		 M57.361,334.587c0-1.588,1.292-2.88,2.881-2.88h60.619v18H60.242c-1.589,0-2.881-1.292-2.881-2.88V334.587z"/>
	<path d="M63.073,214.165h142.493c4.143,0,7.5-3.358,7.5-7.5s-3.357-7.5-7.5-7.5H63.073c-4.143,0-7.5,3.358-7.5,7.5
		S58.931,214.165,63.073,214.165z"/>
	<path d="M63.073,249.436h95.995c4.143,0,7.5-3.358,7.5-7.5s-3.357-7.5-7.5-7.5H63.073c-4.143,0-7.5,3.358-7.5,7.5
		S58.931,249.436,63.073,249.436z"/>
	<path d="M286.561,397.655h95.995c4.143,0,7.5-3.358,7.5-7.5s-3.357-7.5-7.5-7.5h-95.995c-4.143,0-7.5,3.358-7.5,7.5
		S282.418,397.655,286.561,397.655z"/>
	<path d="M286.561,432.926h95.995c4.143,0,7.5-3.358,7.5-7.5s-3.357-7.5-7.5-7.5h-95.995c-4.143,0-7.5,3.358-7.5,7.5
		S282.418,432.926,286.561,432.926z"/>
</g>
<g>
</g>
<g>
</g>
<g>
</g>
<g>
</g>
<g>
</g>
<g>
</g>
<g>
</g>
<g>
</g>
<g>
</g>
<g>
</g>
<g>
</g>
<g>
</g>
<g>
</g>
<g>
</g>
<g>
</g>
</svg>
