<?xml version="1.0" encoding="iso-8859-1"?>
<!-- Generator: Adobe Illustrator 19.0.0, SVG Export Plug-In . SVG Version: 6.00 Build 0)  -->
<svg version="1.1" id="Layer_1" xmlns="http://www.w3.org/2000/svg" xmlns:xlink="http://www.w3.org/1999/xlink" x="0px" y="0px"
	 viewBox="0 0 505 505" style="enable-background:new 0 0 505 505;" xml:space="preserve">
<g>
	<path d="M457.222,7.859H399.5h-98h-98h-97.997H105.5H47.781c-26.345,0-47.778,21.433-47.778,47.778L0,345.353
		c0,27.577,22.436,50.012,50.012,50.012h44.646c4.142,0,7.5-3.358,7.5-7.5s-3.358-7.5-7.5-7.5H50.012
		c-18.464,0-33.626-14.37-34.913-32.512h474.802c-1.287,18.142-16.449,32.512-34.913,32.512H119.66c-4.142,0-7.5,3.358-7.5,7.5
		s3.358,7.5,7.5,7.5h38.043l-9.96,41.72h-20.742c-21.55,0-39.083,17.533-39.083,39.083v13.473c0,4.142,3.358,7.5,7.5,7.5h314.163
		c4.142,0,7.5-3.358,7.5-7.5v-13.473c0-21.55-17.533-39.083-39.083-39.083h-20.742l-9.96-41.72h107.691
		c27.577,0,50.012-22.436,50.012-50.012V182.735c0-4.142-3.358-7.5-7.5-7.5s-7.5,3.358-7.5,7.5v150.118h-82.328
		c39.71-21.348,66.77-63.297,66.77-111.451c0-4.142-3.358-7.5-7.5-7.5h-75.299c-4.142,0-7.5,3.358-7.5,7.5s3.358,7.5,7.5,7.5h33.483
		c-3.785,39.227-36.928,70-77.131,70s-73.345-30.773-77.131-70h95.777c4.142,0,7.5-3.358,7.5-7.5s-3.358-7.5-7.5-7.5H229.048
		c-4.142,0-7.5,3.358-7.5,7.5c0,48.154,27.06,90.103,66.77,111.451h-91.603c9.026-9.123,14.612-21.656,14.612-35.471
		c0-27.303-21.792-49.597-48.895-50.44c5.601-8.129,8.89-17.968,8.89-28.564c0-27.833-22.643-50.476-50.476-50.476
		c-27.832,0-50.475,22.643-50.475,50.476c0,10.607,3.296,20.456,8.908,28.589c-26.644,1.341-47.908,23.439-47.908,50.411
		c0,13.817,5.585,26.352,14.61,35.476H15V138.324c10.33,11.19,25.109,18.214,41.503,18.214c20.938,0,39.238-11.457,48.998-28.422
		c9.76,16.965,28.06,28.422,48.998,28.422c20.939,0,39.24-11.458,49-28.426c9.76,16.967,28.061,28.426,49,28.426
		s39.24-11.458,49-28.426c9.76,16.967,28.061,28.426,49,28.426s39.24-11.458,49-28.426c9.76,16.967,28.061,28.426,49,28.426
		c16.392,0,31.17-7.023,41.5-18.21v19.406c0,4.142,3.358,7.5,7.5,7.5s7.5-3.358,7.5-7.5V55.636
		C505,29.292,483.567,7.859,457.222,7.859z M402.082,476.169v5.973H102.918v-5.973c0-13.279,10.804-24.083,24.083-24.083h250.997
		C391.278,452.086,402.082,462.889,402.082,476.169z M341.835,437.086H163.165l9.96-41.72h158.751L341.835,437.086z
		 M236.798,228.902H255.8c3.831,47.51,43.715,85,92.195,85s88.364-37.49,92.195-85h19.003
		c-3.871,57.968-52.266,103.947-111.197,103.947S240.668,286.87,236.798,228.902z M117.712,332.853
		c1.276-1.29,2.477-2.652,3.609-4.073c1.133,1.427,2.338,2.786,3.609,4.073H117.712z M196.327,297.382
		c0,19.558-15.917,35.47-35.48,35.47c-13.225,0-25.228-7.317-31.346-18.862c1.82-5.206,2.822-10.792,2.822-16.612
		s-1.002-11.407-2.822-16.613c6.118-11.544,18.121-18.863,31.346-18.863C180.41,261.902,196.327,277.818,196.327,297.382z
		 M120.847,182.902c19.562,0,35.476,15.914,35.476,35.476s-15.914,35.476-35.476,35.476c-19.561,0-35.475-15.914-35.475-35.476
		S101.286,182.902,120.847,182.902z M46.372,297.378c0-19.562,15.914-35.476,35.475-35.476c19.562,0,35.476,15.914,35.476,35.476
		s-15.914,35.476-35.476,35.476C62.286,332.853,46.372,316.939,46.372,297.378z M56.503,141.538c-22.883,0-41.5-18.617-41.5-41.5
		V55.636c0-18.074,14.704-32.778,32.778-32.778H98v77.18c0,0.022,0.002,0.045,0.002,0.067
		C97.965,122.958,79.364,141.538,56.503,141.538z M154.5,141.538c-22.861,0-41.462-18.58-41.498-41.432
		c0-0.022,0.002-0.045,0.002-0.067v-77.18H196v77.18C196,122.922,177.383,141.538,154.5,141.538z M252.5,141.538
		c-22.883,0-41.5-18.617-41.5-41.5v-77.18h83v77.18C294,122.922,275.383,141.538,252.5,141.538z M350.5,141.538
		c-22.883,0-41.5-18.617-41.5-41.5v-77.18h83v77.18C392,122.922,373.383,141.538,350.5,141.538z M448.5,141.538
		c-22.883,0-41.5-18.617-41.5-41.5v-77.18h50.222c18.074,0,32.778,14.704,32.778,32.778v44.402
		C490,122.922,471.383,141.538,448.5,141.538z"/>
	<path d="M315.235,243.239c-1.731-2.53-4.876-3.833-7.887-3.149c-2.871,0.653-5.124,2.964-5.703,5.849
		c-0.631,3.139,0.876,6.41,3.657,7.985c2.899,1.642,6.631,1.135,8.993-1.215C316.806,250.212,317.173,246.182,315.235,243.239z"/>
	<path d="M354.235,243.239c-1.731-2.53-4.875-3.833-7.887-3.149c-2.871,0.653-5.125,2.964-5.703,5.849
		c-0.63,3.142,0.873,6.408,3.657,7.985c2.9,1.642,6.63,1.135,8.993-1.215C355.806,250.212,356.173,246.182,354.235,243.239z"/>
	<path d="M380.755,243.239c-1.734,2.633-1.652,6.17,0.261,8.69c1.954,2.574,5.459,3.629,8.506,2.533
		c3.011-1.083,5.05-4.042,4.968-7.245c-0.075-2.943-1.911-5.608-4.625-6.738C386.581,239.111,382.745,240.324,380.755,243.239z"/>
	<path d="M327.025,267.118c-3.019,0.643-5.408,3.064-5.926,6.121c-0.542,3.202,1.132,6.477,4.026,7.931
		c2.819,1.415,6.281,0.896,8.558-1.284c2.328-2.229,2.961-5.808,1.546-8.702C333.758,268.176,330.315,266.458,327.025,267.118z"/>
	<path d="M371.655,268.239c-2.792-1.885-6.634-1.597-9.14,0.637c-2.221,1.98-3.054,5.127-2.136,7.951
		c0.985,3.033,3.926,5.152,7.116,5.152c3.121,0,6.02-2.033,7.059-4.977C375.696,273.766,374.475,270.166,371.655,268.239z"/>
	<path d="M128.915,210.939c2.542,6.017,11.34,6.063,13.854-0.003c1.254-3.027,0.343-6.62-2.204-8.687
		c-2.291-1.859-5.531-2.191-8.153-0.844C129.006,203.154,127.418,207.392,128.915,210.939z"/>
	<path d="M67.335,284.499c-2.706-1.825-6.401-1.62-8.919,0.44c-2.479,2.028-3.379,5.512-2.236,8.497
		c1.093,2.854,3.935,4.804,6.995,4.803c3.07,0,5.884-1.95,6.987-4.803C71.409,290.209,70.235,286.41,67.335,284.499z"/>
	<path d="M158.095,276.529c-1.21-3.02-4.44-4.904-7.658-4.587c-3.066,0.303-5.667,2.508-6.488,5.469
		c-1.794,6.475,5.55,11.893,11.231,8.325C158.24,283.814,159.471,279.861,158.095,276.529z"/>
</g>
<g>
</g>
<g>
</g>
<g>
</g>
<g>
</g>
<g>
</g>
<g>
</g>
<g>
</g>
<g>
</g>
<g>
</g>
<g>
</g>
<g>
</g>
<g>
</g>
<g>
</g>
<g>
</g>
<g>
</g>
</svg>
