<?xml version="1.0" encoding="iso-8859-1"?>
<!-- Generator: Adobe Illustrator 19.0.0, SVG Export Plug-In . SVG Version: 6.00 Build 0)  -->
<svg version="1.1" id="Layer_1" xmlns="http://www.w3.org/2000/svg" xmlns:xlink="http://www.w3.org/1999/xlink" x="0px" y="0px"
	 viewBox="0 0 505.876 505.876" style="enable-background:new 0 0 505.876 505.876;" xml:space="preserve">
<g>
	<path d="M50.261,35.627c-1.104-2.758-3.907-4.583-6.855-4.622c-3.224-0.042-6.179,2.089-7.186,5.144
		c-0.979,2.969,0.037,6.341,2.504,8.263c2.552,1.988,6.169,2.087,8.839,0.279C50.475,42.719,51.601,38.871,50.261,35.627z"/>
	<path d="M101.261,35.627c-1.104-2.758-3.907-4.583-6.855-4.622c-3.224-0.042-6.179,2.089-7.186,5.144
		c-0.979,2.969,0.037,6.341,2.504,8.263c2.552,1.988,6.169,2.087,8.839,0.279C101.475,42.719,102.601,38.871,101.261,35.627z"/>
	<path d="M75.761,35.627c-2.508-6.267-11.727-5.914-13.983,0.347c-1.059,2.938-0.111,6.347,2.301,8.324
		c2.507,2.056,6.143,2.236,8.856,0.48C75.934,42.835,77.122,38.922,75.761,35.627z"/>
	<path d="M464.28,298.007h-25.438V33.93c0-18.709-15.221-33.93-33.93-33.93H34.771C16.063,0,0.841,15.221,0.841,33.93v31.513
		c0,0.02-0.003,0.039-0.003,0.058s0.003,0.039,0.003,0.058v50.822c0,4.142,3.358,7.5,7.5,7.5s7.5-3.358,7.5-7.5V73h408v225.006
		H241.34c-22.474,0-40.758,18.284-40.758,40.758V383H34.771c-10.438,0-18.93-8.492-18.93-18.93V141.382c0-4.142-3.358-7.5-7.5-7.5
		s-7.5,3.358-7.5,7.5V364.07c0,18.709,15.221,33.93,33.93,33.93h165.81v67.118c0,22.474,18.284,40.758,40.758,40.758h222.94
		c22.474,0,40.758-18.284,40.758-40.758V338.765C505.038,316.291,486.754,298.007,464.28,298.007z M15.841,58V33.93
		c0-10.438,8.492-18.93,18.93-18.93h370.14c10.438,0,18.93,8.492,18.93,18.93V58H15.841z M241.34,313.007h222.94
		c14.203,0,25.758,11.555,25.758,25.758v3.896H215.582v-3.896C215.582,324.562,227.137,313.007,241.34,313.007z M464.28,490.876
		H241.34c-14.203,0-25.758-11.555-25.758-25.758V398h218.568c4.142,0,7.5-3.358,7.5-7.5s-3.358-7.5-7.5-7.5H215.582v-25.338h274.457
		V383h-30.887c-4.142,0-7.5,3.358-7.5,7.5s3.358,7.5,7.5,7.5h30.887v67.118C490.038,479.321,478.483,490.876,464.28,490.876z"/>
	<path d="M375.645,417.272h-45.669c-4.142,0-7.5,3.358-7.5,7.5s3.358,7.5,7.5,7.5h45.669c4.142,0,7.5-3.358,7.5-7.5
		S379.787,417.272,375.645,417.272z"/>
	<path d="M448.39,417.272h-45.669c-4.142,0-7.5,3.358-7.5,7.5s3.358,7.5,7.5,7.5h45.669c4.142,0,7.5-3.358,7.5-7.5
		S452.532,417.272,448.39,417.272z"/>
	<path d="M302.899,417.272H257.23c-4.142,0-7.5,3.358-7.5,7.5s3.358,7.5,7.5,7.5h45.669c4.142,0,7.5-3.358,7.5-7.5
		S307.042,417.272,302.899,417.272z"/>
	<path d="M88.711,281.285h136.132c4.142,0,7.5-3.358,7.5-7.5v-83.87l11.614,6.273c1.75,0.946,3.804,1.157,5.71,0.588
		c1.906-0.569,3.508-1.872,4.453-3.622l26.641-49.319c1.968-3.645,0.61-8.195-3.035-10.163l-49.319-26.64
		c-1.095-0.592-2.32-0.901-3.564-0.901H88.711c-1.245,0-2.469,0.31-3.564,0.901l-49.319,26.64
		c-3.645,1.968-5.003,6.519-3.035,10.163l26.641,49.319c0.945,1.75,2.547,3.053,4.453,3.622c1.905,0.569,3.959,0.357,5.71-0.588
		l11.614-6.273v83.87C81.211,277.927,84.569,281.285,88.711,281.285z M195.265,121.13c-3.508,18.049-19.428,31.72-38.488,31.72
		s-34.979-13.67-38.488-31.72H195.265z M69.067,179.426l-19.511-36.121l41.052-22.175h12.486
		c3.662,26.358,26.334,46.72,53.684,46.72s50.022-20.362,53.684-46.72h12.486l41.052,22.175l-19.511,36.121l-16.08-8.686
		c-2.324-1.256-5.137-1.196-7.406,0.157c-2.269,1.353-3.658,3.8-3.658,6.441v88.946H96.211v-88.946c0-2.642-1.39-5.088-3.658-6.441
		c-2.269-1.354-5.083-1.413-7.406-0.157L69.067,179.426z"/>
	<path d="M307.154,146.452h86.006c4.142,0,7.5-3.358,7.5-7.5s-3.358-7.5-7.5-7.5h-86.006c-4.142,0-7.5,3.358-7.5,7.5
		S303.012,146.452,307.154,146.452z"/>
	<path d="M307.154,182.497h86.006c4.142,0,7.5-3.358,7.5-7.5s-3.358-7.5-7.5-7.5h-86.006c-4.142,0-7.5,3.358-7.5,7.5
		S303.012,182.497,307.154,182.497z"/>
	<path d="M307.154,218.542h86.006c4.142,0,7.5-3.358,7.5-7.5s-3.358-7.5-7.5-7.5h-86.006c-4.142,0-7.5,3.358-7.5,7.5
		S303.012,218.542,307.154,218.542z"/>
	<path d="M307.154,254.586h46.912c4.142,0,7.5-3.358,7.5-7.5s-3.358-7.5-7.5-7.5h-46.912c-4.142,0-7.5,3.358-7.5,7.5
		S303.012,254.586,307.154,254.586z"/>
</g>
<g>
</g>
<g>
</g>
<g>
</g>
<g>
</g>
<g>
</g>
<g>
</g>
<g>
</g>
<g>
</g>
<g>
</g>
<g>
</g>
<g>
</g>
<g>
</g>
<g>
</g>
<g>
</g>
<g>
</g>
</svg>
