<?xml version="1.0" encoding="iso-8859-1"?>
<!-- Generator: Adobe Illustrator 19.0.0, SVG Export Plug-In . SVG Version: 6.00 Build 0)  -->
<svg version="1.1" id="Layer_1" xmlns="http://www.w3.org/2000/svg" xmlns:xlink="http://www.w3.org/1999/xlink" x="0px" y="0px"
	 viewBox="0 0 506.499 506.499" style="enable-background:new 0 0 506.499 506.499;" xml:space="preserve">
<g>
	<path d="M498.248,126.768c4.143,0,7.5-3.358,7.5-7.5V60.513c0-20.35-16.556-36.905-36.905-36.905h-44.092v-1.575
		C424.751,9.884,414.867,0,402.719,0h-74.935c-12.149,0-22.033,9.884-22.033,22.033v1.575h-55.095
		c-20.35,0-36.905,16.556-36.905,36.905v71.896H36.791c-19.872,0-36.04,16.167-36.04,36.04v302.01
		c0,19.873,16.168,36.04,36.04,36.04H62.25c4.143,0,7.5-3.358,7.5-7.5s-3.357-7.5-7.5-7.5H36.791c-11.602,0-21.04-9.438-21.04-21.04
		v-302.01c0-11.602,9.438-21.04,21.04-21.04h176.96v15h-175.5c-4.143,0-7.5,3.358-7.5,7.5v74.18c0,4.142,3.357,7.5,7.5,7.5h175.5
		v16.62h-175.5c-4.143,0-7.5,3.358-7.5,7.5v194.1c0,4.142,3.357,7.5,7.5,7.5h201.62c4.143,0,7.5-3.358,7.5-7.5v-66.33v-39.757
		c1.083,0.096,2.177,0.154,3.285,0.154h11.715v106.583c0,11.602-9.438,21.04-21.04,21.04H87.251c-4.143,0-7.5,3.358-7.5,7.5
		s3.357,7.5,7.5,7.5h154.08c19.872,0,36.04-16.167,36.04-36.04V363.876h191.472c20.35,0,36.905-16.555,36.905-36.905V144.269
		c0-4.142-3.357-7.5-7.5-7.5s-7.5,3.358-7.5,7.5v182.703c0,12.078-9.827,21.905-21.905,21.905H250.656
		c-12.078,0-21.905-9.827-21.905-21.905V60.513c0-12.079,9.827-21.905,21.905-21.905h55.095v15h-54.5c-4.143,0-7.5,3.358-7.5,7.5
		v265.269c0,4.142,3.357,7.5,7.5,7.5h216.997c4.143,0,7.5-3.358,7.5-7.5V61.108c0-4.142-3.357-7.5-7.5-7.5h-43.497v-15h44.092
		c12.078,0,21.905,9.827,21.905,21.905v58.755C490.748,123.41,494.105,126.768,498.248,126.768z M45.751,236.589v-59.18h168v59.18
		H45.751z M214.534,334.539h-32.97v-51.33h32.187v43.763C213.751,329.565,214.023,332.095,214.534,334.539z M111.549,462.309v-51.33
		h55.016v51.33H111.549z M111.549,395.979v-46.44h55.016v46.44H111.549z M45.751,349.539h50.798v46.44H45.751V349.539z
		 M111.549,334.539v-51.33h55.016v51.33H111.549z M96.549,283.209v51.33H45.751v-51.33H96.549z M45.751,410.979h50.798v51.33H45.751
		V410.979z M181.564,462.309v-51.33h50.807v51.33H181.564z M232.371,395.979h-50.807v-46.44h39.921
		c2.966,3.825,6.664,7.05,10.885,9.469V395.979z M320.751,22.033c0-3.878,3.155-7.033,7.033-7.033h74.935
		c3.878,0,7.032,3.155,7.032,7.033v1.575h-89V22.033z M460.748,68.608v250.269H258.751V68.608h47v0.628
		c0,12.149,9.884,22.033,22.033,22.033h74.935c12.148,0,22.032-9.884,22.032-22.033v-0.628H460.748z M320.751,68.608h89v0.628
		c0,3.878-3.154,7.033-7.032,7.033h-74.935c-3.878,0-7.033-3.155-7.033-7.033V68.608z M409.751,53.608h-89v-15h89V53.608z"/>
	<path d="M345.05,106.959c-3.729-1.812-8.215-0.259-10.024,3.466l-28.698,59.037l-13-23.4c-2.012-3.621-6.576-4.925-10.199-2.914
		c-3.621,2.012-4.925,6.578-2.914,10.198l20,36c1.325,2.385,3.838,3.858,6.556,3.858c0.068,0,0.137-0.001,0.206-0.003
		c2.796-0.076,5.317-1.702,6.54-4.218l35-72C350.327,113.258,348.774,108.77,345.05,106.959z"/>
	<path d="M435.251,160.769h-66c-4.143,0-7.5,3.358-7.5,7.5s3.357,7.5,7.5,7.5h66c4.143,0,7.5-3.358,7.5-7.5
		S439.394,160.769,435.251,160.769z"/>
	<path d="M361.751,136.269c0,4.142,3.357,7.5,7.5,7.5h66c4.143,0,7.5-3.358,7.5-7.5s-3.357-7.5-7.5-7.5h-66
		C365.108,128.769,361.751,132.127,361.751,136.269z"/>
	<path d="M345.05,201.423c-3.729-1.813-8.215-0.258-10.024,3.466l-28.698,59.037l-13-23.4c-2.012-3.621-6.576-4.926-10.199-2.914
		c-3.621,2.012-4.925,6.578-2.914,10.198l20,36c1.325,2.385,3.838,3.858,6.556,3.858c0.068,0,0.137-0.001,0.206-0.003
		c2.796-0.076,5.317-1.702,6.54-4.218l35-72C350.327,207.722,348.774,203.234,345.05,201.423z"/>
	<path d="M435.251,255.233h-66c-4.143,0-7.5,3.358-7.5,7.5s3.357,7.5,7.5,7.5h66c4.143,0,7.5-3.358,7.5-7.5
		S439.394,255.233,435.251,255.233z"/>
	<path d="M435.251,223.233h-66c-4.143,0-7.5,3.358-7.5,7.5s3.357,7.5,7.5,7.5h66c4.143,0,7.5-3.358,7.5-7.5
		S439.394,223.233,435.251,223.233z"/>
</g>
<g>
</g>
<g>
</g>
<g>
</g>
<g>
</g>
<g>
</g>
<g>
</g>
<g>
</g>
<g>
</g>
<g>
</g>
<g>
</g>
<g>
</g>
<g>
</g>
<g>
</g>
<g>
</g>
<g>
</g>
</svg>
