<?xml version="1.0" encoding="iso-8859-1"?>
<!-- Generator: Adobe Illustrator 19.0.0, SVG Export Plug-In . SVG Version: 6.00 Build 0)  -->
<svg version="1.1" id="Layer_1" xmlns="http://www.w3.org/2000/svg" xmlns:xlink="http://www.w3.org/1999/xlink" x="0px" y="0px"
	 viewBox="0 0 504.997 504.997" style="enable-background:new 0 0 504.997 504.997;" xml:space="preserve">
<g>
	<path d="M35.571,63.237c1.145,2.774,3.928,4.63,6.93,4.63c3.143,0,5.989-2.025,7.055-4.971c1.04-2.876,0.159-6.208-2.159-8.2
		c-2.572-2.21-6.394-2.406-9.18-0.475C35.342,56.214,34.277,60.005,35.571,63.237z"/>
	<path d="M86.571,63.237c2.56,6.199,11.728,5.967,13.983-0.341c1.03-2.882,0.166-6.203-2.157-8.2
		c-2.538-2.182-6.269-2.394-9.056-0.559C86.371,56.093,85.26,59.963,86.571,63.237z"/>
	<path d="M63.832,66.607c5.739,3.783,13.36-1.8,11.342-8.411c-1.958-6.415-11.161-7.131-13.984-0.961
		C59.684,60.527,60.789,64.604,63.832,66.607z"/>
	<path d="M475.464,286.754c-2.74-3.106-7.479-3.403-10.586-0.663c-3.106,2.74-3.403,7.479-0.663,10.586
		c16.625,18.847,25.782,43.083,25.782,68.244c0,56.909-46.299,103.208-103.208,103.208c-56.909,0-103.208-46.299-103.208-103.208
		s46.299-103.208,103.208-103.208c22.432,0,43.761,7.072,61.68,20.45c3.319,2.479,8.019,1.796,10.497-1.523
		c2.478-3.319,1.796-8.019-1.523-10.497c-20.531-15.329-44.963-23.431-70.654-23.431c-28.766,0-55.162,10.333-75.68,27.477
		c-0.336-1.422-0.678-2.837-1.018-4.239c-1.968-8.125-3.826-15.799-3.832-22.421c-0.006-7.02,1.861-14.983,3.838-23.413
		c3.792-16.166,7.712-32.883-0.571-47.267c-8.015-13.9-24.182-18.871-39.816-23.678c-8.145-2.504-16.567-5.094-23.041-8.83
		c-6.469-3.736-12.921-9.733-19.161-15.532c-11.977-11.133-24.359-22.643-40.395-22.643c-0.01,0-0.022,0-0.032,0
		c-16.593,0.016-29.105,11.766-41.206,23.129c-0.958,0.9-1.916,1.799-2.874,2.691c-3.032,2.822-3.203,7.567-0.381,10.6
		s7.568,3.203,10.6,0.382c0.975-0.907,1.949-1.822,2.924-2.738c10.434-9.799,20.29-19.054,30.952-19.064c0.005,0,0.011,0,0.016,0
		c10.141,0,19.877,9.05,30.185,18.63c6.85,6.367,13.934,12.951,21.873,17.536c7.943,4.585,17.189,7.428,26.132,10.177
		c13.454,4.137,26.162,8.044,31.228,16.83c5.323,9.242,2.234,22.41-1.036,36.352c-2.085,8.893-4.243,18.09-4.234,26.851
		c0.007,8.405,2.166,17.318,4.253,25.938c1.047,4.322,2.117,8.758,2.891,13.039c-9.843,11.084-17.64,24.022-22.788,38.221
		c-3.816,1.33-7.852,2.524-11.791,3.682c-8.523,2.506-17.337,5.098-24.629,9.295c-7.589,4.372-14.472,10.836-21.128,17.087
		c-10.439,9.803-20.299,19.062-30.965,19.072c-0.005,0-0.011,0-0.016,0c-10.141,0-19.877-9.049-30.185-18.63
		c-6.85-6.367-13.934-12.951-21.872-17.535c-7.939-4.584-17.184-7.428-26.124-10.177c-13.456-4.138-26.164-8.047-31.23-16.845
		c-5.327-9.236-2.239-22.403,1.03-36.344c2.085-8.891,4.241-18.085,4.233-26.847c-0.008-8.407-2.169-17.328-4.259-25.956
		c-3.413-14.091-6.637-27.4-0.985-37.187c5.652-9.793,18.793-13.655,32.706-17.744c8.516-2.503,17.321-5.091,24.603-9.286
		c3.589-2.068,4.823-6.654,2.755-10.243s-6.654-4.823-10.242-2.755c-5.736,3.305-13.318,5.533-21.345,7.892
		c-15.38,4.521-32.813,9.645-41.466,24.636c-8.653,14.984-4.376,32.641-0.603,48.219c1.97,8.133,3.831,15.816,3.837,22.439
		c0.006,7.019-1.86,14.979-3.837,23.408c-3.791,16.167-7.711,32.886,0.577,47.258c8.009,13.91,24.179,18.884,39.817,23.693
		c8.143,2.504,16.563,5.094,23.032,8.83c6.469,3.736,12.921,9.733,19.161,15.532c11.978,11.133,24.359,22.644,40.395,22.643
		c0.01,0,0.022,0,0.032,0c16.596-0.015,29.113-11.77,41.219-23.137c6.31-5.925,12.27-11.522,18.346-15.022
		c5.746-3.307,13.338-5.54,21.375-7.903c0.915-0.269,1.84-0.544,2.764-0.818c-1.464,7.419-2.239,15.082-2.239,22.924
		c0,14.014,2.457,27.463,6.953,39.947H33.93c-10.438,0-18.93-8.492-18.93-18.93V94.872h408v146.526c0,4.142,3.358,7.5,7.5,7.5
		s7.5-3.358,7.5-7.5v-185.6c0-18.709-15.221-33.93-33.93-33.93H33.93C15.221,21.868,0,37.089,0,55.798v330.14
		c0,18.709,15.221,33.93,33.93,33.93h248.225c19.815,37.58,59.279,63.261,104.634,63.261c65.18,0,118.208-53.028,118.208-118.208
		C504.997,336.103,494.508,308.343,475.464,286.754z M33.93,36.868h370.14c10.438,0,18.93,8.492,18.93,18.93v24.074H15V55.798
		C15,45.36,23.492,36.868,33.93,36.868z"/>
	<path d="M386.789,279.139c-47.3,0-85.782,38.482-85.782,85.782s38.482,85.782,85.782,85.782s85.782-38.482,85.782-85.782
		S434.089,279.139,386.789,279.139z M386.789,435.703c-39.029,0-70.782-31.753-70.782-70.782s31.753-70.782,70.782-70.782
		s70.782,31.753,70.782,70.782S425.818,435.703,386.789,435.703z"/>
	<path d="M386.789,323.398c4.142,0,7.5-3.358,7.5-7.5v-7.333c0-4.142-3.358-7.5-7.5-7.5s-7.5,3.358-7.5,7.5v7.333
		C379.289,320.04,382.647,323.398,386.789,323.398z"/>
	<path d="M386.789,406.731c-4.142,0-7.5,3.358-7.5,7.5v7.333c0,4.142,3.358,7.5,7.5,7.5s7.5-3.358,7.5-7.5v-7.333
		C394.289,410.089,390.931,406.731,386.789,406.731z"/>
	<path d="M428.456,365.065c0,4.142,3.358,7.5,7.5,7.5h7.333c4.142,0,7.5-3.358,7.5-7.5s-3.358-7.5-7.5-7.5h-7.333
		C431.813,357.565,428.456,360.923,428.456,365.065z"/>
	<path d="M337.623,357.565h-7.333c-4.142,0-7.5,3.358-7.5,7.5s3.358,7.5,7.5,7.5h7.333c4.142,0,7.5-3.358,7.5-7.5
		S341.765,357.565,337.623,357.565z"/>
	<path d="M401.833,357.421h-7.544v-14.523c0-4.142-3.358-7.5-7.5-7.5s-7.5,3.358-7.5,7.5v22.023c0,4.142,3.358,7.5,7.5,7.5h15.044
		c4.142,0,7.5-3.358,7.5-7.5S405.975,357.421,401.833,357.421z"/>
	<path d="M116.604,265.529c-4.5,0-6.958-2.065-8.934-3.724c-1.31-1.1-2.441-2.051-3.816-2.05c-2.725,0-4.775,3.488-4.775,5.75
		c0,4.626,7.623,9.8,17.824,9.8c11.318,0,18.35-6.428,18.35-16.775c0-11.812-8.646-15.48-15.594-18.428
		c-4.738-2.01-8.481-3.599-8.481-7.071c0-3.352,2.907-5.275,7.975-5.275c3.799,0,5.831,1.043,7.464,1.882
		c1.012,0.52,1.887,0.969,2.886,0.969c3.072,0,4.4-3.758,4.4-5.675c0-5.131-9.271-6.5-14.75-6.5c-9.052,0-18.724,4.072-18.724,15.5
		c0,10.224,7.64,13.617,14.381,16.61c5.201,2.31,9.693,4.304,9.693,8.963C124.503,263.946,120.422,265.529,116.604,265.529z"/>
	<path d="M152.036,272.316l2.746-9.612h16.42l2.744,9.602c0.278,1.06,1.161,2.323,3.783,2.323c2.711,0,6.65-1.772,6.65-4.55
		c0-0.242-0.058-0.462-0.119-0.695l-14.527-47.372c-0.808-2.696-4.03-3.656-6.776-3.656c0,0-0.001,0-0.002,0
		c-2.587,0-5.895,0.958-6.703,3.653l-14.481,47.198c-0.1,0.397-0.166,0.673-0.166,0.872c0,2.819,3.873,4.55,6.65,4.55
		C150.877,274.628,151.76,273.365,152.036,272.316z M157.091,254.054l5.863-20.69l5.863,20.69L157.091,254.054z"/>
	<path d="M198.433,218.806c-3.265,0-5.375,1.374-5.375,3.5v48.748c0,2.456,2.475,3.575,4.774,3.575h23.774
		c2.248,0,3.424-2.402,3.424-4.775c0-1.224-0.286-2.365-0.805-3.214c-0.616-1.006-1.545-1.561-2.619-1.561c0,0-0.001,0-0.001,0
		l-17.8,0v-42.773C203.807,219.888,201.108,218.806,198.433,218.806z"/>
	<path d="M265.333,228.355c2.105,0,3.575-1.994,3.575-4.85c0-2.264-1.12-4.7-3.575-4.7h-26.699c-2.299,0-4.774,1.119-4.774,3.575
		v48.673c0,2.456,2.475,3.575,4.774,3.575h26.699c2.457,0,3.575-2.436,3.575-4.7c0-2.856-1.47-4.85-3.575-4.85h-20.724v-14.074
		l10.9,0c2.346,0,3.574-2.138,3.574-4.25c0-2.187-1.229-4.4-3.574-4.4l-10.9,0v-13.999H265.333z"/>
	<path d="M400.636,141.719h-58.497c-4.142,0-7.5,3.358-7.5,7.5s3.358,7.5,7.5,7.5h58.497c4.142,0,7.5-3.358,7.5-7.5
		S404.778,141.719,400.636,141.719z"/>
	<path d="M400.636,171.717h-58.497c-4.142,0-7.5,3.358-7.5,7.5s3.358,7.5,7.5,7.5h58.497c4.142,0,7.5-3.358,7.5-7.5
		S404.778,171.717,400.636,171.717z"/>
	<path d="M400.636,204.713h-58.497c-4.142,0-7.5,3.358-7.5,7.5s3.358,7.5,7.5,7.5h58.497c4.142,0,7.5-3.358,7.5-7.5
		S404.778,204.713,400.636,204.713z"/>
</g>
<g>
</g>
<g>
</g>
<g>
</g>
<g>
</g>
<g>
</g>
<g>
</g>
<g>
</g>
<g>
</g>
<g>
</g>
<g>
</g>
<g>
</g>
<g>
</g>
<g>
</g>
<g>
</g>
<g>
</g>
</svg>
