<?xml version="1.0" encoding="iso-8859-1"?>
<!-- Generator: Adobe Illustrator 19.0.0, SVG Export Plug-In . SVG Version: 6.00 Build 0)  -->
<svg version="1.1" id="Layer_1" xmlns="http://www.w3.org/2000/svg" xmlns:xlink="http://www.w3.org/1999/xlink" x="0px" y="0px"
	 viewBox="0 0 505 505" style="enable-background:new 0 0 505 505;" xml:space="preserve">
<g>
	<path d="M455.44,0.329H49.56C22.232,0.329,0,22.566,0,49.899v263.99c0,27.576,22.434,50.01,50.01,50.01h107.689l-9.959,41.72H127
		c-21.549,0-39.08,17.531-39.08,39.08v13.47c0,4.142,3.358,7.5,7.5,7.5h73.378l-3.277,30.705c-0.226,2.115,0.458,4.228,1.88,5.81
		c1.422,1.583,3.45,2.486,5.578,2.486l299.761-0.001c2.124,0,4.148-0.901,5.57-2.478c1.423-1.578,2.109-3.684,1.89-5.797
		l-5.717-55.021c-0.428-4.12-4.106-7.115-8.235-6.685c-4.12,0.428-7.112,4.115-6.685,8.235l4.857,46.746H354.296L337.287,330.31
		c-0.407-3.813-3.624-6.704-7.458-6.704H247.16l6.69-64.347h31.817v16.497c0,4.142,3.357,7.5,7.5,7.5s7.5-3.358,7.5-7.5v-16.497
		h92.994v16.497c0,4.142,3.357,7.5,7.5,7.5s7.5-3.358,7.5-7.5v-16.497h31.817l16.446,158.284c0.4,3.857,3.657,6.725,7.451,6.725
		c0.259,0,0.521-0.013,0.784-0.041c4.12-0.428,7.112-4.115,6.685-8.235l-5.548-53.394c22.226-5.177,38.702-25.251,38.702-48.71
		V49.899C505,22.566,482.767,0.329,455.44,0.329z M173.12,363.899h6.54l-4.453,41.72h-12.047L173.12,363.899z M102.92,450.669v-5.97
		c0-13.278,10.802-24.08,24.08-24.08h26.66h19.947l-3.208,30.05H102.92z M339.21,489.669l-157.889,0.001l16.124-151.064h125.641
		L339.21,489.669z M300.667,244.259v-17.997c0-25.639,20.858-46.497,46.497-46.497s46.497,20.859,46.497,46.497v17.997H300.667z
		 M408.662,244.259v-17.997c0-33.91-27.588-61.497-61.497-61.497s-61.497,27.588-61.497,61.497v17.997H247.09
		c-3.842,0-7.063,2.903-7.46,6.724l-5.24,50.396H105.13c-4.142,0-7.5,3.358-7.5,7.5s3.358,7.5,7.5,7.5h127.701l-0.751,7.227h-41.376
		c-3.834,0-7.051,2.892-7.458,6.704l-1.984,18.589H167.2H50.01c-18.464,0-33.626-14.372-34.911-32.515h65.027
		c4.142,0,7.5-3.358,7.5-7.5s-3.358-7.5-7.5-7.5H15V49.899c0-19.062,15.503-34.57,34.56-34.57h405.88
		c19.057,0,34.56,15.508,34.56,34.57v251.48h-30.063l-5.236-50.395c-0.397-3.822-3.618-6.725-7.46-6.725H408.662z M464.729,347.512
		l-3.235-31.133h28.406C488.849,331.08,478.581,343.479,464.729,347.512z"/>
	<path d="M237.711,93.375h-60.62v-22.5c0-13.509-10.991-24.5-24.5-24.5s-24.5,10.991-24.5,24.5v22.5h-60.62
		c-9.859,0-17.88,8.021-17.88,17.88v12.24c0,7.91,5.168,14.626,12.302,16.977l10.271,78.273c1.992,15.182,15.041,26.63,30.353,26.63
		h100.149c15.312,0,28.36-11.448,30.353-26.63l10.271-78.273c7.133-2.35,12.302-9.067,12.302-16.977v-12.24
		C255.591,101.396,247.57,93.375,237.711,93.375z M237.711,108.375c1.588,0,2.88,1.292,2.88,2.88v12.24
		c0,1.588-1.292,2.88-2.88,2.88h-60.62v-18H237.711z M143.091,70.875c0-5.238,4.262-9.5,9.5-9.5s9.5,4.262,9.5,9.5v81
		c0,5.238-4.262,9.5-9.5,9.5s-9.5-4.262-9.5-9.5V70.875z M64.591,111.255c0-1.588,1.292-2.88,2.88-2.88h60.62v18h-60.62
		c-1.588,0-2.88-1.292-2.88-2.88V111.255z M218.146,216.793c-1.017,7.743-7.671,13.582-15.48,13.582H102.517
		c-7.81,0-14.464-5.839-15.48-13.582l-9.896-75.418h50.952v10.5c0,13.509,10.991,24.5,24.5,24.5s24.5-10.991,24.5-24.5v-10.5h50.952
		L218.146,216.793z"/>
	<path d="M235.518,393.637v-32.248c0-4.142-3.358-7.5-7.5-7.5s-7.5,3.358-7.5,7.5v32.248c0,21.917,17.831,39.749,39.749,39.749
		c21.917,0,39.748-17.831,39.748-39.749v-32.248c0-4.142-3.357-7.5-7.5-7.5s-7.5,3.358-7.5,7.5v32.248
		c0,13.646-11.102,24.749-24.748,24.749S235.518,407.283,235.518,393.637z"/>
	<path d="M323.395,76.517h-32c-4.143,0-7.5,3.358-7.5,7.5s3.357,7.5,7.5,7.5h32c4.143,0,7.5-3.358,7.5-7.5
		S327.538,76.517,323.395,76.517z"/>
	<path d="M356.395,91.517h104c4.143,0,7.5-3.358,7.5-7.5s-3.357-7.5-7.5-7.5h-104c-4.143,0-7.5,3.358-7.5,7.5
		S352.252,91.517,356.395,91.517z"/>
	<path d="M323.395,111.518h-32c-4.143,0-7.5,3.358-7.5,7.5s3.357,7.5,7.5,7.5h32c4.143,0,7.5-3.358,7.5-7.5
		S327.538,111.518,323.395,111.518z"/>
	<path d="M467.895,119.018c0-4.142-3.357-7.5-7.5-7.5h-104c-4.143,0-7.5,3.358-7.5,7.5s3.357,7.5,7.5,7.5h104
		C464.538,126.518,467.895,123.16,467.895,119.018z"/>
</g>
<g>
</g>
<g>
</g>
<g>
</g>
<g>
</g>
<g>
</g>
<g>
</g>
<g>
</g>
<g>
</g>
<g>
</g>
<g>
</g>
<g>
</g>
<g>
</g>
<g>
</g>
<g>
</g>
<g>
</g>
</svg>
