<?xml version="1.0" encoding="iso-8859-1"?>
<!-- Generator: Adobe Illustrator 19.0.0, SVG Export Plug-In . SVG Version: 6.00 Build 0)  -->
<svg version="1.1" id="Layer_1" xmlns="http://www.w3.org/2000/svg" xmlns:xlink="http://www.w3.org/1999/xlink" x="0px" y="0px"
	 viewBox="0 0 499.902 499.902" style="enable-background:new 0 0 499.902 499.902;" xml:space="preserve">
<g>
	<path d="M365.803,0H134.097C110.37,0,91.066,19.304,91.066,43.032V456.87c0,23.728,19.304,43.031,43.031,43.031h13.366
		c4.143,0,7.5-3.358,7.5-7.5s-3.357-7.5-7.5-7.5h-13.366c-15.456,0-28.031-12.575-28.031-28.031V43.032
		c0-15.457,12.575-28.032,28.031-28.032h231.706c15.457,0,28.032,12.575,28.032,28.032V456.87c0,15.457-12.575,28.031-28.032,28.031
		h-85.274c5.105-6.562,8.157-14.797,8.157-23.735c0-8.939-3.052-17.174-8.157-23.736h73.279c14.021,0,25.43-11.403,25.43-25.42
		V87.581c0-14.017-11.408-25.42-25.43-25.42H146.088c-14.017,0-25.42,11.403-25.42,25.42v324.43c0,14.017,11.403,25.42,25.42,25.42
		h73.285c-5.105,6.562-8.157,14.797-8.157,23.736c0,8.939,3.052,17.173,8.157,23.735h-46.908c-4.143,0-7.5,3.358-7.5,7.5
		s3.357,7.5,7.5,7.5h193.339c23.729,0,43.032-19.304,43.032-43.031V43.032C408.836,19.304,389.532,0,365.803,0z M135.668,412.011
		V87.581c0-5.746,4.675-10.42,10.42-10.42h207.721c5.751,0,10.43,4.674,10.43,10.42v324.43c0,5.746-4.679,10.42-10.43,10.42H146.088
		C140.342,422.431,135.668,417.756,135.668,412.011z M226.215,461.166c0-13.088,10.647-23.735,23.735-23.735
		s23.735,10.648,23.735,23.735s-10.647,23.735-23.735,23.735S226.215,474.254,226.215,461.166z"/>
	<path d="M347.949,197.221c0-4.142-3.357-7.5-7.5-7.5h-10.287c4.265-5.916,6.788-13.167,6.788-21c0-19.851-16.15-36-36.001-36
		s-36,16.15-36,36v2.536c-4.416-2.561-9.538-4.036-15-4.036s-10.584,1.475-15,4.036v-2.536c0-19.851-16.15-36-36.001-36
		s-36,16.15-36,36c0,7.833,2.523,15.085,6.787,21h-10.286c-4.143,0-7.5,3.358-7.5,7.5v163c0,4.142,3.357,7.5,7.5,7.5h181
		c4.143,0,7.5-3.358,7.5-7.5V296.22c0-4.142-3.357-7.5-7.5-7.5s-7.5,3.358-7.5,7.5v56.501h-53V251.72h53v19.498
		c0,4.142,3.357,7.5,7.5,7.5s7.5-3.358,7.5-7.5V197.221z M279.949,168.721c0-11.58,9.421-21,21-21c11.58,0,21.001,9.421,21.001,21
		s-9.421,21-21.001,21h-21V168.721z M249.949,182.221c5.538,0,10.372,3.024,12.97,7.5h-25.941
		C239.577,185.246,244.411,182.221,249.949,182.221z M177.948,168.721c0-11.58,9.421-21,21-21c11.58,0,21.001,9.421,21.001,21v21
		h-21.001C187.369,189.721,177.948,180.301,177.948,168.721z M219.949,204.721v31.999h-53v-31.999H219.949z M166.949,251.72h53
		v101.001h-53V251.72z M234.949,352.721V244.298c0-0.026,0.004-0.051,0.004-0.077s-0.004-0.051-0.004-0.077v-39.422h30v148H234.949z
		 M279.949,236.72v-31.999h53v31.999H279.949z"/>
	<path d="M276.451,45.72c4.143,0,7.5-3.358,7.5-7.5s-3.357-7.5-7.5-7.5h-53c-4.143,0-7.5,3.358-7.5,7.5s3.357,7.5,7.5,7.5H276.451z"
		/>
</g>
<g>
</g>
<g>
</g>
<g>
</g>
<g>
</g>
<g>
</g>
<g>
</g>
<g>
</g>
<g>
</g>
<g>
</g>
<g>
</g>
<g>
</g>
<g>
</g>
<g>
</g>
<g>
</g>
<g>
</g>
</svg>
