<?xml version="1.0" encoding="iso-8859-1"?>
<!-- Generator: Adobe Illustrator 19.0.0, SVG Export Plug-In . SVG Version: 6.00 Build 0)  -->
<svg version="1.1" id="Layer_1" xmlns="http://www.w3.org/2000/svg" xmlns:xlink="http://www.w3.org/1999/xlink" x="0px" y="0px"
	 viewBox="0 0 505.671 505.671" style="enable-background:new 0 0 505.671 505.671;" xml:space="preserve">
<g>
	<g>
		<path style="fill:#C4E2F2;" d="M7.831,89.893v263.99c0,23.479,19.033,42.512,42.512,42.512h404.976
			c23.479,0,42.512-19.033,42.512-42.512V89.893c0-23.23-18.832-42.062-42.061-42.062H49.892
			C26.663,47.832,7.831,66.663,7.831,89.893z"/>
		<polygon style="fill:#2D303B;" points="351.664,453.119 252.834,475.639 153.994,453.119 167.534,396.399 248.634,366.579 
			338.124,396.399 342.504,414.759 		"/>
		<path style="fill:#3C3F4D;" d="M497.834,348.879v5c0,23.48-19.04,42.52-42.52,42.52H50.344c-23.48,0-42.51-19.04-42.51-42.52v-5
			H497.834z"/>
		<polygon style="fill:#3C3F4D;" points="351.664,453.119 200.494,453.119 209.654,414.759 342.504,414.759 		"/>
		<path style="fill:#2D303B;" d="M409.914,484.699v13.47H95.754v-13.47c0-17.44,14.14-31.58,31.58-31.58h251
			C395.774,453.119,409.914,467.259,409.914,484.699z"/>
		<path style="fill:#3C3F4D;" d="M409.914,484.699v13.47h-260.17v-13.47c0-17.44,14.14-31.58,31.59-31.58h197
			C395.774,453.119,409.914,467.259,409.914,484.699z"/>
		<polygon style="fill:#FF491F;" points="96.789,103.464 296.937,103.464 322.435,348.879 71.29,348.879 		"/>
		<polygon style="fill:#ED3618;" points="195.199,182.814 334.324,182.814 352.048,348.879 177.474,348.879 		"/>
		<polygon style="fill:#FFE14D;" points="214.199,182.814 353.324,182.814 371.048,348.879 196.474,348.879 		"/>
		<circle style="fill:#32CC77;" cx="389.518" cy="80.817" r="73.317"/>
	</g>
	<g>
		<path d="M497.835,299.269c4.143,0,7.5-3.358,7.5-7.5V89.889c0-26.068-20.239-47.484-45.829-49.404
			C445.521,16.311,419.397,0,389.518,0c-29.815,0-55.892,16.241-69.899,40.329h-74.177c-11.26-14.499-28.843-23.856-48.58-23.856
			c-33.909,0-61.497,27.588-61.497,61.497v17.999H96.789c-3.842,0-7.063,2.903-7.46,6.725L64.527,341.383H15.335V89.889
			c0-19.056,15.504-34.56,34.561-34.56h76.939c4.143,0,7.5-3.358,7.5-7.5s-3.357-7.5-7.5-7.5H49.896
			c-27.328,0-49.561,22.232-49.561,49.56v263.99c0,27.581,22.435,50.02,50.01,50.02h22.561c4.143,0,7.5-3.358,7.5-7.5
			s-3.357-7.5-7.5-7.5H50.345c-18.462,0-33.621-14.371-34.91-32.516h474.801c-1.29,18.145-16.453,32.516-34.92,32.516H97.907
			c-4.143,0-7.5,3.358-7.5,7.5s3.357,7.5,7.5,7.5h60.126l-9.958,41.716h-20.742c-21.551,0-39.083,17.533-39.083,39.083v13.473
			c0,4.142,3.357,7.5,7.5,7.5h314.163c4.143,0,7.5-3.358,7.5-7.5v-13.473c0-21.55-17.532-39.083-39.083-39.083h-20.742
			l-9.959-41.716h107.687c27.581,0,50.02-22.439,50.02-50.02v-37.108c0-4.142-3.357-7.5-7.5-7.5s-7.5,3.358-7.5,7.5v24.612H377.791
			l-17.01-159.365c-0.407-3.813-3.624-6.704-7.458-6.704h-41.375l-7.55-72.621c-0.397-3.821-3.618-6.724-7.46-6.724H258.36V77.97
			c0-7.994-1.55-15.629-4.338-22.642h58.821c-2.673,8.019-4.142,16.583-4.142,25.488c0,44.563,36.255,80.817,80.817,80.817
			s80.817-36.254,80.817-80.817c0-8.235-1.246-16.184-3.545-23.676c13.671,4.612,23.545,17.545,23.545,32.748v201.88
			C490.335,295.911,493.693,299.269,497.835,299.269z M402.413,484.698v5.973H103.25v-5.973c0-13.279,10.804-24.083,24.083-24.083
			H378.33C391.609,460.615,402.413,471.419,402.413,484.698z M342.167,445.615H163.496l9.958-41.716h158.753L342.167,445.615z
			 M362.706,341.378H204.817l16.124-151.064h84.144c0.07,0.001,0.139,0.001,0.209,0h41.287L362.706,341.378z M290.177,110.969
			l6.69,64.345h-82.668c-3.834,0-7.051,2.892-7.458,6.704l-17.009,159.361H79.608l23.941-230.41h31.816v16.496
			c0,4.142,3.357,7.5,7.5,7.5s7.5-3.358,7.5-7.5v-16.496h92.994v16.496c0,4.142,3.357,7.5,7.5,7.5s7.5-3.358,7.5-7.5v-16.496
			H290.177z M243.36,77.97v17.999h-92.994V77.97c0-25.639,20.858-46.497,46.497-46.497c10.173,0,19.586,3.293,27.249,8.856h-46.276
			c-4.143,0-7.5,3.358-7.5,7.5s3.357,7.5,7.5,7.5h59.618C241.209,62.034,243.36,69.754,243.36,77.97z M389.518,146.634
			c-36.292,0-65.817-29.525-65.817-65.817S353.226,15,389.518,15s65.817,29.525,65.817,65.817S425.81,146.634,389.518,146.634z"/>
		<path d="M283.761,270.093c-13.646,0-24.748-11.102-24.748-24.748v-32.249c0-4.142-3.357-7.5-7.5-7.5s-7.5,3.358-7.5,7.5v32.249
			c0,21.917,17.831,39.748,39.748,39.748c21.918,0,39.749-17.831,39.749-39.748v-32.249c0-4.142-3.357-7.5-7.5-7.5
			s-7.5,3.358-7.5,7.5v32.249C308.51,258.991,297.408,270.093,283.761,270.093z"/>
		<path d="M420.115,39.023c-3.729-1.811-8.215-0.258-10.024,3.466l-28.698,59.037l-13-23.4c-2.012-3.621-6.575-4.925-10.199-2.914
			c-3.621,2.011-4.925,6.578-2.914,10.198l20,36c1.325,2.385,3.838,3.858,6.556,3.858c0.068,0,0.137-0.001,0.206-0.003
			c2.796-0.076,5.317-1.703,6.54-4.218l35-72C425.392,45.322,423.839,40.834,420.115,39.023z"/>
		<path d="M470.393,198.277h-71.997c-4.143,0-7.5,3.358-7.5,7.5s3.357,7.5,7.5,7.5h71.997c4.143,0,7.5-3.358,7.5-7.5
			S474.536,198.277,470.393,198.277z"/>
		<path d="M470.393,233.279h-56.996c-4.143,0-7.5,3.358-7.5,7.5s3.357,7.5,7.5,7.5h56.996c4.143,0,7.5-3.358,7.5-7.5
			S474.536,233.279,470.393,233.279z"/>
	</g>
</g>
<g>
</g>
<g>
</g>
<g>
</g>
<g>
</g>
<g>
</g>
<g>
</g>
<g>
</g>
<g>
</g>
<g>
</g>
<g>
</g>
<g>
</g>
<g>
</g>
<g>
</g>
<g>
</g>
<g>
</g>
</svg>
