<?xml version="1.0" encoding="iso-8859-1"?>
<!-- Generator: Adobe Illustrator 19.0.0, SVG Export Plug-In . SVG Version: 6.00 Build 0)  -->
<svg version="1.1" id="Layer_1" xmlns="http://www.w3.org/2000/svg" xmlns:xlink="http://www.w3.org/1999/xlink" x="0px" y="0px"
	 viewBox="0 0 506.316 506.316" style="enable-background:new 0 0 506.316 506.316;" xml:space="preserve">
<g>
	<g>
		<path style="fill:#FF491F;" d="M173.232,273.699l158.996,12.368c0,0,110.502,10.781,123.978-24.257s-44.47-25.604-44.47-55.251
			s64.192-39.443,64.192-74.972s-66.374-17.286-86.588-37.5S387.369,7.5,351.839,7.5s-45.326,64.192-74.972,64.192
			s-20.214-57.946-55.251-44.47s-24.257,123.978-24.257,123.978l25.603,173.838"/>
		<g>
			<path style="fill:#3C3F4D;" d="M229.54,425.356c13.386-19.368,12.671-45.524-2.114-64.17l-111.337-14.228l55.152,93.333
				L229.54,425.356z"/>
			<path style="fill:#2C92BF;" d="M278.302,271.829c7.764-21.114,3.161-45.743-13.789-62.692
				c-16.949-16.949-41.578-21.553-62.692-13.789l-0.884,66.761L278.302,271.829z"/>
			<path style="fill:#1F81A3;" d="M264.952,209.59c16.589,16.928,21.044,41.309,13.35,62.24l-67.932-8.535l47.588-11.809
				C268.487,233.589,273.96,219.206,264.952,209.59z"/>
			<polygon style="fill:#2C92BF;" points="210.37,263.295 203.271,264.44 203.851,262.474 			"/>
			<polygon style="fill:#E6E6E6;" points="162.796,156.323 317.334,310.862 207.323,372.437 101.221,266.335 			"/>
			<polygon style="fill:#CCCCCC;" points="258.093,251.62 317.334,310.862 207.323,372.437 165.228,330.342 			"/>
			<path style="fill:#2C92BF;" d="M101.221,266.333L36.8,330.754c-8.549,8.549-8.549,22.41,0,30.959l75.14,75.14
				c8.549,8.549,22.41,8.549,30.959,0l64.421-64.421"/>
			<path style="fill:#1F81A3;" d="M141.486,408.569c-8.549,8.549-22.41,8.549-30.959,0l-75.14-75.14
				c-0.166-0.166-0.322-0.337-0.481-0.507c-6.592,8.584-5.965,20.93,1.895,28.79l75.14,75.14c8.549,8.549,22.41,8.549,30.959,0
				l64.421-64.421l-14.848-14.848L141.486,408.569z"/>
			<path style="fill:#E6E6E6;" d="M269.64,471.283l-23.794,23.794c-4.349,4.349-11.187,4.978-16.264,1.485l-65.329-45.007
				l-21.348-14.701l42.144-42.144l21.348,14.701l61.455,42.334C274.427,456.271,275.275,465.647,269.64,471.283z"/>
			<polygon style="fill:#CCCCCC;" points="206.396,409.411 164.253,451.555 142.905,436.854 185.049,394.71 			"/>
		</g>
	</g>
	<g>
		<path d="M286.856,269.779c6.664-23.257,0.228-48.678-17.039-65.945c-17.267-17.267-42.687-23.706-65.946-17.04l-35.774-35.774
			c-1.661-1.66-4.001-2.448-6.332-2.126c-2.327,0.322-4.369,1.716-5.517,3.766L95.183,261.764L31.498,325.45
			c-5.552,5.551-8.609,12.932-8.609,20.783c0,7.851,3.058,15.232,8.608,20.783l75.141,75.141c5.729,5.729,13.256,8.594,20.782,8.594
			c5.493,0,10.983-1.533,15.778-4.585l16.798,11.571c3.409,2.349,8.08,1.489,10.431-1.922c2.35-3.411,1.489-8.082-1.923-10.431
			l-13.931-9.595l31.363-31.362l39.313,27.081c0.01,0.007,0.018,0.014,0.027,0.021c0.007,0.005,0.014,0.007,0.021,0.012
			l38.304,26.385c1.769,1.218,2.174,2.939,2.257,3.857c0.084,0.918-0.002,2.685-1.521,4.203l-23.789,23.789
			c-1.797,1.797-4.619,2.054-6.71,0.613l-48.077-33.117c-3.413-2.351-8.082-1.49-10.432,1.922c-2.35,3.411-1.489,8.081,1.922,10.431
			l48.077,33.117c3.486,2.402,7.499,3.578,11.49,3.578c5.228,0,10.417-2.017,14.337-5.937l23.789-23.789
			c4.268-4.268,6.4-10.163,5.852-16.174c-0.55-6.011-3.715-11.422-8.686-14.845l-32.517-22.398
			c9.687-18.625,9.122-41.301-1.391-59.429l82.791-46.339c2.05-1.147,3.444-3.189,3.766-5.516c0.322-2.327-0.464-4.67-2.125-6.332
			L286.856,269.779z M259.21,214.441c11.303,11.302,16.622,27.104,14.914,42.606l-57.52-57.519
			C232.105,197.82,247.908,203.139,259.21,214.441z M117.244,431.55l-75.141-75.14c-2.718-2.718-4.215-6.333-4.215-10.177
			c0-3.844,1.497-7.458,4.216-10.176l59.117-59.117l95.493,95.492l-59.119,59.118C131.986,437.16,122.855,437.16,117.244,431.55z
			 M227.117,414.578L196.72,393.64l15.171-15.171l13.225-7.402C232.884,384.281,233.621,400.744,227.117,414.578z M208.611,363.115
			l-98.073-98.072l53.96-96.408l140.521,140.521L208.611,363.115z"/>
		<path d="M107.605,315.14c-2.93-2.929-7.678-2.929-10.607,0l-33.939,33.939c-2.929,2.929-2.929,7.678,0,10.606
			c1.465,1.464,3.385,2.197,5.304,2.197s3.839-0.732,5.304-2.197l33.939-33.939C110.534,322.818,110.534,318.069,107.605,315.14z"/>
		<path d="M127.231,334.766c-2.93-2.929-7.678-2.929-10.607,0l-33.939,33.939c-2.929,2.929-2.929,7.678,0,10.606
			c1.465,1.464,3.385,2.197,5.304,2.197s3.839-0.732,5.304-2.197l33.939-33.939C130.16,342.444,130.16,337.695,127.231,334.766z"/>
		<path d="M146.857,354.392c-2.93-2.929-7.678-2.929-10.607,0l-33.939,33.939c-2.929,2.929-2.929,7.678,0,10.606
			c1.465,1.464,3.385,2.197,5.304,2.197s3.839-0.732,5.304-2.197l33.939-33.939C149.786,362.07,149.786,357.321,146.857,354.392z"/>
		<path d="M197.35,158.7c0.243,0,0.489-0.012,0.737-0.036c4.122-0.402,7.139-4.07,6.736-8.193c-0.026-0.27-2.62-27.375-0.988-55.777
			c1.965-34.183,9.427-56.224,20.473-60.473c11.045-4.247,14.11-0.454,21.462,16.311c5.599,12.769,12.566,28.659,31.097,28.659
			c18.194,0,29.336-16.926,40.109-33.294l1.43-2.169c2.282-3.457,1.33-8.109-2.126-10.391c-3.456-2.281-8.108-1.331-10.392,2.126
			l-1.441,2.187c-8.984,13.649-17.47,26.542-27.58,26.542c-7.868,0-11.493-6.303-17.359-19.683
			c-5.961-13.595-14.967-34.142-40.584-24.288c-17.775,6.837-27.609,30.916-30.063,73.612c-1.699,29.551,0.921,56.943,1.033,58.094
			C190.272,155.803,193.536,158.7,197.35,158.7z"/>
		<path d="M445.779,178.978c17.647-11.615,37.648-24.78,37.648-47.391c0-12.514-6.33-21.463-18.815-26.598
			c-9.503-3.909-21.634-5.204-33.364-6.456c-14.781-1.578-30.066-3.209-36.605-9.749c-6.54-6.539-8.172-21.824-9.749-36.605
			c-1.252-11.731-2.547-23.861-6.456-33.365C373.302,6.33,364.353,0,351.839,0c-11.775,0-22.396,5.583-32.472,17.066
			c-2.731,3.114-2.422,7.853,0.691,10.584c3.113,2.731,7.853,2.422,10.584-0.692C337.899,18.688,344.436,15,351.839,15
			c12.619,0,15.325,12.416,18.139,38.771c1.854,17.371,3.771,35.334,14.057,45.62c10.286,10.286,28.249,12.203,45.62,14.057
			c26.355,2.813,38.772,5.52,38.772,18.139c0,14.526-15.007,24.404-30.896,34.861c-16.37,10.774-33.297,21.916-33.297,40.111
			c0,18.53,15.891,25.498,28.659,31.097c16.767,7.352,20.559,10.42,16.312,21.462c-3.268,8.496-17.215,15.012-39.271,18.349
			c-4.096,0.62-6.913,4.442-6.294,8.538c0.563,3.715,3.76,6.379,7.406,6.379c0.373,0,0.752-0.028,1.132-0.085
			c28.819-4.36,45.511-13.452,51.027-27.795c9.852-25.615-10.693-34.623-24.288-40.584c-13.379-5.867-19.683-9.492-19.683-17.359
			C419.235,196.449,432.129,187.963,445.779,178.978z"/>
		<path d="M389.526,279.544c-28.639,1.722-56.296-0.914-56.571-0.941c-4.119-0.401-7.79,2.615-8.191,6.738
			c-0.401,4.122,2.613,7.79,6.735,8.191c0.879,0.086,16.764,1.605,37.234,1.605c6.849,0,14.211-0.17,21.695-0.621
			c4.134-0.249,7.284-3.802,7.035-7.937C397.215,282.445,393.665,279.297,389.526,279.544z"/>
		<path d="M317.015,145.881v-21.507c0-7.094-2.232-12.458-6.636-15.944c-3.879-3.071-9.331-4.628-16.207-4.628
			c-6.932,0-12.404,1.557-16.265,4.628c-4.365,3.472-6.579,8.837-6.579,15.944v21.507c0,7.108,2.214,12.472,6.579,15.944
			c3.86,3.071,9.333,4.628,16.265,4.628c6.876,0,12.328-1.557,16.207-4.627C314.783,158.34,317.015,152.975,317.015,145.881z
			 M294.172,153.026c-4.842,0-7.297-2.404-7.297-7.145v-21.507c0-4.741,2.455-7.145,7.297-7.145c4.872,0,7.447,2.471,7.447,7.145
			v21.507C301.62,150.555,299.045,153.026,294.172,153.026z"/>
		<path d="M354.907,97.593c-2.96,0-5.32,1.406-6.475,3.856l-53.16,109.201c-0.49,0.979-0.771,2.048-0.771,2.933
			c0,3.937,3.459,8.152,8.607,8.152c3.02,0,5.868-1.587,6.927-3.857l53.312-109.2c0.514-1.022,0.621-2.159,0.621-2.934
			C363.968,100.869,359.283,97.593,354.907,97.593z"/>
		<path d="M340.847,173.144v21.507c0,7.108,2.214,12.472,6.579,15.944c3.86,3.071,9.333,4.628,16.266,4.628
			c6.876,0,12.328-1.557,16.207-4.627c4.403-3.486,6.636-8.851,6.636-15.944v-21.507c0-7.094-2.232-12.458-6.636-15.945
			c-3.879-3.07-9.331-4.627-16.207-4.627c-6.933,0-12.405,1.557-16.266,4.628C343.061,160.672,340.847,166.036,340.847,173.144z
			 M371.139,194.651c0,4.674-2.575,7.145-7.447,7.145c-4.843,0-7.298-2.404-7.298-7.145v-21.507c0-4.741,2.455-7.145,7.298-7.145
			c4.872,0,7.447,2.471,7.447,7.145V194.651z"/>
	</g>
</g>
<g>
</g>
<g>
</g>
<g>
</g>
<g>
</g>
<g>
</g>
<g>
</g>
<g>
</g>
<g>
</g>
<g>
</g>
<g>
</g>
<g>
</g>
<g>
</g>
<g>
</g>
<g>
</g>
<g>
</g>
</svg>
