<?xml version="1.0" encoding="iso-8859-1"?>
<!-- Generator: Adobe Illustrator 19.0.0, SVG Export Plug-In . SVG Version: 6.00 Build 0)  -->
<svg version="1.1" id="Layer_1" xmlns="http://www.w3.org/2000/svg" xmlns:xlink="http://www.w3.org/1999/xlink" x="0px" y="0px"
	 viewBox="0 0 505 505" style="enable-background:new 0 0 505 505;" xml:space="preserve">
<g>
	<g>
		<path style="fill:#2C92BF;" d="M387.606,97.429v361.9c0,21.08-17.09,38.17-38.17,38.17H45.776c-21.08,0-38.17-17.09-38.17-38.17
			v-361.9c0-21.08,17.09-38.17,38.17-38.17h127.93c0,13.21,10.7,23.91,23.9,23.91c13.21,0,23.91-10.7,23.91-23.91h127.92
			C370.516,59.259,387.606,76.349,387.606,97.429z"/>
		<rect x="249.826" y="361.499" style="fill:#1F81A3;" width="85.78" height="136"/>
		<rect x="59.606" y="106.769" style="fill:#E6E6E6;" width="276" height="330"/>
		<path style="fill:#FFE14D;" d="M245.956,40.769c-7.45-19.45-26.28-33.27-48.35-33.27c-22.07,0-40.9,13.82-48.34,33.27h-38.093
			c-8.597,0-15.567,6.97-15.567,15.567v80.433h204V56.336c0-8.597-6.97-15.567-15.567-15.567H245.956z M197.606,83.169
			c-13.2,0-23.9-10.7-23.9-23.91c0-13.2,10.7-23.9,23.9-23.9c13.21,0,23.91,10.7,23.91,23.9
			C221.516,72.469,210.816,83.169,197.606,83.169z"/>
		<rect x="249.826" y="300.769" style="fill:#CCCCCC;" width="85.78" height="136"/>
		<rect x="274.878" y="300.769" style="fill:#FF8E1D;" width="222.515" height="196.731"/>
		<polygon style="fill:#FF491F;" points="425.135,394.769 386.135,372.769 347.135,394.769 347.135,300.769 425.135,300.769 		"/>
	</g>
	<g>
		<path d="M497.394,293.269h-72.258h-30.029V191.771c0-4.142-3.357-7.5-7.5-7.5s-7.5,3.358-7.5,7.5v101.499h-32.971h-4.029v-186.5
			c0-4.142-3.357-7.5-7.5-7.5h-28.498v-32.51h42.328c16.911,0,30.67,13.758,30.67,30.67v69.34c0,4.142,3.357,7.5,7.5,7.5
			s7.5-3.358,7.5-7.5v-69.34c0-25.183-20.487-45.67-45.67-45.67h-42.786c-2.129-10.534-11.457-18.49-22.609-18.49h-33.181
			C241.013,13.174,220.233,0,197.609,0c-22.625,0-43.405,13.174-53.253,33.269h-33.18c-11.153,0-20.48,7.956-22.609,18.49h-42.79
			c-25.183,0-45.67,20.487-45.67,45.67v79.34c0,4.142,3.358,7.5,7.5,7.5s7.5-3.358,7.5-7.5v-79.34
			c0-16.912,13.758-30.67,30.67-30.67h42.333v32.51H59.606c-4.142,0-7.5,3.358-7.5,7.5v330c0,4.142,3.358,7.5,7.5,7.5h190.269
			c4.143,0,7.5-3.358,7.5-7.5s-3.357-7.5-7.5-7.5H67.106v-315h21.002v22.5c0,4.142,3.358,7.5,7.5,7.5h204c4.143,0,7.5-3.358,7.5-7.5
			v-22.5h20.998v179h-53.229c-4.143,0-7.5,3.358-7.5,7.5v189.23H45.776c-16.912,0-30.67-13.758-30.67-30.67V201.771
			c0-4.142-3.358-7.5-7.5-7.5s-7.5,3.358-7.5,7.5v257.559c0,25.183,20.487,45.67,45.67,45.67L497.394,505c4.143,0,7.5-3.358,7.5-7.5
			V300.769C504.894,296.627,501.536,293.269,497.394,293.269z M103.109,129.269V56.336c0-4.448,3.619-8.067,8.067-8.067h38.086
			c3.108,0,5.894-1.917,7.004-4.819C162.78,26.433,179.395,15,197.609,15s34.828,11.433,41.342,28.45
			c1.111,2.902,3.896,4.819,7.004,4.819h38.087c4.448,0,8.066,3.619,8.066,8.067c0,0-0.002,2.91-0.002,2.923
			s0.002,47.535,0.002,47.548v22.461H103.109z M417.636,308.269v73.658l-27.815-15.69c-1.144-0.645-2.414-0.968-3.685-0.968
			s-2.541,0.323-3.685,0.968l-27.815,15.69v-73.658H417.636z M489.894,490H349.456c-0.006,0-0.013-0.001-0.019-0.001h-67.059
			v-181.73h57.258v86.5c0,2.666,1.415,5.132,3.718,6.477c2.302,1.344,5.145,1.366,7.467,0.056l35.315-19.921l35.315,19.921
			c1.144,0.646,2.414,0.968,3.685,0.968c1.308,0,2.614-0.342,3.782-1.023c2.303-1.345,3.718-3.811,3.718-6.477v-86.5h57.258V490z"/>
		<path d="M197.606,27.859c-17.314,0-31.4,14.086-31.4,31.4c0,17.319,14.086,31.41,31.4,31.41c17.319,0,31.41-14.09,31.41-31.41
			C229.016,41.945,214.926,27.859,197.606,27.859z M197.606,75.669c-9.043,0-16.4-7.361-16.4-16.41c0-9.043,7.357-16.4,16.4-16.4
			c9.048,0,16.41,7.357,16.41,16.4C214.016,68.308,206.655,75.669,197.606,75.669z"/>
		<path d="M141.871,186.123c-3.672-1.919-8.202-0.499-10.121,3.172l-16.881,32.294l-10.083-16.404
			c-2.169-3.529-6.788-4.63-10.317-2.462c-3.529,2.169-4.631,6.788-2.462,10.317l17,27.657c1.368,2.225,3.79,3.573,6.389,3.573
			c0.087,0,0.174-0.001,0.261-0.004c2.697-0.094,5.136-1.629,6.386-4.021l23-44C146.962,192.573,145.542,188.042,141.871,186.123z"
			/>
		<path d="M301.896,214.77c0-4.142-3.357-7.5-7.5-7.5h-126c-4.142,0-7.5,3.358-7.5,7.5s3.358,7.5,7.5,7.5h126
			C298.539,222.27,301.896,218.912,301.896,214.77z"/>
		<path d="M141.871,271.663c-3.672-1.919-8.202-0.498-10.121,3.172l-16.881,32.294l-10.083-16.404
			c-2.169-3.529-6.788-4.63-10.317-2.462c-3.529,2.169-4.631,6.788-2.462,10.317l17,27.657c1.368,2.225,3.79,3.573,6.389,3.573
			c0.087,0,0.174-0.001,0.261-0.004c2.697-0.094,5.136-1.629,6.386-4.021l23-44C146.962,278.113,145.542,273.582,141.871,271.663z"
			/>
		<path d="M168.396,292.81c-4.142,0-7.5,3.358-7.5,7.5s3.358,7.5,7.5,7.5h80c4.143,0,7.5-3.358,7.5-7.5s-3.357-7.5-7.5-7.5H168.396z
			"/>
	</g>
</g>
<g>
</g>
<g>
</g>
<g>
</g>
<g>
</g>
<g>
</g>
<g>
</g>
<g>
</g>
<g>
</g>
<g>
</g>
<g>
</g>
<g>
</g>
<g>
</g>
<g>
</g>
<g>
</g>
<g>
</g>
</svg>
