<?xml version="1.0" encoding="iso-8859-1"?>
<!-- Generator: Adobe Illustrator 19.0.0, SVG Export Plug-In . SVG Version: 6.00 Build 0)  -->
<svg version="1.1" id="Layer_1" xmlns="http://www.w3.org/2000/svg" xmlns:xlink="http://www.w3.org/1999/xlink" x="0px" y="0px"
	 viewBox="0 0 505 505" style="enable-background:new 0 0 505 505;" xml:space="preserve">
<g>
	<g>
		<circle style="fill:#3C3F4D;" cx="109.681" cy="417.298" r="45.217"/>
		<circle style="fill:#3C3F4D;" cx="391.68" cy="417.298" r="45.217"/>
		<path style="fill:#E6E6E6;" d="M288.904,316.356H7.5v100.942h27.803c0-41.078,33.3-74.378,74.378-74.378
			s74.378,33.3,74.378,74.378h104.844V316.356z"/>
		<path style="fill:#2C92BF;" d="M288.904,316.356V136.814h131.564c19.086,0,36.204,11.745,43.072,29.551l33.96,88.043v162.89
			h-31.441c0-41.078-33.3-74.378-74.378-74.378s-74.378,33.3-74.378,74.378h-28.398"/>
		<path style="fill:#E6E6E6;" d="M109.681,436.726c-10.713,0-19.428-8.715-19.428-19.427c0-10.713,8.715-19.428,19.428-19.428
			s19.428,8.715,19.428,19.428C129.109,428.011,120.394,436.726,109.681,436.726z"/>
		<path style="fill:#E6E6E6;" d="M391.68,436.726c-10.713,0-19.428-8.715-19.428-19.427c0-10.713,8.715-19.428,19.428-19.428
			c10.712,0,19.427,8.715,19.427,19.428C411.107,428.011,402.392,436.726,391.68,436.726z"/>
		<path style="fill:#C4E2F2;" d="M464.338,254.411H319.854v-86.653h100.61c6.251,0,11.956,3.92,14.205,9.748L464.338,254.411z"/>
		<g>
			<rect x="32.633" y="113.443" style="fill:#FFE14D;" width="225.32" height="202.913"/>
			<rect x="32.633" y="171.951" style="fill:#FFBE1D;" width="225.32" height="23.306"/>
			<path style="fill:#FF491F;" d="M173.303,113.443c0-15.469-12.54-28.009-28.009-28.009s-28.009,12.54-28.009,28.009"/>
			<path style="fill:#FF491F;" d="M81.805,42.485L81.805,42.485c19.595,0,35.479,15.885,35.479,35.479v35.479H81.805
				c-19.595,0-35.479-15.885-35.479-35.479v0C46.326,58.369,62.21,42.485,81.805,42.485z"/>
			<path style="fill:#FF491F;" d="M208.782,42.485L208.782,42.485c-19.595,0-35.479,15.885-35.479,35.479v35.479h35.479
				c19.595,0,35.479-15.885,35.479-35.479v0C244.261,58.369,228.377,42.485,208.782,42.485z"/>
			<rect x="117.284" y="113.443" style="fill:#FF491F;" width="56.019" height="202.913"/>
		</g>
	</g>
	<g>
		<path d="M109.682,364.581c-29.068,0-52.718,23.649-52.718,52.717s23.649,52.717,52.718,52.717s52.717-23.648,52.717-52.717
			S138.75,364.581,109.682,364.581z M109.682,455.015c-20.798,0-37.718-16.92-37.718-37.717c0-20.797,16.92-37.717,37.718-37.717
			c20.797,0,37.717,16.92,37.717,37.717C147.398,438.095,130.479,455.015,109.682,455.015z"/>
		<path d="M109.681,390.371c-14.848,0-26.928,12.08-26.928,26.928c0,14.848,12.08,26.927,26.928,26.927s26.928-12.08,26.928-26.927
			C136.608,402.45,124.528,390.371,109.681,390.371z M109.681,429.226c-6.577,0-11.928-5.351-11.928-11.927
			c0-6.577,5.351-11.928,11.928-11.928s11.928,5.351,11.928,11.928C121.608,423.875,116.258,429.226,109.681,429.226z"/>
		<path d="M504.497,251.709l-33.96-88.042c-7.925-20.548-28.046-34.353-50.069-34.353H288.903c-4.143,0-7.5,3.358-7.5,7.5v172.042
			h-15.95V172.067c0-0.039,0.006-0.077,0.006-0.116s-0.005-0.077-0.006-0.116v-58.391c0-4.142-3.357-7.5-7.5-7.5h-16.588
			c6.471-7.525,10.395-17.3,10.395-27.979c0-23.699-19.28-42.979-42.979-42.979c-23.699,0-42.979,19.28-42.979,42.979v6.52
			c-5.798-4.118-12.873-6.549-20.51-6.549c-7.636,0-14.711,2.431-20.509,6.549v-6.519c0-23.699-19.28-42.979-42.979-42.979
			S38.825,54.266,38.825,77.964c0,10.68,3.924,20.454,10.395,27.979H32.633c-4.143,0-7.5,3.358-7.5,7.5v195.413H7.5
			c-4.143,0-7.5,3.358-7.5,7.5v100.942c0,4.142,3.357,7.5,7.5,7.5h27.803c4.143,0,7.5-3.358,7.5-7.5
			c0-36.877,30.002-66.878,66.879-66.878s66.878,30.001,66.878,66.878c0,4.142,3.357,7.5,7.5,7.5h133.242c4.143,0,7.5-3.358,7.5-7.5
			c0-36.877,30.001-66.878,66.878-66.878c14.361,0,28.047,4.482,39.577,12.961c3.335,2.454,8.031,1.738,10.485-1.599
			s1.738-8.031-1.599-10.485c-14.124-10.387-30.883-15.877-48.464-15.877c-42.621,0-77.739,32.73-81.537,74.378h-13.739V144.314
			h124.064c15.867,0,30.365,9.947,36.075,24.751L490,255.805v153.993h-16.778c-1.307-14.439-6.382-28.155-14.874-40.043
			c-2.408-3.371-7.093-4.15-10.462-1.744c-3.37,2.408-4.151,7.092-1.743,10.462c8.122,11.372,12.416,24.797,12.416,38.824
			c0,4.142,3.357,7.5,7.5,7.5H497.5c4.143,0,7.5-3.358,7.5-7.5v-162.89C505,253.486,504.83,252.571,504.497,251.709z
			 M180.803,179.451h69.65v129.405h-69.65V179.451z M250.453,164.451h-69.65v-43.507h69.65V164.451z M180.803,77.964
			c0-15.428,12.552-27.979,27.979-27.979s27.979,12.552,27.979,27.979s-12.551,27.979-27.979,27.979h-27.979V77.964z
			 M145.293,92.934c8.661,0,16.067,5.403,19.07,13.009h-38.139C129.227,98.337,136.633,92.934,145.293,92.934z M53.825,77.964
			c0-15.428,12.552-27.979,27.979-27.979s27.979,12.551,27.979,27.979v27.979H81.805C66.377,105.943,53.825,93.392,53.825,77.964z
			 M109.784,120.943v43.507H40.133v-43.507H109.784z M40.133,179.451h69.651v40.458c0,4.142,3.357,7.5,7.5,7.5s7.5-3.358,7.5-7.5
			v-98.966h41.019v187.913h-41.019V245.7c0-4.142-3.357-7.5-7.5-7.5s-7.5,3.358-7.5,7.5v63.156H40.133V179.451z M109.682,335.42
			c-42.621,0-77.74,32.73-81.538,74.378H15v-85.942h266.403v85.942h-90.185C187.421,368.15,152.303,335.42,109.682,335.42z"/>
		<path d="M470.522,258.654c1.398-2.039,1.703-4.635,0.813-6.942l-29.668-76.905c-3.358-8.702-11.879-14.548-21.202-14.548h-100.61
			c-4.143,0-7.5,3.358-7.5,7.5v86.653c0,4.142,3.357,7.5,7.5,7.5h144.483C466.811,261.911,469.124,260.693,470.522,258.654z
			 M327.354,246.911v-71.653h93.11c3.169,0,6.065,1.989,7.208,4.948l25.733,66.705H327.354z"/>
		<path d="M391.68,364.581c-29.068,0-52.717,23.649-52.717,52.717s23.648,52.717,52.717,52.717s52.718-23.648,52.718-52.717
			S420.748,364.581,391.68,364.581z M391.68,455.015c-20.797,0-37.717-16.92-37.717-37.717c0-20.797,16.92-37.717,37.717-37.717
			c20.798,0,37.718,16.92,37.718,37.717C429.397,438.095,412.478,455.015,391.68,455.015z"/>
		<path d="M391.681,390.371c-14.848,0-26.928,12.08-26.928,26.928c0,14.848,12.08,26.927,26.928,26.927s26.927-12.08,26.927-26.927
			C418.607,402.45,406.528,390.371,391.681,390.371z M391.681,429.226c-6.577,0-11.928-5.351-11.928-11.927
			c0-6.577,5.351-11.928,11.928-11.928c6.576,0,11.927,5.351,11.927,11.928C403.607,423.875,398.257,429.226,391.681,429.226z"/>
		<path d="M260.277,346.175h-52.608c-4.143,0-7.5,3.358-7.5,7.5s3.357,7.5,7.5,7.5h52.608c4.143,0,7.5-3.358,7.5-7.5
			S264.42,346.175,260.277,346.175z"/>
		<path d="M260.277,372.479h-52.608c-4.143,0-7.5,3.358-7.5,7.5s3.357,7.5,7.5,7.5h52.608c4.143,0,7.5-3.358,7.5-7.5
			S264.42,372.479,260.277,372.479z"/>
		<path d="M319.854,276.363c-4.143,0-7.5,3.358-7.5,7.5s3.357,7.5,7.5,7.5h31.713c4.143,0,7.5-3.358,7.5-7.5s-3.357-7.5-7.5-7.5
			H319.854z"/>
	</g>
</g>
<g>
</g>
<g>
</g>
<g>
</g>
<g>
</g>
<g>
</g>
<g>
</g>
<g>
</g>
<g>
</g>
<g>
</g>
<g>
</g>
<g>
</g>
<g>
</g>
<g>
</g>
<g>
</g>
<g>
</g>
</svg>
