<?xml version="1.0" encoding="iso-8859-1"?>
<!-- Generator: Adobe Illustrator 19.0.0, SVG Export Plug-In . SVG Version: 6.00 Build 0)  -->
<svg version="1.1" id="Layer_1" xmlns="http://www.w3.org/2000/svg" xmlns:xlink="http://www.w3.org/1999/xlink" x="0px" y="0px"
	 viewBox="0 0 505 505" style="enable-background:new 0 0 505 505;" xml:space="preserve">
<g>
	<rect x="353.502" y="123.138" style="fill:#CCCCCC;" width="30" height="79.631"/>
	<g>
		<circle style="fill:#FFBE1D;" cx="125.035" cy="95.527" r="88.027"/>
		<circle style="fill:#FFE14D;" cx="125.035" cy="95.527" r="62.099"/>
		<path style="fill:#E6E6E6;" d="M196.503,229.626v29.146H63.695c-15.572,0-28.195,12.624-28.195,28.195V452.77h434.002V238.769
			v11.003v-20.146c0-23.115-18.739-41.854-41.854-41.854h-189.29C215.242,187.772,196.503,206.511,196.503,229.626z"/>
		<g>
			<path style="fill:#CCCCCC;" d="M213.003,229.626c0-23.115,18.739-41.854,41.854-41.854h-16.499
				c-23.115,0-41.854,18.739-41.854,41.854v29.146h16.499V229.626z"/>
			<path style="fill:#CCCCCC;" d="M80.194,258.772H63.695c-15.572,0-28.196,12.624-28.196,28.195V452.77h16.499V286.967
				C51.998,271.395,64.622,258.772,80.194,258.772z"/>
		</g>
		<path style="fill:#CCCCCC;" d="M497.503,454.709v20.85c0,12.12-9.83,21.94-21.95,21.94H29.443c-12.12,0-21.94-9.82-21.94-21.94
			v-20.85c0-12.12,9.82-21.94,21.94-21.94h446.11C487.673,432.769,497.503,442.589,497.503,454.709z"/>
		<path style="fill:#E6E6E6;" d="M497.503,454.709v20.85c0,12.12-9.83,21.94-21.95,21.94H64.103c-12.12,0-21.95-9.82-21.95-21.94
			v-20.85c0-12.12,9.83-21.94,21.95-21.94h411.45C487.673,432.769,497.503,442.589,497.503,454.709z"/>
		<path style="fill:#C4E2F2;" d="M221.503,235.772L221.503,235.772c0-12.703,10.297-23,23-23h176.998c12.703,0,23,10.297,23,23v0
			c0,12.703-10.297,23-23,23H244.503C231.801,258.772,221.503,248.474,221.503,235.772z"/>
		<rect x="75.502" y="300.769" style="fill:#FFFFFF;" width="96" height="96"/>
		<path style="fill:#C4E2F2;" d="M308.15,30.136h120.703c14.164,0,25.647,11.482,25.647,25.647v56.707
			c0,14.164-11.482,25.647-25.647,25.647H308.15c-14.164,0-25.647-11.482-25.647-25.647V55.782
			C282.503,41.618,293.986,30.136,308.15,30.136z"/>
		<path style="fill:#83B2C6;" d="M428.853,30.136h-25.499c14.164,0,25.647,11.482,25.647,25.646v56.707
			c0,14.164-11.482,25.647-25.647,25.647h25.499c14.164,0,25.647-11.482,25.647-25.647V55.782
			C454.5,41.618,443.018,30.136,428.853,30.136z"/>
		<g>
			<g>
				<path style="fill:#3C3F4D;" d="M263.503,334.769h-25c-9.389,0-17-7.611-17-17v0c0-9.389,7.611-17,17-17h25
					c9.389,0,17,7.611,17,17v0C280.503,327.158,272.892,334.769,263.503,334.769z"/>
			</g>
			<g>
				<path style="fill:#3C3F4D;" d="M340.503,334.769h-25c-9.389,0-17-7.611-17-17v0c0-9.389,7.611-17,17-17h25
					c9.389,0,17,7.611,17,17v0C357.503,327.158,349.892,334.769,340.503,334.769z"/>
			</g>
			<g>
				<path style="fill:#3C3F4D;" d="M417.503,334.769h-25c-9.389,0-17-7.611-17-17v0c0-9.389,7.611-17,17-17h25
					c9.389,0,17,7.611,17,17v0C434.503,327.158,426.892,334.769,417.503,334.769z"/>
			</g>
		</g>
		<g>
			<g>
				<path style="fill:#3C3F4D;" d="M263.503,390.769h-25c-9.389,0-17-7.611-17-17v0c0-9.389,7.611-17,17-17h25
					c9.389,0,17,7.611,17,17v0C280.503,383.158,272.892,390.769,263.503,390.769z"/>
			</g>
			<g>
				<path style="fill:#3C3F4D;" d="M340.503,390.769h-25c-9.389,0-17-7.611-17-17v0c0-9.389,7.611-17,17-17h25
					c9.389,0,17,7.611,17,17v0C357.503,383.158,349.892,390.769,340.503,390.769z"/>
			</g>
			<g>
				<path style="fill:#3C3F4D;" d="M417.503,390.769h-25c-9.389,0-17-7.611-17-17v0c0-9.389,7.611-17,17-17h25
					c9.389,0,17,7.611,17,17v0C434.503,383.158,426.892,390.769,417.503,390.769z"/>
			</g>
		</g>
	</g>
	<g>
		<path d="M125.035,25.929c-38.377,0-69.599,31.222-69.599,69.599s31.222,69.599,69.599,69.599s69.599-31.222,69.599-69.599
			S163.412,25.929,125.035,25.929z M125.035,150.126c-30.106,0-54.599-24.493-54.599-54.599s24.493-54.599,54.599-54.599
			s54.599,24.493,54.599,54.599S155.141,150.126,125.035,150.126z"/>
		<path d="M125.035,191.055c52.674,0,95.527-42.854,95.527-95.527c0-21.392-6.912-41.614-19.988-58.482
			c-2.537-3.273-7.248-3.871-10.522-1.332c-3.273,2.538-3.87,7.249-1.332,10.522c11.019,14.213,16.843,31.258,16.843,49.292
			c0,44.403-36.124,80.527-80.527,80.527S44.508,139.93,44.508,95.527S80.632,15,125.035,15c17.442,0,34.037,5.483,47.99,15.855
			c3.324,2.471,8.022,1.779,10.494-1.544c2.471-3.325,1.78-8.022-1.545-10.494C165.414,6.507,145.725,0,125.035,0
			C72.361,0,29.508,42.854,29.508,95.527S72.361,191.055,125.035,191.055z"/>
		<path d="M131.578,88.338V69.864c3.082,0.486,5.152,1.535,6.826,2.383c1.44,0.729,2.578,1.306,3.853,1.306
			c4.071,0,5.833-4.978,5.833-7.518c0-5.42-8.484-7.93-16.511-8.482v-1.118c0-2.838-2.31-5.147-5.148-5.147
			s-5.147,2.309-5.147,5.147v1.444c-12.27,2.053-19.301,9.546-19.301,20.584c0,13.569,11.102,17.834,19.301,20.919v20.734
			c-4.521-0.859-7.462-3.142-9.835-4.984c-1.935-1.502-3.463-2.688-5.213-2.688c-3.508,0-6.148,4.624-6.148,7.623
			c0,5.662,8.692,12.453,21.196,13.232v0.513c0,1.587,0.732,3.065,1.991,4.04c0.746,0.705,1.83,1.108,2.973,1.108h0.184
			c2.838,0,5.148-2.31,5.148-5.148v-1.089c11.702-2.502,18.407-10.598,18.407-22.241C149.984,97.305,141.159,92.037,131.578,88.338z
			 M136.634,111.853c0,3.544-1.747,6.157-5.057,7.578v-15.677C135.071,105.819,136.634,108.333,136.634,111.853z M121.282,70.478
			v13.939c-3.135-1.438-5.951-3.36-5.951-7.322C115.332,73.916,117.387,71.633,121.282,70.478z"/>
		<path d="M477.001,425.306v-195.68c0-27.214-22.14-49.354-49.354-49.354h-36.646v-34.636h37.852
			c18.277,0,33.146-14.87,33.146-33.147V55.782c0-18.277-14.869-33.146-33.146-33.146H308.15c-18.277,0-33.147,14.87-33.147,33.146
			v56.707c0,18.277,14.87,33.147,33.147,33.147h37.852v34.636H238.357c-27.214,0-49.354,22.14-49.354,49.354v21.646H97.102
			c-4.142,0-7.5,3.358-7.5,7.5s3.358,7.5,7.5,7.5h99.402c4.142,0,7.5-3.358,7.5-7.5v-29.146c0-18.943,15.411-34.354,34.354-34.354
			h189.29c18.942,0,34.354,15.411,34.354,34.354v195.643H42.999V286.967c0-11.412,9.284-20.695,20.696-20.695H72.1
			c4.142,0,7.5-3.358,7.5-7.5s-3.358-7.5-7.5-7.5h-8.405c-19.683,0-35.696,16.013-35.696,35.695v138.338
			C12.432,426.062,0,438.962,0,454.713v20.843C0,491.792,13.208,505,29.444,505h394.641c4.143,0,7.5-3.358,7.5-7.5
			s-3.357-7.5-7.5-7.5H29.444C21.479,490,15,483.521,15,475.556v-20.843c0-7.964,6.479-14.444,14.444-14.444h6.055h434.002h6.056
			c7.964,0,14.443,6.479,14.443,14.444v20.843c0,7.964-6.479,14.444-14.443,14.444h-26.47c-4.143,0-7.5,3.358-7.5,7.5
			s3.357,7.5,7.5,7.5h26.47C491.792,505,505,491.792,505,475.556v-20.843C505,438.962,492.568,426.062,477.001,425.306z
			 M290.003,112.489V55.782c0-10.006,8.141-18.146,18.147-18.146h120.703c10.006,0,18.146,8.141,18.146,18.146v56.707
			c0,10.006-8.141,18.147-18.146,18.147H308.15C298.144,130.636,290.003,122.495,290.003,112.489z M361.002,180.272v-34.636h15
			v34.636H361.002z"/>
		<path d="M452.001,235.772c0-16.818-13.683-30.5-30.5-30.5H244.503c-16.818,0-30.5,13.682-30.5,30.5s13.682,30.5,30.5,30.5h176.998
			C438.318,266.272,452.001,252.59,452.001,235.772z M421.501,251.272H244.503c-8.547,0-15.5-6.953-15.5-15.5s6.953-15.5,15.5-15.5
			h176.998c8.547,0,15.5,6.953,15.5,15.5S430.048,251.272,421.501,251.272z"/>
		<path d="M75.502,404.269h96c4.142,0,7.5-3.358,7.5-7.5v-88.5h4.5c4.142,0,7.5-3.358,7.5-7.5s-3.358-7.5-7.5-7.5h-12h-96h-12
			c-4.142,0-7.5,3.358-7.5,7.5s3.358,7.5,7.5,7.5h4.5v88.5C68.002,400.911,71.36,404.269,75.502,404.269z M164.002,308.269v81h-81
			v-81H164.002z"/>
		<path d="M105.502,343.903h36c4.142,0,7.5-3.358,7.5-7.5s-3.358-7.5-7.5-7.5h-36c-4.142,0-7.5,3.358-7.5,7.5
			S101.36,343.903,105.502,343.903z"/>
		<path d="M105.502,368.635h36c4.142,0,7.5-3.358,7.5-7.5s-3.358-7.5-7.5-7.5h-36c-4.142,0-7.5,3.358-7.5,7.5
			S101.36,368.635,105.502,368.635z"/>
		<path d="M322.501,79.27h98.002c4.143,0,7.5-3.358,7.5-7.5s-3.357-7.5-7.5-7.5h-98.002c-4.143,0-7.5,3.358-7.5,7.5
			S318.358,79.27,322.501,79.27z"/>
		<path d="M366.001,96.501c0-4.142-3.357-7.5-7.5-7.5h-36c-4.143,0-7.5,3.358-7.5,7.5s3.357,7.5,7.5,7.5h36
			C362.644,104.001,366.001,100.644,366.001,96.501z"/>
		<path d="M117.535,206.769v28.788c0,4.142,3.358,7.5,7.5,7.5s7.5-3.358,7.5-7.5v-28.788c0-4.142-3.358-7.5-7.5-7.5
			S117.535,202.627,117.535,206.769z"/>
		<path d="M238.503,342.269h25c13.51,0,24.5-10.991,24.5-24.5s-10.99-24.5-24.5-24.5h-25c-13.509,0-24.5,10.991-24.5,24.5
			S224.994,342.269,238.503,342.269z M238.503,308.269h25c5.238,0,9.5,4.262,9.5,9.5s-4.262,9.5-9.5,9.5h-25
			c-5.238,0-9.5-4.262-9.5-9.5S233.265,308.269,238.503,308.269z"/>
		<path d="M340.503,293.269h-25c-13.51,0-24.5,10.991-24.5,24.5s10.99,24.5,24.5,24.5h25c13.51,0,24.5-10.991,24.5-24.5
			S354.013,293.269,340.503,293.269z M340.503,327.269h-25c-5.238,0-9.5-4.262-9.5-9.5s4.262-9.5,9.5-9.5h25
			c5.238,0,9.5,4.262,9.5,9.5S345.741,327.269,340.503,327.269z"/>
		<path d="M417.503,293.269h-25c-13.51,0-24.5,10.991-24.5,24.5s10.99,24.5,24.5,24.5h25c13.51,0,24.5-10.991,24.5-24.5
			S431.013,293.269,417.503,293.269z M417.503,327.269h-25c-5.238,0-9.5-4.262-9.5-9.5s4.262-9.5,9.5-9.5h25
			c5.238,0,9.5,4.262,9.5,9.5S422.741,327.269,417.503,327.269z"/>
		<path d="M238.503,398.269h25c13.51,0,24.5-10.991,24.5-24.5s-10.99-24.5-24.5-24.5h-25c-13.509,0-24.5,10.991-24.5,24.5
			S224.994,398.269,238.503,398.269z M238.503,364.269h25c5.238,0,9.5,4.262,9.5,9.5s-4.262,9.5-9.5,9.5h-25
			c-5.238,0-9.5-4.262-9.5-9.5S233.265,364.269,238.503,364.269z"/>
		<path d="M340.503,349.269h-25c-13.51,0-24.5,10.991-24.5,24.5s10.99,24.5,24.5,24.5h25c13.51,0,24.5-10.991,24.5-24.5
			S354.013,349.269,340.503,349.269z M340.503,383.269h-25c-5.238,0-9.5-4.262-9.5-9.5s4.262-9.5,9.5-9.5h25
			c5.238,0,9.5,4.262,9.5,9.5S345.741,383.269,340.503,383.269z"/>
		<path d="M417.503,349.269h-25c-13.51,0-24.5,10.991-24.5,24.5s10.99,24.5,24.5,24.5h25c13.51,0,24.5-10.991,24.5-24.5
			S431.013,349.269,417.503,349.269z M417.503,383.269h-25c-5.238,0-9.5-4.262-9.5-9.5s4.262-9.5,9.5-9.5h25
			c5.238,0,9.5,4.262,9.5,9.5S422.741,383.269,417.503,383.269z"/>
	</g>
</g>
<g>
</g>
<g>
</g>
<g>
</g>
<g>
</g>
<g>
</g>
<g>
</g>
<g>
</g>
<g>
</g>
<g>
</g>
<g>
</g>
<g>
</g>
<g>
</g>
<g>
</g>
<g>
</g>
<g>
</g>
</svg>
