<?xml version="1.0" encoding="iso-8859-1"?>
<!-- Generator: Adobe Illustrator 19.0.0, SVG Export Plug-In . SVG Version: 6.00 Build 0)  -->
<svg version="1.1" id="Layer_1" xmlns="http://www.w3.org/2000/svg" xmlns:xlink="http://www.w3.org/1999/xlink" x="0px" y="0px"
	 viewBox="0 0 499.901 499.901" style="enable-background:new 0 0 499.901 499.901;" xml:space="preserve">
<g>
	<g>
		<path style="fill:#3C3F4D;" d="M331.316,492.401H99.61c-19.624,0-35.532-15.908-35.532-35.532V43.032
			C64.078,23.408,79.986,7.5,99.61,7.5h231.706c19.624,0,35.532,15.908,35.532,35.532V456.87
			C366.847,476.493,350.939,492.401,331.316,492.401z"/>
		<circle style="fill:#2D303B;" cx="215.463" cy="461.166" r="31.235"/>
		<path style="fill:#C4E2F2;" d="M319.324,69.66H111.602c-9.899,0-17.923,8.025-17.923,17.923v324.424
			c0,9.899,8.025,17.923,17.923,17.923h207.722c9.899,0,17.923-8.025,17.923-17.923V87.583
			C337.247,77.685,329.222,69.66,319.324,69.66z"/>
		<circle style="fill:#FF491F;" cx="362.503" cy="80.817" r="73.317"/>
	</g>
	<g>
		<path d="M188.963,44.72h53c4.142,0,7.5-3.358,7.5-7.5s-3.358-7.5-7.5-7.5h-53c-4.142,0-7.5,3.358-7.5,7.5
			S184.821,44.72,188.963,44.72z"/>
		<path d="M307.708,288.407c-4.142,0-7.5,3.358-7.5,7.5v38.634h-22.56c-4.142,0-7.5,3.358-7.5,7.5s3.358,7.5,7.5,7.5h30.06
			c4.142,0,7.5-3.358,7.5-7.5v-46.134C315.208,291.765,311.85,288.407,307.708,288.407z"/>
		<path d="M123.217,223.251h58.202c4.142,0,7.5-3.358,7.5-7.5V157.55c0-4.142-3.358-7.5-7.5-7.5h-58.202c-4.142,0-7.5,3.358-7.5,7.5
			v58.202C115.717,219.894,119.075,223.251,123.217,223.251z M130.717,165.05h43.202v43.202h-43.202V165.05z"/>
		<path d="M242.007,157.55v58.202c0,4.142,3.358,7.5,7.5,7.5h58.201c4.142,0,7.5-3.358,7.5-7.5V157.55c0-4.142-3.358-7.5-7.5-7.5
			h-58.201C245.365,150.05,242.007,153.408,242.007,157.55z M257.007,165.05h43.201v43.202h-43.201V165.05z"/>
		<path d="M181.419,276.339h-58.202c-4.142,0-7.5,3.358-7.5,7.5v58.201c0,4.142,3.358,7.5,7.5,7.5h58.202c4.142,0,7.5-3.358,7.5-7.5
			v-58.201C188.919,279.697,185.561,276.339,181.419,276.339z M173.919,334.541h-43.202v-43.201h43.202V334.541z"/>
		<path d="M147.24,325.519h10.157c4.142,0,7.5-3.358,7.5-7.5v-10.157c0-4.142-3.358-7.5-7.5-7.5H147.24c-4.142,0-7.5,3.358-7.5,7.5
			v10.157C139.74,322.161,143.098,325.519,147.24,325.519z"/>
		<path d="M157.396,174.072H147.24c-4.142,0-7.5,3.358-7.5,7.5v10.157c0,4.142,3.358,7.5,7.5,7.5h10.157c4.142,0,7.5-3.358,7.5-7.5
			v-10.157C164.896,177.43,161.539,174.072,157.396,174.072z"/>
		<path d="M123.217,258.074h84.746v21.833c0,4.142,3.358,7.5,7.5,7.5s7.5-3.358,7.5-7.5v-29.333c0-4.142-3.358-7.5-7.5-7.5h-92.246
			c-4.142,0-7.5,3.358-7.5,7.5S119.075,258.074,123.217,258.074z"/>
		<path d="M248.315,242.295c-4.142,0-7.5,3.358-7.5,7.5v56.611h-30.833c-4.142,0-7.5,3.358-7.5,7.5s3.358,7.5,7.5,7.5h38.333
			c4.142,0,7.5-3.358,7.5-7.5v-64.111C255.815,245.653,252.458,242.295,248.315,242.295z"/>
		<path d="M279.648,321.407c4.142,0,7.5-3.358,7.5-7.5v-64.111c0-4.142-3.358-7.5-7.5-7.5s-7.5,3.358-7.5,7.5v64.111
			C272.148,318.049,275.506,321.407,279.648,321.407z"/>
		<path d="M307.708,242.295c-4.142,0-7.5,3.358-7.5,7.5v4.777c0,4.142,3.358,7.5,7.5,7.5s7.5-3.358,7.5-7.5v-4.777
			C315.208,245.653,311.85,242.295,307.708,242.295z"/>
		<path d="M215.463,223.251c4.142,0,7.5-3.358,7.5-7.5v-27.178c0-4.142-3.358-7.5-7.5-7.5s-7.5,3.358-7.5,7.5v27.178
			C207.963,219.894,211.321,223.251,215.463,223.251z"/>
		<path d="M215.463,172.227c4.142,0,7.5-3.358,7.5-7.5v-7.177c0-4.142-3.358-7.5-7.5-7.5s-7.5,3.358-7.5,7.5v7.177
			C207.963,168.869,211.321,172.227,215.463,172.227z"/>
		<path d="M248.315,334.541h-13.333c-4.142,0-7.5,3.358-7.5,7.5s3.358,7.5,7.5,7.5h13.333c4.142,0,7.5-3.358,7.5-7.5
			S252.458,334.541,248.315,334.541z"/>
		<path d="M283.686,174.072h-10.157c-4.142,0-7.5,3.358-7.5,7.5v10.157c0,4.142,3.358,7.5,7.5,7.5h10.157c4.142,0,7.5-3.358,7.5-7.5
			v-10.157C291.186,177.43,287.828,174.072,283.686,174.072z"/>
		<path d="M443.32,80.817C443.32,36.254,407.065,0,362.502,0c-6.205,0-12.239,0.726-18.047,2.057C340.231,0.696,335.821,0,331.312,0
			h-231.7c-23.727,0-43.03,19.303-43.03,43.03v413.84c0,23.727,19.303,43.03,43.03,43.03h115.813c0.013,0,0.026,0.001,0.039,0.001
			s0.026-0.001,0.039-0.001h115.81c23.732,0,43.04-19.303,43.04-43.03V277.952c0-4.142-3.358-7.5-7.5-7.5s-7.5,3.358-7.5,7.5V456.87
			c0,15.456-12.579,28.03-28.04,28.03h-85.269c5.105-6.562,8.156-14.796,8.156-23.734c0-8.939-3.052-17.174-8.157-23.736h73.28
			c14.022,0,25.43-11.403,25.43-25.42V159.646c4.726,1.064,9.604,1.716,14.6,1.908v91.396c0,4.142,3.358,7.5,7.5,7.5
			s7.5-3.358,7.5-7.5v-92.193C413.316,155.007,443.32,121.354,443.32,80.817z M215.424,484.9
			c-13.07-0.021-23.697-10.659-23.697-23.734c0-13.088,10.647-23.735,23.735-23.735s23.735,10.647,23.735,23.735
			c0,13.075-10.627,23.713-23.697,23.734H215.424z M329.751,412.01c0,5.746-4.679,10.42-10.43,10.42h-207.72
			c-5.746,0-10.42-4.674-10.42-10.42V134.457c0-4.142-3.358-7.5-7.5-7.5s-7.5,3.358-7.5,7.5V412.01
			c0,14.017,11.403,25.42,25.42,25.42h73.283c-5.105,6.562-8.157,14.797-8.157,23.736c0,8.938,3.051,17.173,8.156,23.734H99.611
			c-15.456,0-28.03-12.574-28.03-28.03V43.03c0-15.456,12.574-28.03,28.03-28.03h216.079c-15.692,11.193-27.223,27.841-31.808,47.16
			H111.602c-14.017,0-25.42,11.403-25.42,25.42v21.875c0,4.142,3.358,7.5,7.5,7.5s7.5-3.358,7.5-7.5V87.58
			c0-5.746,4.674-10.42,10.42-10.42h170.176c-0.054,1.213-0.093,2.43-0.093,3.657c0,32.907,19.78,61.264,48.066,73.857V412.01z
			 M362.502,146.634c-36.292,0-65.817-29.525-65.817-65.817C296.685,44.525,326.21,15,362.502,15s65.817,29.525,65.817,65.817
			C428.32,117.109,398.794,146.634,362.502,146.634z"/>
		<path d="M383.306,60.014c-2.929-2.929-7.678-2.929-10.606,0l-31,31c-2.929,2.929-2.929,7.678,0,10.606
			c1.464,1.464,3.384,2.197,5.303,2.197s3.839-0.732,5.303-2.197l31-31C386.235,67.691,386.235,62.942,383.306,60.014z"/>
		<path d="M341.542,68.669c6.635,1.384,11.437-6.493,7.47-11.834c-2.017-2.716-5.754-3.741-8.88-2.446
			c-2.826,1.171-4.688,4.031-4.627,7.085C335.575,64.97,338.138,67.963,341.542,68.669z"/>
		<path d="M388.932,97.45c-1.246-2.953-4.275-4.843-7.484-4.61c-3.188,0.231-5.944,2.554-6.718,5.652
			c-1.626,6.51,5.825,11.773,11.432,8.058C389.128,104.585,390.243,100.731,388.932,97.45z"/>
	</g>
</g>
<g>
</g>
<g>
</g>
<g>
</g>
<g>
</g>
<g>
</g>
<g>
</g>
<g>
</g>
<g>
</g>
<g>
</g>
<g>
</g>
<g>
</g>
<g>
</g>
<g>
</g>
<g>
</g>
<g>
</g>
</svg>
