<?xml version="1.0" encoding="iso-8859-1"?>
<!-- Generator: Adobe Illustrator 19.0.0, SVG Export Plug-In . SVG Version: 6.00 Build 0)  -->
<svg version="1.1" id="Layer_1" xmlns="http://www.w3.org/2000/svg" xmlns:xlink="http://www.w3.org/1999/xlink" x="0px" y="0px"
	 viewBox="0 0 505.471 505.471" style="enable-background:new 0 0 505.471 505.471;" xml:space="preserve">
<g>
	<g>
		<polyline style="fill:#FFE14D;" points="428.467,154.011 428.467,497.971 7.737,497.971 7.737,77.241 351.187,77.241 		"/>
		<circle style="fill:#FF491F;" cx="424.417" cy="80.817" r="73.317"/>
	</g>
	<g>
		<path d="M428.467,420.742c-4.143,0-7.5,3.358-7.5,7.5v62.229H15.237V84.741h55.5c4.142,0,7.5-3.358,7.5-7.5s-3.358-7.5-7.5-7.5
			h-63c-4.142,0-7.5,3.358-7.5,7.5v420.73c0,4.142,3.358,7.5,7.5,7.5h420.73c4.143,0,7.5-3.358,7.5-7.5v-69.729
			C435.967,424.1,432.61,420.742,428.467,420.742z"/>
		<path d="M424.416,0c-40.803,0-74.621,30.402-80.039,69.741H95.739c-4.142,0-7.5,3.358-7.5,7.5s3.358,7.5,7.5,7.5h247.96
			c2.054,42.748,37.471,76.894,80.718,76.894c44.563,0,80.817-36.254,80.817-80.817S468.979,0,424.416,0z M424.416,146.635
			c-36.292,0-65.817-29.525-65.817-65.817S388.124,15,424.416,15s65.817,29.525,65.817,65.817S460.708,146.635,424.416,146.635z"/>
		<path d="M445.22,60.014c-2.93-2.929-7.678-2.929-10.607,0l-31,31c-2.929,2.929-2.929,7.678,0,10.606
			c1.465,1.464,3.385,2.197,5.304,2.197s3.839-0.732,5.304-2.197l31-31C448.149,67.692,448.149,62.943,445.22,60.014z"/>
		<path d="M403.448,68.674c3.024,0.554,6.148-0.73,7.798-3.346c1.712-2.715,1.495-6.279-0.535-8.769
			c-4.189-5.139-12.792-2.383-13.271,4.205C397.168,64.513,399.779,67.91,403.448,68.674z"/>
		<path d="M450.838,97.444c-2.34-5.863-10.812-6.047-13.617-0.497c-1.498,2.964-0.813,6.698,1.656,8.928
			c2.421,2.186,6.095,2.553,8.895,0.874C450.921,104.859,452.243,100.837,450.838,97.444z"/>
		<path d="M218.098,325.154c4.15,0,7.5-3.35,7.5-7.5c0-4.14-3.35-7.5-7.5-7.5c-4.14,0-7.5,3.36-7.5,7.5
			C210.598,321.804,213.958,325.154,218.098,325.154z"/>
		<path d="M218.098,415.314c4.15,0,7.5-3.36,7.5-7.5c0-4.14-3.35-7.5-7.5-7.5c-4.14,0-7.5,3.36-7.5,7.5
			C210.598,411.954,213.958,415.314,218.098,415.314z"/>
		<path d="M218.098,265.054c4.15,0,7.5-3.36,7.5-7.5s-3.35-7.5-7.5-7.5c-4.14,0-7.5,3.36-7.5,7.5S213.958,265.054,218.098,265.054z"
			/>
		<path d="M218.098,355.214c4.15,0,7.5-3.36,7.5-7.5c0-4.15-3.35-7.5-7.5-7.5c-4.14,0-7.5,3.35-7.5,7.5
			C210.598,351.854,213.958,355.214,218.098,355.214z"/>
		<path d="M218.098,385.264c4.15,0,7.5-3.36,7.5-7.5c0-4.15-3.35-7.5-7.5-7.5c-4.14,0-7.5,3.35-7.5,7.5
			C210.598,381.904,213.958,385.264,218.098,385.264z"/>
		<path d="M218.098,235.004c4.15,0,7.5-3.36,7.5-7.5c0-4.15-3.35-7.5-7.5-7.5c-4.14,0-7.5,3.35-7.5,7.5
			C210.598,231.644,213.958,235.004,218.098,235.004z"/>
		<path d="M218.098,445.364c4.15,0,7.5-3.36,7.5-7.5s-3.35-7.5-7.5-7.5c-4.14,0-7.5,3.36-7.5,7.5S213.958,445.364,218.098,445.364z"
			/>
		<path d="M218.098,144.844c4.15,0,7.5-3.36,7.5-7.5s-3.35-7.5-7.5-7.5c-4.14,0-7.5,3.36-7.5,7.5S213.958,144.844,218.098,144.844z"
			/>
		<path d="M218.098,114.794c4.15,0,7.5-3.36,7.5-7.5c0-4.14-3.35-7.5-7.5-7.5c-4.14,0-7.5,3.36-7.5,7.5
			C210.598,111.434,213.958,114.794,218.098,114.794z"/>
		<path d="M218.098,174.894c4.15,0,7.5-3.35,7.5-7.5c0-4.14-3.35-7.5-7.5-7.5c-4.14,0-7.5,3.36-7.5,7.5
			C210.598,171.544,213.958,174.894,218.098,174.894z"/>
		<path d="M218.098,204.944c4.15,0,7.5-3.35,7.5-7.5c0-4.14-3.35-7.5-7.5-7.5c-4.14,0-7.5,3.36-7.5,7.5
			C210.598,201.594,213.958,204.944,218.098,204.944z"/>
		<path d="M218.098,475.414c4.15,0,7.5-3.35,7.5-7.5c0-4.14-3.35-7.5-7.5-7.5c-4.14,0-7.5,3.36-7.5,7.5
			C210.598,472.064,213.958,475.414,218.098,475.414z"/>
		<circle cx="37.788" cy="287.604" r="7.5"/>
		<circle cx="188.049" cy="287.604" r="7.5"/>
		<path d="M405.918,287.604c0-4.14-3.36-7.5-7.5-7.5c-4.149,0-7.5,3.36-7.5,7.5c0,4.14,3.351,7.5,7.5,7.5
			C402.558,295.104,405.918,291.744,405.918,287.604z"/>
		<circle cx="157.998" cy="287.604" r="7.5"/>
		<path d="M135.448,287.604c0-4.14-3.36-7.5-7.5-7.5c-4.15,0-7.5,3.36-7.5,7.5c0,4.14,3.35,7.5,7.5,7.5
			C132.088,295.104,135.448,291.744,135.448,287.604z"/>
		<path d="M97.888,280.104c-4.14,0-7.5,3.36-7.5,7.5c0,4.14,3.36,7.5,7.5,7.5c4.15,0,7.5-3.36,7.5-7.5
			C105.388,283.464,102.038,280.104,97.888,280.104z"/>
		<circle cx="338.308" cy="287.604" r="7.5"/>
		<path d="M67.838,295.104c4.15,0,7.5-3.36,7.5-7.5c0-4.14-3.35-7.5-7.5-7.5c-4.14,0-7.5,3.36-7.5,7.5
			C60.338,291.744,63.698,295.104,67.838,295.104z"/>
		<circle cx="308.258" cy="287.604" r="7.5"/>
		<path d="M255.649,287.604c0-4.14-3.35-7.5-7.49-7.5c-4.15,0-7.5,3.36-7.5,7.5c0,4.14,3.35,7.5,7.5,7.5
			C252.299,295.104,255.649,291.744,255.649,287.604z"/>
		<circle cx="278.208" cy="287.604" r="7.5"/>
		<path d="M375.859,287.604c0-4.14-3.351-7.5-7.5-7.5c-4.141,0-7.5,3.36-7.5,7.5c0,4.14,3.359,7.5,7.5,7.5
			C372.508,295.104,375.859,291.744,375.859,287.604z"/>
		<path d="M218.098,295.104c4.15,0,7.5-3.36,7.5-7.5c0-4.14-3.35-7.5-7.5-7.5c-4.14,0-7.5,3.36-7.5,7.5
			C210.598,291.744,213.958,295.104,218.098,295.104z"/>
		<path d="M435.967,179.012c0-4.142-3.357-7.5-7.5-7.5s-7.5,3.358-7.5,7.5v224.229c0,4.142,3.357,7.5,7.5,7.5s7.5-3.358,7.5-7.5
			V179.012z"/>
		<path d="M294.951,215.25c-7.889,0-11.42-4.097-11.42-8.157c0-3.701-1.967-5.21-6.789-5.21c-3.696,0-6.157,0.976-6.157,5.736
			c0,4.82,2.107,9.596,5.783,13.104c4.4,4.201,10.79,6.421,18.478,6.421c16.121,0,24.999-8.504,24.999-23.945v-2
			c0-7.668-3.292-13.313-9.55-16.439c4.564-3.196,7.233-9.543,7.233-17.453c0-13.095-7.454-19.735-22.156-19.735
			c-18.237,0-23.104,11.81-23.104,18.788c0,4.776,1.522,6.157,6.789,6.157c4.155,0,6.263-1.859,6.263-5.526
			c0-4.992,3.439-7.631,9.947-7.631c6.588,0,9.525,3.035,9.525,9.841c0,8.809-3.806,10.578-9.947,10.578
			c-2.824,0-4.578,2.117-4.578,5.526c0,3.293,1.797,5.421,4.578,5.421c8.079,0,11.842,3.328,11.842,10.473v2
			C306.688,211.646,303.178,215.25,294.951,215.25z"/>
		<path d="M382.677,172.042c0-15.781-8.766-24.472-24.682-24.472c-15.849,0-24.577,8.691-24.577,24.472v30.629
			c0,15.781,8.729,24.472,24.577,24.472c15.916,0,24.682-8.691,24.682-24.472V172.042z M369.521,202.672
			c0,8.346-3.878,12.578-11.525,12.578c-7.578,0-11.421-4.232-11.421-12.578v-30.629c0-8.346,3.843-12.578,11.421-12.578
			c7.647,0,11.525,4.232,11.525,12.578V202.672z"/>
		<path d="M82.956,384.302h-8.292l1.33-18.419h23.383c2.634,0,4.474-2.446,4.474-5.947c0-2.955-1.537-5.947-4.474-5.947H68.115
			c-2.06,0-3.245,1.545-3.523,4.6l-2.415,28.573c-0.101,0.715-0.22,1.843-0.22,2.667c0,3.577,1.876,5.315,5.736,5.315h15.262
			c7.54,0,11.525,4.24,11.525,12.262v2c0,8.137-3.913,12.262-11.631,12.262c-5.632,0-11.314-2.62-11.314-8.473
			c0-3.648-2.186-5.421-6.684-5.421c-4.356,0-6.474,2.014-6.474,6.158c0,9.454,7.724,19.63,24.683,19.63
			c15.619,0,24.577-8.804,24.577-24.156v-2C107.638,392.507,98.873,384.302,82.956,384.302z"/>
		<path d="M120.16,409.09c0,15.781,8.729,24.472,24.577,24.472c15.916,0,24.682-8.691,24.682-24.472V378.46
			c0-15.781-8.766-24.472-24.682-24.472c-15.849,0-24.577,8.691-24.577,24.472V409.09z M156.262,409.09
			c0,8.346-3.878,12.578-11.525,12.578c-7.578,0-11.421-4.232-11.421-12.578V378.46c0-8.346,3.843-12.578,11.421-12.578
			c7.647,0,11.525,4.232,11.525,12.578V409.09z"/>
		<path d="M279.032,424.17c-0.442,0.774-0.658,1.625-0.658,2.602c0,3.999,4.125,6.474,7.946,6.474c2.517,0,3.698-1.199,4.257-2.225
			l28.31-54.831c0.79-1.501,2.115-4.364,2.115-6.676v-10.841c0-2.479-3.326-4.684-5.947-4.684H277.69
			c-3.001,0-5.947,2.32-5.947,4.684v16.104c0,2.626,2.844,4.684,6.474,4.684c3.686,0,6.684-2.101,6.684-4.684v-8.894h22.945v5.271
			L279.032,424.17z"/>
		<path d="M332.261,378.46v30.629c0,15.781,8.729,24.472,24.577,24.472c15.916,0,24.682-8.691,24.682-24.472V378.46
			c0-15.781-8.766-24.472-24.682-24.472C340.99,353.989,332.261,362.68,332.261,378.46z M368.364,409.09
			c0,8.346-3.878,12.578-11.525,12.578c-7.578,0-11.421-4.232-11.421-12.578V378.46c0-8.346,3.843-12.578,11.421-12.578
			c7.647,0,11.525,4.232,11.525,12.578V409.09z"/>
		<path d="M88.27,147.518c-1.431,0-2.559,0.461-3.535,1.437l-10.892,10.473c-1.542,1.106-2.572,3.139-2.572,5.089
			c0,2.668,1.925,5.526,4.79,5.526c0.81,0,2.03-0.354,3.022-1.345l1.977-2.475v55.658c0,2.758,2.706,4.684,6.579,4.684
			c3.269,0,6.578-1.609,6.578-4.684v-69.679C94.218,149.309,91.131,147.518,88.27,147.518z"/>
		<path d="M131.738,215.302c-5.632,0-11.314-2.62-11.314-8.473c0-3.648-2.186-5.421-6.684-5.421c-4.356,0-6.474,2.014-6.474,6.158
			c0,9.454,7.724,19.63,24.683,19.63c15.619,0,24.577-8.804,24.577-24.156v-2c0-14.898-8.766-23.104-24.683-23.104h-8.292
			l1.33-18.419h23.383c2.634,0,4.474-2.446,4.474-5.947c0-2.955-1.537-5.947-4.474-5.947h-31.261c-2.06,0-3.245,1.545-3.523,4.599
			l-2.415,28.574c-0.101,0.715-0.22,1.842-0.22,2.667c0,3.577,1.876,5.315,5.736,5.315h15.262c7.54,0,11.525,4.24,11.525,12.262v2
			C143.369,211.177,139.456,215.302,131.738,215.302z"/>
	</g>
</g>
<g>
</g>
<g>
</g>
<g>
</g>
<g>
</g>
<g>
</g>
<g>
</g>
<g>
</g>
<g>
</g>
<g>
</g>
<g>
</g>
<g>
</g>
<g>
</g>
<g>
</g>
<g>
</g>
<g>
</g>
</svg>
