<?xml version="1.0" encoding="iso-8859-1"?>
<!-- Generator: Adobe Illustrator 19.0.0, SVG Export Plug-In . SVG Version: 6.00 Build 0)  -->
<svg version="1.1" id="Layer_1" xmlns="http://www.w3.org/2000/svg" xmlns:xlink="http://www.w3.org/1999/xlink" x="0px" y="0px"
	 viewBox="0 0 504.752 504.752" style="enable-background:new 0 0 504.752 504.752;" xml:space="preserve">
<g>
	<g>
		<path style="fill:#C4E2F2;" d="M461.952,7.5H231.743c-13.475,0-24.398,10.923-24.398,24.398v204.48
			c0,13.475,10.923,24.398,24.398,24.398h14.283v56l56-56h159.926c13.475,0,24.398-10.923,24.398-24.398V31.898
			C486.351,18.424,475.427,7.5,461.952,7.5z"/>
		<path style="fill:#2C92BF;" d="M113.247,268.248c15.281,29.547,26.949,49.533,55.819,78.402
			c28.87,28.87,48.848,40.53,78.41,55.811l49.731-49.731c5.138-5.138,13.471-5.138,18.609,0l73.522,73.522
			c5.138,5.138,5.138,13.471,0,18.609l-19.764,19.764c-57.482,57.482-169.282,38.888-263.326-55.156
			C12.194,315.417-6.4,203.618,51.083,146.136l19.764-19.764c5.138-5.138,13.471-5.138,18.609,0l73.529,73.529
			c5.138,5.138,5.138,13.471,0,18.609L113.247,268.248z"/>
		<path style="fill:#1F81A3;" d="M125.385,390.326c-94.048-94.048-112.644-205.848-55.162-263.33l-19.139,19.139
			c-57.482,57.482-38.886,169.282,55.162,263.33s205.848,112.644,263.33,55.162l19.139-19.139
			C331.233,502.97,219.433,484.374,125.385,390.326z"/>
		<path style="fill:#E6E6E6;" d="M89.456,126.371l73.529,73.529c5.138,5.138,5.138,13.471,0,18.609l-19.764,19.764l-92.138-92.138
			l19.764-19.764C75.985,121.233,84.318,121.233,89.456,126.371z"/>
		<path style="fill:#E6E6E6;" d="M315.815,352.73l73.522,73.522c5.138,5.138,5.138,13.471,0,18.609l-19.764,19.764l-92.131-92.131
			l19.764-19.764C302.344,347.592,310.677,347.592,315.815,352.73z"/>
		<path style="fill:#CCCCCC;" d="M360.232,415.756l-19.764,19.764l29.105,29.105l19.764-19.764c5.138-5.138,5.138-13.471,0-18.609
			l-29.105-29.105C365.37,402.285,365.37,410.618,360.232,415.756z"/>
		<path style="fill:#CCCCCC;" d="M133.88,189.405l-19.764,19.764l29.105,29.105l19.764-19.764c5.138-5.138,5.138-13.471,0-18.609
			l-29.105-29.105C139.018,175.934,139.018,184.267,133.88,189.405z"/>
		<g>
			<path style="fill:#ED3618;" d="M431.948,116.182l-2.62,20l-8.39,63.89c-1.51,11.51-11.31,20.11-22.92,20.11h-100.14
				c-11.61,0-21.41-8.6-22.92-20.11l-11.01-83.89l84-22.5L431.948,116.182z"/>
			<path style="fill:#FF491F;" d="M429.328,136.182l-8.39,63.89c-1.51,11.51-11.31,20.11-22.92,20.11h-68.14
				c-11.61,0-21.41-8.6-22.92-20.11l-5.686-43.299c-1.433-10.91,7.06-20.591,18.063-20.591H429.328z"/>
			<path style="fill:#ED3618;" d="M443.448,93.562v12.24c0,5.73-4.65,10.38-10.38,10.38h-170.24c-5.73,0-10.38-4.65-10.38-10.38
				v-12.24c0-5.73,4.65-10.38,10.38-10.38h170.24C438.798,83.182,443.448,87.832,443.448,93.562z"/>
			<path style="fill:#FF491F;" d="M443.448,93.562v12.24c0,5.73-4.65,10.38-10.38,10.38h-130.24c-5.73,0-10.38-4.65-10.38-10.38
				v-12.24c0-5.73,4.65-10.38,10.38-10.38h130.24C438.798,83.182,443.448,87.832,443.448,93.562z"/>
			<path style="fill:#3C3F4D;" d="M347.948,36.182L347.948,36.182c-9.389,0-17,7.611-17,17v81c0,9.389,7.611,17,17,17h0
				c9.389,0,17-7.611,17-17v-81C364.948,43.793,357.337,36.182,347.948,36.182z"/>
		</g>
	</g>
	<g>
		<path d="M321.123,347.429c-8.055-8.055-21.16-8.055-29.217,0l-45.846,45.847c-25.875-13.523-44.621-24.861-71.692-51.934
			c-27.064-27.064-38.404-45.805-51.934-71.676l45.855-45.855c8.055-8.055,8.055-21.161,0-29.215l-73.53-73.53
			c-8.055-8.054-21.162-8.053-29.215,0l-19.766,19.764c-40.635,40.635-46.1,106.36-14.618,175.815
			c1.71,3.772,6.15,5.443,9.928,3.735c3.772-1.71,5.444-6.155,3.734-9.927c-27.375-60.395-24.798-117.08,6.478-153.491
			l81.312,81.312l-24.672,24.672c-2.31,2.31-2.858,5.848-1.357,8.749c14.937,28.876,26.986,50.062,57.177,80.253
			c30.201,30.201,51.392,42.247,80.273,57.178c2.901,1.499,6.438,0.95,8.748-1.359l24.662-24.662l81.316,81.315
			c-26.264,22.545-63.458,30.394-105.691,22.09c-47.496-9.338-97.756-38.584-141.521-82.349
			c-22.129-22.128-40.495-45.727-54.589-70.143c-2.071-3.588-6.658-4.816-10.244-2.746c-3.588,2.071-4.817,6.658-2.746,10.245
			c14.749,25.551,33.917,50.196,56.972,73.25c45.849,45.848,98.847,76.554,149.233,86.46c11.994,2.358,23.644,3.523,34.84,3.523
			c35.794,0,66.951-11.909,89.864-34.822l19.765-19.764c8.055-8.055,8.055-21.161,0-29.215L321.123,347.429z M61.688,146.136
			l14.463-14.462c2.205-2.206,5.797-2.206,8.002,0l73.529,73.529c1.069,1.069,1.657,2.49,1.657,4.001
			c0,1.511-0.588,2.932-1.657,4.001l-14.462,14.462L61.688,146.136z M384.036,439.559l-14.462,14.462l-81.523-81.522l14.463-14.463
			c1.068-1.069,2.489-1.657,4.001-1.657s2.933,0.588,4.001,1.657l73.521,73.521C386.243,433.763,386.243,437.353,384.036,439.559z"
			/>
		<path d="M347.947,28.682c-13.51,0-24.5,10.991-24.5,24.5v22.5h-60.62c-9.859,0-17.88,8.021-17.88,17.88v12.24
			c0,7.91,5.168,14.626,12.301,16.977l10.271,78.272c1.991,15.182,15.04,26.631,30.353,26.631h100.149
			c15.312,0,28.36-11.448,30.354-26.63l10.271-78.273c7.133-2.351,12.301-9.067,12.301-16.977v-12.24
			c0-9.859-8.021-17.88-17.88-17.88h-60.62v-22.5C372.447,39.672,361.457,28.682,347.947,28.682z M338.447,53.182
			c0-5.238,4.262-9.5,9.5-9.5s9.5,4.262,9.5,9.5v81c0,5.238-4.262,9.5-9.5,9.5s-9.5-4.262-9.5-9.5V53.182z M259.947,93.562
			c0-1.588,1.292-2.88,2.88-2.88h60.62v18h-60.62c-1.588,0-2.88-1.292-2.88-2.88V93.562z M413.502,199.1
			c-1.016,7.743-7.671,13.582-15.48,13.582H297.872c-7.81,0-14.464-5.839-15.479-13.582l-9.897-75.418h50.951v10.5
			c0,13.509,10.99,24.5,24.5,24.5s24.5-10.991,24.5-24.5v-10.5h50.951L413.502,199.1z M433.067,90.682c1.588,0,2.88,1.292,2.88,2.88
			v12.24c0,1.588-1.292,2.88-2.88,2.88h-60.62v-18H433.067z"/>
		<path d="M486.349,163.268c4.143,0,7.5-3.358,7.5-7.5V31.898C493.849,14.31,479.54,0,461.951,0H231.742
			c-17.588,0-31.897,14.31-31.897,31.898v204.479c0,17.588,14.31,31.898,31.897,31.898h6.783v48.5c0,3.034,1.827,5.768,4.63,6.929
			c0.928,0.384,1.902,0.571,2.868,0.571c1.952,0,3.87-0.762,5.306-2.197l53.803-53.803h156.819c17.589,0,31.898-14.31,31.898-31.898
			v-55.609c0-4.142-3.357-7.5-7.5-7.5s-7.5,3.358-7.5,7.5v55.609c0,9.317-7.581,16.898-16.898,16.898H302.025
			c-1.989,0-3.896,0.79-5.304,2.197l-43.196,43.197v-37.894c0-4.142-3.357-7.5-7.5-7.5h-14.283c-9.317,0-16.897-7.581-16.897-16.898
			V31.898c0-9.318,7.58-16.898,16.897-16.898h230.209c9.317,0,16.898,7.581,16.898,16.898v123.869
			C478.849,159.91,482.207,163.268,486.349,163.268z"/>
	</g>
</g>
<g>
</g>
<g>
</g>
<g>
</g>
<g>
</g>
<g>
</g>
<g>
</g>
<g>
</g>
<g>
</g>
<g>
</g>
<g>
</g>
<g>
</g>
<g>
</g>
<g>
</g>
<g>
</g>
<g>
</g>
</svg>
