<?xml version="1.0" encoding="iso-8859-1"?>
<!-- Generator: Adobe Illustrator 19.0.0, SVG Export Plug-In . SVG Version: 6.00 Build 0)  -->
<svg version="1.1" id="Layer_1" xmlns="http://www.w3.org/2000/svg" xmlns:xlink="http://www.w3.org/1999/xlink" x="0px" y="0px"
	 viewBox="0 0 504.877 504.877" style="enable-background:new 0 0 504.877 504.877;" xml:space="preserve">
<g>
	<g>
		<path style="fill:#C4E2F2;" d="M438.945,33.929v330.14c0,14.6-11.83,26.43-26.43,26.43H42.375c-14.6,0-26.43-11.83-26.43-26.43
			V33.929c0-14.6,11.83-26.43,26.43-26.43h370.14C427.115,7.499,438.945,19.329,438.945,33.929z"/>
		<path style="fill:#83B2C6;" d="M438.945,33.929v31.57h-423v-31.57c0-14.6,11.83-26.43,26.43-26.43h370.14
			C427.115,7.499,438.945,19.329,438.945,33.929z"/>
		<g>
			
				<ellipse transform="matrix(0.7071 -0.7071 0.7071 0.7071 -177.7015 417.1153)" style="fill:#FF8E1D;" cx="414.652" cy="423.062" rx="46.667" ry="94.064"/>
			<path style="fill:#E2720E;" d="M480.935,489.796c-18.366,17.881-62.703,2.841-99.28-33.736s-51.617-80.914-33.736-99.28
				c-9.137,10.054,12.735,47.394,49.179,83.838S470.881,498.932,480.935,489.796z"/>
			<circle style="fill:#3C3F4D;" cx="273.319" cy="281.73" r="137.701"/>
			<path style="fill:#FFFFFF;" d="M342.625,351.03c-22.97,22.97-54.49,32.15-84.31,27.56c-19.87-3.06-38.99-12.25-54.3-27.56
				c-38.28-38.27-38.28-100.33,0-138.61c15.31-15.31,34.43-24.49,54.3-27.55c29.82-4.6,61.34,4.59,84.31,27.55
				C380.895,250.7,380.895,312.76,342.625,351.03z"/>
			<path style="fill:#E6E6E6;" d="M312.625,351.03c-15.31,15.31-34.43,24.5-54.31,27.56c-19.87-3.06-38.99-12.25-54.3-27.56
				c-38.28-38.27-38.28-100.33,0-138.61c15.31-15.31,34.43-24.49,54.3-27.55c19.88,3.06,39,12.24,54.31,27.55
				C350.905,250.7,350.905,312.76,312.625,351.03z"/>
		</g>
	</g>
	<g>
		<path d="M57.874,35.632c-1.219-2.887-4.151-4.776-7.297-4.623c-3.138,0.152-5.884,2.319-6.806,5.312
			c-2.056,6.678,5.755,12.274,11.454,8.328C58.107,42.654,59.165,38.867,57.874,35.632z"/>
		<path d="M108.874,35.632c-1.195-2.83-4.027-4.703-7.113-4.628c-3.273,0.079-6.161,2.347-7.039,5.493
			c-1.805,6.469,5.525,11.88,11.189,8.363C109.007,42.939,110.216,38.994,108.874,35.632z"/>
		<path d="M83.374,35.632c-1.219-2.887-4.151-4.776-7.297-4.623c-3.138,0.152-5.884,2.319-6.806,5.312
			c-2.056,6.678,5.755,12.274,11.454,8.328C83.607,42.654,84.665,38.867,83.374,35.632z"/>
		<path d="M52.179,113.032h115.494c4.142,0,7.5-3.358,7.5-7.5s-3.358-7.5-7.5-7.5H52.179c-4.142,0-7.5,3.358-7.5,7.5
			S48.036,113.032,52.179,113.032z"/>
		<path d="M52.179,149.077h115.494c4.142,0,7.5-3.358,7.5-7.5s-3.358-7.5-7.5-7.5H52.179c-4.142,0-7.5,3.358-7.5,7.5
			S48.036,149.077,52.179,149.077z"/>
		<path d="M52.179,185.121h95.493c4.142,0,7.5-3.358,7.5-7.5s-3.358-7.5-7.5-7.5H52.179c-4.142,0-7.5,3.358-7.5,7.5
			S48.036,185.121,52.179,185.121z"/>
		<path d="M52.179,221.166h62.997c4.142,0,7.5-3.358,7.5-7.5s-3.358-7.5-7.5-7.5H52.179c-4.142,0-7.5,3.358-7.5,7.5
			S48.036,221.166,52.179,221.166z"/>
		<path d="M492.125,444.365c-6.692-19.872-20.603-41.041-39.169-59.607c-2.893-2.893-5.855-5.659-8.861-8.316
			c1.538-3.918,2.35-8.103,2.35-12.372V33.93c0-18.709-15.221-33.93-33.93-33.93H42.375C23.666,0,8.445,15.221,8.445,33.93v88.373
			c0,4.142,3.358,7.5,7.5,7.5s7.5-3.358,7.5-7.5V73h408V364.07c0,0.676-0.048,1.346-0.118,2.012
			c-9.636-7.115-19.54-12.91-29.269-17.121c15.51-29.615,20.465-64.043,13.222-97.813c-0.869-4.05-4.856-6.629-8.906-5.76
			c-4.05,0.869-6.629,4.856-5.76,8.906c9.319,43.449-3.851,88.123-35.229,119.5c-50.766,50.766-133.366,50.765-184.131,0
			c-50.765-50.765-50.765-133.366,0-184.131c50.765-50.764,133.365-50.765,184.131,0c12.431,12.431,22.054,26.921,28.602,43.067
			c1.557,3.839,5.933,5.689,9.769,4.132c3.838-1.557,5.688-5.93,4.132-9.769c-7.306-18.017-18.037-34.179-31.896-48.037
			c-56.613-56.613-148.73-56.614-205.344,0c-56.151,56.151-56.6,147.22-1.367,203.942H42.375c-10.438,0-18.93-8.492-18.93-18.93
			V147.305c0-4.142-3.358-7.5-7.5-7.5s-7.5,3.358-7.5,7.5V364.07c0,18.709,15.221,33.93,33.93,33.93h143.969
			c25.679,19.235,56.324,28.862,86.975,28.862c23.119,0,46.236-5.475,67.222-16.418c7.464,17.247,19.934,35.042,35.811,50.919
			c10.896,10.896,22.566,20.119,34.687,27.411c1.21,0.728,2.543,1.074,3.859,1.074c2.545,0,5.026-1.295,6.434-3.635
			c2.135-3.549,0.989-8.157-2.561-10.293c-11.075-6.663-21.779-15.129-31.813-25.164c-15.127-15.127-26.802-31.97-33.384-48.007
			c7.922-5.257,15.441-11.37,22.417-18.347c6.93-6.93,13.05-14.449,18.35-22.416c16.036,6.576,32.879,18.25,48.008,33.379
			c16.963,16.963,29.592,36.065,35.56,53.788c5.295,15.723,4.549,28.522-2.046,35.118c-7.106,7.106-21.061,7.439-38.287,0.914
			c-3.873-1.468-8.203,0.483-9.67,4.357s0.483,8.203,4.357,9.67c9.991,3.785,19.233,5.666,27.451,5.666
			c10.967,0,20.107-3.352,26.756-10C497.404,483.943,499.412,466.004,492.125,444.365z M23.445,58V33.93
			c0-10.438,8.492-18.93,18.93-18.93h370.14c10.438,0,18.93,8.492,18.93,18.93V58H23.445z"/>
		<path d="M198.711,207.122c-41.139,41.139-41.139,108.078,0,149.216c20.572,20.572,47.585,30.854,74.608,30.854
			c27.016,0,54.042-10.287,74.608-30.854c41.139-41.139,41.139-108.077,0-149.216C306.788,165.983,239.85,165.982,198.711,207.122z
			 M337.321,345.731c-35.291,35.29-92.713,35.29-128.003,0c-35.291-35.291-35.291-92.712,0-128.003
			c17.645-17.645,40.823-26.468,64.001-26.468s46.356,8.823,64.002,26.468C372.612,253.019,372.612,310.441,337.321,345.731z"/>
		<path d="M331.064,274.229h-50.247v-50.247c0-4.142-3.358-7.5-7.5-7.5s-7.5,3.358-7.5,7.5v50.247H215.57
			c-4.142,0-7.5,3.358-7.5,7.5s3.358,7.5,7.5,7.5h50.247v50.247c0,4.142,3.358,7.5,7.5,7.5s7.5-3.358,7.5-7.5v-50.247h50.247
			c4.142,0,7.5-3.358,7.5-7.5S335.206,274.229,331.064,274.229z"/>
	</g>
</g>
<g>
</g>
<g>
</g>
<g>
</g>
<g>
</g>
<g>
</g>
<g>
</g>
<g>
</g>
<g>
</g>
<g>
</g>
<g>
</g>
<g>
</g>
<g>
</g>
<g>
</g>
<g>
</g>
<g>
</g>
</svg>
