<?xml version="1.0" encoding="iso-8859-1"?>
<!-- Generator: Adobe Illustrator 19.0.0, SVG Export Plug-In . SVG Version: 6.00 Build 0)  -->
<svg version="1.1" id="Layer_1" xmlns="http://www.w3.org/2000/svg" xmlns:xlink="http://www.w3.org/1999/xlink" x="0px" y="0px"
	 viewBox="0 0 505 505" style="enable-background:new 0 0 505 505;" xml:space="preserve">
<g>
	<g>
		<path style="fill:#E6E6E6;" d="M425.988,108.931H79.013c-21.816,0-39.502,17.686-39.502,39.502v273.982H465.49V148.432
			C465.49,126.616,447.804,108.931,425.988,108.931z"/>
		<path style="fill:#C4E2F2;" d="M69.511,392.415V148.433c0-5.239,4.262-9.502,9.501-9.502h346.975c5.239,0,9.502,4.263,9.502,9.502
			v243.982H69.511z"/>
		<path style="fill:#CCCCCC;" d="M497.503,422.415v10.51c0,29.26-23.72,52.99-52.99,52.99H60.483c-29.26,0-52.98-23.73-52.98-52.99
			v-10.51H497.503z"/>
		<path style="fill:#E6E6E6;" d="M497.503,422.415v10.51c0,29.26-23.72,52.99-52.99,52.99h-292.53c-29.27,0-52.99-23.73-52.99-52.99
			v-10.51H497.503z"/>
		<path style="fill:#CCCCCC;" d="M280.814,452.413h-56.628c-13.77,0-24.933-11.163-24.933-24.933v-5.065h106.495v5.065
			C305.747,441.25,294.584,452.413,280.814,452.413z"/>
		<g>
			<path style="fill:#3C3F4D;" d="M304.019,288.123c13.386-19.368,12.671-45.524-2.114-64.17l-111.337-14.228l55.152,93.333
				L304.019,288.123z"/>
			<path style="fill:#2C92BF;" d="M352.781,134.596c7.764-21.114,3.161-45.743-13.789-62.692S297.414,50.351,276.3,58.115
				l-0.884,66.761L352.781,134.596z"/>
			<path style="fill:#1F81A3;" d="M339.431,72.356c16.589,16.928,21.044,41.309,13.35,62.24l-67.932-8.535l47.588-11.809
				C342.966,96.355,348.439,81.973,339.431,72.356z"/>
			<polygon style="fill:#2C92BF;" points="284.849,126.061 277.75,127.206 278.33,125.241 			"/>
			<polygon style="fill:#FF491F;" points="237.275,19.09 391.813,173.628 281.802,235.203 175.7,129.102 			"/>
			<polygon style="fill:#ED3618;" points="332.572,114.387 391.813,173.628 281.802,235.203 239.707,193.108 			"/>
			<path style="fill:#2C92BF;" d="M175.7,129.099l-64.421,64.421c-8.549,8.549-8.549,22.41,0,30.959l75.14,75.14
				c8.549,8.549,22.41,8.549,30.959,0l64.421-64.421"/>
			<path style="fill:#1F81A3;" d="M215.965,271.336c-8.549,8.549-22.41,8.549-30.959,0l-75.14-75.14
				c-0.166-0.166-0.322-0.337-0.481-0.507c-6.592,8.584-5.965,20.93,1.895,28.79l75.14,75.14c8.549,8.549,22.41,8.549,30.959,0
				l64.421-64.421l-14.848-14.848L215.965,271.336z"/>
			<path style="fill:#FF491F;" d="M344.119,334.049l-23.794,23.794c-4.349,4.349-11.187,4.978-16.264,1.485l-65.329-45.007
				l-21.348-14.701l42.144-42.144l21.348,14.701l61.455,42.334C348.906,319.038,349.754,328.414,344.119,334.049z"/>
			<polygon style="fill:#ED3618;" points="280.875,272.178 238.732,314.321 217.384,299.62 259.528,257.477 			"/>
		</g>
	</g>
	<g>
		<path d="M69.515,303.252c4.142,0,7.5-3.358,7.5-7.5V148.435c0-1.103,0.897-2,2-2h56.848c4.142,0,7.5-3.358,7.5-7.5
			s-3.358-7.5-7.5-7.5H79.015c-9.374,0-17,7.626-17,17v147.317C62.015,299.894,65.373,303.252,69.515,303.252z"/>
		<path d="M497.5,414.915h-24.516v-266.48c0-25.916-21.084-47-47-47h-63.282c-2.483-12.959-8.746-25.174-18.407-34.834
			c-17.268-17.267-42.69-23.704-65.945-17.04l-35.774-35.774c-1.662-1.661-4.006-2.447-6.332-2.126
			c-2.327,0.322-4.369,1.716-5.516,3.766l-48.139,86.008H79.015c-25.916,0-47,21.084-47,47v266.48H7.5c-4.142,0-7.5,3.358-7.5,7.5
			v10.513c0,33.35,27.132,60.482,60.483,60.482h384.035c33.35,0,60.482-27.132,60.482-60.482v-10.513
			C505,418.273,501.643,414.915,497.5,414.915z M333.688,77.207c11.303,11.303,16.622,27.105,14.914,42.606l-57.519-57.519
			C306.584,60.587,322.387,65.905,333.688,77.207z M238.978,31.401l140.521,140.521l-96.408,53.96l-98.073-98.072L238.978,31.401z
			 M301.596,277.344l-30.397-20.938l15.171-15.171l13.225-7.402C307.363,247.047,308.1,263.51,301.596,277.344z M212.075,294.316
			c-2.718,2.718-6.333,4.215-10.176,4.215c-3.844,0-7.458-1.497-10.177-4.215l-75.14-75.14c-2.718-2.718-4.215-6.332-4.215-10.176
			c0-3.844,1.497-7.458,4.215-10.176l59.118-59.118l95.493,95.493L212.075,294.316z M260.413,267.191l39.307,27.076
			c0.012,0.008,0.022,0.018,0.033,0.026c0.008,0.006,0.017,0.009,0.025,0.015l38.299,26.381c1.769,1.218,2.174,2.94,2.257,3.858
			c0.084,0.917-0.002,2.684-1.521,4.203l-23.789,23.789c-1.797,1.796-4.619,2.053-6.71,0.613l-79.264-54.599L260.413,267.191z
			 M490,432.928c0,25.079-20.403,45.482-45.482,45.482H60.483C35.404,478.41,15,458.007,15,432.928v-3.013h176.854
			c1.25,16.75,15.268,29.999,32.332,29.999h56.628c17.064,0,31.082-13.249,32.332-29.999h54.441c4.143,0,7.5-3.358,7.5-7.5
			s-3.357-7.5-7.5-7.5H47.015v-266.48c0-17.645,14.355-32,32-32h95.179l-4.531,8.095l-63.687,63.687
			c-5.551,5.551-8.609,12.932-8.609,20.783c0,7.851,3.058,15.232,8.609,20.783l75.14,75.14c5.551,5.551,12.932,8.609,20.783,8.609
			c5.68,0,11.11-1.608,15.783-4.596l82.123,56.569c3.486,2.401,7.499,3.577,11.49,3.577c5.227,0,10.416-2.016,14.337-5.937
			l23.789-23.789c4.268-4.268,6.4-10.163,5.852-16.174s-3.715-11.422-8.686-14.846l-32.516-22.398
			c9.687-18.625,9.122-41.301-1.391-59.429l82.791-46.339c2.05-1.147,3.444-3.189,3.766-5.516c0.322-2.327-0.464-4.67-2.125-6.332
			l-21.888-21.888h50.76c1.103,0,2,0.897,2,2v236.48H77.015v-59.161c0-4.142-3.358-7.5-7.5-7.5s-7.5,3.358-7.5,7.5v66.661
			c0,4.142,3.358,7.5,7.5,7.5h365.97c4.143,0,7.5-3.358,7.5-7.5v-243.98c0-9.374-7.626-17-17-17h-64.352
			c1.324-4.943,2.067-9.975,2.239-15h62.113c17.645,0,32,14.355,32,32v266.48h-65.396c-4.143,0-7.5,3.358-7.5,7.5s3.357,7.5,7.5,7.5
			H490V432.928z M206.922,429.915h91.156c-1.188,8.464-8.478,14.999-17.264,14.999h-56.628
			C215.399,444.913,208.11,438.379,206.922,429.915z"/>
		<path d="M182.083,177.906c-2.929-2.929-7.678-2.929-10.606,0l-33.939,33.939c-2.929,2.929-2.929,7.678,0,10.606
			c1.464,1.464,3.384,2.197,5.303,2.197s3.839-0.732,5.303-2.197l33.939-33.939C185.013,185.584,185.013,180.835,182.083,177.906z"
			/>
		<path d="M201.709,197.532c-2.929-2.93-7.678-2.929-10.606,0l-33.939,33.939c-2.929,2.929-2.929,7.678,0,10.606
			c1.464,1.465,3.384,2.197,5.303,2.197c1.919,0,3.839-0.732,5.303-2.197l33.939-33.939
			C204.639,205.21,204.639,200.461,201.709,197.532z"/>
		<path d="M210.729,217.158l-33.939,33.939c-2.929,2.929-2.929,7.678,0,10.606c1.464,1.464,3.384,2.197,5.303,2.197
			s3.839-0.732,5.303-2.197l33.939-33.939c2.929-2.929,2.929-7.678,0-10.606C218.407,214.23,213.658,214.23,210.729,217.158z"/>
	</g>
</g>
<g>
</g>
<g>
</g>
<g>
</g>
<g>
</g>
<g>
</g>
<g>
</g>
<g>
</g>
<g>
</g>
<g>
</g>
<g>
</g>
<g>
</g>
<g>
</g>
<g>
</g>
<g>
</g>
<g>
</g>
</svg>
