<?xml version="1.0" encoding="iso-8859-1"?>
<!-- Generator: Adobe Illustrator 19.0.0, SVG Export Plug-In . SVG Version: 6.00 Build 0)  -->
<svg version="1.1" id="Layer_1" xmlns="http://www.w3.org/2000/svg" xmlns:xlink="http://www.w3.org/1999/xlink" x="0px" y="0px"
	 viewBox="0 0 505 505" style="enable-background:new 0 0 505 505;" xml:space="preserve">
<g>
	<g>
		<path style="fill:#E6E6E6;" d="M425.988,119.798H79.013c-21.816,0-39.502,17.686-39.502,39.502v273.982H465.49V159.3
			C465.49,137.484,447.804,119.798,425.988,119.798z"/>
		<path style="fill:#C4E2F2;" d="M69.511,403.282V159.3c0-5.239,4.262-9.502,9.501-9.502h346.975c5.239,0,9.502,4.263,9.502,9.502
			v243.982H69.511z"/>
		<path style="fill:#CCCCCC;" d="M497.503,433.282v10.51c0,29.26-23.72,52.99-52.99,52.99H60.483c-29.26,0-52.98-23.73-52.98-52.99
			v-10.51H497.503z"/>
		<path style="fill:#E6E6E6;" d="M497.503,433.282v10.51c0,29.26-23.72,52.99-52.99,52.99h-292.53c-29.27,0-52.99-23.73-52.99-52.99
			v-10.51H497.503z"/>
		<path style="fill:#CCCCCC;" d="M280.814,463.281h-56.628c-13.77,0-24.933-11.163-24.933-24.933v-5.065h106.495v5.065
			C305.748,452.118,294.584,463.281,280.814,463.281z"/>
		<g>
			<path style="fill:#FFD348;" d="M415.951,62.441c0,0,0,238.476-163.449,272.68C89.052,300.917,89.052,62.441,89.052,62.441
				L252.501,8.222L415.951,62.441z"/>
			<path style="fill:#FFBE1D;" d="M252.501,8.222v326.899C89.052,300.917,89.052,62.441,89.052,62.441L252.501,8.222z"/>
			<path style="fill:#FF491F;" d="M381.266,86.077c-1.915,21.822-6.591,56.06-17.979,91.145
				c-22.283,68.635-59.536,110.191-110.785,123.641c-51.623-13.549-89.03-55.579-111.246-125.069
				c-11.128-34.798-15.691-68.268-17.552-89.704l128.798-42.724L381.266,86.077z"/>
			<path style="fill:#ED3618;" d="M252.501,43.367v257.496c-51.623-13.549-89.03-55.579-111.246-125.069
				c-11.128-34.798-15.691-68.268-17.552-89.704L252.501,43.367z"/>
		</g>
	</g>
	<g>
		<path d="M497.5,425.782h-24.515v-266.48c0-25.916-21.084-47-47-47h-6.483c3.87-28.655,3.949-48.447,3.949-49.861
			c0-3.232-2.07-6.101-5.139-7.119L254.862,1.104c-1.533-0.509-3.189-0.509-4.723,0L86.69,55.322
			c-3.067,1.018-5.139,3.886-5.139,7.119c0,1.415,0.079,21.206,3.949,49.861h-6.486c-25.916,0-47,21.084-47,47v266.48H7.5
			c-4.143,0-7.5,3.358-7.5,7.5v10.513c0,33.351,27.133,60.483,60.483,60.483h384.034c33.35,0,60.482-27.132,60.482-60.483v-10.513
			C505,429.14,501.643,425.782,497.5,425.782z M298.077,440.782c-1.188,8.464-8.477,14.999-17.263,14.999h-56.628
			c-8.787,0-16.076-6.534-17.264-14.999H298.077z M252.501,16.124l155.824,51.688c-0.559,15.881-3.586,64.686-19.949,115.857
			c-11.561,36.154-27.409,66.291-47.106,89.57c-23.964,28.324-53.822,46.557-88.769,54.21
			c-34.886-7.641-64.706-25.827-88.648-54.069c-19.689-23.226-35.542-53.295-47.117-89.373
			C100.305,132.799,97.247,83.745,96.681,67.812L252.501,16.124z M47.015,159.302c0-17.645,14.355-32,32-32h8.751
			c0.808,4.839,1.721,9.849,2.753,15H79.015c-9.374,0-17,7.626-17,17v243.98c0,4.142,3.357,7.5,7.5,7.5h365.971
			c4.143,0,7.5-3.358,7.5-7.5v-43.159c0-4.142-3.357-7.5-7.5-7.5s-7.5,3.358-7.5,7.5v35.659H77.015v-236.48c0-1.103,0.897-2,2-2
			H93.79c2.365,10.022,5.183,20.408,8.549,30.937c12.164,38.041,28.968,69.899,49.942,94.69
			c26.524,31.351,59.727,51.381,98.684,59.533c0.507,0.106,1.021,0.159,1.536,0.159s1.029-0.053,1.536-0.159
			c38.957-8.152,72.159-28.182,98.685-59.533c20.975-24.792,37.777-56.65,49.941-94.69c3.367-10.528,6.185-20.914,8.55-30.937
			h14.772c1.103,0,2,0.897,2,2v175.82c0,4.142,3.357,7.5,7.5,7.5s7.5-3.358,7.5-7.5v-175.82c0-9.374-7.626-17-17-17h-11.502
			c1.032-5.151,1.945-10.161,2.753-15h8.749c17.645,0,32,14.355,32,32v266.48H47.015V159.302z M490,443.795
			c0,25.08-20.403,45.483-45.482,45.483H60.483c-25.08,0-45.483-20.403-45.483-45.483v-3.013h176.854
			c1.25,16.75,15.269,29.999,32.333,29.999h56.628c17.064,0,31.081-13.249,32.332-29.999H490V443.795z"/>
		<path d="M148.591,215.234c1.766,3.747,6.232,5.351,9.982,3.585c3.746-1.767,5.351-6.236,3.584-9.982
			c-5.079-10.773-9.708-22.658-13.758-35.326c-9.913-30.999-14.526-60.906-16.672-82.179l120.773-40.062l120.736,40.047
			c-2.21,21.795-6.944,52.353-17.084,83.59c-21.148,65.142-56.018,104.894-103.652,118.187
			c-32.349-9.03-58.982-30.373-79.188-63.464c-2.159-3.535-6.775-4.651-10.31-2.492c-3.535,2.158-4.651,6.774-2.493,10.31
			c22.69,37.16,52.999,60.937,90.086,70.671c0.624,0.164,1.265,0.246,1.904,0.246s1.279-0.082,1.903-0.246
			c53.873-14.138,92.906-57.398,116.017-128.58c11.525-35.508,16.321-70.067,18.316-92.805c0.304-3.462-1.812-6.68-5.11-7.774
			l-128.765-42.71c-1.533-0.509-3.189-0.509-4.723,0L121.342,78.972c-3.297,1.094-5.411,4.307-5.11,7.768
			c1.926,22.184,6.592,56.039,17.881,91.338C138.36,191.368,143.231,203.869,148.591,215.234z"/>
		<path d="M252.501,225.901c6.245,0,11.724-5.478,11.724-11.723c0-6.355-5.369-11.724-11.724-11.724
			c-6.573,0-11.723,5.149-11.723,11.724C240.778,220.642,246.037,225.901,252.501,225.901z"/>
		<path d="M252.331,190.424c3.279,0,8.482-1.793,8.482-6.606c0-11.254,0.606-24.606,1.193-37.518
			c0.587-12.915,1.194-26.27,1.194-37.529c0-5.597-4.47-9.506-10.87-9.506s-10.7,3.82-10.7,9.506c0,11.26,0.563,24.614,1.108,37.529
			c0.545,12.912,1.108,26.264,1.108,37.519C243.848,187.954,247.019,190.424,252.331,190.424z"/>
	</g>
</g>
<g>
</g>
<g>
</g>
<g>
</g>
<g>
</g>
<g>
</g>
<g>
</g>
<g>
</g>
<g>
</g>
<g>
</g>
<g>
</g>
<g>
</g>
<g>
</g>
<g>
</g>
<g>
</g>
<g>
</g>
</svg>
