<?xml version="1.0" encoding="iso-8859-1"?>
<!-- Generator: Adobe Illustrator 19.0.0, SVG Export Plug-In . SVG Version: 6.00 Build 0)  -->
<svg version="1.1" id="Layer_1" xmlns="http://www.w3.org/2000/svg" xmlns:xlink="http://www.w3.org/1999/xlink" x="0px" y="0px"
	 viewBox="0 0 505 505" style="enable-background:new 0 0 505 505;" xml:space="preserve">
<g>
	<g>
		<g>
			<path style="fill:#FFE14D;" d="M432.791,182.58c-4.987-233.44-355.596-233.44-360.583,0c-0.054,2.547-0.082,5.1-0.082,7.66
				c0,132.051,72.765,247.088,180.373,307.26c107.608-60.172,180.373-175.209,180.373-307.26
				C432.873,187.68,432.846,185.126,432.791,182.58z"/>
			<path style="fill:#FFBE1D;" d="M252.5,497.499c-107.61-60.17-180.38-175.21-180.38-307.26c0-2.56,0.03-5.11,0.08-7.66
				c2.48-116.04,90.36-174.39,178.73-175.07c-66.14,0.91-131.77,59.26-133.63,175.07c-0.04,2.55-0.07,5.1-0.07,7.66
				C117.23,322.289,171.8,437.329,252.5,497.499z"/>
			<path style="fill:#C4E2F2;" d="M253.022,331.416c-33.058,0-63.45-11.415-87.445-30.504
				c-16.949-13.488-30.705-30.806-39.97-50.645c-4.503-9.645-7.942-19.895-10.172-30.593c0-0.011,0-0.011,0-0.011
				c-1.938-9.287-2.958-18.909-2.958-28.779c0-77.609,62.923-140.532,140.544-140.532c41.661,0,79.099,18.137,104.831,46.949
				c4.839,5.411,9.264,11.202,13.23,17.33c14.216,21.956,22.472,48.136,22.472,76.254c0,1.232-0.011,2.464-0.045,3.685
				C391.549,270.487,329.399,331.416,253.022,331.416z"/>
			<path style="fill:#83B2C6;" d="M253.022,331.416c-33.058,0-63.45-11.415-87.445-30.504
				c-16.949-13.488-30.705-30.806-39.97-50.645c-4.503-9.645-7.942-19.895-10.172-30.593c0-0.011,0-0.011,0-0.011
				c-1.938-9.287-2.958-18.91-2.958-28.779c0-77.609,62.923-140.532,140.544-140.532c7.461,0,14.787,0.582,21.945,1.703
				c-67.214,10.519-118.632,68.67-118.632,138.83c0,9.869,1.019,19.492,2.957,28.779c0,0,0,0,0,0.011
				c2.229,10.698,5.668,20.948,10.172,30.593c9.264,19.839,23.021,37.158,39.97,50.645c18.585,14.776,40.989,24.959,65.511,28.79
				C267.798,330.834,260.483,331.416,253.022,331.416z"/>
		</g>
		<g>
			<path style="fill:#ED3618;" d="M336.496,173.47l-2.62,20l-8.39,63.89c-1.51,11.51-11.31,20.11-22.92,20.11h-100.14
				c-11.61,0-21.41-8.6-22.92-20.11l-11.01-83.89l84-22.5L336.496,173.47z"/>
			<path style="fill:#FF491F;" d="M333.876,193.47l-8.39,63.89c-1.51,11.51-11.31,20.11-22.92,20.11h-68.14
				c-11.61,0-21.41-8.6-22.92-20.11l-5.686-43.3c-1.433-10.91,7.06-20.59,18.063-20.59H333.876z"/>
			<path style="fill:#ED3618;" d="M347.996,150.85v12.24c0,5.73-4.65,10.38-10.38,10.38h-170.24c-5.73,0-10.38-4.65-10.38-10.38
				v-12.24c0-5.73,4.65-10.38,10.38-10.38h170.24C343.346,140.47,347.996,145.12,347.996,150.85z"/>
			<path style="fill:#FF491F;" d="M347.996,150.85v12.24c0,5.73-4.65,10.38-10.38,10.38h-130.24c-5.73,0-10.38-4.65-10.38-10.38
				v-12.24c0-5.73,4.65-10.38,10.38-10.38h130.24C343.346,140.47,347.996,145.12,347.996,150.85z"/>
			<path style="fill:#3C3F4D;" d="M252.496,93.47L252.496,93.47c-9.389,0-17,7.611-17,17v81c0,9.389,7.611,17,17,17h0
				c9.389,0,17-7.611,17-17v-81C269.496,101.081,261.885,93.47,252.496,93.47z"/>
		</g>
	</g>
	<g>
		<path d="M440.29,182.419c-1.203-56.324-22.064-103.634-60.328-136.816C346.049,16.196,300.783,0,252.5,0
			c-48.282,0-93.549,16.196-127.461,45.604C86.775,78.786,65.914,126.096,64.71,182.418c-0.056,2.588-0.084,5.22-0.084,7.821
			c0,65.11,17.602,128.889,50.9,184.441c32.337,53.946,78.436,98.68,133.313,129.365c1.137,0.636,2.398,0.954,3.66,0.954
			s2.523-0.318,3.66-0.954c39.895-22.308,74.787-51.632,103.707-87.158c2.615-3.212,2.131-7.937-1.082-10.551
			c-3.21-2.615-7.936-2.129-10.551,1.082c-26.831,32.96-59.023,60.349-95.733,81.46c-50.986-29.334-93.836-71.409-124.107-121.91
			C96.49,313.746,79.626,252.634,79.626,190.24c0-2.495,0.027-5.018,0.08-7.5c1.11-51.971,20.185-95.474,55.159-125.804
			C166.05,29.893,207.827,15,252.5,15c44.674,0,86.45,14.893,117.635,41.936c34.975,30.33,54.049,73.833,55.159,125.805
			c0.053,2.481,0.08,5.004,0.08,7.499c0,70.626-21.23,138.495-61.396,196.268c-2.364,3.401-1.524,8.075,1.877,10.439
			c3.399,2.364,8.074,1.523,10.439-1.877c41.921-60.299,64.079-131.128,64.079-204.831
			C440.374,187.638,440.345,185.007,440.29,182.419z"/>
		<path d="M401.049,190.878c0-38.864-14.947-75.581-42.087-103.388c-27.093-27.759-63.341-43.597-102.054-44.596
			c-1.289-0.036-2.591-0.048-3.892-0.048c-28.629,0-56.406,8.187-80.329,23.675c-6.42,4.155-12.562,8.844-18.251,13.933
			c-31.428,28.067-49.453,68.315-49.453,110.424c0,81.631,66.407,148.043,148.033,148.043c10.146,0,20.286-1.036,30.139-3.08
			c0.061-0.011,0.12-0.022,0.18-0.035c11.122-2.317,21.968-5.923,32.238-10.718c20.656-9.646,39.101-24.202,53.341-42.096
			C389.937,256.565,401.049,224.712,401.049,190.878z M357.177,273.653c-12.804,16.088-29.384,29.174-47.95,37.844
			c-9.171,4.282-18.856,7.508-28.788,9.591c-0.059,0.011-0.117,0.022-0.176,0.035c-8.901,1.857-18.068,2.799-27.246,2.799
			c-73.354,0-133.033-59.683-133.033-133.043c0-37.841,16.199-74.012,44.449-99.241c5.116-4.576,10.636-8.79,16.406-12.524
			c21.489-13.914,46.448-21.268,72.178-21.268c1.162,0,2.325,0.01,3.491,0.042c34.798,0.898,67.371,15.132,91.719,40.079
			c24.391,24.989,37.822,57.985,37.822,92.911C386.049,221.286,376.065,249.909,357.177,273.653z"/>
		<path d="M337.617,132.97h-60.62v-22.5c0-13.509-10.99-24.5-24.5-24.5s-24.5,10.991-24.5,24.5v22.5h-60.62
			c-9.859,0-17.88,8.021-17.88,17.88v12.24c0,7.91,5.168,14.626,12.301,16.977l3.399,25.906c0.496,3.776,3.719,6.525,7.427,6.525
			c0.325,0,0.654-0.021,0.985-0.065c4.107-0.539,7-4.305,6.461-8.412l-3.025-23.052h50.951v10.5c0,13.509,10.99,24.5,24.5,24.5
			s24.5-10.99,24.5-24.5v-10.5h50.951l-9.896,75.418c-1.016,7.743-7.671,13.582-15.48,13.582H202.421
			c-7.81,0-14.464-5.838-15.479-13.582l-4.319-32.915c-0.54-4.106-4.313-7.003-8.412-6.46c-4.107,0.539-7,4.305-6.461,8.412
			l4.319,32.914c1.991,15.182,15.04,26.63,30.353,26.63h100.149c15.312,0,28.361-11.448,30.354-26.63l10.271-78.273
			c7.133-2.351,12.301-9.067,12.301-16.977v-12.24C355.497,140.991,347.476,132.97,337.617,132.97z M167.376,165.97
			c-1.588,0-2.88-1.292-2.88-2.88v-12.24c0-1.588,1.292-2.88,2.88-2.88h60.62v18H167.376z M261.997,191.47
			c0,5.238-4.262,9.5-9.5,9.5s-9.5-4.261-9.5-9.5v-81c0-5.238,4.262-9.5,9.5-9.5s9.5,4.262,9.5,9.5V191.47z M276.997,147.97h60.62
			c1.588,0,2.88,1.292,2.88,2.88v12.24c0,1.588-1.292,2.88-2.88,2.88h-60.62V147.97z"/>
	</g>
</g>
<g>
</g>
<g>
</g>
<g>
</g>
<g>
</g>
<g>
</g>
<g>
</g>
<g>
</g>
<g>
</g>
<g>
</g>
<g>
</g>
<g>
</g>
<g>
</g>
<g>
</g>
<g>
</g>
<g>
</g>
</svg>
