<?xml version="1.0" encoding="iso-8859-1"?>
<!-- Generator: Adobe Illustrator 19.0.0, SVG Export Plug-In . SVG Version: 6.00 Build 0)  -->
<svg version="1.1" id="Layer_1" xmlns="http://www.w3.org/2000/svg" xmlns:xlink="http://www.w3.org/1999/xlink" x="0px" y="0px"
	 viewBox="0 0 505.091 505.091" style="enable-background:new 0 0 505.091 505.091;" xml:space="preserve">
<g>
	<g>
		<path style="fill:#E5E5E5;" d="M372.952,7.5v106.39h-90.33c-8.55,0-16.29,3.46-21.9,9.05c-5.59,5.61-9.06,13.35-9.06,21.9
			c0,8.54-3.46,16.28-9.05,21.89c-5.61,5.6-13.34,9.06-21.9,9.06c-17.09,0-30.95-13.85-30.95-30.95V7.5H372.952z"/>
		<path style="fill:#CBCBCB;" d="M372.952,100.501v13.389h-90.33c-8.55,0-16.29,3.46-21.9,9.05c-5.59,5.61-9.06,13.35-9.06,21.9
			c0,8.54-3.46,16.28-9.05,21.89c-5.61,5.6-13.34,9.06-21.9,9.06c-17.09,0-30.95-13.85-30.95-30.95v-44.339H372.952z"/>
		<path style="fill:#CBCBCB;" d="M313.573,144.839v30.95h-92.851c8.55,0,16.288-3.463,21.897-9.053
			c5.59-5.61,9.053-13.347,9.053-21.897s3.463-16.288,9.053-21.897c5.61-5.59,13.347-9.053,21.897-9.053s16.288,3.463,21.897,9.053
			C310.11,128.552,313.573,136.289,313.573,144.839z"/>
		<path style="fill:#E5E5E5;" d="M496.752,144.84v322.019h-183.18V144.84c0-8.55-3.46-16.29-9.06-21.9
			c-5.61-5.59-13.33-9.05-21.89-9.05h183.18c8.56,0,16.29,3.46,21.9,9.05C493.292,128.55,496.752,136.29,496.752,144.84z"/>
		<path style="fill:#2C92BF;" d="M241.419,138.496H36.879c-15.762,0-28.54,12.778-28.54,28.54v302.016
			c0,15.762,12.778,28.54,28.54,28.54h204.54c15.762,0,28.54-12.778,28.54-28.54V167.036
			C269.958,151.274,257.181,138.496,241.419,138.496z"/>
		<rect x="38.339" y="168.496" style="fill:#C4E2F2;" width="201.62" height="74.186"/>
		<rect x="38.339" y="274.3" style="fill:#E5E5E5;" width="201.62" height="194.104"/>
	</g>
	<g>
		<path d="M496.752,333.36c4.142,0,7.5-3.358,7.5-7.5V144.84c0-10.264-3.991-19.921-11.256-27.213
			c-7.273-7.247-16.93-11.237-27.194-11.237h-85.35V7.5c0-4.142-3.358-7.5-7.5-7.5h-183.19c-4.142,0-7.5,3.358-7.5,7.5v106.36
			c0,4.142,3.358,7.5,7.5,7.5s7.5-3.358,7.5-7.5V15h168.19v91.39h-82.83c-0.006,0-0.012,0.001-0.019,0.001
			c-10.256,0.005-19.907,3.995-27.196,11.257c-3.883,3.9-6.88,8.615-8.799,13.727c-1.695-0.246-3.427-0.379-5.189-0.379H77.342
			c-4.142,0-7.5,3.358-7.5,7.5s3.358,7.5,7.5,7.5h164.077c11.601,0,21.04,9.438,21.04,21.04v302.016
			c0,11.601-9.438,21.04-21.04,21.04H36.879c-11.602,0-21.04-9.438-21.04-21.04V167.036c0-11.601,9.438-21.04,21.04-21.04h15.462
			c4.142,0,7.5-3.358,7.5-7.5s-3.358-7.5-7.5-7.5H36.879c-19.873,0-36.04,16.167-36.04,36.04v302.016
			c0,19.872,16.167,36.04,36.04,36.04h204.54c19.872,0,36.04-16.167,36.04-36.04V183.29h28.614v283.569c0,4.142,3.358,7.5,7.5,7.5
			h183.18c4.142,0,7.5-3.358,7.5-7.5V350.862c0-4.142-3.358-7.5-7.5-7.5s-7.5,3.358-7.5,7.5v108.497h-168.18V144.84
			c0-8.588-2.794-16.749-7.96-23.45l152.69,0c6.267,0,12.165,2.438,16.587,6.844c4.426,4.441,6.863,10.339,6.863,16.606v181.02
			C489.252,330.002,492.61,333.36,496.752,333.36z M299.204,128.239c4.429,4.437,6.868,10.332,6.868,16.601v23.45h-28.614v-1.254
			c0-12.799-6.712-24.053-16.796-30.449c1.159-3.099,2.96-5.931,5.353-8.334c4.442-4.426,10.339-6.863,16.606-6.863h0.02
			C288.895,121.396,294.782,123.832,299.204,128.239z"/>
		<path d="M247.458,168.496c0-4.142-3.358-7.5-7.5-7.5H38.339c-4.142,0-7.5,3.358-7.5,7.5v74.186c0,4.142,3.358,7.5,7.5,7.5h201.62
			c4.142,0,7.5-3.358,7.5-7.5V168.496z M232.458,235.182H45.839v-59.186h186.62V235.182z"/>
		<path d="M239.958,266.799H38.339c-4.142,0-7.5,3.358-7.5,7.5v194.104c0,4.142,3.358,7.5,7.5,7.5h201.62c4.142,0,7.5-3.358,7.5-7.5
			V274.299C247.458,270.157,244.101,266.799,239.958,266.799z M232.458,333.134h-50.802v-51.335h50.802V333.134z M232.458,394.568
			h-50.802v-46.434h50.802V394.568z M45.839,348.134h50.802v46.434H45.839V348.134z M111.641,348.134h55.016v46.434h-55.016V348.134
			z M166.657,281.799v51.335h-55.016v-51.335H166.657z M96.641,281.799v51.335H45.839v-51.335H96.641z M45.839,409.568h50.802
			v51.335H45.839V409.568z M111.641,460.903v-51.335h55.016v51.335H111.641z M181.657,460.903v-51.335h50.802v51.335H181.657z"/>
		<path d="M362.842,144.36h-20c-4.142,0-7.5,3.358-7.5,7.5s3.358,7.5,7.5,7.5h20c4.142,0,7.5-3.358,7.5-7.5
			S366.984,144.36,362.842,144.36z"/>
		<path d="M467.842,144.36h-79c-4.142,0-7.5,3.358-7.5,7.5s3.358,7.5,7.5,7.5h79c4.142,0,7.5-3.358,7.5-7.5
			S471.984,144.36,467.842,144.36z"/>
		<path d="M362.842,313.36h-20c-4.142,0-7.5,3.358-7.5,7.5s3.358,7.5,7.5,7.5h20c4.142,0,7.5-3.358,7.5-7.5
			S366.984,313.36,362.842,313.36z"/>
		<path d="M475.342,320.86c0-4.142-3.358-7.5-7.5-7.5h-79c-4.142,0-7.5,3.358-7.5,7.5s3.358,7.5,7.5,7.5h79
			C471.984,328.36,475.342,325.002,475.342,320.86z"/>
		<path d="M362.842,271.11h-20c-4.142,0-7.5,3.358-7.5,7.5s3.358,7.5,7.5,7.5h20c4.142,0,7.5-3.358,7.5-7.5
			S366.984,271.11,362.842,271.11z"/>
		<path d="M467.842,271.11h-79c-4.142,0-7.5,3.358-7.5,7.5s3.358,7.5,7.5,7.5h79c4.142,0,7.5-3.358,7.5-7.5
			S471.984,271.11,467.842,271.11z"/>
		<path d="M362.842,228.86h-20c-4.142,0-7.5,3.358-7.5,7.5s3.358,7.5,7.5,7.5h20c4.142,0,7.5-3.358,7.5-7.5
			S366.984,228.86,362.842,228.86z"/>
		<path d="M467.842,228.86h-79c-4.142,0-7.5,3.358-7.5,7.5s3.358,7.5,7.5,7.5h79c4.142,0,7.5-3.358,7.5-7.5
			S471.984,228.86,467.842,228.86z"/>
		<path d="M362.842,186.61h-20c-4.142,0-7.5,3.358-7.5,7.5s3.358,7.5,7.5,7.5h20c4.142,0,7.5-3.358,7.5-7.5
			S366.984,186.61,362.842,186.61z"/>
		<path d="M467.842,186.61h-79c-4.142,0-7.5,3.358-7.5,7.5s3.358,7.5,7.5,7.5h79c4.142,0,7.5-3.358,7.5-7.5
			S471.984,186.61,467.842,186.61z"/>
		<path d="M218.842,49.971h20c4.142,0,7.5-3.358,7.5-7.5s-3.358-7.5-7.5-7.5h-20c-4.142,0-7.5,3.358-7.5,7.5
			S214.7,49.971,218.842,49.971z"/>
		<path d="M264.842,49.971h79c4.142,0,7.5-3.358,7.5-7.5s-3.358-7.5-7.5-7.5h-79c-4.142,0-7.5,3.358-7.5,7.5
			S260.7,49.971,264.842,49.971z"/>
		<path d="M218.842,92.221h20c4.142,0,7.5-3.358,7.5-7.5s-3.358-7.5-7.5-7.5h-20c-4.142,0-7.5,3.358-7.5,7.5
			S214.7,92.221,218.842,92.221z"/>
		<path d="M264.842,92.221h79c4.142,0,7.5-3.358,7.5-7.5s-3.358-7.5-7.5-7.5h-79c-4.142,0-7.5,3.358-7.5,7.5
			S260.7,92.221,264.842,92.221z"/>
		<path d="M405.387,439.243c0.746,0.705,1.83,1.108,2.973,1.108h0.183c2.838,0,5.148-2.31,5.148-5.148v-1.089
			c11.702-2.501,18.407-10.598,18.407-22.241c0-13.179-8.825-18.447-18.407-22.146v-18.474c3.083,0.486,5.152,1.535,6.826,2.383
			c1.44,0.729,2.579,1.306,3.853,1.306c4.071,0,5.832-4.978,5.832-7.518c0-5.42-8.484-7.93-16.511-8.482v-1.118
			c0-2.838-2.31-5.147-5.148-5.147s-5.147,2.309-5.147,5.147v1.444c-12.269,2.053-19.3,9.546-19.3,20.584
			c0,13.569,11.102,17.834,19.3,20.919v20.734c-4.521-0.859-7.462-3.142-9.835-4.984c-1.935-1.502-3.463-2.688-5.213-2.688
			c-3.508,0-6.148,4.624-6.148,7.623c0,5.662,8.692,12.453,21.196,13.232v0.513C403.396,436.791,404.128,438.269,405.387,439.243z
			 M403.396,371.868v13.939c-3.135-1.438-5.951-3.361-5.951-7.322C397.445,375.306,399.501,373.022,403.396,371.868z
			 M413.691,420.821v-15.677c3.493,2.065,5.057,4.579,5.057,8.099C418.748,416.787,417.001,419.4,413.691,420.821z"/>
		<path d="M200.343,226.36h16c4.142,0,7.5-3.358,7.5-7.5s-3.358-7.5-7.5-7.5h-16c-4.142,0-7.5,3.358-7.5,7.5
			S196.201,226.36,200.343,226.36z"/>
	</g>
</g>
<g>
</g>
<g>
</g>
<g>
</g>
<g>
</g>
<g>
</g>
<g>
</g>
<g>
</g>
<g>
</g>
<g>
</g>
<g>
</g>
<g>
</g>
<g>
</g>
<g>
</g>
<g>
</g>
<g>
</g>
</svg>
