<?xml version="1.0" encoding="iso-8859-1"?>
<!-- Generator: Adobe Illustrator 19.0.0, SVG Export Plug-In . SVG Version: 6.00 Build 0)  -->
<svg version="1.1" id="Layer_1" xmlns="http://www.w3.org/2000/svg" xmlns:xlink="http://www.w3.org/1999/xlink" x="0px" y="0px"
	 viewBox="0 0 504.997 504.997" style="enable-background:new 0 0 504.997 504.997;" xml:space="preserve">
<g>
	<g>
		<path style="fill:#2C92BF;" d="M7.497,138.534V370.59c0,20.639,16.731,37.37,37.37,37.37h355.988
			c20.639,0,37.37-16.731,37.37-37.37V138.534c0-20.42-16.554-36.974-36.974-36.974H44.47C24.05,101.56,7.497,118.114,7.497,138.534
			z"/>
		<polygon style="fill:#2D303B;" points="309.738,457.822 222.863,477.618 135.979,457.822 147.881,407.963 219.171,381.75 
			297.836,407.963 301.686,424.102 		"/>
		<path style="fill:#3C3F4D;" d="M438.227,366.191v4.395c0,20.64-16.737,37.377-37.377,37.377H44.867
			c-20.64,0-37.368-16.737-37.368-37.377v-4.395H438.227z"/>
		<polygon style="fill:#3C3F4D;" points="309.738,457.822 176.854,457.822 184.906,424.102 301.686,424.102 		"/>
		<path style="fill:#2D303B;" d="M360.942,485.582v11.841H84.784v-11.841c0-15.33,12.43-27.76,27.76-27.76h220.638
			C348.512,457.822,360.942,470.251,360.942,485.582z"/>
		<path style="fill:#3C3F4D;" d="M360.942,485.582v11.841H132.243v-11.841c0-15.33,12.43-27.76,27.769-27.76h173.17
			C348.512,457.822,360.942,470.251,360.942,485.582z"/>
		<path style="fill:#3C3F4D;" d="M479.481,253.439H361.996c-9.95,0-18.016-8.066-18.016-18.016V25.589
			c0-9.95,8.066-18.016,18.016-18.016h117.485c9.95,0,18.016,8.066,18.016,18.016v209.834
			C497.497,245.373,489.431,253.439,479.481,253.439z"/>
		<rect x="343.98" y="45.01" style="fill:#2C92BF;" width="153.517" height="170.991"/>
		<polygon style="fill:#E5E5E5;" points="204.291,223.883 241.789,342.379 259.788,286.881 315.285,274.882 		"/>
		<polygon style="fill:#CBCBCB;" points="204.291,223.883 241.789,342.379 259.788,286.881 		"/>
	</g>
	<g>
		<path d="M479.48,0.073H361.996c-14.069,0-25.516,11.446-25.516,25.516v68.475H216.042c-4.143,0-7.5,3.358-7.5,7.5
			s3.357,7.5,7.5,7.5H336.48v126.359c0,14.07,11.446,25.516,25.516,25.516h68.724v97.756H15V138.534
			c0-16.25,13.22-29.47,29.47-29.47h146.57c4.143,0,7.5-3.358,7.5-7.5s-3.357-7.5-7.5-7.5H44.47C19.949,94.064,0,114.013,0,138.534
			v232.06c0,24.741,20.129,44.87,44.87,44.87h93.51l-8.321,34.855h-17.516c-19.444,0-35.263,15.819-35.263,35.263v11.843
			c0,4.142,3.357,7.5,7.5,7.5h204.252c4.143,0,7.5-3.358,7.5-7.5s-3.357-7.5-7.5-7.5H92.28v-4.343
			c0-11.173,9.09-20.263,20.263-20.263h220.635c11.173,0,20.263,9.09,20.263,20.263v4.343h-39.406c-4.143,0-7.5,3.358-7.5,7.5
			s3.357,7.5,7.5,7.5h46.906c4.143,0,7.5-3.358,7.5-7.5v-11.843c0-19.444-15.818-35.263-35.263-35.263h-17.516l-8.321-34.855h93.51
			c24.741,0,44.87-20.128,44.87-44.87V260.939h33.761c14.07,0,25.517-11.446,25.517-25.516V25.589
			C504.997,11.519,493.551,0.073,479.48,0.073z M300.24,450.319H145.48l8.32-34.855h138.118L300.24,450.319z M400.85,400.464H44.87
			c-15.424,0-28.153-11.75-29.709-26.769h415.398C429.003,388.713,416.273,400.464,400.85,400.464z M361.996,15.073H479.48
			c5.799,0,10.517,4.717,10.517,10.516V37.51H351.48V25.589C351.48,19.79,356.198,15.073,361.996,15.073z M489.997,208.501H351.48
			V52.51h138.517V208.501z M479.48,245.939h-41.164c-0.032,0-0.064-0.005-0.097-0.005s-0.064,0.004-0.097,0.005h-76.127
			c-5.798,0-10.516-4.717-10.516-10.516v-11.921h138.517v11.921C489.997,241.222,485.279,245.939,479.48,245.939z"/>
		<path d="M372.531,93.453h43.498c4.143,0,7.5-3.358,7.5-7.5s-3.357-7.5-7.5-7.5h-43.498c-4.143,0-7.5,3.358-7.5,7.5
			S368.389,93.453,372.531,93.453z"/>
		<path d="M372.531,128.23h73.496c4.143,0,7.5-3.358,7.5-7.5s-3.357-7.5-7.5-7.5h-73.496c-4.143,0-7.5,3.358-7.5,7.5
			S368.389,128.23,372.531,128.23z"/>
		<path d="M372.531,163.007h95.995c4.143,0,7.5-3.358,7.5-7.5s-3.357-7.5-7.5-7.5h-95.995c-4.143,0-7.5,3.358-7.5,7.5
			S368.389,163.007,372.531,163.007z"/>
		<path d="M48.103,159.475h43.498c4.143,0,7.5-3.358,7.5-7.5s-3.357-7.5-7.5-7.5H48.103c-4.143,0-7.5,3.358-7.5,7.5
			S43.96,159.475,48.103,159.475z"/>
		<path d="M48.103,194.252h73.496c4.143,0,7.5-3.358,7.5-7.5s-3.357-7.5-7.5-7.5H48.103c-4.143,0-7.5,3.358-7.5,7.5
			S43.96,194.252,48.103,194.252z"/>
		<path d="M48.103,229.03h95.995c4.143,0,7.5-3.358,7.5-7.5s-3.357-7.5-7.5-7.5H48.103c-4.143,0-7.5,3.358-7.5,7.5
			S43.96,229.03,48.103,229.03z"/>
		<path d="M197.141,226.146l37.498,118.496c0.983,3.109,3.863,5.226,7.124,5.237c0.009,0,0.018,0,0.026,0
			c3.25,0,6.131-2.093,7.134-5.186l16.668-51.393l51.279-11.087c3.155-0.682,5.52-3.307,5.871-6.516
			c0.351-3.209-1.392-6.282-4.325-7.63l-110.994-50.999c-2.692-1.239-5.868-0.772-8.095,1.193
			C197.103,220.225,196.245,223.316,197.141,226.146z M291.714,272.305l-33.511,7.246c-2.611,0.564-4.725,2.476-5.549,5.017
			l-10.777,33.229l-25.324-80.026L291.714,272.305z"/>
	</g>
</g>
<g>
</g>
<g>
</g>
<g>
</g>
<g>
</g>
<g>
</g>
<g>
</g>
<g>
</g>
<g>
</g>
<g>
</g>
<g>
</g>
<g>
</g>
<g>
</g>
<g>
</g>
<g>
</g>
<g>
</g>
</svg>
