<?xml version="1.0" encoding="iso-8859-1"?>
<!-- Generator: Adobe Illustrator 19.0.0, SVG Export Plug-In . SVG Version: 6.00 Build 0)  -->
<svg version="1.1" id="Layer_1" xmlns="http://www.w3.org/2000/svg" xmlns:xlink="http://www.w3.org/1999/xlink" x="0px" y="0px"
	 viewBox="0 0 505 505" style="enable-background:new 0 0 505 505;" xml:space="preserve">
<g>
	<g>
		<path style="fill:#1F81A3;" d="M464.795,253.318c0,104.02-74.3,190.68-172.73,209.8c-13.27,2.58-26.98,3.93-41,3.93
			c-118.04,0-213.73-95.69-213.73-213.73s95.69-213.73,213.73-213.73c14.02,0,27.73,1.35,41,3.93
			C390.495,62.638,464.795,149.298,464.795,253.318z"/>
		<path style="fill:#2C92BF;" d="M464.795,253.318c0,104.02-74.3,190.68-172.73,209.8c-98.43-19.12-172.73-105.78-172.73-209.8
			s74.3-190.68,172.73-209.8C390.495,62.638,464.795,149.298,464.795,253.318z"/>
		<g>
			<path style="fill:#1FB25E;" d="M195.547,388.096l-2.745,20.952l-8.79,66.932c-1.582,12.058-11.849,21.068-24.011,21.068H55.093
				c-12.163,0-22.429-9.01-24.011-21.068l-11.534-87.885l88-23.571L195.547,388.096z"/>
			<path style="fill:#32CC77;" d="M192.802,409.049l-8.79,66.932c-1.582,12.058-11.849,21.068-24.011,21.068H88.617
				c-12.163,0-22.429-9.01-24.011-21.068l-5.957-45.361c-1.501-11.43,7.396-21.571,18.923-21.571H192.802z"/>
			<path style="fill:#1FB25E;" d="M207.595,364.399v12.823c0,6.003-4.871,10.874-10.874,10.874H18.374
				c-6.003,0-10.874-4.871-10.874-10.874v-12.823c0-6.003,4.871-10.874,10.874-10.874H196.72
				C202.723,353.525,207.595,358.396,207.595,364.399z"/>
			<path style="fill:#32CC77;" d="M207.595,364.399v12.823c0,6.003-4.871,10.874-10.874,10.874H60.279
				c-6.003,0-10.874-4.871-10.874-10.874v-12.823c0-6.003,4.871-10.874,10.874-10.874H196.72
				C202.723,353.525,207.595,358.396,207.595,364.399z"/>
			<path style="fill:#3C3F4D;" d="M107.547,304.287L107.547,304.287c-9.836,0-17.81,7.974-17.81,17.809v84.857
				c0,9.836,7.974,17.809,17.809,17.809h0c9.836,0,17.809-7.974,17.809-17.809v-84.857
				C125.357,312.261,117.383,304.287,107.547,304.287z"/>
		</g>
		<g>
			<path style="fill:#FF491F;" d="M497.466,80.231c-2.059-96.372-146.803-96.372-148.862,0c-0.022,1.051-0.034,2.105-0.034,3.162
				c0,54.516,30.04,102.007,74.465,126.848C467.46,185.4,497.5,137.909,497.5,83.393C497.5,82.336,497.488,81.282,497.466,80.231z"
				/>
			<path style="fill:#ED3618;" d="M423.035,210.241c-44.425-24.84-74.468-72.333-74.468-126.848c0-1.057,0.012-2.11,0.033-3.162
				c1.024-47.906,37.304-71.995,73.786-72.275c-27.305,0.376-54.4,24.465-55.167,72.275c-0.016,1.053-0.029,2.105-0.029,3.162
				C367.191,137.908,389.719,185.401,423.035,210.241z"/>
			<path style="fill:#C4E2F2;" d="M423.25,124.425c-9.589,0-18.405-3.311-25.366-8.849c-4.917-3.912-8.907-8.936-11.594-14.691
				c-1.306-2.798-2.304-5.771-2.951-8.875c0-0.003,0-0.003,0-0.003c-0.562-2.694-0.858-5.485-0.858-8.348
				c0-22.513,18.253-40.766,40.769-40.766c12.085,0,22.945,5.261,30.409,13.619c1.404,1.57,2.687,3.25,3.838,5.027
				c4.124,6.369,6.519,13.963,6.519,22.12c0,0.357-0.003,0.715-0.013,1.069C463.434,106.751,445.405,124.425,423.25,124.425z"/>
			<path style="fill:#83B2C6;" d="M423.25,124.425c-9.589,0-18.405-3.311-25.366-8.849c-4.917-3.912-8.907-8.936-11.594-14.691
				c-1.306-2.798-2.304-5.771-2.951-8.875c0-0.003,0-0.003,0-0.003c-0.562-2.694-0.858-5.485-0.858-8.348
				c0-22.513,18.253-40.766,40.769-40.766c2.164,0,4.289,0.169,6.366,0.494c-19.497,3.051-34.413,19.92-34.413,40.272
				c0,2.863,0.296,5.654,0.858,8.348c0,0,0,0,0,0.003c0.647,3.103,1.644,6.077,2.951,8.875c2.687,5.755,6.678,10.779,11.594,14.691
				c5.391,4.286,11.89,7.24,19.003,8.351C427.536,124.256,425.414,124.425,423.25,124.425z"/>
		</g>
	</g>
	<g>
		<path d="M505,83.393c0-1.11-0.012-2.218-0.036-3.322c-0.524-24.53-9.661-45.179-26.423-59.715
			C463.74,7.52,444.028,0.452,423.035,0.452c-20.991,0-40.706,7.069-55.506,19.903c-10.224,8.866-17.593,20.016-21.919,32.924
			c-29.377-13.874-61.862-21.193-94.547-21.193c-34.668,0-67.865,7.795-98.668,23.169c-3.706,1.85-5.211,6.354-3.361,10.06
			c1.849,3.706,6.353,5.211,10.06,3.361c15.843-7.907,32.371-13.651,49.434-17.221c-11.632,11.289-22.206,27.338-31.216,47.696
			c-4.79,10.823-9.011,22.578-12.64,35.066c-18.649-8.611-36.037-20.067-51.619-34.123c6.795-6.125,14.022-11.85,21.686-17.095
			c3.418-2.339,4.293-7.007,1.954-10.425c-2.339-3.417-7.007-4.293-10.425-1.954c-60.383,41.324-96.433,109.621-96.433,182.695
			c0,32.03,7.008,63.827,20.327,92.709H18.374C8.243,346.025,0,354.268,0,364.399v12.823c0,8.209,5.413,15.175,12.856,17.524
			l10.788,82.215c2.063,15.727,15.582,27.587,31.444,27.587h13.527c4.142,0,7.5-3.358,7.5-7.5s-3.358-7.5-7.5-7.5H55.088
			c-8.36,0-15.484-6.25-16.572-14.539l-10.421-79.414h54.142v11.357c0,13.956,11.354,25.31,25.31,25.31s25.309-11.354,25.309-25.31
			v-11.357h54.142l-10.421,79.413c-1.088,8.289-8.212,14.539-16.572,14.539H93.617c-4.142,0-7.5,3.358-7.5,7.5s3.358,7.5,7.5,7.5
			h66.389c15.862,0,29.38-11.86,31.444-27.587l1.336-10.18c18.912,5.153,38.473,7.765,58.277,7.765
			c82.353,0,157.388-45.292,195.824-118.203c1.932-3.664,0.527-8.201-3.137-10.132c-3.665-1.932-8.201-0.527-10.132,3.137
			c-9.156,17.368-20.544,33.051-33.7,46.782c-17.575-16.013-37.327-28.909-58.554-38.407c7.18-29.552,11.221-62.556,11.736-96.904
			h104.047c-0.812,22.819-5.318,45.09-13.452,66.303c-1.483,3.868,0.45,8.205,4.318,9.688c0.883,0.339,1.791,0.499,2.684,0.499
			c3.016,0,5.86-1.833,7.004-4.817c9.683-25.254,14.592-51.893,14.592-79.177c0-21.977-3.213-43.646-9.552-64.485
			C489.457,160.795,505,123.172,505,83.393z M341.356,148.875c4.024-1.798,7.994-3.722,11.907-5.762
			c13.061,30.693,36.037,56.859,66.112,73.675c1.138,0.636,2.399,0.954,3.661,0.954s2.523-0.318,3.661-0.954
			c8.504-4.755,16.427-10.272,23.733-16.413c3.921,14.808,6.173,30.026,6.724,45.445H353.1
			C352.586,211.455,348.542,178.437,341.356,148.875z M338.099,245.819H164.027c0.497-32.348,4.198-63.382,10.77-91.205
			c24.132,8.849,49.869,13.481,76.266,13.481c26.12,0,51.962-4.625,76.253-13.526C333.896,182.404,337.602,213.455,338.099,245.819z
			 M423.035,15.452c31.568,0,65.979,20.322,66.932,64.939c0.021,0.998,0.033,1.999,0.033,3.002
			c0,48.434-25.552,93.329-66.965,118.182c-41.413-24.852-66.965-69.748-66.965-118.182c0-1.003,0.011-2.004,0.032-3.002
			C357.056,35.773,391.467,15.452,423.035,15.452z M342.093,68.219c-0.555,3.841-0.901,7.787-0.988,11.852
			c-0.023,1.104-0.035,2.212-0.035,3.322c0,15.658,2.413,30.98,6.962,45.518c-3.481,1.857-7.019,3.598-10.597,5.248
			c-3.626-12.467-7.841-24.201-12.624-35.008c-8.986-20.301-19.525-36.319-31.118-47.603
			C310.459,55.078,326.754,60.675,342.093,68.219z M191.027,105.221c16.353-36.946,38.234-58.135,60.036-58.135
			c21.797,0,43.678,21.189,60.032,58.136c4.729,10.683,8.877,22.339,12.419,34.761c-23.037,8.626-47.607,13.113-72.451,13.113
			c-25.107,0-49.577-4.488-72.467-13.067C182.141,127.589,186.293,115.917,191.027,105.221z M102.257,110.554
			c17.563,15.988,37.298,28.867,58.503,38.354c-7.179,29.553-11.22,62.559-11.734,96.911H44.983
			C46.832,194.842,67.473,146.823,102.257,110.554z M44.985,260.819h104.041c0.454,29.481,3.58,58.609,9.125,85.206h-25.295v-23.928
			c0-13.956-11.354-25.31-25.309-25.31s-25.31,11.354-25.31,25.31v23.928H66.817C53.552,319.693,46.068,290.472,44.985,260.819z
			 M18.374,380.596c-1.86,0-3.374-1.514-3.374-3.374v-12.823c0-1.861,1.514-3.375,3.374-3.375h43.829
			c0.012,0,0.024,0.002,0.036,0.002c0.014,0,0.027-0.002,0.041-0.002h19.958v19.571H18.374z M117.856,406.954
			c0,5.685-4.625,10.31-10.309,10.31s-10.31-4.625-10.31-10.31v-84.857c0-5.685,4.625-10.31,10.31-10.31s10.309,4.625,10.309,10.31
			V406.954z M132.856,361.025h63.864c1.861,0,3.375,1.514,3.375,3.375v12.823c0,1.86-1.514,3.374-3.375,3.374h-63.864V361.025z
			 M251.063,459.546c-18.323,0-36.677-14.805-51.85-41.747l3.025-23.053c7.443-2.349,12.857-9.315,12.857-17.524v-12.823
			c0-2.652-0.576-5.168-1.592-7.448c12.342-2.27,24.917-3.416,37.56-3.416c25.107,0,49.576,4.488,72.464,13.067
			c-3.545,12.439-7.698,24.111-12.432,34.807C294.741,438.356,272.86,459.546,251.063,459.546z M194.758,451.755l1.427-10.878
			c3.927,5.38,8.007,10.132,12.222,14.247C203.82,454.159,199.269,453.033,194.758,451.755z M389.13,406.597
			c-26.862,24.223-59.75,41.044-95.494,48.541c11.615-11.287,22.174-27.323,31.175-47.657c4.791-10.823,9.012-22.578,12.641-35.066
			C356.125,381.038,373.534,392.515,389.13,406.597z M327.327,352.017c-24.131-8.849-49.867-13.481-76.264-13.481
			c-19.399,0-38.652,2.523-57.246,7.489h-20.341c-5.746-26.415-8.978-55.607-9.447-85.206h174.07
			C337.601,293.164,333.9,324.196,327.327,352.017z"/>
		<path d="M423.249,131.927c3.29,0,6.58-0.335,9.78-0.995c0.034-0.007,0.067-0.014,0.102-0.021
			c3.627-0.756,7.166-1.933,10.517-3.498c6.734-3.145,12.747-7.889,17.388-13.721c6.757-8.495,10.479-19.162,10.479-30.035
			c0-12.671-4.874-24.644-13.723-33.71c-8.833-9.05-20.652-14.214-33.267-14.54c-0.423-0.012-0.849-0.016-1.276-0.016
			c-9.334,0-18.393,2.67-26.195,7.722c-2.093,1.355-4.096,2.884-5.947,4.54c-10.247,9.151-16.124,22.273-16.124,36.003
			C374.982,110.273,396.634,131.927,423.249,131.927z M401.102,58.838c1.279-1.144,2.659-2.198,4.103-3.132
			c5.37-3.477,11.609-5.314,18.044-5.314c0.288,0,0.577,0.002,0.875,0.01c18.163,0.469,32.391,15.077,32.391,33.255
			c0,7.604-2.496,14.761-7.217,20.696c-3.204,4.026-7.352,7.3-11.995,9.469c-2.278,1.063-4.684,1.866-7.151,2.387
			c-0.028,0.006-0.057,0.012-0.085,0.018c-2.227,0.464-4.52,0.7-6.817,0.7c-18.343,0-33.266-14.924-33.266-33.269
			C389.982,74.195,394.034,65.15,401.102,58.838z"/>
	</g>
</g>
<g>
</g>
<g>
</g>
<g>
</g>
<g>
</g>
<g>
</g>
<g>
</g>
<g>
</g>
<g>
</g>
<g>
</g>
<g>
</g>
<g>
</g>
<g>
</g>
<g>
</g>
<g>
</g>
<g>
</g>
</svg>
