<?xml version="1.0" encoding="iso-8859-1"?>
<!-- Generator: Adobe Illustrator 19.0.0, SVG Export Plug-In . SVG Version: 6.00 Build 0)  -->
<svg version="1.1" id="Layer_1" xmlns="http://www.w3.org/2000/svg" xmlns:xlink="http://www.w3.org/1999/xlink" x="0px" y="0px"
	 viewBox="0 0 489.734 489.734" style="enable-background:new 0 0 489.734 489.734;" xml:space="preserve">
<g>
	<path style="fill:#3C3F4D;" d="M95.138,260.748c15.281,29.547,26.949,49.532,55.819,78.402c28.87,28.87,48.848,40.53,78.41,55.811
		l49.731-49.731c5.138-5.138,13.471-5.138,18.609,0l73.522,73.522c5.138,5.138,5.138,13.471,0,18.609l-19.764,19.764
		c-57.482,57.482-169.282,38.888-263.326-55.156C-5.915,307.917-24.509,196.118,32.974,138.636l19.764-19.764
		c5.138-5.138,13.471-5.138,18.609,0l73.529,73.529c5.138,5.138,5.138,13.471,0,18.609L95.138,260.748z"/>
	<path style="fill:#2D303B;" d="M107.276,382.826C13.228,288.778-5.368,176.978,52.114,119.496l-19.139,19.139
		c-57.482,57.482-38.886,169.282,55.162,263.33s205.848,112.644,263.33,55.162l19.139-19.139
		C313.124,495.47,201.324,476.874,107.276,382.826z"/>
	<path style="fill:#E6E6E6;" d="M71.347,118.871l73.529,73.529c5.138,5.138,5.138,13.471,0,18.609l-19.764,19.764l-92.138-92.138
		l19.764-19.764C57.876,113.733,66.209,113.733,71.347,118.871z"/>
	<path style="fill:#E6E6E6;" d="M297.706,345.23l73.522,73.522c5.138,5.138,5.138,13.471,0,18.609l-19.764,19.764l-92.131-92.131
		l19.764-19.764C284.235,340.092,292.568,340.092,297.706,345.23z"/>
	<path style="fill:#CCCCCC;" d="M342.123,408.256l-19.764,19.764l29.105,29.105l19.764-19.764c5.138-5.138,5.138-13.471,0-18.609
		l-29.105-29.105C347.261,394.785,347.261,403.118,342.123,408.256z"/>
	<path style="fill:#CCCCCC;" d="M115.771,181.904l-19.764,19.764l29.105,29.105l19.764-19.764c5.138-5.138,5.138-13.471,0-18.609
		l-29.105-29.105C120.909,168.434,120.909,176.766,115.771,181.904z"/>
	<path style="fill:#2C92BF;" d="M349.368,117.999h115.6c13.48,0,24.4,10.92,24.4,24.4v114.47c0,13.48-10.92,24.4-24.4,24.4h-15.6v56
		l-56-56h-73.6c-13.48,0-24.4-10.92-24.4-24.4v-93.6"/>
	<path style="fill:#FFE14D;" d="M324.97,0H179.767c-13.475,0-24.398,10.923-24.398,24.398v114.474
		c0,13.475,10.923,24.398,24.398,24.398h14.283v56l56-56h74.921c13.475,0,24.398-10.923,24.398-24.398V24.398
		C349.368,10.923,338.445,0,324.97,0z"/>
	<path style="fill:#FFFFFF;" d="M408.765,164.747c-4.37-3.461-10.348-5.29-17.287-5.29c-15.056,0-22.069,8.981-22.069,15.051
		c0,4.205,3.508,6.474,6.809,6.474c2.6,0,3.648-1.547,4.862-3.337c1.666-2.456,3.554-5.24,10.063-5.24c4.786,0,9.9,1.957,9.9,7.449
		c0,4.861-4.07,7.985-7.661,10.742c-0.791,0.608-1.539,1.181-2.21,1.75c-3.494,3.013-7.506,7.672-7.506,17.026
		c0,5.744,1.52,7.588,6.252,7.588c3.055,0,6.696-0.814,6.696-4.692c0-5.604,0-8.986,6.19-13.825v0
		c8.31-6.463,12.523-13.354,12.523-20.483C415.328,172.792,412.997,168.099,408.765,164.747z"/>
	<path style="fill:#FFFFFF;" d="M390.029,224.397c-4.737,0-8.591,3.904-8.591,8.702s3.854,8.702,8.591,8.702
		c4.717,0,8.702-3.985,8.702-8.702C398.732,228.382,394.746,224.397,390.029,224.397z"/>
	<path style="fill:#FF491F;" d="M242.491,71.499V55.682c0-5.228-1.646-9.182-4.893-11.752c-2.858-2.263-6.876-3.41-11.94-3.41
		c-13.913,0-16.833,8.246-16.833,15.163v15.817c0,6.917,2.92,15.163,16.833,15.163c5.064,0,9.082-1.147,11.94-3.41
		C240.845,80.681,242.491,76.726,242.491,71.499z M220.325,55.682c0-3.465,1.794-5.222,5.333-5.222c3.562,0,5.444,1.806,5.444,5.222
		v15.817c0,3.416-1.883,5.222-5.444,5.222c-3.539,0-5.333-1.757-5.333-5.222V55.682z"/>
	<path style="fill:#FF491F;" d="M277.023,41.981c0-3.606-3.463-6.029-6.697-6.029c-2.19,0-3.938,1.041-4.791,2.855l-39.097,80.311
		c-0.362,0.725-0.57,1.516-0.57,2.172c0,2.912,2.557,6.029,6.363,6.029c2.233,0,4.341-1.175,5.124-2.855l39.208-80.311
		C276.943,43.395,277.023,42.553,277.023,41.981z"/>
	<path style="fill:#FF491F;" d="M288.727,79.797c-2.858-2.263-6.876-3.41-11.94-3.41c-13.913,0-16.834,8.246-16.834,15.163v15.817
		c0,6.917,2.921,15.163,16.834,15.163c5.064,0,9.082-1.147,11.94-3.41c3.246-2.57,4.893-6.524,4.893-11.752V91.549
		C293.619,86.321,291.973,82.367,288.727,79.797z M271.452,91.549c0-3.465,1.795-5.222,5.334-5.222c3.562,0,5.444,1.806,5.444,5.222
		v15.817c0,3.416-1.883,5.222-5.444,5.222c-3.539,0-5.334-1.757-5.334-5.222V91.549z"/>
</g>
<g>
</g>
<g>
</g>
<g>
</g>
<g>
</g>
<g>
</g>
<g>
</g>
<g>
</g>
<g>
</g>
<g>
</g>
<g>
</g>
<g>
</g>
<g>
</g>
<g>
</g>
<g>
</g>
<g>
</g>
</svg>
