<?xml version="1.0" encoding="iso-8859-1"?>
<!-- Generator: Adobe Illustrator 19.0.0, SVG Export Plug-In . SVG Version: 6.00 Build 0)  -->
<svg version="1.1" id="Layer_1" xmlns="http://www.w3.org/2000/svg" xmlns:xlink="http://www.w3.org/1999/xlink" x="0px" y="0px"
	 viewBox="0 0 490.821 490.821" style="enable-background:new 0 0 490.821 490.821;" xml:space="preserve">
<g>
	<g>
		<path style="fill:#FF491F;" d="M57.819,112.39V27.76C57.819,12.43,70.239,0,85.569,0h236.682c16.61,0,30.07,13.47,30.07,30.08
			v143.805"/>
		<polyline style="fill:#2D303B;" points="87.058,39.256 57.816,39.256 57.816,75.731 352.322,75.731 352.322,39.256 112.06,39.256 
					"/>
	</g>
	<path style="fill:#3C3F4D;" d="M487.861,147.92v231.71c0,19.62-15.91,35.53-35.53,35.53H38.491c-19.63,0-35.53-15.91-35.53-35.53
		V147.92c0-19.62,15.9-35.53,35.53-35.53h413.84C471.951,112.39,487.861,128.3,487.861,147.92z"/>
	<circle style="fill:#2D303B;" cx="34.192" cy="263.775" r="20.562"/>
	<path style="fill:#2D303B;" d="M381.701,197v218.16h-230.98V197c0-15.19-6.16-28.94-16.11-38.9c-9.96-9.95-23.72-16.11-38.91-16.11
		h230.99C357.071,141.99,381.701,166.62,381.701,197z"/>
	<path style="fill:#C4E2F2;" d="M425.699,367.635V159.914c0-9.899-8.025-17.923-17.923-17.923H83.351
		c-9.899,0-17.923,8.025-17.923,17.923v207.722c0,9.899,8.025,17.923,17.923,17.923h324.424
		C417.674,385.559,425.699,377.534,425.699,367.635z"/>
	<rect x="119.411" y="141.991" style="fill:#83B2C6;" width="221.276" height="243.567"/>
	<path style="fill:#2D303B;" d="M458.139,297.775c-4.142,0-7.5-3.358-7.5-7.5v-53c0-4.142,3.358-7.5,7.5-7.5s7.5,3.358,7.5,7.5v53
		C465.639,294.417,462.281,297.775,458.139,297.775z"/>
	<path style="fill:#E6E6E6;" d="M395.696,197.001v293.82l-38.49-22l-38.5,22l-38.5-22l-38.49,22l-38.5-22l-38.5,22v-293.82
		c0-15.19-6.16-28.94-16.11-38.9c-9.96-9.95-23.72-16.11-38.91-16.11h230.99C371.066,141.991,395.696,166.621,395.696,197.001z"/>
	<path style="fill:#CCCCCC;" d="M395.696,197.001v5.38h-230.98v-5.38c0-15.19-6.16-28.94-16.11-38.9
		c-9.96-9.95-23.72-16.11-38.91-16.11h230.99C371.066,141.991,395.696,166.621,395.696,197.001z"/>
	<g>
		<path style="fill:#3C3F4D;" d="M228.902,256.264h-32c-4.142,0-7.5-3.358-7.5-7.5s3.358-7.5,7.5-7.5h32c4.142,0,7.5,3.358,7.5,7.5
			S233.044,256.264,228.902,256.264z"/>
		<path style="fill:#3C3F4D;" d="M365.902,256.264h-104c-4.142,0-7.5-3.358-7.5-7.5s3.358-7.5,7.5-7.5h104
			c4.142,0,7.5,3.358,7.5,7.5S370.044,256.264,365.902,256.264z"/>
	</g>
	<g>
		<path style="fill:#3C3F4D;" d="M228.902,218.824h-32c-4.142,0-7.5-3.358-7.5-7.5s3.358-7.5,7.5-7.5h32c4.142,0,7.5,3.358,7.5,7.5
			S233.044,218.824,228.902,218.824z"/>
		<path style="fill:#3C3F4D;" d="M365.902,218.824h-104c-4.142,0-7.5-3.358-7.5-7.5s3.358-7.5,7.5-7.5h104
			c4.142,0,7.5,3.358,7.5,7.5S370.044,218.824,365.902,218.824z"/>
	</g>
	<g>
		<path style="fill:#3C3F4D;" d="M218.901,181.385h-32c-4.142,0-7.5-3.358-7.5-7.5s3.358-7.5,7.5-7.5h32c4.142,0,7.5,3.358,7.5,7.5
			S223.044,181.385,218.901,181.385z"/>
		<path style="fill:#3C3F4D;" d="M355.901,181.385h-104c-4.142,0-7.5-3.358-7.5-7.5s3.358-7.5,7.5-7.5h104
			c4.142,0,7.5,3.358,7.5,7.5S360.044,181.385,355.901,181.385z"/>
	</g>
	<g>
		<path style="fill:#3C3F4D;" d="M228.902,293.88h-32c-4.142,0-7.5-3.358-7.5-7.5s3.358-7.5,7.5-7.5h32c4.142,0,7.5,3.358,7.5,7.5
			S233.044,293.88,228.902,293.88z"/>
		<path style="fill:#3C3F4D;" d="M365.902,293.88h-104c-4.142,0-7.5-3.358-7.5-7.5s3.358-7.5,7.5-7.5h104c4.142,0,7.5,3.358,7.5,7.5
			S370.044,293.88,365.902,293.88z"/>
	</g>
	<g>
		<path style="fill:#3C3F4D;" d="M228.902,331.495h-32c-4.142,0-7.5-3.358-7.5-7.5s3.358-7.5,7.5-7.5h32c4.142,0,7.5,3.358,7.5,7.5
			S233.044,331.495,228.902,331.495z"/>
		<path style="fill:#3C3F4D;" d="M365.902,331.495h-104c-4.142,0-7.5-3.358-7.5-7.5s3.358-7.5,7.5-7.5h104
			c4.142,0,7.5,3.358,7.5,7.5S370.044,331.495,365.902,331.495z"/>
	</g>
	<g>
		<path style="fill:#3C3F4D;" d="M304.906,408.171c0-4.706-1.249-9.358-4.251-13.051c-2.588-3.185-6.141-5.396-9.824-7.109
			c-0.926-0.431-1.865-0.832-2.812-1.215c-0.4-0.162-1.354-0.343-1.521-0.696c-0.248-0.524,0-1.754,0-2.323c0-3.168,0-6.337,0-9.505
			c0-2.337,0-4.674,0-7.01c2.965,0.425,5.475,1.655,8.139,2.924c2.042,0.973,4.18,1.176,5.942-0.515
			c1.551-1.49,2.52-3.996,2.426-6.148c-0.104-2.368-1.963-4.02-3.915-5.074c-2.433-1.314-5.211-1.987-7.921-2.439
			c-1.399-0.233-2.933-0.185-4.301-0.508c-0.401-0.095-0.244,0.041-0.37-0.208c-0.065-0.128,0-0.533,0-0.674
			c0-0.532-0.002-1.058-0.121-1.581c-0.668-2.953-3.971-4.616-6.743-3.4c-1.324,0.581-2.348,1.749-2.745,3.14
			c-0.147,0.516-0.183,1.036-0.187,1.569c-0.002,0.287,0.147,1.096,0,1.327c-0.171,0.269-1.089,0.296-1.47,0.375
			c-0.688,0.141-1.372,0.303-2.05,0.488c-1.298,0.354-2.575,0.791-3.811,1.324c-2.367,1.022-4.592,2.406-6.449,4.205
			c-4.27,4.135-5.908,10.093-5.45,15.921c0.441,5.603,3.301,10.258,7.874,13.455c2.151,1.504,4.519,2.674,6.928,3.702
			c1.237,0.528,2.49,1.019,3.748,1.496c0.676,0.257,0.617,0.114,0.681,0.654c0.146,1.247,0,2.6,0,3.853c0,2.018,0,4.036,0,6.054
			c0,3.436,0,6.872,0,10.308c0,0.198,0,0.396,0,0.594c-3.667-0.637-6.79-2.431-9.703-4.671c-1.775-1.366-3.94-3.498-6.397-2.96
			c-3.104,0.68-5.34,4.774-5.074,7.779c0.244,2.757,2.31,5.07,4.379,6.719c3.029,2.414,6.733,3.952,10.475,4.856
			c1.067,0.258,2.147,0.464,3.234,0.619c0.575,0.082,2.889,0.05,3.085,0.43c0.087,0.169-0.005,0.575,0.005,0.781
			c0.025,0.511,0.11,1.002,0.285,1.485c0.351,0.968,1.012,1.777,1.829,2.395c3.209,2.429,7.586-0.351,7.677-4.073
			c0.006-0.258-0.039-0.546,0-0.801c0.076-0.504-0.138-0.286,0.263-0.51c0.75-0.42,1.959-0.475,2.796-0.741
			c1.592-0.505,3.142-1.149,4.607-1.952C301.325,423.539,304.906,416.19,304.906,408.171z M270.253,374.783
			c0-3.79,3.087-6.026,6.45-6.948c0,4.886,0,9.772,0,14.658C273.364,381.006,270.253,378.79,270.253,374.783z M286.499,417.492
			c0-5.494,0-10.988,0-16.483c3.23,1.812,5.502,4.543,5.555,8.379C292.106,413.158,289.979,416.126,286.499,417.492z"/>
		<path style="fill:#3C3F4D;" d="M281.601,436.649c-2.26,0.022-4.297-1.533-4.939-3.704c-0.146-0.492-0.095-1.001-0.208-1.484
			c-0.135-0.573,0.048-0.463-0.697-0.523c-1.344-0.109-2.681-0.29-4.004-0.549c-4.309-0.841-8.623-2.489-12.063-5.273
			c-2.247-1.818-4.539-4.492-4.428-7.568c0.124-3.428,3.259-8.337,7.225-7.266c2.422,0.654,4.345,2.802,6.36,4.203
			c2.302,1.602,4.84,2.793,7.607,3.319c0-6.343,0-12.685,0-19.028c0-0.428,0.087-0.964,0-1.384
			c-0.105-0.509-0.235-0.409-0.848-0.642c-2.141-0.812-4.273-1.658-6.323-2.682c-4.324-2.159-8.326-5.21-10.423-9.683
			c-2.308-4.924-2.27-11.119-0.29-16.149c1.921-4.88,5.88-8.495,10.633-10.575c1.33-0.582,2.708-1.05,4.111-1.422
			c0.699-0.185,1.405-0.347,2.114-0.486c0.144-0.028,0.92-0.064,1.026-0.187c0.064-0.074,0-0.53,0-0.624
			c0-2.616,1.075-5.063,3.823-5.795c2.804-0.747,5.759,1.069,6.361,3.906c0.102,0.48,0.109,0.96,0.112,1.447
			c0.001,0.107-0.064,0.557,0,0.65c0.122,0.178,0.686,0.141,0.952,0.164c1.682,0.148,3.36,0.379,5.014,0.721
			c4.411,0.912,11.395,3.127,10.435,8.902c-0.364,2.193-1.483,4.635-3.514,5.743c-2.805,1.529-5.523-0.599-8.051-1.705
			c-1.547-0.677-3.167-1.161-4.835-1.425c0,3.965,0,7.93,0,11.894c0,2.018,0,4.037,0,6.055c0,0.107-0.056,0.387,0,0.479
			c0.18,0.295,1.291,0.555,1.627,0.693c1.525,0.628,3.03,1.309,4.488,2.082c6.251,3.312,10.968,8.448,12.026,15.637
			c1.039,7.058-0.736,14.725-5.923,19.822c-2.843,2.793-6.469,4.649-10.285,5.721c-0.477,0.134-1.231,0.177-1.652,0.415
			c-0.388,0.219-0.28,0.149-0.282,0.696c-0.003,0.783-0.051,1.533-0.333,2.275C285.666,435.3,283.717,436.649,281.601,436.649z
			 M261.405,410.633c-2.565,0-4.431,2.657-5.204,4.823c-0.677,1.895-0.503,3.745,0.459,5.499c2.352,4.287,7.452,6.795,11.936,8.145
			c1.591,0.479,3.22,0.833,4.864,1.074c0.791,0.116,1.585,0.204,2.381,0.268c0.156,0.012,0.866-0.054,0.994,0.066
			c0.156,0.146,0.079,0.079,0.118,0.409c0.154,1.315,0.148,2.394,1.047,3.494c0.901,1.103,2.131,1.75,3.563,1.732
			c2.607-0.032,4.613-2.067,4.686-4.658c0.009-0.335-0.017-0.671,0-1.005c0.029-0.578-0.007-0.468,0.62-0.607
			c1.347-0.298,2.674-0.684,3.965-1.17c4.606-1.735,8.639-4.833,11.068-9.161c2.579-4.595,3.289-10.262,2.437-15.424
			c-0.836-5.066-3.589-9.336-7.679-12.396c-1.953-1.461-4.108-2.636-6.32-3.653c-1.138-0.523-2.295-1.003-3.461-1.459
			c-0.583-0.228-0.543-0.102-0.63-0.557c-0.202-1.053,0-2.347,0-3.416c0-1.857,0-3.713,0-5.57c0-3.175,0-6.35,0-9.525
			c0-0.191,0-0.381,0-0.572c3.194,0.452,5.814,1.744,8.694,3.079c2.857,1.324,5.406,0.362,6.819-2.426
			c0.978-1.93,1.497-4.422,0.268-6.353c-1.479-2.327-4.489-3.444-7.01-4.166c-1.644-0.471-3.328-0.796-5.021-1.029
			c-0.849-0.117-1.702-0.21-2.556-0.281c-0.196-0.016-0.933,0.033-1.076-0.078c-0.169-0.131-0.085-0.126-0.117-0.419
			c-0.13-1.185,0.059-2.206-0.533-3.331c-0.664-1.263-1.902-2.175-3.31-2.422c-2.957-0.519-5.403,1.838-5.453,4.72
			c-0.007,0.431,0.057,0.894,0,1.321c-0.079,0.597-0.16,0.425-0.867,0.552c-1.695,0.304-3.372,0.719-4.999,1.285
			c-4.638,1.615-8.779,4.558-11.133,8.946c-1.701,3.171-2.384,6.813-2.295,10.391c0.145,5.76,2.711,10.694,7.351,14.098
			c2.257,1.656,4.776,2.924,7.339,4.031c1.34,0.579,2.699,1.114,4.064,1.632c0.618,0.234,0.479,0.098,0.54,0.595
			c0.154,1.256,0,2.631,0,3.894c0,2.084,0,4.169,0,6.253c0,3.505,0,7.01,0,10.516c0,0.207,0,0.415,0,0.622
			c-2.931-0.505-5.617-1.621-8.076-3.287c-1.094-0.741-2.123-1.566-3.172-2.368C264.474,411.806,263.042,410.633,261.405,410.633z
			 M286.249,417.859c0-5.027,0-10.054,0-15.081c0-0.732,0-1.464,0-2.196c3.419,1.903,5.962,4.591,6.054,8.686
			C292.395,413.409,290.025,416.4,286.249,417.859z M286.749,401.442c0,5.226,0,10.452,0,15.677
			c3.209-1.377,5.095-4.217,5.055-7.716C291.763,405.836,289.738,403.209,286.749,401.442z M276.954,382.877
			c-3.536-1.565-6.962-3.79-6.951-8.094c0.01-4.061,3.383-6.315,6.951-7.276C276.954,372.63,276.954,377.754,276.954,382.877z
			 M276.454,368.166c-3.152,0.934-5.944,3.074-5.951,6.617c-0.007,3.737,2.841,5.896,5.951,7.322
			C276.454,377.459,276.454,372.812,276.454,368.166z"/>
	</g>
</g>
<g>
</g>
<g>
</g>
<g>
</g>
<g>
</g>
<g>
</g>
<g>
</g>
<g>
</g>
<g>
</g>
<g>
</g>
<g>
</g>
<g>
</g>
<g>
</g>
<g>
</g>
<g>
</g>
<g>
</g>
</svg>
