<?xml version="1.0" encoding="iso-8859-1"?>
<!-- Generator: Adobe Illustrator 19.0.0, SVG Export Plug-In . SVG Version: 6.00 Build 0)  -->
<svg version="1.1" id="Layer_1" xmlns="http://www.w3.org/2000/svg" xmlns:xlink="http://www.w3.org/1999/xlink" x="0px" y="0px"
	 viewBox="0 0 491.096 491.096" style="enable-background:new 0 0 491.096 491.096;" xml:space="preserve">
<g>
	<path style="fill:#FFE14D;" d="M94.772,217.918c15.281,29.547,26.949,49.532,55.819,78.402c28.87,28.87,48.848,40.53,78.41,55.811
		l49.731-49.731c5.138-5.138,13.471-5.138,18.609,0l73.522,73.522c5.138,5.138,5.138,13.471,0,18.609l-19.764,19.764
		c-57.482,57.482-169.282,38.888-263.326-55.156C-6.28,265.088-24.874,153.288,32.608,95.806l19.764-19.764
		c5.138-5.138,13.471-5.138,18.609,0l73.529,73.529c5.138,5.138,5.138,13.471,0,18.609L94.772,217.918z"/>
	<path style="fill:#FFBE1D;" d="M106.91,339.996C12.862,245.948-5.734,134.148,51.748,76.666L32.609,95.805
		c-57.482,57.482-38.886,169.282,55.162,263.33s205.848,112.644,263.33,55.162l19.139-19.139
		C312.758,452.64,200.958,434.044,106.91,339.996z"/>
	<path style="fill:#E6E6E6;" d="M70.981,76.042l73.529,73.529c5.138,5.138,5.138,13.471,0,18.609l-19.764,19.764L32.608,95.806
		l19.764-19.764C57.511,70.904,65.843,70.904,70.981,76.042z"/>
	<path style="fill:#E6E6E6;" d="M297.34,302.401l73.522,73.522c5.138,5.138,5.138,13.471,0,18.609l-19.764,19.764l-92.131-92.131
		l19.764-19.764C283.87,297.263,292.202,297.263,297.34,302.401z"/>
	<path style="fill:#CCCCCC;" d="M115.406,139.075l-19.764,19.764l29.105,29.105l19.764-19.764c5.138-5.138,5.138-13.471,0-18.609
		l-29.105-29.105C120.544,125.604,120.544,133.937,115.406,139.075z"/>
	<g>
		<path style="fill:#32CC77;" d="M466.698,44.192H221.035c-13.475,0-24.398,10.923-24.398,24.398v114.474
			c0,13.475,10.923,24.398,24.398,24.398h14.283v56l56-56h175.38c13.475,0,24.398-10.923,24.398-24.398V68.59
			C491.096,55.115,480.173,44.192,466.698,44.192z"/>
	</g>
	<g>
		<path style="fill:#E6E6E6;" d="M263.614,132.898c8.894-6.088,19.962-13.665,19.962-26.627c0-6.147-2.488-11.387-7.195-15.152
			c-4.164-3.331-9.902-5.241-15.744-5.241c-10.788,0-22.254,6.633-22.254,18.925c0,5.421,2.283,8.056,6.979,8.056
			c5.296,0,8.154-2.94,8.154-5.707c0-4.587,2.631-7.219,7.219-7.219c5.4,0,7.317,3.678,7.317,6.827
			c0,5.825-6.872,10.869-14.147,16.209c-8.208,6.025-16.697,12.255-16.697,20.412v9.498c0,2.945,4.018,4.825,6.783,4.825h34.858
			c2.518,0,4.727-3.216,4.727-6.881c0-3.561-2.209-6.685-4.727-6.685h-25.529v-0.756
			C253.321,139.944,258.091,136.679,263.614,132.898z"/>
		<path style="fill:#E6E6E6;" d="M336.915,128.275h-4.085v-6.729c0-2.18-2.033-4.727-7.762-4.727s-7.763,2.546-7.763,4.727v6.729
			h-8.093l17.244-34.586c0.259-0.606,0.5-1.256,0.5-1.91c0-1.6-1.024-3.133-2.885-4.316c-1.516-0.964-3.43-1.586-4.877-1.586
			c-2.847,0-5.147,1.415-6.476,3.985l-22.617,44.353c-0.695,1.273-0.799,2.424-0.799,2.997c0,3.237,2.097,5.412,5.217,5.412h22.787
			v10.254c0,2.324,2.429,4.825,7.763,4.825c5.333,0,7.762-2.501,7.762-4.825v-10.254h4.085c2.435,0,4.825-3.554,4.825-7.175
			C341.74,130.52,339.238,128.275,336.915,128.275z"/>
		<path style="fill:#E6E6E6;" d="M387.831,81.862c-1.932,0-3.472,0.918-4.225,2.518l-34.368,70.595
			c-0.32,0.639-0.503,1.337-0.503,1.917c0,2.566,2.253,5.314,5.608,5.314c1.969,0,3.827-1.036,4.519-2.518l34.466-70.596
			c0.334-0.67,0.405-1.412,0.405-1.916C393.733,83.998,390.682,81.862,387.831,81.862z"/>
		<path style="fill:#E6E6E6;" d="M443.742,85.877h-34.76c-3.423,0-6.784,2.39-6.784,4.825v15.177c0,2.66,3.438,4.825,7.665,4.825
			c4.261,0,7.86-2.209,7.86-4.825v-6.436H435v6.696l-24.071,41.685c-0.485,0.873-0.701,1.677-0.701,2.606
			c0,4.632,5.175,7.86,9.819,7.86c2.211,0,3.657-0.694,4.419-2.123l22.912-43.865c0.738-1.385,3.148-6.151,3.148-9.361v-12.24
			C450.525,88.595,447.235,85.877,443.742,85.877z"/>
	</g>
</g>
<g>
</g>
<g>
</g>
<g>
</g>
<g>
</g>
<g>
</g>
<g>
</g>
<g>
</g>
<g>
</g>
<g>
</g>
<g>
</g>
<g>
</g>
<g>
</g>
<g>
</g>
<g>
</g>
<g>
</g>
</svg>
