<?xml version="1.0" encoding="iso-8859-1"?>
<!-- Generator: Adobe Illustrator 19.0.0, SVG Export Plug-In . SVG Version: 6.00 Build 0)  -->
<svg version="1.1" id="Layer_1" xmlns="http://www.w3.org/2000/svg" xmlns:xlink="http://www.w3.org/1999/xlink" x="0px" y="0px"
	 viewBox="0 0 497.5 497.5" style="enable-background:new 0 0 497.5 497.5;" xml:space="preserve">
<g>
	<circle style="fill:#FFBE1D;" cx="409.473" cy="279.135" r="88.027"/>
	<g>
		<path style="fill:#1F81A3;" d="M336.5,85.124l-2.62,20l-8.39,63.89c-1.51,11.51-11.31,20.11-22.92,20.11H202.43
			c-11.61,0-21.41-8.6-22.92-20.11l-11.01-83.89l84-22.5L336.5,85.124z"/>
		<path style="fill:#2C92BF;" d="M333.88,105.124l-8.39,63.89c-1.51,11.51-11.31,20.11-22.92,20.11h-68.14
			c-11.61,0-21.41-8.6-22.92-20.11l-5.686-43.3c-1.433-10.91,7.06-20.591,18.063-20.591H333.88z"/>
		<path style="fill:#1F81A3;" d="M348,62.504v12.24c0,5.73-4.65,10.38-10.38,10.38H167.38c-5.73,0-10.38-4.65-10.38-10.38v-12.24
			c0-5.73,4.65-10.38,10.38-10.38h170.24C343.35,52.124,348,56.774,348,62.504z"/>
		<path style="fill:#2C92BF;" d="M348,62.504v12.24c0,5.73-4.65,10.38-10.38,10.38H207.38c-5.73,0-10.38-4.65-10.38-10.38v-12.24
			c0-5.73,4.65-10.38,10.38-10.38h130.24C343.35,52.124,348,56.774,348,62.504z"/>
		<path style="fill:#3C3F4D;" d="M252.5,5.124L252.5,5.124c-9.389,0-17,7.611-17,17v81c0,9.389,7.611,17,17,17h0
			c9.389,0,17-7.611,17-17v-81C269.5,12.735,261.889,5.124,252.5,5.124z"/>
	</g>
	<circle style="fill:#FF491F;" cx="252.5" cy="433.509" r="58.867"/>
	<path style="fill:#ED3618;" d="M257.61,395.137c-1.757-0.231-3.494-0.34-5.203-0.336c-2.936,0.007-3.977,3.922-1.453,5.421
		c11.351,6.745,18.96,19.124,18.96,33.287c0,14.165-7.611,26.546-18.966,33.29c-2.518,1.496-1.489,5.41,1.44,5.418
		c0.037,0,0.074,0,0.111,0c22.089,0,39.856-18.502,38.65-40.853C290.156,412.924,275.92,397.544,257.61,395.137z"/>
	<circle style="fill:#FFE14D;" cx="409.473" cy="279.135" r="62.099"/>
	<path style="fill:#32CC77;" d="M160.503,332.145H45.5c-25.089,0-45.5-20.411-45.5-45.5s20.411-45.5,45.5-45.5h115.003
		c25.089,0,45.5,20.411,45.5,45.5C206.003,311.734,185.592,332.145,160.503,332.145z M45.5,256.145c-16.818,0-30.5,13.682-30.5,30.5
		c0,16.818,13.682,30.5,30.5,30.5h115.003c16.818,0,30.5-13.682,30.5-30.5s-13.682-30.5-30.5-30.5H45.5z"/>
	<path style="fill:#32CC77;" d="M103.002,256.145c-4.142,0-7.5-3.358-7.5-7.5v-27.88c-19.591-3.546-34.499-20.729-34.499-41.327
		c0-23.158,18.84-41.998,41.999-41.998c23.158,0,41.998,18.841,41.998,41.998c0,4.142-3.358,7.5-7.5,7.5s-7.5-3.358-7.5-7.5
		c0-14.887-12.111-26.998-26.998-26.998c-14.887,0-26.999,12.111-26.999,26.998s12.111,26.998,26.999,26.998
		c4.142,0,7.5,3.358,7.5,7.5v34.709C110.502,252.787,107.144,256.145,103.002,256.145z"/>
	<path style="fill:#FFBE1D;" d="M416.015,271.945v-18.474c3.083,0.486,5.153,1.535,6.826,2.383c1.44,0.73,2.578,1.306,3.853,1.306
		c4.071,0,5.833-4.978,5.833-7.518c0-5.421-8.484-7.93-16.512-8.482v-1.118c0-2.838-2.31-5.148-5.147-5.148s-5.147,2.31-5.147,5.148
		v1.444c-12.27,2.053-19.301,9.545-19.301,20.584c0,13.57,11.102,17.834,19.301,20.919v20.734c-4.521-0.859-7.462-3.142-9.835-4.984
		c-1.936-1.502-3.464-2.688-5.213-2.688c-3.508,0-6.148,4.625-6.148,7.623c0,5.662,8.692,12.453,21.196,13.232v0.513
		c0,1.587,0.732,3.065,1.99,4.04c0.747,0.704,1.83,1.108,2.974,1.108c0.027,0,0.055-0.002,0.104-0.007l0.079,0.007
		c2.838,0,5.147-2.309,5.147-5.147v-1.089c11.702-2.501,18.407-10.597,18.407-22.241
		C434.422,280.912,425.597,275.644,416.015,271.945z M421.072,295.46c0,3.544-1.746,6.158-5.057,7.578v-15.677
		C419.508,289.426,421.072,291.939,421.072,295.46z M405.72,254.086v13.939c-3.135-1.439-5.95-3.361-5.95-7.323
		C399.77,257.523,401.826,255.24,405.72,254.086z"/>
	<path style="fill:#C4E2F2;" d="M252.5,367.519c-4.142,0-7.5-3.358-7.5-7.5V212.937c0-4.142,3.358-7.5,7.5-7.5s7.5,3.358,7.5,7.5
		v147.082C260,364.161,256.642,367.519,252.5,367.519z"/>
	<path style="fill:#C4E2F2;" d="M305.247,388.262c-1.919,0-3.839-0.732-5.304-2.197c-2.929-2.929-2.929-7.678,0-10.606
		l21.087-21.087c2.93-2.929,7.678-2.929,10.607,0c2.929,2.929,2.929,7.678,0,10.606l-21.087,21.087
		C309.085,387.53,307.166,388.262,305.247,388.262z"/>
	<path style="fill:#C4E2F2;" d="M198.755,387.267c-1.919,0-3.839-0.732-5.303-2.197l-20.092-20.092
		c-2.929-2.929-2.929-7.678,0-10.606c2.929-2.929,7.678-2.929,10.606,0l20.092,20.092c2.929,2.929,2.929,7.678,0,10.606
		C202.594,386.535,200.675,387.267,198.755,387.267z"/>
</g>
<g>
</g>
<g>
</g>
<g>
</g>
<g>
</g>
<g>
</g>
<g>
</g>
<g>
</g>
<g>
</g>
<g>
</g>
<g>
</g>
<g>
</g>
<g>
</g>
<g>
</g>
<g>
</g>
<g>
</g>
</svg>
