<?xml version="1.0" encoding="iso-8859-1"?>
<!-- Generator: Adobe Illustrator 19.0.0, SVG Export Plug-In . SVG Version: 6.00 Build 0)  -->
<svg version="1.1" id="Layer_1" xmlns="http://www.w3.org/2000/svg" xmlns:xlink="http://www.w3.org/1999/xlink" x="0px" y="0px"
	 viewBox="0 0 490.669 490.669" style="enable-background:new 0 0 490.669 490.669;" xml:space="preserve">
<g>
	<path style="fill:#C4E2F2;" d="M0.333,82.393v263.99c0,23.479,19.033,42.512,42.512,42.512h404.976
		c23.479,0,42.512-19.033,42.512-42.512V82.393c0-23.23-18.832-42.062-42.062-42.062H42.394
		C19.164,40.332,0.333,59.163,0.333,82.393z"/>
	<polygon style="fill:#2D303B;" points="344.166,445.619 245.336,468.139 146.496,445.619 160.036,388.899 241.136,359.079 
		330.626,388.899 335.006,407.259 	"/>
	<path style="fill:#3C3F4D;" d="M490.336,341.379v5c0,23.48-19.04,42.52-42.52,42.52H42.846c-23.48,0-42.51-19.04-42.51-42.52v-5
		H490.336z"/>
	<polygon style="fill:#3C3F4D;" points="344.166,445.619 192.996,445.619 202.156,407.259 335.006,407.259 	"/>
	<path style="fill:#2D303B;" d="M402.416,477.199v13.47H88.256v-13.47c0-17.44,14.14-31.58,31.58-31.58h251
		C388.276,445.619,402.416,459.759,402.416,477.199z"/>
	<path style="fill:#3C3F4D;" d="M402.416,477.199v13.47h-260.17v-13.47c0-17.44,14.14-31.58,31.59-31.58h197
		C388.276,445.619,402.416,459.759,402.416,477.199z"/>
	<polygon style="fill:#FF491F;" points="89.291,95.964 289.438,95.964 314.937,341.379 63.792,341.379 	"/>
	<polygon style="fill:#ED3618;" points="187.701,175.314 326.826,175.314 344.55,341.379 169.976,341.379 	"/>
	<polygon style="fill:#FFE14D;" points="206.701,175.314 345.826,175.314 363.55,341.379 188.976,341.379 	"/>
	<path style="fill:#3C3F4D;" d="M243.362,127.465c-4.143,0-7.5-3.358-7.5-7.5V70.47c0-25.639-20.858-46.497-46.497-46.497
		s-46.497,20.859-46.497,46.497v49.494c0,4.142-3.357,7.5-7.5,7.5s-7.5-3.358-7.5-7.5V70.47c0-33.91,27.588-61.497,61.497-61.497
		s61.497,27.588,61.497,61.497v49.494C250.862,124.107,247.504,127.465,243.362,127.465z"/>
	<path style="fill:#FFFFFF;" d="M276.263,277.593c-21.917,0-39.748-17.831-39.748-39.748v-32.249c0-4.142,3.357-7.5,7.5-7.5
		s7.5,3.358,7.5,7.5v32.249c0,13.646,11.102,24.748,24.748,24.748s24.749-11.102,24.749-24.748v-32.249c0-4.142,3.357-7.5,7.5-7.5
		s7.5,3.358,7.5,7.5v32.249C316.012,259.762,298.181,277.593,276.263,277.593z"/>
	<circle style="fill:#32CC77;" cx="382.02" cy="73.317" r="73.317"/>
	<path style="fill:#FFFFFF;" d="M374.336,117.769c-2.718,0-5.23-1.472-6.556-3.858l-20-36c-2.011-3.621-0.707-8.187,2.914-10.198
		c3.624-2.011,8.188-0.707,10.199,2.914l13,23.4l28.698-59.037c1.81-3.724,6.295-5.278,10.024-3.466
		c3.725,1.811,5.277,6.299,3.466,10.024l-35,72c-1.223,2.516-3.744,4.142-6.54,4.218
		C374.473,117.768,374.405,117.769,374.336,117.769z"/>
	<path style="fill:#3C3F4D;" d="M462.895,205.777h-71.997c-4.143,0-7.5-3.358-7.5-7.5s3.357-7.5,7.5-7.5h71.997
		c4.143,0,7.5,3.358,7.5,7.5S467.037,205.777,462.895,205.777z"/>
	<path style="fill:#3C3F4D;" d="M462.895,240.779h-56.996c-4.143,0-7.5-3.358-7.5-7.5s3.357-7.5,7.5-7.5h56.996
		c4.143,0,7.5,3.358,7.5,7.5S467.037,240.779,462.895,240.779z"/>
</g>
<g>
</g>
<g>
</g>
<g>
</g>
<g>
</g>
<g>
</g>
<g>
</g>
<g>
</g>
<g>
</g>
<g>
</g>
<g>
</g>
<g>
</g>
<g>
</g>
<g>
</g>
<g>
</g>
<g>
</g>
</svg>
