<?xml version="1.0" encoding="iso-8859-1"?>
<!-- Generator: Adobe Illustrator 19.0.0, SVG Export Plug-In . SVG Version: 6.00 Build 0)  -->
<svg version="1.1" id="Layer_1" xmlns="http://www.w3.org/2000/svg" xmlns:xlink="http://www.w3.org/1999/xlink" x="0px" y="0px"
	 viewBox="0 0 491.314 491.314" style="enable-background:new 0 0 491.314 491.314;" xml:space="preserve">
<g>
	<path style="fill:#FF491F;" d="M165.731,266.2l158.996,12.368c0,0,110.502,10.781,123.978-24.257s-44.47-25.604-44.47-55.251
		s64.192-39.443,64.192-74.972s-66.374-17.286-86.588-37.5S379.868,0,344.338,0c-35.53,0-45.326,64.192-74.972,64.192
		s-20.214-57.946-55.251-44.47s-24.257,123.978-24.257,123.978l25.603,173.838"/>
	<g>
		<path style="fill:#3C3F4D;" d="M222.039,417.856c13.386-19.368,12.671-45.524-2.114-64.17l-111.337-14.228l55.152,93.333
			L222.039,417.856z"/>
		<path style="fill:#E6E6E6;" d="M262.139,463.783l-23.794,23.794c-4.349,4.349-11.187,4.978-16.264,1.485l-65.329-45.007
			l-21.348-14.701l42.144-42.144l21.348,14.701l61.455,42.334C266.926,448.771,267.775,458.147,262.139,463.783z"/>
		<polygon style="fill:#CCCCCC;" points="198.896,401.911 156.752,444.055 135.404,429.354 133.985,401.069 177.548,387.211 		"/>
		<path style="fill:#2C92BF;" d="M270.801,264.329c7.764-21.114,3.161-45.743-13.789-62.692
			c-16.949-16.949-41.578-21.553-62.692-13.789l-0.884,66.761L270.801,264.329z"/>
		<path style="fill:#1F81A3;" d="M257.451,202.09c16.589,16.928,21.044,41.309,13.35,62.24l-67.932-8.535l47.588-11.809
			C260.986,226.089,266.46,211.706,257.451,202.09z"/>
		<polygon style="fill:#2C92BF;" points="202.869,255.795 195.77,256.94 196.35,254.974 		"/>
		<polygon style="fill:#E6E6E6;" points="155.295,148.824 309.834,303.362 199.822,364.937 93.72,258.835 		"/>
		<polygon style="fill:#CCCCCC;" points="250.592,244.12 309.834,303.362 199.822,364.937 157.727,322.842 		"/>
		<path style="fill:#2C92BF;" d="M93.72,258.833l-64.421,64.421c-8.549,8.549-8.549,22.41,0,30.959l75.14,75.14
			c8.549,8.549,22.41,8.549,30.959,0l64.421-64.421"/>
		<path style="fill:#1F81A3;" d="M133.985,401.069c-8.549,8.549-22.41,8.549-30.959,0l-75.14-75.14
			c-0.166-0.166-0.322-0.337-0.481-0.507c-6.592,8.584-5.965,20.93,1.895,28.79l75.14,75.14c8.549,8.549,22.41,8.549,30.959,0
			l64.421-64.421l-14.848-14.848L133.985,401.069z"/>
		<g>
			<path style="fill:#3C3F4D;" d="M60.861,354.383c-1.919,0-3.839-0.732-5.304-2.197c-2.929-2.929-2.929-7.678,0-10.606
				l33.939-33.939c2.93-2.929,7.678-2.929,10.607,0c2.929,2.929,2.929,7.678,0,10.606l-33.939,33.939
				C64.7,353.65,62.78,354.383,60.861,354.383z"/>
			<path style="fill:#3C3F4D;" d="M80.487,374.009c-1.919,0-3.839-0.732-5.304-2.197c-2.929-2.929-2.929-7.678,0-10.606
				l33.939-33.939c2.93-2.929,7.678-2.929,10.607,0c2.929,2.929,2.929,7.678,0,10.606l-33.939,33.939
				C84.326,373.276,82.406,374.009,80.487,374.009z"/>
			<path style="fill:#3C3F4D;" d="M100.113,393.635c-1.919,0-3.839-0.732-5.304-2.197c-2.929-2.929-2.929-7.678,0-10.606
				l33.939-33.939c2.93-2.929,7.678-2.929,10.607,0c2.929,2.929,2.929,7.678,0,10.606l-33.939,33.939
				C103.952,392.902,102.032,393.635,100.113,393.635z"/>
		</g>
	</g>
	<g>
		<path style="fill:#FFE14D;" d="M263.953,138.381v-21.507c0-14.994,9.845-20.447,22.718-20.447
			c12.722,0,22.718,5.452,22.718,20.447v21.507c0,14.994-9.996,20.447-22.718,20.447
			C273.798,158.828,263.953,153.376,263.953,138.381z M294.244,116.875c0-4.998-2.877-7.27-7.573-7.27
			c-4.695,0-7.421,2.272-7.421,7.27v21.507c0,4.998,2.726,7.27,7.421,7.27c4.695,0,7.573-2.272,7.573-7.27V116.875z M356.342,98.245
			c0,0.909-0.151,1.969-0.607,2.878l-53.313,109.201c-1.06,2.272-3.937,3.787-6.815,3.787c-5.151,0-8.482-4.241-8.482-8.028
			c0-0.909,0.303-1.969,0.757-2.877l53.162-109.201c1.212-2.575,3.636-3.786,6.362-3.786
			C351.647,90.218,356.342,93.398,356.342,98.245z M333.471,187.151v-21.507c0-14.994,9.845-20.447,22.72-20.447
			c12.722,0,22.718,5.452,22.718,20.447v21.507c0,14.994-9.996,20.447-22.718,20.447
			C343.316,207.598,333.471,202.145,333.471,187.151z M363.764,165.644c0-4.998-2.877-7.27-7.573-7.27
			c-4.695,0-7.423,2.272-7.423,7.27v21.507c0,4.998,2.727,7.27,7.423,7.27c4.695,0,7.573-2.272,7.573-7.27V165.644z"/>
		<path style="fill:#FFE14D;" d="M295.608,214.236c-5.148,0-8.607-4.215-8.607-8.152c0-0.885,0.28-1.955,0.771-2.933l53.16-109.201
			c1.154-2.45,3.515-3.856,6.475-3.856c4.376,0,9.062,3.276,9.062,8.152c0,0.774-0.107,1.912-0.621,2.934l-53.312,109.2
			C301.476,212.649,298.628,214.236,295.608,214.236z M347.406,90.343c-2.859,0-5.137,1.354-6.249,3.714l-53.162,109.203
			c-0.473,0.946-0.744,1.975-0.744,2.823c0,3.816,3.358,7.902,8.357,7.902c2.926,0,5.682-1.527,6.701-3.714l53.313-109.203
			c0.491-0.979,0.595-2.075,0.595-2.823C356.218,93.518,351.661,90.343,347.406,90.343z M356.191,207.723
			c-6.933,0-12.405-1.557-16.266-4.628c-4.365-3.472-6.579-8.836-6.579-15.944v-21.507c0-7.108,2.214-12.472,6.579-15.944
			c3.86-3.071,9.333-4.628,16.266-4.628c6.876,0,12.328,1.557,16.207,4.627c4.403,3.486,6.636,8.851,6.636,15.945v21.507
			c0,7.094-2.232,12.458-6.636,15.944C368.519,206.166,363.067,207.723,356.191,207.723z M356.191,145.322
			c-18.675,0-22.595,11.051-22.595,20.322v21.507c0,9.271,3.92,20.322,22.595,20.322c6.818,0,12.219-1.539,16.052-4.574
			c4.341-3.436,6.541-8.734,6.541-15.748v-21.507c0-7.014-2.2-12.313-6.541-15.749C368.41,146.861,363.01,145.322,356.191,145.322z
			 M356.191,194.546c-4.938,0-7.548-2.557-7.548-7.395v-21.507c0-4.838,2.61-7.395,7.548-7.395c5.035,0,7.697,2.557,7.697,7.395
			v21.507C363.889,191.989,361.226,194.546,356.191,194.546z M356.191,158.499c-4.843,0-7.298,2.404-7.298,7.145v21.507
			c0,4.741,2.455,7.145,7.298,7.145c4.872,0,7.447-2.471,7.447-7.145v-21.507C363.639,160.97,361.063,158.499,356.191,158.499z
			 M286.672,158.953c-6.932,0-12.404-1.557-16.265-4.628c-4.365-3.472-6.579-8.836-6.579-15.944v-21.507
			c0-7.108,2.214-12.472,6.579-15.944c3.86-3.071,9.333-4.628,16.265-4.628c6.876,0,12.328,1.557,16.207,4.628
			c4.403,3.486,6.636,8.85,6.636,15.944v21.507c0,7.094-2.232,12.458-6.636,15.945C299,157.396,293.548,158.953,286.672,158.953z
			 M286.672,96.553c-18.674,0-22.594,11.051-22.594,20.322v21.507c0,9.271,3.92,20.322,22.594,20.322
			c6.818,0,12.219-1.539,16.052-4.574c4.341-3.436,6.541-8.734,6.541-15.748v-21.507c0-7.014-2.2-12.312-6.541-15.748
			C298.891,98.091,293.49,96.553,286.672,96.553z M286.672,145.776c-4.938,0-7.547-2.557-7.547-7.395v-21.507
			c0-4.838,2.609-7.395,7.547-7.395c5.035,0,7.697,2.557,7.697,7.395v21.507C294.369,143.219,291.707,145.776,286.672,145.776z
			 M286.672,109.73c-4.842,0-7.297,2.404-7.297,7.145v21.507c0,4.741,2.455,7.145,7.297,7.145c4.872,0,7.447-2.471,7.447-7.145
			v-21.507C294.119,112.2,291.544,109.73,286.672,109.73z"/>
	</g>
</g>
<g>
</g>
<g>
</g>
<g>
</g>
<g>
</g>
<g>
</g>
<g>
</g>
<g>
</g>
<g>
</g>
<g>
</g>
<g>
</g>
<g>
</g>
<g>
</g>
<g>
</g>
<g>
</g>
<g>
</g>
</svg>
