<?xml version="1.0" encoding="iso-8859-1"?>
<!-- Generator: Adobe Illustrator 19.0.0, SVG Export Plug-In . SVG Version: 6.00 Build 0)  -->
<svg version="1.1" id="Layer_1" xmlns="http://www.w3.org/2000/svg" xmlns:xlink="http://www.w3.org/1999/xlink" x="0px" y="0px"
	 viewBox="0 0 490.507 490.507" style="enable-background:new 0 0 490.507 490.507;" xml:space="preserve">
<g>
	<path style="fill:#C4E2F2;" d="M423.004,112.142v330.14c0,14.6-11.83,26.43-26.43,26.43H26.434c-14.6,0-26.43-11.83-26.43-26.43
		v-330.14c0-14.6,11.83-26.43,26.43-26.43h370.14C411.174,85.711,423.004,97.542,423.004,112.142z"/>
	<path style="fill:#83B2C6;" d="M423,112.139v31.57H0v-31.57c0-14.6,11.83-26.43,26.43-26.43h370.14
		C411.17,85.709,423,97.539,423,112.139z"/>
	<g>
		<path style="fill:#E6E6E6;" d="M34.995,124.211c-3.129,0-6.002-2.035-7.054-4.977c-1.146-3.205,0.068-6.867,2.894-8.763
			c5.48-3.678,12.967,1.406,11.478,7.879C41.535,121.733,38.475,124.211,34.995,124.211z"/>
		<path style="fill:#E6E6E6;" d="M86.004,124.211c-3.003,0-5.779-1.862-6.931-4.63c-1.253-3.01-0.359-6.606,2.168-8.671
			c2.361-1.93,5.756-2.224,8.42-0.744c2.855,1.586,4.383,5.001,3.651,8.184C92.537,121.723,89.483,124.211,86.004,124.211z"/>
		<path style="fill:#E6E6E6;" d="M60.495,124.211c-3.133,0-5.994-2.033-7.054-4.977c-1.04-2.888-0.144-6.267,2.205-8.249
			c5.023-4.238,12.984-0.115,12.321,6.459C67.585,121.232,64.301,124.211,60.495,124.211z"/>
	</g>
	<g>
		<g>
			<path style="fill:#3C3F4D;" d="M205.376,416.33H90.372c-25.088,0-45.499-20.411-45.499-45.5s20.411-45.5,45.499-45.5h115.004
				c25.089,0,45.5,20.411,45.5,45.5S230.464,416.33,205.376,416.33z M90.372,340.33c-16.817,0-30.499,13.682-30.499,30.5
				s13.682,30.5,30.499,30.5h115.004c16.817,0,30.5-13.682,30.5-30.5s-13.683-30.5-30.5-30.5H90.372z"/>
			<path style="fill:#3C3F4D;" d="M147.874,340.33c-4.143,0-7.5-3.358-7.5-7.5v-27.879c-19.591-3.546-34.498-20.729-34.498-41.327
				c0-23.158,18.84-41.999,41.998-41.999s41.998,18.84,41.998,41.999c0,4.142-3.357,7.5-7.5,7.5s-7.5-3.358-7.5-7.5
				c0-14.887-12.111-26.999-26.998-26.999s-26.998,12.111-26.998,26.999c0,14.887,12.111,26.998,26.998,26.998
				c4.143,0,7.5,3.358,7.5,7.5v34.708C155.374,336.972,152.016,340.33,147.874,340.33z"/>
		</g>
		<g>
			<path style="fill:#FF491F;" d="M332.628,380.565H217.625c-25.089,0-45.5-20.411-45.5-45.5s20.411-45.5,45.5-45.5h115.003
				c25.089,0,45.5,20.411,45.5,45.5S357.716,380.565,332.628,380.565z M217.625,304.565c-16.817,0-30.5,13.682-30.5,30.5
				s13.683,30.5,30.5,30.5h115.003c16.817,0,30.5-13.682,30.5-30.5s-13.683-30.5-30.5-30.5H217.625z"/>
			<path style="fill:#FF491F;" d="M275.127,304.565c-4.143,0-7.5-3.358-7.5-7.5v-27.879c-19.592-3.547-34.499-20.73-34.499-41.328
				c0-23.158,18.841-41.998,41.999-41.998s41.998,18.84,41.998,41.998c0,4.142-3.357,7.5-7.5,7.5s-7.5-3.358-7.5-7.5
				c0-14.887-12.111-26.998-26.998-26.998c-14.888,0-26.999,12.111-26.999,26.998c0,14.887,12.111,26.999,26.999,26.999
				c4.143,0,7.5,3.358,7.5,7.5v34.708C282.627,301.207,279.269,304.565,275.127,304.565z"/>
		</g>
	</g>
	<path style="fill:#83B2C6;" d="M423.004,112.142v53.58c-6.3,1.77-12.95,2.71-19.81,2.71c-40.5,0-73.32-32.83-73.32-73.32
		c0-3.18,0.2-6.32,0.6-9.4h66.1C411.174,85.711,423.004,97.542,423.004,112.142z"/>
	<circle style="fill:#FF491F;" cx="417.19" cy="95.113" r="73.317"/>
	<path style="fill:#E6E6E6;" d="M392.795,127.008c-1.92,0-3.839-0.732-5.304-2.197c-2.929-2.929-2.929-7.678,0-10.606l48.791-48.791
		c2.931-2.93,7.679-2.929,10.607,0s2.929,7.678,0,10.606l-48.791,48.791C396.633,126.276,394.713,127.008,392.795,127.008z"/>
	<path style="fill:#E6E6E6;" d="M441.586,127.008c-1.919,0-3.839-0.732-5.304-2.197l-48.791-48.791
		c-2.929-2.929-2.929-7.678,0-10.606c2.93-2.929,7.678-2.929,10.607,0l48.791,48.791c2.929,2.929,2.929,7.678,0,10.606
		C445.424,126.276,443.504,127.008,441.586,127.008z"/>
</g>
<g>
</g>
<g>
</g>
<g>
</g>
<g>
</g>
<g>
</g>
<g>
</g>
<g>
</g>
<g>
</g>
<g>
</g>
<g>
</g>
<g>
</g>
<g>
</g>
<g>
</g>
<g>
</g>
<g>
</g>
</svg>
