<?xml version="1.0" encoding="iso-8859-1"?>
<!-- Generator: Adobe Illustrator 19.0.0, SVG Export Plug-In . SVG Version: 6.00 Build 0)  -->
<svg version="1.1" id="Layer_1" xmlns="http://www.w3.org/2000/svg" xmlns:xlink="http://www.w3.org/1999/xlink" x="0px" y="0px"
	 viewBox="0 0 484.902 484.902" style="enable-background:new 0 0 484.902 484.902;" xml:space="preserve">
<g>
	<path style="fill:#3C3F4D;" d="M323.817,484.902H92.112c-19.624,0-35.532-15.908-35.532-35.532V35.532
		C56.58,15.908,72.488,0,92.112,0h231.706c19.624,0,35.532,15.908,35.532,35.532V449.37
		C359.349,468.994,343.441,484.902,323.817,484.902z"/>
	<circle style="fill:#2D303B;" cx="207.965" cy="453.666" r="19.741"/>
	<path style="fill:#C4E2F2;" d="M329.744,80.08v324.43c0,9.9-8.02,17.92-17.92,17.92h-207.72c-9.9,0-17.92-8.02-17.92-17.92V80.08
		c0-9.9,8.02-17.92,17.92-17.92h207.72C321.724,62.16,329.744,70.18,329.744,80.08z"/>
	<path style="fill:#2D303B;" d="M234.465,37.22h-53c-4.142,0-7.5-3.358-7.5-7.5s3.358-7.5,7.5-7.5h53c4.142,0,7.5,3.358,7.5,7.5
		S238.607,37.22,234.465,37.22z"/>
	<polygon style="fill:#2D303B;" points="307.71,342.041 262.65,342.041 262.65,327.041 292.71,327.041 292.71,280.907 
		307.71,280.907 	"/>
	<path style="fill:#2D303B;" d="M181.421,215.752h-73.202V142.55h73.202V215.752z M123.219,200.752h43.202V157.55h-43.202V200.752z"
		/>
	<path style="fill:#2D303B;" d="M307.71,215.752h-73.201V142.55h73.201V215.752z M249.509,200.752h43.201V157.55h-43.201V200.752z"
		/>
	<path style="fill:#2D303B;" d="M181.421,342.041h-73.202V268.84h73.202V342.041z M123.219,327.041h43.202V283.84h-43.202V327.041z"
		/>
	<rect x="132.242" y="292.861" style="fill:#2D303B;" width="25.157" height="25.157"/>
	<rect x="132.242" y="166.572" style="fill:#2D303B;" width="25.157" height="25.157"/>
	<polygon style="fill:#2D303B;" points="215.465,279.907 200.465,279.907 200.465,250.574 108.219,250.574 108.219,235.574 
		215.465,235.574 	"/>
	<polygon style="fill:#2D303B;" points="248.317,313.907 194.984,313.907 194.984,298.907 233.317,298.907 233.317,234.796 
		248.317,234.796 	"/>
	<rect x="264.65" y="234.796" style="fill:#2D303B;" width="15" height="79.111"/>
	<rect x="292.71" y="234.796" style="fill:#2D303B;" width="15" height="19.777"/>
	<rect x="200.465" y="173.573" style="fill:#2D303B;" width="15" height="42.178"/>
	<rect x="200.465" y="142.55" style="fill:#2D303B;" width="15" height="22.177"/>
	<rect x="219.984" y="327.041" style="fill:#2D303B;" width="28.333" height="15"/>
	<rect x="258.531" y="166.572" style="fill:#2D303B;" width="25.157" height="25.157"/>
	<path style="fill:#83B2C6;" d="M329.744,80.08v65.67c-35.09-5.46-61.94-35.81-61.94-72.43c0-3.8,0.29-7.52,0.85-11.16h43.17
		C321.724,62.16,329.744,70.18,329.744,80.08z"/>
	<circle style="fill:#FF491F;" cx="355.004" cy="73.317" r="73.317"/>
	<g>
		<path style="fill:#FFFFFF;" d="M339.504,96.317c-4.088,0-7.5-3.417-7.5-7.5c0-2.207,0.987-4.087,2.511-5.617
			c2.174-2.183,4.358-4.358,6.537-6.537c6.877-6.877,13.754-13.754,20.63-20.63c1.783-1.783,3.718-4.291,6.129-5.217
			c3.615-1.388,7.819,0.292,9.476,3.796c1.373,2.906,0.68,6.282-1.527,8.557c-5.234,5.392-10.633,10.633-15.947,15.947
			c-4.998,4.998-9.911,10.103-15.005,15.005C343.372,95.501,341.51,96.317,339.504,96.317z"/>
		<g>
			<path style="fill:#FFFFFF;" d="M335.504,61.32c-6.629,0-9.976-8.387-5.168-12.935c2.506-2.37,6.453-2.736,9.328-0.805
				c2.471,1.659,3.762,4.697,3.206,7.626C342.208,58.696,339.068,61.32,335.504,61.32z"/>
			<path style="fill:#FFFFFF;" d="M374.504,100.32c-6.535,0-9.946-8.19-5.3-12.81c2.366-2.352,6.091-2.857,8.993-1.215
				c2.784,1.575,4.286,4.844,3.657,7.985C381.16,97.739,378.046,100.32,374.504,100.32z"/>
		</g>
	</g>
</g>
<g>
</g>
<g>
</g>
<g>
</g>
<g>
</g>
<g>
</g>
<g>
</g>
<g>
</g>
<g>
</g>
<g>
</g>
<g>
</g>
<g>
</g>
<g>
</g>
<g>
</g>
<g>
</g>
<g>
</g>
</svg>
