<?xml version="1.0" encoding="iso-8859-1"?>
<!-- Generator: Adobe Illustrator 19.0.0, SVG Export Plug-In . SVG Version: 6.00 Build 0)  -->
<svg version="1.1" id="Layer_1" xmlns="http://www.w3.org/2000/svg" xmlns:xlink="http://www.w3.org/1999/xlink" x="0px" y="0px"
	 viewBox="0 0 490.474 490.474" style="enable-background:new 0 0 490.474 490.474;" xml:space="preserve">
<g>
	<path style="fill:#FFE14D;" d="M420.969,272.644v-126.13l-1.63-1.62l-75.65-75.15H218.07c0.01,0.6-0.04,1.21-0.19,1.82
		c-0.83,3.29-3.88,5.68-7.28,5.68c-4.37,0-7.33-3.68-7.42-7.5H0.24v202.91c4.48,0.09,8.52,4.31,7.27,9.27
		c-0.83,3.3-3.87,5.68-7.27,5.68v202.87h202.94c-0.05-1.88,0.59-3.79,2.12-5.31c2.37-2.36,6.09-2.84,9-1.22
		c2.35,1.33,3.76,3.88,3.77,6.53h202.9v-202.87c-6.82,0-10.03-8.76-4.87-13.2C417.57,273.134,419.29,272.604,420.969,272.644z
		 M30.29,287.604c-4.14,0-7.5-3.36-7.5-7.5c0-4.14,3.36-7.5,7.5-7.5c4.14,0,7.5,3.36,7.5,7.5
		C37.79,284.244,34.429,287.604,30.29,287.604z M60.339,287.604c-4.14,0-7.5-3.36-7.5-7.5c0-4.14,3.36-7.5,7.5-7.5
		c4.15,0,7.5,3.36,7.5,7.5C67.839,284.244,64.49,287.604,60.339,287.604z M90.39,287.604c-4.14,0-7.5-3.36-7.5-7.5
		c0-4.14,3.36-7.5,7.5-7.5c4.15,0,7.5,3.36,7.5,7.5C97.89,284.244,94.54,287.604,90.39,287.604z M120.449,287.604
		c-4.15,0-7.5-3.36-7.5-7.5c0-4.14,3.35-7.5,7.5-7.5c4.14,0,7.5,3.36,7.5,7.5C127.949,284.244,124.589,287.604,120.449,287.604z
		 M150.5,287.604c-4.14,0-7.5-3.36-7.5-7.5c0-4.14,3.36-7.5,7.5-7.5s7.5,3.36,7.5,7.5C158,284.244,154.64,287.604,150.5,287.604z
		 M180.55,287.604c-4.14,0-7.5-3.36-7.5-7.5c0-4.14,3.36-7.5,7.5-7.5c4.14,0,7.5,3.36,7.5,7.5
		C188.05,284.244,184.689,287.604,180.55,287.604z M210.6,467.914c-4.14,0-7.5-3.35-7.5-7.5c0-4.14,3.36-7.5,7.5-7.5
		c4.15,0,7.5,3.36,7.5,7.5C218.1,464.564,214.75,467.914,210.6,467.914z M210.6,437.864c-4.14,0-7.5-3.36-7.5-7.5
		c0-4.14,3.36-7.5,7.5-7.5c4.15,0,7.5,3.36,7.5,7.5C218.1,434.504,214.75,437.864,210.6,437.864z M210.6,407.814
		c-4.14,0-7.5-3.36-7.5-7.5c0-4.14,3.36-7.5,7.5-7.5c4.15,0,7.5,3.36,7.5,7.5C218.1,404.454,214.75,407.814,210.6,407.814z
		 M210.6,377.764c-4.14,0-7.5-3.36-7.5-7.5c0-4.15,3.36-7.5,7.5-7.5c4.15,0,7.5,3.35,7.5,7.5
		C218.1,374.404,214.75,377.764,210.6,377.764z M210.6,347.714c-4.14,0-7.5-3.36-7.5-7.5c0-4.15,3.36-7.5,7.5-7.5
		c4.15,0,7.5,3.35,7.5,7.5C218.1,344.354,214.75,347.714,210.6,347.714z M210.6,317.654c-4.14,0-7.5-3.35-7.5-7.5
		c0-4.14,3.36-7.5,7.5-7.5c4.15,0,7.5,3.36,7.5,7.5C218.1,314.304,214.75,317.654,210.6,317.654z M210.6,287.604
		c-4.14,0-7.5-3.36-7.5-7.5c0-4.14,3.36-7.5,7.5-7.5c4.15,0,7.5,3.36,7.5,7.5C218.1,284.244,214.75,287.604,210.6,287.604z
		 M210.6,257.554c-4.14,0-7.5-3.36-7.5-7.5c0-4.14,3.36-7.5,7.5-7.5c4.15,0,7.5,3.36,7.5,7.5
		C218.1,254.194,214.75,257.554,210.6,257.554z M210.6,227.504c-4.14,0-7.5-3.36-7.5-7.5c0-4.15,3.36-7.5,7.5-7.5
		c4.15,0,7.5,3.35,7.5,7.5C218.1,224.144,214.75,227.504,210.6,227.504z M210.6,197.444c-4.14,0-7.5-3.35-7.5-7.5
		c0-4.14,3.36-7.5,7.5-7.5c4.15,0,7.5,3.36,7.5,7.5C218.1,194.094,214.75,197.444,210.6,197.444z M210.6,167.394
		c-4.14,0-7.5-3.35-7.5-7.5c0-4.14,3.36-7.5,7.5-7.5c4.15,0,7.5,3.36,7.5,7.5C218.1,164.044,214.75,167.394,210.6,167.394z
		 M210.6,137.344c-4.14,0-7.5-3.36-7.5-7.5c0-4.14,3.36-7.5,7.5-7.5c4.15,0,7.5,3.36,7.5,7.5
		C218.1,133.984,214.75,137.344,210.6,137.344z M210.6,107.294c-4.14,0-7.5-3.36-7.5-7.5c0-4.14,3.36-7.5,7.5-7.5
		c4.15,0,7.5,3.36,7.5,7.5C218.1,103.934,214.75,107.294,210.6,107.294z M240.659,287.604c-4.15,0-7.5-3.36-7.5-7.5
		c0-4.14,3.35-7.5,7.5-7.5c4.14,0,7.49,3.36,7.49,7.5C248.149,284.244,244.8,287.604,240.659,287.604z M270.709,287.604
		c-4.14,0-7.5-3.36-7.5-7.5c0-4.14,3.36-7.5,7.5-7.5c4.14,0,7.5,3.36,7.5,7.5C278.209,284.244,274.849,287.604,270.709,287.604z
		 M300.76,287.604c-4.14,0-7.5-3.36-7.5-7.5c0-4.14,3.36-7.5,7.5-7.5c4.14,0,7.5,3.36,7.5,7.5
		C308.26,284.244,304.899,287.604,300.76,287.604z M330.81,287.604c-4.14,0-7.5-3.36-7.5-7.5c0-4.14,3.36-7.5,7.5-7.5
		c4.14,0,7.5,3.36,7.5,7.5C338.31,284.244,334.949,287.604,330.81,287.604z M360.859,287.604c-4.14,0-7.5-3.36-7.5-7.5
		c0-4.14,3.36-7.5,7.5-7.5c4.15,0,7.5,3.36,7.5,7.5C368.359,284.244,365.01,287.604,360.859,287.604z M390.919,287.604
		c-4.15,0-7.5-3.36-7.5-7.5c0-4.14,3.35-7.5,7.5-7.5c4.14,0,7.5,3.36,7.5,7.5C398.419,284.244,395.06,287.604,390.919,287.604z"/>
	<path style="fill:#FFBE1D;" d="M419.339,144.894c-5.13,1.14-10.45,1.74-15.92,1.74c-40.49,0-73.32-32.83-73.32-73.32
		c0-1.2,0.03-2.39,0.09-3.57h13.5L419.339,144.894z"/>
	<circle style="fill:#FF491F;" cx="416.918" cy="73.317" r="73.317"/>
	<g>
		<path style="fill:#E6E6E6;" d="M401.417,96.317c-4.088,0-7.5-3.417-7.5-7.5c0-2.207,0.987-4.087,2.511-5.617
			c2.174-2.183,4.358-4.358,6.537-6.537c6.877-6.877,13.754-13.754,20.63-20.63c1.784-1.784,3.718-4.291,6.129-5.217
			c3.615-1.388,7.82,0.292,9.476,3.796c1.373,2.906,0.68,6.282-1.527,8.557c-5.234,5.392-10.633,10.633-15.947,15.947
			c-4.998,4.998-9.911,10.103-15.005,15.005C405.286,95.501,403.423,96.317,401.417,96.317z"/>
		<g>
			<path style="fill:#E6E6E6;" d="M397.419,61.314c-3.212,0-6.106-2.106-7.121-5.145c-1-2.996,0.061-6.433,2.591-8.33
				c5.326-3.993,13.065,0.678,11.913,7.261C404.182,58.647,401.027,61.314,397.419,61.314z"/>
			<path style="fill:#E6E6E6;" d="M436.419,100.314c-3.343,0-6.326-2.283-7.228-5.496c-0.847-3.016,0.358-6.371,2.937-8.151
				c5.274-3.641,12.677,0.845,11.707,7.253C443.286,97.548,440.094,100.314,436.419,100.314z"/>
		</g>
	</g>
	<g>
		<path style="fill:#FF491F;" d="M287.347,219.643c16.121,0,24.999-8.504,24.999-23.945v-2c0-7.668-3.292-13.313-9.55-16.439
			c4.564-3.196,7.233-9.543,7.233-17.453c0-13.095-7.454-19.735-22.156-19.735c-18.237,0-23.104,11.81-23.104,18.788
			c0,4.776,1.522,6.157,6.789,6.157c4.155,0,6.263-1.859,6.263-5.526c0-4.992,3.439-7.631,9.947-7.631
			c6.588,0,9.525,3.035,9.525,9.841c0,8.809-3.806,10.578-9.947,10.578c-2.824,0-4.578,2.117-4.578,5.526
			c0,3.293,1.797,5.421,4.578,5.421c8.079,0,11.842,3.328,11.842,10.473v2c0,8.447-3.51,12.051-11.736,12.051
			c-7.889,0-11.42-4.097-11.42-8.157c0-3.701-1.967-5.21-6.789-5.21c-3.696,0-6.157,0.976-6.157,5.736
			c0,4.82,2.107,9.596,5.783,13.104C273.27,217.423,279.659,219.643,287.347,219.643z"/>
		<path style="fill:#FF491F;" d="M350.496,140.071c-15.849,0-24.577,8.691-24.577,24.472v30.629
			c0,15.781,8.729,24.472,24.577,24.472c15.916,0,24.682-8.691,24.682-24.472v-30.629
			C375.178,148.762,366.412,140.071,350.496,140.071z M362.022,195.172c0,8.346-3.878,12.578-11.525,12.578
			c-7.578,0-11.421-4.232-11.421-12.578v-30.629c0-8.346,3.843-12.578,11.421-12.578c7.647,0,11.525,4.232,11.525,12.578V195.172z"
			/>
		<path style="fill:#FF491F;" d="M75.457,376.802h-8.292l1.33-18.419h23.383c2.634,0,4.474-2.446,4.474-5.947
			c0-2.955-1.537-5.947-4.474-5.947H60.616c-2.06,0-3.245,1.545-3.523,4.6l-2.415,28.573c-0.101,0.715-0.22,1.843-0.22,2.667
			c0,3.577,1.876,5.315,5.736,5.315h15.262c7.54,0,11.525,4.24,11.525,12.262v2c0,8.137-3.913,12.262-11.631,12.262
			c-5.632,0-11.314-2.62-11.314-8.473c0-3.648-2.186-5.421-6.684-5.421c-4.356,0-6.474,2.014-6.474,6.158
			c0,9.454,7.724,19.63,24.683,19.63c15.619,0,24.577-8.804,24.577-24.156v-2C100.139,385.007,91.374,376.802,75.457,376.802z"/>
		<path style="fill:#FF491F;" d="M137.238,346.489c-15.849,0-24.577,8.691-24.577,24.472v30.629
			c0,15.781,8.729,24.472,24.577,24.472c15.916,0,24.682-8.691,24.682-24.472V370.96C161.92,355.18,153.154,346.489,137.238,346.489
			z M148.763,401.59c0,8.346-3.878,12.578-11.525,12.578c-7.578,0-11.421-4.232-11.421-12.578V370.96
			c0-8.346,3.843-12.578,11.421-12.578c7.647,0,11.525,4.232,11.525,12.578V401.59z"/>
		<path style="fill:#FF491F;" d="M307.556,346.489h-37.365c-3.001,0-5.947,2.32-5.947,4.684v16.104c0,2.626,2.844,4.684,6.474,4.684
			c3.686,0,6.684-2.101,6.684-4.684v-8.894h22.945v5.271l-28.813,53.016c-0.442,0.774-0.658,1.625-0.658,2.602
			c0,3.999,4.125,6.474,7.946,6.474c2.517,0,3.698-1.199,4.257-2.225l28.31-54.831c0.79-1.501,2.115-4.364,2.115-6.676v-10.841
			C313.503,348.694,310.177,346.489,307.556,346.489z"/>
		<path style="fill:#FF491F;" d="M349.339,346.489c-15.849,0-24.577,8.691-24.577,24.472v30.629
			c0,15.781,8.729,24.472,24.577,24.472c15.916,0,24.682-8.691,24.682-24.472V370.96
			C374.021,355.18,365.255,346.489,349.339,346.489z M360.865,401.59c0,8.346-3.878,12.578-11.525,12.578
			c-7.578,0-11.421-4.232-11.421-12.578V370.96c0-8.346,3.843-12.578,11.421-12.578c7.647,0,11.525,4.232,11.525,12.578V401.59z"/>
		<path style="fill:#FF491F;" d="M68.562,162.543c0.81,0,2.03-0.354,3.022-1.345l1.977-2.475v55.658
			c0,2.758,2.706,4.684,6.579,4.684c3.269,0,6.578-1.609,6.578-4.684v-69.679c0-2.893-3.087-4.684-5.947-4.684
			c-1.431,0-2.559,0.461-3.535,1.437l-10.892,10.473c-1.542,1.106-2.572,3.139-2.572,5.089
			C63.772,159.685,65.697,162.543,68.562,162.543z"/>
		<path style="fill:#FF491F;" d="M149.027,195.54v-2c0-14.898-8.766-23.104-24.683-23.104h-8.292l1.33-18.419h23.383
			c2.634,0,4.474-2.446,4.474-5.947c0-2.955-1.537-5.947-4.474-5.947h-31.261c-2.06,0-3.245,1.545-3.523,4.599l-2.415,28.574
			c-0.101,0.715-0.22,1.842-0.22,2.667c0,3.577,1.876,5.315,5.736,5.315h15.262c7.54,0,11.525,4.24,11.525,12.262v2
			c0,8.136-3.913,12.262-11.631,12.262c-5.632,0-11.314-2.62-11.314-8.473c0-3.648-2.186-5.421-6.684-5.421
			c-4.356,0-6.474,2.014-6.474,6.158c0,9.454,7.724,19.63,24.683,19.63C140.069,219.696,149.027,210.892,149.027,195.54z"/>
	</g>
</g>
<g>
</g>
<g>
</g>
<g>
</g>
<g>
</g>
<g>
</g>
<g>
</g>
<g>
</g>
<g>
</g>
<g>
</g>
<g>
</g>
<g>
</g>
<g>
</g>
<g>
</g>
<g>
</g>
<g>
</g>
</svg>
