<?xml version="1.0" encoding="iso-8859-1"?>
<!-- Generator: Adobe Illustrator 19.0.0, SVG Export Plug-In . SVG Version: 6.00 Build 0)  -->
<svg version="1.1" id="Layer_1" xmlns="http://www.w3.org/2000/svg" xmlns:xlink="http://www.w3.org/1999/xlink" x="0px" y="0px"
	 viewBox="0 0 489.996 489.996" style="enable-background:new 0 0 489.996 489.996;" xml:space="preserve">
<g>
	<path style="fill:#FF491F;" d="M326.267,171.498c0-22.943,23.222-50.353,14.949-70.304c-8.576-20.682-44.693-23.547-60.28-39.133
		c-15.586-15.586-18.451-51.703-39.133-60.279c-19.951-8.273-47.361,14.949-70.304,14.949c-22.943,0-50.353-23.222-70.304-14.949
		c-20.682,8.576-23.547,44.693-39.133,60.28C46.476,77.647,10.36,80.513,1.783,101.194c-8.273,19.951,14.949,47.361,14.949,70.304
		c0,22.943-23.222,50.353-14.949,70.304c8.576,20.682,44.693,23.547,60.28,39.133c15.586,15.586,18.451,51.703,39.133,60.279
		c19.951,8.273,47.361-14.949,70.304-14.949c22.943,0,50.353,23.222,70.304,14.949c20.682-8.576,23.547-44.693,39.133-60.28
		c15.586-15.586,51.703-18.451,60.279-39.133C349.489,221.851,326.267,194.441,326.267,171.498z"/>
	<circle style="fill:#E6E6E6;" cx="171.5" cy="171.498" r="126.93"/>
	<path style="fill:#CCCCCC;" d="M70.069,171.498c0-65.798,50.066-119.9,114.18-126.295c-4.193-0.418-8.446-0.635-12.749-0.635
		c-70.101,0-126.93,56.828-126.93,126.93c0,70.101,56.828,126.93,126.93,126.93c4.303,0,8.556-0.217,12.749-0.635
		C120.135,291.398,70.069,237.296,70.069,171.498z"/>
	<g>
		<path style="fill:#FF491F;" d="M123.986,147.292c-3.001,0-6.505,1.04-6.505,3.969v27.3l-13.013-24.822
			c-3.097-5.946-4.862-6.446-9.518-6.446c-3.237,0-6.504,1.252-6.504,4.051v51.935c0,2.783,3.371,4.051,6.504,4.051
			s6.505-1.268,6.505-4.051v-27.32l15.306,27.871c1.674,3.084,4.592,3.5,7.225,3.5c3.133,0,6.504-1.268,6.504-4.051V151.26
			C130.49,148.331,126.986,147.292,123.986,147.292z"/>
		<path style="fill:#FF491F;" d="M178.787,158.665c2.337,0,3.97-2.372,3.97-5.769c0-3.872-1.994-5.604-3.97-5.604H149.67
			c-2.739,0-5.687,1.268-5.687,4.051v51.935c0,2.783,2.947,4.051,5.687,4.051h29.116c1.976,0,3.97-1.733,3.97-5.604
			c0-3.396-1.633-5.769-3.97-5.769h-21.794V182.3h12.144c2.727,0,3.969-2.566,3.969-4.95c0-2.542-1.363-5.114-3.969-5.114h-12.144
			v-13.571H178.787z"/>
		<path style="fill:#FF491F;" d="M260.997,148.801c-1.648-0.945-3.731-1.509-5.572-1.509c-2.294,0-3.75,0.852-4.21,2.461
			l-12.297,41.503l-6.354-27.183c-0.527-2.371-3.613-3.451-6.257-3.451s-5.729,1.08-6.256,3.45l-6.354,27.184l-12.297-41.502
			c-0.461-1.611-1.916-2.463-4.209-2.463c-1.841,0-3.924,0.564-5.573,1.509c-1.813,1.04-2.813,2.349-2.813,3.686
			c0,0.44,0.088,0.858,0.169,1.102l16.275,49.89c0.63,2.002,3.245,4.339,8.544,4.339c3.559,0,7.699-1.361,8.383-4.35l4.13-18.827
			l4.132,18.828c0.684,2.988,4.824,4.349,8.382,4.349c4.287,0,7.64-1.702,8.542-4.336l16.277-49.892
			c0.081-0.248,0.169-0.667,0.169-1.103C263.81,151.15,262.811,149.84,260.997,148.801z"/>
	</g>
	<circle style="fill:#FFE14D;" cx="349.629" cy="349.631" r="140.366"/>
	<g>
		<path style="fill:#FF491F;" d="M289.965,347.602c4.357-2.031,6.752-6.574,6.752-12.832c0-12.135-8.963-14.683-16.482-14.683
			h-16.767c-2.738,0-5.686,1.268-5.686,4.051v52.017c0,1.972,1.953,3.969,5.686,3.969h18.157c5.005,0,8.965-1.339,11.771-3.98
			c3.181-2.993,4.793-7.612,4.793-13.729v-1.718C298.19,352.099,294.274,349.279,289.965,347.602z M279.171,342.579h-8.462v-11.118
			h8.462c3.117,0,4.537,2.903,4.537,5.6C283.708,339.803,282.15,342.579,279.171,342.579z M285.181,360.043v1.309
			c0,4.91-2.159,7.399-6.418,7.399h-8.054v-16.107h8.054C283.142,352.644,285.181,354.995,285.181,360.043z"/>
		<path style="fill:#FF491F;" d="M344.279,331.461c2.337,0,3.969-2.372,3.969-5.769c0-3.872-1.993-5.604-3.969-5.604h-29.117
			c-2.738,0-5.686,1.268-5.686,4.051v51.935c0,2.783,2.947,4.051,5.686,4.051h29.117c1.976,0,3.969-1.733,3.969-5.604
			c0-3.396-1.632-5.769-3.969-5.769h-21.795v-13.654h12.144c2.727,0,3.969-2.566,3.969-4.95c0-2.542-1.363-5.114-3.969-5.114
			h-12.144v-13.571H344.279z"/>
		<path style="fill:#FF491F;" d="M378.637,342.274c-4.776-2.106-8.55-3.769-8.55-6.849c0-2.312,2.115-4.782,8.054-4.782
			c4.004,0,6.15,1.113,7.876,2.007c1.141,0.591,2.125,1.102,3.329,1.102c3.627,0,5.196-4.524,5.196-6.832
			c0-2.81-2.222-4.866-6.604-6.111c-3.957-1.124-8.5-1.211-9.798-1.211c-5.595,0-10.699,1.38-14.373,3.886
			c-4.376,2.985-6.689,7.539-6.689,13.168c0,11.213,8.974,15.382,16.185,18.732c5.228,2.428,9.742,4.525,9.742,8.585
			c0,3.892-4.206,5.272-7.809,5.272c-4.402,0-7.11-2.084-9.286-3.76c-1.598-1.23-2.978-2.292-4.617-2.292
			c-3.245,0-5.687,4.244-5.687,6.995c0,5.63,9.454,10.758,19.836,10.758c12.688,0,20.571-7.005,20.571-18.282
			C396.014,349.934,386.379,345.687,378.637,342.274z"/>
		<path style="fill:#FF491F;" d="M442.511,320.088h-35.332c-2.741,0-3.969,2.897-3.969,5.769c0,3.493,1.632,5.932,3.969,5.932
			h11.162v44.285c0,2.783,3.371,4.051,6.504,4.051s6.505-1.268,6.505-4.051v-44.285h11.161c2.337,0,3.969-2.439,3.969-5.932
			C446.48,322.985,445.252,320.088,442.511,320.088z"/>
	</g>
	<g>
		<path style="fill:#ED3618;" d="M349.629,277.13c-4.143,0-7.5-3.358-7.5-7.5v-31.998c0-4.142,3.357-7.5,7.5-7.5s7.5,3.358,7.5,7.5
			v31.998C357.129,273.772,353.772,277.13,349.629,277.13z"/>
		<path style="fill:#ED3618;" d="M349.629,469.13c-4.143,0-7.5-3.358-7.5-7.5v-31.998c0-4.142,3.357-7.5,7.5-7.5s7.5,3.358,7.5,7.5
			v31.998C357.129,465.773,353.772,469.13,349.629,469.13z"/>
	</g>
	<g>
		<path style="fill:#ED3618;" d="M416.2,290.561c-1.919,0-3.839-0.732-5.304-2.197c-2.929-2.929-2.929-7.678,0-10.606l12.625-12.625
			c2.93-2.929,7.678-2.929,10.607,0c2.929,2.929,2.929,7.678,0,10.606l-12.625,12.625
			C420.039,289.828,418.119,290.561,416.2,290.561z"/>
		<path style="fill:#ED3618;" d="M270.434,436.326c-1.919,0-3.839-0.732-5.303-2.197c-2.93-2.929-2.93-7.677-0.001-10.606
			l12.625-12.625c2.93-2.929,7.679-2.93,10.606,0c2.93,2.929,2.93,7.677,0.001,10.606l-12.625,12.625
			C274.273,435.594,272.353,436.326,270.434,436.326z"/>
	</g>
	<g>
		<path style="fill:#ED3618;" d="M283.059,290.561c-1.919,0-3.839-0.732-5.304-2.197l-12.625-12.625
			c-2.929-2.929-2.929-7.678,0-10.606c2.93-2.929,7.678-2.929,10.607,0l12.625,12.625c2.929,2.929,2.929,7.678,0,10.606
			C286.898,289.828,284.978,290.561,283.059,290.561z"/>
		<path style="fill:#ED3618;" d="M428.825,436.326c-1.92,0-3.839-0.732-5.304-2.197l-12.625-12.625
			c-2.929-2.929-2.929-7.678,0.001-10.606c2.929-2.929,7.678-2.929,10.606,0l12.625,12.625c2.929,2.929,2.929,7.678-0.001,10.606
			C432.664,435.594,430.744,436.326,428.825,436.326z"/>
	</g>
</g>
<g>
</g>
<g>
</g>
<g>
</g>
<g>
</g>
<g>
</g>
<g>
</g>
<g>
</g>
<g>
</g>
<g>
</g>
<g>
</g>
<g>
</g>
<g>
</g>
<g>
</g>
<g>
</g>
<g>
</g>
</svg>
