<?xml version="1.0" encoding="iso-8859-1"?>
<!-- Generator: Adobe Illustrator 19.0.0, SVG Export Plug-In . SVG Version: 6.00 Build 0)  -->
<svg version="1.1" id="Layer_1" xmlns="http://www.w3.org/2000/svg" xmlns:xlink="http://www.w3.org/1999/xlink" x="0px" y="0px"
	 viewBox="0 0 490 490" style="enable-background:new 0 0 490 490;" xml:space="preserve">
<g>
	<path style="fill:#CCCCCC;" d="M418.484,111.982H71.509c-21.816,0-39.502,17.686-39.502,39.502v273.982h425.979V151.484
		C457.986,129.668,440.301,111.982,418.484,111.982z"/>
	<path style="fill:#E6E6E6;" d="M457.982,151.482v265.98H45.012v-265.98c0-16.88,10.58-31.29,25.48-36.94
		c4.36-1.65,9.08-2.56,14.02-2.56h333.97C440.302,111.982,457.982,129.663,457.982,151.482z"/>
	<path style="fill:#C4E2F2;" d="M427.982,151.482v243.98H62.012v-243.98c0-5.24,4.26-9.5,9.5-9.5h346.97
		C423.722,141.982,427.982,146.242,427.982,151.482z"/>
	<path style="fill:#CCCCCC;" d="M490,425.466v10.51c0,29.26-23.72,52.99-52.99,52.99H52.98c-29.26,0-52.98-23.73-52.98-52.99v-10.51
		H490z"/>
	<path style="fill:#E6E6E6;" d="M490,425.466v10.51c0,29.26-23.72,52.99-52.99,52.99H144.48c-29.27,0-52.99-23.73-52.99-52.99
		v-10.51H490z"/>
	<path style="fill:#CCCCCC;" d="M273.311,455.465h-56.628c-13.77,0-24.933-11.163-24.933-24.933v-5.065h106.495v5.065
		C298.244,444.302,287.081,455.465,273.311,455.465z"/>
	<path style="fill:#CCCCCC;" d="M386.902,111.982c-11.03,72.78-46.22,192.48-158.4,215.95c-110.87-23.2-146.54-140.4-158.01-213.39
		c4.36-1.65,9.08-2.56,14.02-2.56H386.902z"/>
	<path style="fill:#83B2C6;" d="M381.352,141.982c-15.77,71.89-55.05,165.49-152.85,185.95c-97.8-20.46-137.08-114.06-152.85-185.95
		H381.352z"/>
	<path style="fill:#FFD348;" d="M408.447,55.252c0,0,0,238.476-163.449,272.68C81.549,293.728,81.549,55.252,81.549,55.252
		L244.998,1.034L408.447,55.252z"/>
	<path style="fill:#FFBE1D;" d="M244.998,1.034v326.899C81.549,293.728,81.549,55.252,81.549,55.252L244.998,1.034z"/>
	<path style="fill:#FF491F;" d="M373.763,78.889c-1.915,21.822-6.591,56.06-17.979,91.145
		c-22.283,68.635-59.536,110.191-110.785,123.641c-51.623-13.549-89.03-55.579-111.246-125.069
		c-11.128-34.798-15.691-68.268-17.552-89.704l128.798-42.724L373.763,78.889z"/>
	<path style="fill:#ED3618;" d="M244.998,36.179v257.496c-51.623-13.549-89.03-55.579-111.246-125.069
		c-11.128-34.798-15.691-68.268-17.552-89.704L244.998,36.179z"/>
	<g>
		<path style="fill:#FFFFFF;" d="M236.344,176.629c0,4.137,3.171,6.606,8.483,6.606c3.279,0,8.482-1.793,8.482-6.606
			c0-11.254,0.606-24.606,1.193-37.518c0.587-12.915,1.194-26.27,1.194-37.529c0-5.597-4.47-9.506-10.87-9.506
			s-10.7,3.82-10.7,9.506c0,11.26,0.563,24.614,1.108,37.529C235.781,152.022,236.344,165.375,236.344,176.629z"/>
		<path style="fill:#FFFFFF;" d="M244.998,195.266c-6.573,0-11.723,5.149-11.723,11.724c0,6.464,5.259,11.723,11.723,11.723
			c6.245,0,11.724-5.478,11.724-11.723C256.721,200.634,251.352,195.266,244.998,195.266z"/>
	</g>
</g>
<g>
</g>
<g>
</g>
<g>
</g>
<g>
</g>
<g>
</g>
<g>
</g>
<g>
</g>
<g>
</g>
<g>
</g>
<g>
</g>
<g>
</g>
<g>
</g>
<g>
</g>
<g>
</g>
<g>
</g>
</svg>
