<?xml version="1.0" encoding="iso-8859-1"?>
<!-- Generator: Adobe Illustrator 19.0.0, SVG Export Plug-In . SVG Version: 6.00 Build 0)  -->
<svg version="1.1" id="Layer_1" xmlns="http://www.w3.org/2000/svg" xmlns:xlink="http://www.w3.org/1999/xlink" x="0px" y="0px"
	 viewBox="0 0 490 490" style="enable-background:new 0 0 490 490;" xml:space="preserve">
<g>
	
		<rect x="42.64" y="188.654" transform="matrix(0.8385 0.5449 -0.5449 0.8385 120.4497 -14.0589)" style="fill:#2C92BF;" width="82.6" height="15"/>
	
		<rect x="264.983" y="124.674" transform="matrix(0.9511 0.3089 -0.3089 0.9511 55.4352 -85.8008)" style="fill:#2C92BF;" width="67.417" height="15"/>
	
		<rect x="398.576" y="45.02" transform="matrix(0.6982 0.7159 -0.7159 0.6982 192.1721 -261.3467)" style="fill:#2C92BF;" width="15" height="104.494"/>
	
		<rect x="183.807" y="116.484" transform="matrix(0.7348 0.6783 -0.6783 0.7348 168.0048 -83.9102)" style="fill:#2C92BF;" width="15" height="112.815"/>
	<rect y="258.112" style="fill:#FF8E1D;" width="60.485" height="217.201"/>
	<rect x="107.379" y="327.907" style="fill:#FF8E1D;" width="60.485" height="147.406"/>
	<rect x="214.757" y="211.582" style="fill:#FF8E1D;" width="60.485" height="263.731"/>
	<rect x="322.136" y="246.48" style="fill:#FF8E1D;" width="60.485" height="228.833"/>
	<rect x="429.515" y="141.788" style="fill:#FF8E1D;" width="60.485" height="333.526"/>
	<circle style="fill:#FF491F;" cx="30.243" cy="161.254" r="30.243"/>
	<circle style="fill:#FF491F;" cx="459.757" cy="44.929" r="30.243"/>
	<circle style="fill:#FF491F;" cx="352.379" cy="149.622" r="30.243"/>
	<circle style="fill:#FF491F;" cx="245" cy="114.724" r="30.243"/>
	<circle style="fill:#FF491F;" cx="137.621" cy="231.049" r="30.243"/>
</g>
<g>
</g>
<g>
</g>
<g>
</g>
<g>
</g>
<g>
</g>
<g>
</g>
<g>
</g>
<g>
</g>
<g>
</g>
<g>
</g>
<g>
</g>
<g>
</g>
<g>
</g>
<g>
</g>
<g>
</g>
</svg>
