<?xml version="1.0" encoding="iso-8859-1"?>
<!-- Generator: Adobe Illustrator 19.0.0, SVG Export Plug-In . SVG Version: 6.00 Build 0)  -->
<svg version="1.1" id="Layer_1" xmlns="http://www.w3.org/2000/svg" xmlns:xlink="http://www.w3.org/1999/xlink" x="0px" y="0px"
	 viewBox="0 0 490 490" style="enable-background:new 0 0 490 490;" xml:space="preserve">
<g>
	<path style="fill:#C4E2F2;" d="M423.003,133.168v330.14c0,14.6-11.83,26.43-26.43,26.43H26.433c-14.6,0-26.43-11.83-26.43-26.43
		v-330.14c0-14.6,11.83-26.43,26.43-26.43h370.14C411.173,106.738,423.003,118.568,423.003,133.168z"/>
	<path style="fill:#83B2C6;" d="M423,133.167v31.57H0v-31.57c0-14.6,11.83-26.43,26.43-26.43h370.14
		C411.17,106.737,423,118.567,423,133.167z"/>
	<g>
		<path style="fill:#E6E6E6;" d="M35.003,145.238c-0.49,0-0.99-0.05-1.47-0.15c-0.48-0.09-0.95-0.24-1.4-0.43
			c-0.46-0.18-0.89-0.42-1.3-0.69s-0.79-0.58-1.141-0.93c-0.34-0.34-0.659-0.73-0.93-1.14c-0.27-0.4-0.5-0.84-0.69-1.29
			c-0.189-0.46-0.329-0.93-0.43-1.41c-0.09-0.48-0.14-0.97-0.14-1.46c0-0.49,0.05-0.98,0.14-1.47c0.101-0.48,0.24-0.95,0.43-1.4
			c0.19-0.45,0.421-0.89,0.69-1.29c0.271-0.42,0.59-0.8,0.93-1.14c0.351-0.35,0.73-0.66,1.141-0.94c0.41-0.27,0.84-0.5,1.3-0.69
			c0.45-0.18,0.92-0.33,1.4-0.42c2.439-0.5,5.029,0.3,6.77,2.05c0.35,0.34,0.66,0.72,0.93,1.14c0.271,0.4,0.5,0.84,0.69,1.29
			c0.189,0.45,0.33,0.92,0.43,1.4c0.101,0.49,0.15,0.98,0.15,1.47c0,0.49-0.05,0.98-0.15,1.46c-0.1,0.48-0.24,0.95-0.43,1.41
			c-0.19,0.45-0.42,0.89-0.69,1.29c-0.27,0.41-0.58,0.8-0.93,1.14C38.903,144.438,36.973,145.238,35.003,145.238z"/>
		<path style="fill:#E6E6E6;" d="M86.003,145.238c-0.49,0-0.98-0.05-1.47-0.15c-0.48-0.09-0.95-0.24-1.4-0.43
			c-0.45-0.18-0.89-0.42-1.3-0.69s-0.79-0.58-1.141-0.93c-0.34-0.34-0.659-0.73-0.93-1.14c-0.27-0.4-0.5-0.84-0.69-1.29
			c-0.189-0.46-0.329-0.93-0.43-1.41c-0.09-0.48-0.14-0.97-0.14-1.46c0-0.49,0.05-0.98,0.14-1.47c0.101-0.48,0.24-0.95,0.43-1.4
			c0.19-0.45,0.421-0.89,0.69-1.3c0.271-0.41,0.59-0.79,0.93-1.14c0.351-0.34,0.73-0.65,1.141-0.93c0.41-0.27,0.85-0.5,1.3-0.69
			c0.45-0.19,0.92-0.33,1.4-0.43c0.97-0.19,1.97-0.19,2.93,0c0.479,0.1,0.95,0.24,1.41,0.43c0.449,0.19,0.88,0.42,1.29,0.69
			c0.409,0.28,0.8,0.59,1.14,0.93c0.35,0.35,0.66,0.73,0.93,1.14c0.271,0.41,0.5,0.85,0.69,1.3c0.189,0.45,0.33,0.92,0.43,1.4
			c0.101,0.49,0.15,0.98,0.15,1.47c0,0.49-0.05,0.98-0.15,1.46c-0.1,0.48-0.24,0.95-0.43,1.41c-0.19,0.45-0.42,0.89-0.69,1.29
			c-0.27,0.41-0.58,0.8-0.93,1.14c-0.34,0.35-0.73,0.66-1.14,0.93c-0.41,0.27-0.841,0.51-1.29,0.69c-0.46,0.19-0.931,0.34-1.41,0.43
			C86.983,145.188,86.493,145.238,86.003,145.238z"/>
		<path style="fill:#E6E6E6;" d="M60.503,145.238c-0.49,0-0.98-0.05-1.47-0.15c-0.48-0.09-0.95-0.24-1.4-0.43
			c-0.45-0.18-0.89-0.41-1.3-0.69c-0.41-0.27-0.79-0.58-1.141-0.93c-1.39-1.39-2.189-3.33-2.189-5.3c0-0.49,0.05-0.98,0.14-1.47
			c0.101-0.48,0.24-0.95,0.43-1.4c0.19-0.45,0.421-0.89,0.69-1.29c0.271-0.42,0.59-0.8,0.93-1.15c0.351-0.34,0.73-0.65,1.141-0.93
			c0.41-0.27,0.85-0.5,1.3-0.69c0.45-0.18,0.92-0.33,1.4-0.42c2.439-0.5,5.029,0.3,6.77,2.04c0.35,0.35,0.66,0.73,0.93,1.15
			c0.271,0.4,0.5,0.84,0.69,1.29c0.189,0.45,0.33,0.92,0.43,1.4c0.101,0.49,0.15,0.98,0.15,1.47c0,1.97-0.8,3.91-2.2,5.3
			C64.403,144.438,62.473,145.238,60.503,145.238z"/>
	</g>
	<path style="fill:#83B2C6;" d="M286.483,232.098c-0.34,1.81-0.53,3.67-0.53,5.58c0,16.62,13.48,30.09,30.1,30.09h-48.49
		c-16.62,0-30.09-13.47-30.09-30.09c0-16.62,13.47-30.1,30.09-30.1v-78.02c0-7.89,1.02-15.54,2.95-22.82h126.06
		c14.6,0,26.43,11.83,26.43,26.43v98.93H286.483z"/>
	<path style="fill:#EABB36;" d="M374.433,0.262h-7.393c-7.808,0-14.137,6.329-14.137,14.137v52.74h35.668v-52.74
		C388.57,6.592,382.241,0.262,374.433,0.262z"/>
	<path style="fill:#FFE14D;" d="M459.903,129.558v102.54h-178.34v-102.54c0-49.25,39.93-89.17,89.17-89.17
		C419.983,40.388,459.903,80.308,459.903,129.558z"/>
	<path style="fill:#83B2C6;" d="M393.841,267.768c0,13.478-8.055,25.073-19.607,30.233c-4.123,1.847-8.693,2.871-13.497,2.871
		c-18.282,0-33.104-14.822-33.104-33.104s14.822-33.098,33.104-33.098c4.804,0,9.374,1.024,13.497,2.871
		C385.786,242.7,393.841,254.289,393.841,267.768z"/>
	<path style="fill:#EABB36;" d="M403.841,267.768c0,13.478-8.055,25.073-19.607,30.233c-4.123,1.847-8.693,2.871-13.497,2.871
		c-18.282,0-33.104-14.822-33.104-33.104s14.822-33.098,33.104-33.098c4.804,0,9.374,1.024,13.497,2.871
		C395.786,242.7,403.841,254.289,403.841,267.768z"/>
	<path style="fill:#FFE14D;" d="M403.841,267.768c0,13.478-8.055,25.073-19.607,30.233c-11.552-5.159-19.607-16.754-19.607-30.233
		s8.055-25.067,19.607-30.227C395.786,242.7,403.841,254.289,403.841,267.768z"/>
	<path style="fill:#FFBE1D;" d="M369.488,40.411c-26.193,1.226-47.237,40.683-47.237,89.147v102.545h-40.683V129.558
		C281.567,80.738,320.824,41.057,369.488,40.411z"/>
	<rect x="281.563" y="191.078" style="fill:#FFBE1D;" width="178.34" height="41.02"/>
	<path style="fill:#FFE14D;" d="M459.906,267.77H281.567c-16.621,0-30.095-13.474-30.095-30.095v0
		c0-16.621,13.474-30.095,30.095-30.095h178.339c16.621,0,30.095,13.474,30.095,30.095v0C490,254.296,476.526,267.77,459.906,267.77
		z"/>
	<path style="fill:#FFBE1D;" d="M299.958,237.675c0-16.621,13.474-30.095,30.095-30.095h-48.486
		c-16.621,0-30.095,13.474-30.095,30.095s13.474,30.095,30.095,30.095h48.486C313.432,267.77,299.958,254.296,299.958,237.675z"/>
	<g>
		<path style="fill:#ED3618;" d="M221.865,349.707l-2.62,20l-8.39,63.89c-1.51,11.51-11.31,20.11-22.92,20.11H87.795
			c-11.61,0-21.41-8.6-22.92-20.11l-11.01-83.89l84-22.5L221.865,349.707z"/>
		<path style="fill:#FF491F;" d="M219.245,369.707l-8.39,63.89c-1.51,11.51-11.31,20.11-22.92,20.11h-68.14
			c-11.61,0-21.41-8.6-22.92-20.11l-5.686-43.3c-1.433-10.91,7.06-20.59,18.063-20.59H219.245z"/>
		<path style="fill:#ED3618;" d="M233.365,327.087v12.24c0,5.73-4.65,10.38-10.38,10.38H52.745c-5.73,0-10.38-4.65-10.38-10.38
			v-12.24c0-5.73,4.65-10.38,10.38-10.38h170.24C228.715,316.707,233.365,321.357,233.365,327.087z"/>
		<path style="fill:#FF491F;" d="M233.365,327.087v12.24c0,5.73-4.65,10.38-10.38,10.38H92.745c-5.73,0-10.38-4.65-10.38-10.38
			v-12.24c0-5.73,4.65-10.38,10.38-10.38h130.24C228.715,316.707,233.365,321.357,233.365,327.087z"/>
		<path style="fill:#3C3F4D;" d="M137.865,269.707L137.865,269.707c-9.389,0-17,7.611-17,17v81c0,9.389,7.611,17,17,17h0
			c9.389,0,17-7.611,17-17v-81C154.865,277.318,147.254,269.707,137.865,269.707z"/>
	</g>
	<path style="fill:#3C3F4D;" d="M198.07,206.665H55.576c-4.143,0-7.5-3.358-7.5-7.5s3.357-7.5,7.5-7.5H198.07
		c4.143,0,7.5,3.358,7.5,7.5S202.212,206.665,198.07,206.665z"/>
	<path style="fill:#3C3F4D;" d="M151.572,241.936H55.576c-4.143,0-7.5-3.358-7.5-7.5s3.357-7.5,7.5-7.5h95.995
		c4.143,0,7.5,3.358,7.5,7.5S155.714,241.936,151.572,241.936z"/>
	<path style="fill:#2C92BF;" d="M375.059,390.155h-95.995c-4.143,0-7.5-3.358-7.5-7.5s3.357-7.5,7.5-7.5h95.995
		c4.143,0,7.5,3.358,7.5,7.5S379.201,390.155,375.059,390.155z"/>
	<path style="fill:#2C92BF;" d="M375.059,425.426h-95.995c-4.143,0-7.5-3.358-7.5-7.5s3.357-7.5,7.5-7.5h95.995
		c4.143,0,7.5,3.358,7.5,7.5S379.201,425.426,375.059,425.426z"/>
</g>
<g>
</g>
<g>
</g>
<g>
</g>
<g>
</g>
<g>
</g>
<g>
</g>
<g>
</g>
<g>
</g>
<g>
</g>
<g>
</g>
<g>
</g>
<g>
</g>
<g>
</g>
<g>
</g>
<g>
</g>
</svg>
