<?xml version="1.0" encoding="iso-8859-1"?>
<!-- Generator: Adobe Illustrator 19.0.0, SVG Export Plug-In . SVG Version: 6.00 Build 0)  -->
<svg version="1.1" id="Layer_1" xmlns="http://www.w3.org/2000/svg" xmlns:xlink="http://www.w3.org/1999/xlink" x="0px" y="0px"
	 viewBox="0 0 490.003 490.003" style="enable-background:new 0 0 490.003 490.003;" xml:space="preserve">
<g>
	<polygon style="fill:#2D303B;" points="343.833,437.092 245.003,459.612 146.163,437.092 159.703,380.372 240.803,350.552 
		330.293,380.372 334.673,398.732 	"/>
	<path style="fill:#C4E2F2;" d="M490.003,66.252v271.6c0,23.48-19.04,42.52-42.52,42.52H42.513c-23.48,0-42.51-19.04-42.51-42.52
		v-271.6H490.003z"/>
	<path style="fill:#3C3F4D;" d="M490.003,332.852v5c0,23.48-19.04,42.52-42.52,42.52H42.513c-23.48,0-42.51-19.04-42.51-42.52v-5
		H490.003z"/>
	<path style="fill:#83B2C6;" d="M449.722,31.421H392h-98h-98H98H40.278C18.033,31.421,0,49.454,0,71.699v44.402
		c0,27.062,21.938,49,49,49h0c27.062,0,49-21.938,49-49c0,27.062,21.938,49,49,49h0c27.062,0,49-21.938,49-49
		c0,27.062,21.938,49,49,49h0c27.062,0,49-21.938,49-49c0,27.062,21.938,49,49,49h0c27.062,0,49-21.938,49-49
		c0,27.062,21.938,49,49,49h0c27.062,0,49-21.938,49-49V71.699C490,49.454,471.967,31.421,449.722,31.421z"/>
	<path style="fill:#FF491F;" d="M449.722,7.861H392h-98h-98H98H40.278C18.033,7.861,0,25.894,0,48.14v44.402
		c0,27.062,21.938,49,49,49h0c27.062,0,49-21.938,49-49c0,27.062,21.938,49,49,49h0c27.062,0,49-21.938,49-49
		c0,27.062,21.938,49,49,49h0c27.062,0,49-21.938,49-49c0,27.062,21.938,49,49,49h0c27.062,0,49-21.938,49-49
		c0,27.062,21.938,49,49,49h0c27.062,0,49-21.938,49-49V48.14C490,25.894,471.967,7.861,449.722,7.861z"/>
	<path style="fill:#ED3618;" d="M60.253,140.232c-0.45,0.11-0.91,0.21-1.36,0.3c-0.92,0.19-1.84,0.35-2.77,0.49
		c-0.93,0.13-1.87,0.25-2.81,0.33c-0.83,0.07-1.67,0.13-2.51,0.15c-0.18,0.01-0.36,0.02-0.54,0.02c-0.42,0.01-0.84,0.02-1.26,0.02
		c-27.07,0-49-21.94-49-49v-44.4c0-15.87,9.17-29.59,22.5-36.15v80.55C22.503,115.732,38.613,135.142,60.253,140.232z"/>
	<path style="fill:#E6E6E6;" d="M147,141.541L147,141.541c-27.062,0-49-21.938-49-49V7.861h98v84.68
		C196,119.603,174.062,141.541,147,141.541z"/>
	<path style="fill:#CCCCCC;" d="M120.499,92.542V7.861H98v84.68c0,27.062,21.938,49,49,49h0c3.873,0,7.636-0.463,11.249-1.313
		C136.612,135.143,120.499,115.73,120.499,92.542z"/>
	<path style="fill:#ED3618;" d="M218.499,92.542V7.861H196v84.68c0,27.062,21.938,49,49,49h0c3.873,0,7.636-0.463,11.249-1.313
		C234.612,135.143,218.499,115.73,218.499,92.542z"/>
	<path style="fill:#ED3618;" d="M414.499,92.542V7.861H392v84.68c0,27.062,21.938,49,49,49h0c3.873,0,7.636-0.463,11.249-1.313
		C430.612,135.143,414.499,115.73,414.499,92.542z"/>
	<path style="fill:#E6E6E6;" d="M343,141.541L343,141.541c-27.062,0-49-21.938-49-49V7.861h98v84.68
		C392,119.603,370.062,141.541,343,141.541z"/>
	<path style="fill:#CCCCCC;" d="M316.499,92.542V7.861H294v84.68c0,27.062,21.938,49,49,49h0c3.873,0,7.636-0.463,11.249-1.313
		C332.612,135.143,316.499,115.73,316.499,92.542z"/>
	<polygon style="fill:#3C3F4D;" points="343.833,437.092 192.663,437.092 201.823,398.732 334.673,398.732 	"/>
	<path style="fill:#2D303B;" d="M402.083,468.672v13.47H87.923v-13.47c0-17.44,14.14-31.58,31.58-31.58h251
		C387.943,437.092,402.083,451.232,402.083,468.672z"/>
	<path style="fill:#3C3F4D;" d="M402.083,468.672v13.47h-260.17v-13.47c0-17.44,14.14-31.58,31.59-31.58h197
		C387.943,437.092,402.083,451.232,402.083,468.672z"/>
	<path style="fill:#32CC77;" d="M221.548,213.905c0,65.693,53.254,118.947,118.947,118.947s118.947-53.254,118.947-118.947H221.548z
		"/>
	<path style="fill:#FF491F;" d="M255.495,213.905c0,46.944,38.056,85,85,85s85-38.056,85-85H255.495z"/>
	<g>
		<path style="fill:#3C3F4D;" d="M301.494,247.402c-6.815,0-10.05-8.788-4.87-13.201c5.162-4.397,13.301,0.104,12.286,6.807
			C308.36,244.638,305.175,247.402,301.494,247.402z"/>
		<path style="fill:#3C3F4D;" d="M340.494,247.402c-6.817,0-10.051-8.788-4.87-13.201c5.162-4.397,13.301,0.104,12.286,6.807
			C347.36,244.638,344.175,247.402,340.494,247.402z"/>
		<path style="fill:#3C3F4D;" d="M379.494,247.402c-6.817,0-10.051-8.788-4.87-13.201c5.162-4.397,13.301,0.104,12.286,6.807
			C386.36,244.638,383.175,247.402,379.494,247.402z"/>
	</g>
	<g>
		<path style="fill:#E2720E;" d="M156.326,225.886c0,18.96-12.28,35.05-29.32,40.75c-4.29,1.44-8.89,2.22-13.66,2.22
			c-23.73,0-42.98-19.24-42.98-42.97c0-23.74,19.25-42.98,42.98-42.98c4.77,0,9.37,0.78,13.66,2.22
			C144.046,190.826,156.326,206.916,156.326,225.886z"/>
		<path style="fill:#FF8E1D;" d="M156.326,225.886c0,18.96-12.28,35.05-29.32,40.75c-17.04-5.7-29.32-21.79-29.32-40.75
			c0-18.97,12.28-35.06,29.32-40.76C144.046,190.826,156.326,206.916,156.326,225.886z"/>
		<path style="fill:#3C3F4D;" d="M128.335,223.071c-6.861,0-10.108-8.925-4.752-13.294c5.407-4.41,13.663,0.643,12.062,7.484
			C134.858,220.622,131.794,223.071,128.335,223.071z"/>
	</g>
	<g>
		<path style="fill:#3C3F4D;" d="M320.994,274.482c-3.273,0-6.22-2.209-7.172-5.328c-0.909-2.975,0.177-6.275,2.651-8.151
			c5.371-4.074,13.206,0.832,11.872,7.439C327.645,271.905,324.539,274.482,320.994,274.482z"/>
		<path style="fill:#3C3F4D;" d="M359.994,274.482c-6.762,0-9.996-8.632-4.98-13.103c2.517-2.244,6.335-2.507,9.14-0.637
			c2.381,1.588,3.687,4.506,3.256,7.338C366.859,271.704,363.677,274.482,359.994,274.482z"/>
	</g>
	<g>
		<path style="fill:#E2720E;" d="M196.326,289.885c0,18.96-12.28,35.05-29.32,40.75c-4.29,1.44-8.89,2.22-13.66,2.22
			c-23.73,0-42.98-19.24-42.98-42.97c0-23.74,19.25-42.98,42.98-42.98c4.77,0,9.37,0.78,13.66,2.22
			C184.046,254.825,196.326,270.915,196.326,289.885z"/>
		<path style="fill:#FF8E1D;" d="M196.326,289.885c0,18.96-12.28,35.05-29.32,40.75c-17.04-5.7-29.32-21.79-29.32-40.75
			c0-18.97,12.28-35.06,29.32-40.76C184.046,254.825,196.326,270.915,196.326,289.885z"/>
	</g>
	<g>
		<path style="fill:#E2720E;" d="M117.326,289.885c0,18.96-12.28,35.05-29.32,40.75c-4.29,1.44-8.89,2.22-13.66,2.22
			c-23.73,0-42.98-19.24-42.98-42.97c0-23.74,19.25-42.98,42.98-42.98c4.77,0,9.37,0.78,13.66,2.22
			C105.046,254.825,117.326,270.915,117.326,289.885z"/>
		<path style="fill:#FF8E1D;" d="M117.326,289.885c0,18.96-12.28,35.05-29.32,40.75c-17.04-5.7-29.32-21.79-29.32-40.75
			c0-18.97,12.28-35.06,29.32-40.76C105.046,254.825,117.326,270.915,117.326,289.885z"/>
	</g>
	<path style="fill:#3C3F4D;" d="M55.675,290.741c-3.06,0-5.901-1.949-6.995-4.803c-1.142-2.981-0.246-6.473,2.236-8.497
		c5.269-4.297,13.32,0.39,12.142,7.079C62.434,288.062,59.286,290.741,55.675,290.741z"/>
	<path style="fill:#3C3F4D;" d="M143.675,279.402c-6.338,0-9.792-7.704-5.627-12.458c2.215-2.528,6-3.244,8.994-1.73
		c2.841,1.436,4.519,4.609,4.051,7.773C150.555,276.621,147.358,279.402,143.675,279.402z"/>
</g>
<g>
</g>
<g>
</g>
<g>
</g>
<g>
</g>
<g>
</g>
<g>
</g>
<g>
</g>
<g>
</g>
<g>
</g>
<g>
</g>
<g>
</g>
<g>
</g>
<g>
</g>
<g>
</g>
<g>
</g>
</svg>
