<?xml version="1.0" encoding="iso-8859-1"?>
<!-- Generator: Adobe Illustrator 19.0.0, SVG Export Plug-In . SVG Version: 6.00 Build 0)  -->
<svg version="1.1" id="Layer_1" xmlns="http://www.w3.org/2000/svg" xmlns:xlink="http://www.w3.org/1999/xlink" x="0px" y="0px"
	 viewBox="0 0 490.001 490.001" style="enable-background:new 0 0 490.001 490.001;" xml:space="preserve">
<g>
	<polygon style="fill:#C4E2F2;" points="245,102.529 0,185.302 0,490.001 490,490.001 490,185.302 	"/>
	<polygon style="fill:#83B2C6;" points="490,185.3 245,337.65 0,185.3 245,32.95 	"/>
	<polygon style="fill:#CBCBCB;" points="429.494,0 429.494,222.93 245.004,337.65 60.514,222.93 60.514,0 	"/>
	<polygon style="fill:#E5E5E5;" points="429.494,0 429.494,185.43 245.004,300.15 60.514,185.43 60.514,0 	"/>
	<g>
		<path style="fill:#FFBE1D;" d="M332.594,125.029l-2.62,20l-8.39,63.89c-1.51,11.51-11.31,20.11-22.92,20.11h-100.14
			c-11.61,0-21.41-8.6-22.92-20.11l-11.01-83.89l84-22.5L332.594,125.029z"/>
		<path style="fill:#FFE14D;" d="M329.974,145.029l-8.39,63.89c-1.51,11.51-11.31,20.11-22.92,20.11h-68.14
			c-11.61,0-21.41-8.6-22.92-20.11l-5.686-43.299c-1.433-10.91,7.06-20.591,18.063-20.591H329.974z"/>
		<path style="fill:#FFBE1D;" d="M344.094,102.409v12.24c0,5.73-4.65,10.38-10.38,10.38h-170.24c-5.73,0-10.38-4.65-10.38-10.38
			v-12.24c0-5.73,4.65-10.38,10.38-10.38h170.24C339.444,92.029,344.094,96.679,344.094,102.409z"/>
		<path style="fill:#FFE14D;" d="M344.094,102.409v12.24c0,5.73-4.65,10.38-10.38,10.38h-130.24c-5.73,0-10.38-4.65-10.38-10.38
			v-12.24c0-5.73,4.65-10.38,10.38-10.38h130.24C339.444,92.029,344.094,96.679,344.094,102.409z"/>
		<path style="fill:#3C3F4D;" d="M248.594,45.029L248.594,45.029c-9.389,0-17,7.611-17,17v81c0,9.389,7.611,17,17,17h0
			c9.389,0,17-7.611,17-17v-81C265.594,52.64,257.983,45.029,248.594,45.029z"/>
	</g>
	<g>
		<path style="fill:#FF491F;" d="M168.315,399.659c-5.678-2.409-10.163-4.312-10.163-8.512c0-4.055,3.498-6.38,9.597-6.38
			c4.548,0,6.98,1.249,8.935,2.252c1.196,0.614,2.228,1.144,3.396,1.144c3.592,0,5.146-4.414,5.146-6.665
			c0-6.038-10.986-7.648-17.477-7.648c-10.738,0-22.212,4.826-22.212,18.371c0,12.119,9.072,16.147,17.077,19.702
			c6.227,2.765,11.605,5.153,11.605,10.767c0,5.363-4.911,7.274-9.507,7.274c-5.396,0-8.34-2.473-10.705-4.459
			c-1.546-1.299-2.882-2.42-4.485-2.42c-3.191,0-5.592,4.098-5.592,6.754c0,5.466,9.041,11.58,21.14,11.58
			c13.425,0,21.766-7.622,21.766-19.89C186.835,407.518,176.566,403.16,168.315,399.659z"/>
		<path style="fill:#FF491F;" d="M227.918,378.048c-0.947-3.161-4.744-4.288-7.982-4.288c0,0-0.001,0-0.001,0
			c-3.05,0-6.947,1.123-7.895,4.285l-17.251,56.227c-0.117,0.466-0.194,0.789-0.194,1.015c0,3.299,4.559,5.325,7.827,5.325
			c3.063,0,4.091-1.466,4.413-2.686l3.291-11.521h19.708l3.289,11.511c0.323,1.23,1.352,2.696,4.415,2.696
			c3.191,0,7.827-2.075,7.827-5.325c0-0.275-0.067-0.531-0.139-0.801L227.918,378.048z M227.046,416.291l-14.224,0l7.112-25.097
			L227.046,416.291z"/>
		<path style="fill:#FF491F;" d="M289.814,429.426L289.814,429.426l-21.304,0V378.37c0-2.814-3.168-4.074-6.308-4.074
			c-3.832,0-6.308,1.599-6.308,4.074v58.079c0,2.861,2.899,4.164,5.593,4.164h28.325c2.614,0,3.983-2.813,3.984-5.593
			c0-1.441-0.336-2.783-0.944-3.779C292.126,430.053,291.076,429.426,289.814,429.426z"/>
		<path style="fill:#FF491F;" d="M341.909,429.425h-24.787v-16.959l13.083,0c2.732,0,4.162-2.499,4.162-4.967
			c0-1.335-0.375-2.586-1.056-3.522c-0.762-1.047-1.864-1.624-3.105-1.624h-0.001l-13.083,0l0.001-16.87h24.786
			c1.257,0,2.365-0.631,3.121-1.777c0.672-1.021,1.043-2.408,1.042-3.905c0-2.651-1.303-5.504-4.163-5.504H310.1
			c-2.693,0-5.593,1.303-5.593,4.164v57.989c0,2.861,2.899,4.164,5.593,4.164h31.809c1.328,0,2.432-0.632,3.192-1.829
			c0.626-0.986,0.972-2.292,0.971-3.675C346.072,431.762,344.36,429.425,341.909,429.425z"/>
	</g>
	<path style="fill:#2C92BF;" d="M451.082,314.896c-10.818,0-16.668-5.118-20.938-8.855c-3.667-3.208-5.88-5.145-11.062-5.145
		c-5.181,0-7.394,1.936-11.059,5.144c-4.271,3.737-10.12,8.856-20.938,8.856c-4.143,0-7.5-3.358-7.5-7.5s3.357-7.5,7.5-7.5
		c5.181,0,7.394-1.936,11.059-5.144c4.271-3.737,10.12-8.856,20.938-8.856c10.818,0,16.668,5.118,20.938,8.855
		c3.667,3.208,5.88,5.145,11.062,5.145c4.143,0,7.5,3.358,7.5,7.5S455.225,314.896,451.082,314.896z"/>
	<path style="fill:#2C92BF;" d="M451.082,348.648c-10.818,0-16.668-5.118-20.938-8.855c-3.667-3.208-5.88-5.145-11.062-5.145
		c-5.181,0-7.394,1.936-11.059,5.144c-4.271,3.737-10.12,8.856-20.938,8.856c-4.143,0-7.5-3.358-7.5-7.5s3.357-7.5,7.5-7.5
		c5.181,0,7.394-1.936,11.059-5.144c4.271-3.737,10.12-8.856,20.938-8.856c10.818,0,16.668,5.118,20.938,8.855
		c3.667,3.208,5.88,5.145,11.062,5.145c4.143,0,7.5,3.358,7.5,7.5S455.225,348.648,451.082,348.648z"/>
</g>
<g>
</g>
<g>
</g>
<g>
</g>
<g>
</g>
<g>
</g>
<g>
</g>
<g>
</g>
<g>
</g>
<g>
</g>
<g>
</g>
<g>
</g>
<g>
</g>
<g>
</g>
<g>
</g>
<g>
</g>
</svg>
