<?xml version="1.0" encoding="iso-8859-1"?>
<!-- Generator: Adobe Illustrator 19.0.0, SVG Export Plug-In . SVG Version: 6.00 Build 0)  -->
<svg version="1.1" id="Layer_1" xmlns="http://www.w3.org/2000/svg" xmlns:xlink="http://www.w3.org/1999/xlink" x="0px" y="0px"
	 viewBox="0 0 497.498 497.498" style="enable-background:new 0 0 497.498 497.498;" xml:space="preserve">
<g>
	<path style="fill:#2C92BF;" d="M430.72,138.539v232.05c0,20.64-16.73,37.37-37.37,37.37H37.371c-20.64,0-37.37-16.73-37.37-37.37
		v-232.05c0-20.42,16.55-36.98,36.97-36.98h356.78C414.17,101.559,430.72,118.119,430.72,138.539z"/>
	<polygon style="fill:#2D303B;" points="302.239,457.823 215.364,477.619 128.48,457.823 140.382,407.964 211.672,381.751 
		290.336,407.964 294.187,424.103 	"/>
	<path style="fill:#3C3F4D;" d="M430.727,366.192v4.395c0,20.64-16.737,37.377-37.377,37.377H37.368
		C16.728,407.964,0,391.227,0,370.588v-4.395H430.727z"/>
	<polygon style="fill:#3C3F4D;" points="302.239,457.823 169.355,457.823 177.407,424.103 294.187,424.103 	"/>
	<path style="fill:#1F81A3;" d="M430.72,138.539v122.4h-99.18c-14.07,0-25.51-11.44-25.51-25.51v-133.87h87.72
		C414.17,101.559,430.72,118.119,430.72,138.539z"/>
	<path style="fill:#2D303B;" d="M353.442,485.583v11.841H77.285v-11.841c0-15.33,12.43-27.76,27.76-27.76h220.638
		C341.013,457.823,353.442,470.253,353.442,485.583z"/>
	<path style="fill:#3C3F4D;" d="M353.442,485.583v11.841H124.744v-11.841c0-15.33,12.43-27.76,27.769-27.76h173.17
		C341.013,457.823,353.442,470.253,353.442,485.583z"/>
	<path style="fill:#3C3F4D;" d="M471.981,253.44H354.497c-9.95,0-18.016-8.066-18.016-18.016V25.59
		c0-9.95,8.066-18.016,18.016-18.016h117.485c9.95,0,18.016,8.066,18.016,18.016v209.834
		C489.997,245.374,481.931,253.44,471.981,253.44z"/>
	<rect x="336.481" y="45.011" style="fill:#2C92BF;" width="153.517" height="170.991"/>
	<path style="fill:#E5E5E5;" d="M408.53,93.454h-43.498c-4.143,0-7.5-3.358-7.5-7.5s3.357-7.5,7.5-7.5h43.498
		c4.143,0,7.5,3.358,7.5,7.5S412.672,93.454,408.53,93.454z"/>
	<path style="fill:#E5E5E5;" d="M438.528,128.231h-73.496c-4.143,0-7.5-3.358-7.5-7.5s3.357-7.5,7.5-7.5h73.496
		c4.143,0,7.5,3.358,7.5,7.5S442.67,128.231,438.528,128.231z"/>
	<path style="fill:#E5E5E5;" d="M461.027,163.009h-95.995c-4.143,0-7.5-3.358-7.5-7.5s3.357-7.5,7.5-7.5h95.995
		c4.143,0,7.5,3.358,7.5,7.5S465.169,163.009,461.027,163.009z"/>
	<path style="fill:#E5E5E5;" d="M84.101,159.476H40.603c-4.143,0-7.5-3.358-7.5-7.5s3.357-7.5,7.5-7.5h43.498
		c4.143,0,7.5,3.358,7.5,7.5S88.244,159.476,84.101,159.476z"/>
	<path style="fill:#E5E5E5;" d="M114.099,194.254H40.603c-4.143,0-7.5-3.358-7.5-7.5s3.357-7.5,7.5-7.5h73.496
		c4.143,0,7.5,3.358,7.5,7.5S118.242,194.254,114.099,194.254z"/>
	<path style="fill:#E5E5E5;" d="M136.598,229.031H40.603c-4.143,0-7.5-3.358-7.5-7.5s3.357-7.5,7.5-7.5h95.995
		c4.143,0,7.5,3.358,7.5,7.5S140.741,229.031,136.598,229.031z"/>
	<polygon style="fill:#E5E5E5;" points="196.791,223.884 234.289,342.38 252.288,286.883 307.786,274.883 	"/>
	<polygon style="fill:#CBCBCB;" points="196.791,223.884 234.289,342.38 252.288,286.883 	"/>
	<path style="fill:#3C3F4D;" d="M471.981,260.94H354.497c-14.069,0-25.516-11.446-25.516-25.516V25.59
		c0-14.07,11.446-25.516,25.516-25.516h117.484c14.07,0,25.517,11.446,25.517,25.516v209.834
		C497.498,249.494,486.051,260.94,471.981,260.94z M354.497,15.074c-5.798,0-10.516,4.717-10.516,10.516v209.834
		c0,5.799,4.718,10.516,10.516,10.516h117.484c5.799,0,10.517-4.717,10.517-10.516V25.59c0-5.799-4.718-10.516-10.517-10.516
		H354.497z"/>
</g>
<g>
</g>
<g>
</g>
<g>
</g>
<g>
</g>
<g>
</g>
<g>
</g>
<g>
</g>
<g>
</g>
<g>
</g>
<g>
</g>
<g>
</g>
<g>
</g>
<g>
</g>
<g>
</g>
<g>
</g>
</svg>
