<?xml version="1.0" encoding="iso-8859-1"?>
<!-- Generator: Adobe Illustrator 19.0.0, SVG Export Plug-In . SVG Version: 6.00 Build 0)  -->
<svg version="1.1" id="Layer_1" xmlns="http://www.w3.org/2000/svg" xmlns:xlink="http://www.w3.org/1999/xlink" x="0px" y="0px"
	 viewBox="0 0 490.879 490.879" style="enable-background:new 0 0 490.879 490.879;" xml:space="preserve">
<g>
	<path style="fill:#C4E2F2;" d="M423.843,26.43v330.14c0,14.6-11.83,26.43-26.43,26.43H27.273c-14.6,0-26.43-11.83-26.43-26.43
		V26.43C0.843,11.83,12.673,0,27.273,0h370.14C412.013,0,423.843,11.83,423.843,26.43z"/>
	<path style="fill:#83B2C6;" d="M423.84,26.434v31.57h-423v-31.57c0-14.6,11.83-26.43,26.43-26.43h370.14
		C412.01,0.004,423.84,11.834,423.84,26.434z"/>
	<g>
		<path style="fill:#E5E5E5;" d="M35.843,38.5c-3.288,0-6.246-2.211-7.185-5.356c-0.912-3.055,0.263-6.475,2.894-8.291
			c5.629-3.885,13.361,1.488,11.517,8.141C42.178,36.205,39.18,38.5,35.843,38.5z"/>
		<path style="fill:#E5E5E5;" d="M86.843,38.5c-3.288,0-6.246-2.211-7.185-5.356c-0.912-3.055,0.263-6.475,2.894-8.291
			c5.629-3.885,13.361,1.488,11.517,8.141C93.178,36.205,90.18,38.5,86.843,38.5z"/>
		<path style="fill:#E5E5E5;" d="M61.343,38.5c-3.288,0-6.246-2.212-7.185-5.356c-0.937-3.137,0.332-6.633,3.081-8.421
			c5.582-3.631,13.032,1.614,11.37,8.123C67.772,36.127,64.735,38.5,61.343,38.5z"/>
	</g>
	<path style="fill:#83B2C6;" d="M423.843,298.01v58.56c0,14.6-11.83,26.43-26.43,26.43h-213.33v-51.73
		c0-18.37,14.89-33.26,33.26-33.26H423.843z"/>
	<path style="fill:#FF491F;" d="M456.781,298.01h-68.967h-85.005h-68.967c-18.368,0-33.258,14.89-33.258,33.258v126.353
		c0,18.368,14.89,33.258,33.258,33.258h68.967h85.005h68.967c18.368,0,33.258-14.89,33.258-33.258V331.268
		C490.039,312.9,475.149,298.01,456.781,298.01z"/>
	<polygon style="fill:#2D303B;" points="387.814,342.665 302.809,342.665 200.583,342.665 200.583,383.003 302.809,383.003 
		387.814,383.003 490.039,383.003 490.039,342.665 	"/>
	<g>
		<path style="fill:#3C3F4D;" d="M368.146,424.775h-45.669c-4.142,0-7.5-3.358-7.5-7.5s3.358-7.5,7.5-7.5h45.669
			c4.142,0,7.5,3.358,7.5,7.5S372.288,424.775,368.146,424.775z"/>
		<path style="fill:#3C3F4D;" d="M440.891,424.775h-45.669c-4.142,0-7.5-3.358-7.5-7.5s3.358-7.5,7.5-7.5h45.669
			c4.142,0,7.5,3.358,7.5,7.5S445.033,424.775,440.891,424.775z"/>
		<path style="fill:#3C3F4D;" d="M295.401,424.775h-45.669c-4.142,0-7.5-3.358-7.5-7.5s3.358-7.5,7.5-7.5h45.669
			c4.142,0,7.5,3.358,7.5,7.5S299.543,424.775,295.401,424.775z"/>
	</g>
	<g>
		<polygon style="fill:#FFE14D;" points="266.664,132.774 217.345,106.133 81.213,106.133 31.894,132.774 58.534,182.093 
			81.213,169.842 81.213,266.288 217.345,266.288 217.345,169.842 240.023,182.093 		"/>
		<path style="fill:#FFBE1D;" d="M102.565,106.139c0,25.8,20.915,46.714,46.714,46.714s46.714-20.915,46.714-46.714"/>
	</g>
	<g>
		<path style="fill:#3C3F4D;" d="M385.662,138.955h-86.006c-4.142,0-7.5-3.358-7.5-7.5s3.358-7.5,7.5-7.5h86.006
			c4.142,0,7.5,3.358,7.5,7.5S389.804,138.955,385.662,138.955z"/>
		<path style="fill:#3C3F4D;" d="M385.662,175h-86.006c-4.142,0-7.5-3.358-7.5-7.5s3.358-7.5,7.5-7.5h86.006
			c4.142,0,7.5,3.358,7.5,7.5S389.804,175,385.662,175z"/>
		<path style="fill:#3C3F4D;" d="M385.662,211.044h-86.006c-4.142,0-7.5-3.358-7.5-7.5s3.358-7.5,7.5-7.5h86.006
			c4.142,0,7.5,3.358,7.5,7.5S389.804,211.044,385.662,211.044z"/>
		<path style="fill:#3C3F4D;" d="M346.568,247.089h-46.912c-4.142,0-7.5-3.358-7.5-7.5s3.358-7.5,7.5-7.5h46.912
			c4.142,0,7.5,3.358,7.5,7.5S350.71,247.089,346.568,247.089z"/>
	</g>
</g>
<g>
</g>
<g>
</g>
<g>
</g>
<g>
</g>
<g>
</g>
<g>
</g>
<g>
</g>
<g>
</g>
<g>
</g>
<g>
</g>
<g>
</g>
<g>
</g>
<g>
</g>
<g>
</g>
<g>
</g>
</svg>
