<?xml version="1.0" encoding="iso-8859-1"?>
<!-- Generator: Adobe Illustrator 19.0.0, SVG Export Plug-In . SVG Version: 6.00 Build 0)  -->
<svg version="1.1" id="Layer_1" xmlns="http://www.w3.org/2000/svg" xmlns:xlink="http://www.w3.org/1999/xlink" x="0px" y="0px"
	 viewBox="0 0 497.5 497.5" style="enable-background:new 0 0 497.5 497.5;" xml:space="preserve">
<g>
	<polygon style="fill:#FF491F;" points="398.801,497.499 20.041,497.499 58.491,127.379 360.341,127.379 366.761,189.149 	"/>
	<polygon style="fill:#ED3618;" points="214.562,247.053 424.381,247.053 451.112,497.5 187.831,497.5 	"/>
	<polygon style="fill:#FFE14D;" points="235.561,247.053 445.38,247.053 472.111,497.5 208.83,497.5 	"/>
	<path style="fill:#ED3618;" d="M366.761,189.149c-27.08-8.67-47.32-32.66-50.5-61.77h44.08L366.761,189.149z"/>
	<circle style="fill:#32CC77;" cx="404.142" cy="119.317" r="73.317"/>
	<path style="fill:#E5E5E5;" d="M398.31,164.385c-2.718,0-5.23-1.473-6.556-3.858l-20-36c-2.011-3.621-0.707-8.187,2.914-10.198
		c3.623-2.012,8.188-0.707,10.199,2.914l13,23.4l28.698-59.037c1.81-3.725,6.295-5.28,10.024-3.466
		c3.725,1.811,5.277,6.299,3.466,10.024l-35,72c-1.223,2.516-3.744,4.142-6.54,4.218
		C398.447,164.384,398.378,164.385,398.31,164.385z"/>
	<path style="fill:#3C3F4D;" d="M290.851,171.079c-4.143,0-7.5-3.358-7.5-7.5V88.935c0-40.768-33.167-73.935-73.935-73.935
		s-73.935,33.167-73.935,73.935v74.644c0,4.142-3.358,7.5-7.5,7.5s-7.5-3.358-7.5-7.5V88.935C120.481,39.896,160.377,0,209.416,0
		c49.039,0,88.935,39.896,88.935,88.935v74.644C298.351,167.721,294.994,171.079,290.851,171.079z"/>
	<path style="fill:#3C3F4D;" d="M340.471,397.493c-30.953,0-56.135-25.182-56.135-56.135v-48.635c0-4.142,3.357-7.5,7.5-7.5
		s7.5,3.358,7.5,7.5v48.635c0,22.682,18.453,41.135,41.135,41.135s41.135-18.453,41.135-41.135v-48.635c0-4.142,3.357-7.5,7.5-7.5
		s7.5,3.358,7.5,7.5v48.635C396.606,372.311,371.424,397.493,340.471,397.493z"/>
</g>
<g>
</g>
<g>
</g>
<g>
</g>
<g>
</g>
<g>
</g>
<g>
</g>
<g>
</g>
<g>
</g>
<g>
</g>
<g>
</g>
<g>
</g>
<g>
</g>
<g>
</g>
<g>
</g>
<g>
</g>
</svg>
