<?xml version="1.0" encoding="iso-8859-1"?>
<!-- Generator: Adobe Illustrator 19.0.0, SVG Export Plug-In . SVG Version: 6.00 Build 0)  -->
<svg version="1.1" id="Layer_1" xmlns="http://www.w3.org/2000/svg" xmlns:xlink="http://www.w3.org/1999/xlink" x="0px" y="0px"
	 viewBox="0 0 491.489 491.489" style="enable-background:new 0 0 491.489 491.489;" xml:space="preserve">
<g>
	<path style="fill:#C4E2F2;" d="M423,122.861v330.14c0,14.6-11.83,26.43-26.43,26.43H26.43c-14.6,0-26.43-11.83-26.43-26.43v-330.14
		c0-14.6,11.83-26.43,26.43-26.43h370.14C411.17,96.431,423,108.261,423,122.861z"/>
	<path style="fill:#83B2C6;" d="M423.005,122.856v31.57h-423v-31.57c0-14.6,11.83-26.43,26.43-26.43h370.14
		C411.175,96.426,423.005,108.256,423.005,122.856z"/>
	<g>
		<path style="fill:#E5E5E5;" d="M35.01,134.921c-3.276,0-6.218-2.189-7.179-5.319c-0.88-2.865,0.097-6.075,2.416-7.972
			c5.151-4.214,12.978,0.156,12.194,6.714C41.998,132.055,38.737,134.921,35.01,134.921z"/>
		<path style="fill:#E5E5E5;" d="M86.01,134.931c-6.686,0-10.042-8.561-5.042-13.061c2.292-2.063,5.688-2.518,8.44-1.122
			c2.886,1.464,4.557,4.77,3.984,7.961C92.758,132.244,89.618,134.931,86.01,134.931z"/>
		<path style="fill:#E5E5E5;" d="M60.5,134.931c-6.885,0-10.087-8.957-4.753-13.301c5.114-4.165,13.047,0.119,12.201,6.714
			C67.473,132.051,64.244,134.931,60.5,134.931z"/>
	</g>
	<path style="fill:#3C3F4D;" d="M107.297,415.469H33.801c-4.143,0-7.5-3.358-7.5-7.5s3.357-7.5,7.5-7.5h73.496
		c4.143,0,7.5,3.358,7.5,7.5S111.439,415.469,107.297,415.469z"/>
	<path style="fill:#3C3F4D;" d="M107.297,451.198H33.801c-4.143,0-7.5-3.358-7.5-7.5s3.357-7.5,7.5-7.5h73.496
		c4.143,0,7.5,3.358,7.5,7.5S111.439,451.198,107.297,451.198z"/>
	<g>
		<polygon style="fill:#FF491F;" points="328.89,286.999 279.571,260.359 143.439,260.359 94.12,286.999 120.76,336.318 
			143.439,324.068 143.439,420.513 279.571,420.513 279.571,324.068 302.249,336.318 		"/>
		<path style="fill:#ED3618;" d="M164.791,260.364c0,25.8,20.915,46.714,46.714,46.714s46.714-20.915,46.714-46.714"/>
	</g>
	<path style="fill:#FFE14D;" d="M211.505,224.196c-4.143,0-7.5-3.358-7.5-7.5v-24c0-4.142,3.357-7.5,7.5-7.5s7.5,3.358,7.5,7.5v24
		C219.005,220.838,215.647,224.196,211.505,224.196z"/>
	<path style="fill:#FFE14D;" d="M289.459,234.199c-0.962,0-1.938-0.186-2.882-0.579c-3.823-1.593-5.632-5.984-4.038-9.808l10-24
		c1.594-3.824,5.985-5.63,9.808-4.038c3.823,1.593,5.632,5.984,4.038,9.808l-10,24C295.185,232.462,292.396,234.199,289.459,234.199
		z"/>
	<path style="fill:#FFE14D;" d="M355.008,270.197c-1.919,0-3.839-0.732-5.304-2.197c-2.929-2.929-2.929-7.678,0-10.606l25-25
		c2.93-2.929,7.678-2.929,10.607,0c2.929,2.929,2.929,7.678,0,10.606l-25,25C358.847,269.464,356.927,270.197,355.008,270.197z"/>
	<path style="fill:#FFE14D;" d="M133.551,234.199c-2.938,0-5.726-1.736-6.926-4.617l-10.001-24
		c-1.594-3.823,0.215-8.214,4.038-9.808c3.821-1.594,8.215,0.214,9.808,4.038l10.001,24c1.594,3.823-0.215,8.214-4.038,9.808
		C135.49,234.013,134.513,234.199,133.551,234.199z"/>
	<path style="fill:#FFE14D;" d="M68.002,270.197c-1.919,0-3.839-0.732-5.304-2.197l-25-25c-2.929-2.929-2.929-7.678,0-10.606
		c2.93-2.929,7.678-2.929,10.607,0l25,25c2.929,2.929,2.929,7.678,0,10.606C71.841,269.464,69.921,270.197,68.002,270.197z"/>
	<g>
		<path style="fill:#83B2C6;" d="M423,122.861v63.15c-0.55-0.22-1.09-0.48-1.63-0.76l-27.42-14.42c-5.45-2.86-11.96-2.86-17.4,0
			l-27.42,14.42c-13.72,7.21-29.75-4.44-27.13-19.71l5.24-30.53c1.04-6.07-0.98-12.26-5.38-16.55l-22.19-21.63
			c-0.14-0.13-0.27-0.26-0.39-0.4h97.29C411.17,96.431,423,108.261,423,122.861z"/>
	</g>
	<g>
		<path style="fill:#FFE14D;" d="M417.014,22.48l13.711,27.781c2.723,5.518,7.988,9.343,14.077,10.228l30.658,4.455
			c15.335,2.228,21.458,21.074,10.362,31.89l-22.185,21.625c-4.406,4.295-6.417,10.484-5.377,16.549l5.237,30.535
			c2.62,15.273-13.411,26.92-27.128,19.709l-27.422-14.416c-5.447-2.864-11.954-2.864-17.4,0l-27.422,14.416
			c-13.716,7.211-29.747-4.436-27.128-19.709l5.237-30.535c1.04-6.065-0.971-12.254-5.377-16.549l-22.185-21.625
			c-11.097-10.817-4.973-29.662,10.362-31.89l30.658-4.455c6.09-0.885,11.354-4.71,14.077-10.228l13.711-27.781
			C390.341,8.584,410.156,8.584,417.014,22.48z"/>
	</g>
</g>
<g>
</g>
<g>
</g>
<g>
</g>
<g>
</g>
<g>
</g>
<g>
</g>
<g>
</g>
<g>
</g>
<g>
</g>
<g>
</g>
<g>
</g>
<g>
</g>
<g>
</g>
<g>
</g>
<g>
</g>
</svg>
