<?xml version="1.0" encoding="iso-8859-1"?>
<!-- Generator: Adobe Illustrator 19.0.0, SVG Export Plug-In . SVG Version: 6.00 Build 0)  -->
<svg version="1.1" id="Layer_1" xmlns="http://www.w3.org/2000/svg" xmlns:xlink="http://www.w3.org/1999/xlink" x="0px" y="0px"
	 viewBox="0 0 493.999 493.999" style="enable-background:new 0 0 493.999 493.999;" xml:space="preserve">
<g>
	<path style="fill:#2C92BF;" d="M263.621,163.449v302.01c0,15.76-12.78,28.54-28.54,28.54H30.541c-15.77,0-28.54-12.78-28.54-28.54
		v-302.01c0-15.77,12.77-28.54,28.54-28.54h204.54C250.841,134.909,263.621,147.679,263.621,163.449z"/>
	<path style="fill:#1F81A3;" d="M263.621,163.449v187.93h-34.22c-16.24,0-29.4-13.17-29.4-29.41v-187.06h35.08
		C250.841,134.909,263.621,147.679,263.621,163.449z"/>
	<rect x="32.001" y="164.909" style="fill:#C4E2F2;" width="201.62" height="74.18"/>
	<rect x="200.001" y="164.909" style="fill:#83B2C6;" width="33.62" height="74.18"/>
	<g>
		<rect x="39.501" y="278.208" style="fill:#E5E5E5;" width="50.798" height="51.33"/>
		<rect x="175.314" y="405.979" style="fill:#E5E5E5;" width="50.807" height="51.33"/>
		<rect x="105.298" y="405.979" style="fill:#E5E5E5;" width="55.016" height="51.33"/>
		<path style="fill:#E5E5E5;" d="M233.621,270.708v71.12c-4.14,0-7.5,3.36-7.5,7.5v41.65h-50.81v-46.44h43.85
			c4.14,0,7.5-3.36,7.5-7.5s-3.36-7.5-7.5-7.5h-43.85v-51.33h39.69c4.14,0,7.5-3.36,7.5-7.5H233.621z"/>
		<rect x="105.298" y="344.539" style="fill:#E5E5E5;" width="55.016" height="46.44"/>
		<rect x="105.298" y="278.208" style="fill:#E5E5E5;" width="55.016" height="51.33"/>
		<rect x="39.501" y="405.979" style="fill:#E5E5E5;" width="50.798" height="51.33"/>
		<rect x="39.501" y="344.539" style="fill:#E5E5E5;" width="50.798" height="46.44"/>
	</g>
	<path style="fill:#CBCBCB;" d="M233.621,270.708v71.12c-4.14,0-7.5,3.36-7.5,7.5v1.87c-5.89-0.65-11.25-3.05-15.56-6.66h8.6
		c4.14,0,7.5-3.36,7.5-7.5s-3.36-7.5-7.5-7.5h-18.17c-0.65-2.41-0.99-4.95-0.99-7.57v-43.76h15c4.14,0,7.5-3.36,7.5-7.5H233.621z"/>
	<path style="fill:#FF8E1D;" d="M244.406,351.376h218.187c16.24,0,29.405-13.165,29.405-29.405V55.512
		c0-16.24-13.165-29.405-29.405-29.405H244.406c-16.24,0-29.405,13.165-29.405,29.405v266.459
		C215.001,338.211,228.166,351.376,244.406,351.376z"/>
	<rect x="245.001" y="56.107" style="fill:#E5E5E5;" width="216.997" height="265.269"/>
	<path style="fill:#FFE14D;" d="M396.468,91.269h-74.935c-12.149,0-22.033-9.884-22.033-22.033V22.033
		C299.501,9.884,309.384,0,321.534,0h74.935c12.148,0,22.032,9.884,22.032,22.033v47.204
		C418.501,81.385,408.617,91.269,396.468,91.269z M321.534,15c-3.878,0-7.033,3.155-7.033,7.033v47.204
		c0,3.878,3.155,7.033,7.033,7.033h74.935c3.878,0,7.032-3.155,7.032-7.033V22.033c0-3.878-3.154-7.033-7.032-7.033H321.534z"/>
	<g>
		<path style="fill:#32CC77;" d="M300.519,188.204c-2.718,0-5.23-1.473-6.556-3.858l-20-36c-2.011-3.621-0.707-8.187,2.914-10.198
			c3.623-2.011,8.188-0.707,10.199,2.914l13,23.4l28.698-59.037c1.81-3.725,6.295-5.278,10.024-3.466
			c3.725,1.811,5.277,6.299,3.466,10.024l-35,72c-1.223,2.516-3.744,4.142-6.54,4.218
			C300.656,188.203,300.588,188.204,300.519,188.204z"/>
		<g>
			<path style="fill:#3C3F4D;" d="M429.001,170.769h-66c-4.143,0-7.5-3.358-7.5-7.5s3.357-7.5,7.5-7.5h66c4.143,0,7.5,3.358,7.5,7.5
				S433.143,170.769,429.001,170.769z"/>
			<path style="fill:#3C3F4D;" d="M429.001,138.769h-66c-4.143,0-7.5-3.358-7.5-7.5s3.357-7.5,7.5-7.5h66c4.143,0,7.5,3.358,7.5,7.5
				S433.143,138.769,429.001,138.769z"/>
		</g>
	</g>
	<g>
		<path style="fill:#32CC77;" d="M300.519,282.668c-2.718,0-5.23-1.473-6.556-3.858l-20-36c-2.011-3.621-0.707-8.187,2.914-10.198
			c3.623-2.012,8.188-0.707,10.199,2.914l13,23.4l28.698-59.037c1.81-3.725,6.295-5.279,10.024-3.466
			c3.725,1.811,5.277,6.299,3.466,10.024l-35,72c-1.223,2.516-3.744,4.142-6.54,4.218
			C300.656,282.667,300.588,282.668,300.519,282.668z"/>
		<g>
			<path style="fill:#3C3F4D;" d="M429.001,265.233h-66c-4.143,0-7.5-3.358-7.5-7.5s3.357-7.5,7.5-7.5h66c4.143,0,7.5,3.358,7.5,7.5
				S433.143,265.233,429.001,265.233z"/>
			<path style="fill:#3C3F4D;" d="M429.001,233.233h-66c-4.143,0-7.5-3.358-7.5-7.5s3.357-7.5,7.5-7.5h66c4.143,0,7.5,3.358,7.5,7.5
				S433.143,233.233,429.001,233.233z"/>
		</g>
	</g>
</g>
<g>
</g>
<g>
</g>
<g>
</g>
<g>
</g>
<g>
</g>
<g>
</g>
<g>
</g>
<g>
</g>
<g>
</g>
<g>
</g>
<g>
</g>
<g>
</g>
<g>
</g>
<g>
</g>
<g>
</g>
</svg>
