<?xml version="1.0" encoding="iso-8859-1"?>
<!-- Generator: Adobe Illustrator 19.0.0, SVG Export Plug-In . SVG Version: 6.00 Build 0)  -->
<svg version="1.1" id="Layer_1" xmlns="http://www.w3.org/2000/svg" xmlns:xlink="http://www.w3.org/1999/xlink" x="0px" y="0px"
	 viewBox="0 0 489.997 489.997" style="enable-background:new 0 0 489.997 489.997;" xml:space="preserve">
<g>
	<path style="fill:#C4E2F2;" d="M423.002,48.298v330.14c0,14.6-11.83,26.43-26.43,26.43H26.432c-14.6,0-26.43-11.83-26.43-26.43
		V48.298c0-14.6,11.83-26.43,26.43-26.43h370.14C411.172,21.868,423.002,33.698,423.002,48.298z"/>
	<path style="fill:#83B2C6;" d="M423,48.302v31.57H0v-31.57c0-14.6,11.83-26.43,26.43-26.43h370.14
		C411.17,21.872,423,33.702,423,48.302z"/>
	<g>
		<path style="fill:#E6E6E6;" d="M35.002,60.368c-6.684,0-9.987-8.464-5.091-13.001c2.368-2.195,5.976-2.597,8.781-1.014
			c2.726,1.539,4.236,4.715,3.693,7.803C41.761,57.701,38.611,60.368,35.002,60.368z"/>
		<path style="fill:#E6E6E6;" d="M86.002,60.368c-6.785,0-10.092-8.788-4.875-13.196c2.49-2.104,6.121-2.372,8.881-0.631
			c2.583,1.629,3.957,4.797,3.343,7.797C92.644,57.798,89.55,60.368,86.002,60.368z"/>
		<path style="fill:#E6E6E6;" d="M60.502,60.368c-3.288,0-6.246-2.211-7.185-5.356c-0.928-3.109,0.31-6.574,3.015-8.374
			c5.582-3.716,13.104,1.544,11.437,8.076C66.93,57.997,63.896,60.368,60.502,60.368z"/>
	</g>
	<path style="fill:#83B2C6;" d="M423.002,262.338v116.1c0,14.6-11.83,26.43-26.43,26.43h-130.33
		c-6.84-14.38-10.66-30.47-10.66-47.45c0-61.14,49.57-110.7,110.71-110.7C387.022,246.718,406.412,252.418,423.002,262.338z"/>
	<path style="fill:#FF491F;" d="M295.502,306.938c-6.96,12.06-21.53,16.61-35.9,20.84c-8.71,2.56-17.34,5.01-24.16,8.94
		c-18.65,10.74-34.31,37.14-55.83,37.16c-20.86,0.02-36.47-25.99-55.83-37.17c-19.36-11.18-49.69-11.69-60.1-29.77
		c-10.75-18.64,4.28-45.41,4.26-66.93c-0.02-20.86-15.42-47.54-4.24-66.9c11.18-19.37,41.98-19.37,60.06-29.78
		c18.64-10.74,34.31-37.14,55.83-37.16c20.86-0.02,36.47,25.99,55.83,37.17c19.36,11.18,49.69,11.69,60.1,29.76
		c10.75,18.65-4.28,45.42-4.26,66.94c0.01,9.57,3.25,20.36,5.68,31.1C299.812,283.828,301.552,296.458,295.502,306.938z"/>
	<path style="fill:#ED3618;" d="M295.502,306.938c-6.96,12.06-21.53,16.61-35.9,20.84c6.26-22.62,19.54-42.33,37.34-56.64
		C299.812,283.828,301.552,296.458,295.502,306.938z"/>
	<circle style="fill:#FFE14D;" cx="379.289" cy="357.421" r="110.708"/>
	<path style="fill:#FFFFFF;" d="M457.57,357.418c0,43.24-35.05,78.29-78.28,78.29c-4.84,0-9.58-0.44-14.18-1.28
		c-36.46-6.67-64.1-38.61-64.1-77.01c0-38.39,27.64-70.33,64.1-77c4.6-0.84,9.34-1.28,14.18-1.28
		C422.52,279.138,457.57,314.188,457.57,357.418z"/>
	<path style="fill:#E6E6E6;" d="M429.21,357.418c0,38.4-27.64,70.34-64.1,77.01c-36.46-6.67-64.1-38.61-64.1-77.01
		c0-38.39,27.64-70.33,64.1-77C401.57,287.088,429.21,319.028,429.21,357.418z"/>
	<path style="fill:#FFBE1D;" d="M379.289,443.204c-47.3,0-85.782-38.482-85.782-85.782s38.482-85.782,85.782-85.782
		s85.782,38.482,85.782,85.782S426.589,443.204,379.289,443.204z M379.289,286.639c-39.029,0-70.782,31.753-70.782,70.782
		s31.753,70.782,70.782,70.782s70.782-31.753,70.782-70.782S418.318,286.639,379.289,286.639z"/>
	<g>
		<path style="fill:#2C92BF;" d="M379.289,315.899c-4.142,0-7.5-3.358-7.5-7.5v-7.333c0-4.142,3.358-7.5,7.5-7.5s7.5,3.358,7.5,7.5
			v7.333C386.789,312.541,383.431,315.899,379.289,315.899z"/>
		<path style="fill:#2C92BF;" d="M379.289,421.565c-4.142,0-7.5-3.358-7.5-7.5v-7.333c0-4.142,3.358-7.5,7.5-7.5s7.5,3.358,7.5,7.5
			v7.333C386.789,418.207,383.431,421.565,379.289,421.565z"/>
	</g>
	<g>
		<path style="fill:#2C92BF;" d="M435.789,365.065h-7.333c-4.142,0-7.5-3.358-7.5-7.5s3.358-7.5,7.5-7.5h7.333
			c4.142,0,7.5,3.358,7.5,7.5S439.931,365.065,435.789,365.065z"/>
		<path style="fill:#2C92BF;" d="M330.123,365.065h-7.333c-4.142,0-7.5-3.358-7.5-7.5s3.358-7.5,7.5-7.5h7.333
			c4.142,0,7.5,3.358,7.5,7.5S334.265,365.065,330.123,365.065z"/>
	</g>
	<path style="fill:#2D303B;" d="M394.333,364.921h-15.044c-4.142,0-7.5-3.358-7.5-7.5v-22.023c0-4.142,3.358-7.5,7.5-7.5
		s7.5,3.358,7.5,7.5v14.523h7.544c4.142,0,7.5,3.358,7.5,7.5S398.475,364.921,394.333,364.921z"/>
	<g>
		<path style="fill:#FFFFFF;" d="M112.159,232.601c-4.738-2.01-8.481-3.599-8.481-7.071c0-3.352,2.907-5.275,7.975-5.275
			c3.799,0,5.831,1.043,7.464,1.882c1.012,0.52,1.887,0.969,2.886,0.969c3.072,0,4.4-3.758,4.4-5.675c0-5.131-9.271-6.5-14.75-6.5
			c-9.052,0-18.724,4.072-18.724,15.5c0,10.224,7.64,13.617,14.381,16.61c5.201,2.31,9.693,4.304,9.693,8.963
			c0,4.442-4.081,6.025-7.9,6.025c-4.5,0-6.958-2.065-8.934-3.724c-1.31-1.1-2.441-2.051-3.816-2.05
			c-2.725,0-4.775,3.488-4.775,5.75c0,4.626,7.623,9.8,17.824,9.8c11.318,0,18.35-6.428,18.35-16.775
			C127.753,239.217,119.107,235.549,112.159,232.601z"/>
		<path style="fill:#FFFFFF;" d="M162.233,214.512c-0.808-2.696-4.03-3.656-6.776-3.656c0,0-0.001,0-0.002,0
			c-2.587,0-5.895,0.958-6.703,3.653l-14.481,47.198c-0.1,0.397-0.166,0.673-0.166,0.872c0,2.819,3.873,4.55,6.65,4.55
			c2.622,0,3.505-1.263,3.781-2.313l2.746-9.612h16.42l2.744,9.602c0.278,1.06,1.161,2.323,3.783,2.323
			c2.711,0,6.65-1.772,6.65-4.55c0-0.242-0.058-0.462-0.119-0.695L162.233,214.512z M161.318,246.555l-11.727,0l5.863-20.69
			L161.318,246.555z"/>
		<path style="fill:#FFFFFF;" d="M214.108,257.579L214.108,257.579l-17.801,0v-42.773c0-2.417-2.699-3.5-5.375-3.5
			c-3.265,0-5.375,1.374-5.375,3.5v48.748c0,2.456,2.475,3.575,4.774,3.575h23.774c2.248,0,3.424-2.402,3.424-4.775
			c0-1.224-0.286-2.365-0.805-3.214C216.111,258.133,215.181,257.579,214.108,257.579z"/>
		<path style="fill:#FFFFFF;" d="M257.834,257.579h-20.724v-14.074l10.9,0c2.346,0,3.574-2.138,3.574-4.25
			c0-2.187-1.229-4.4-3.574-4.4l-10.9,0v-13.999h20.724c2.105,0,3.575-1.994,3.575-4.85c0-2.264-1.12-4.7-3.575-4.7h-26.699
			c-2.299,0-4.774,1.119-4.774,3.575v48.673c0,2.456,2.475,3.575,4.774,3.575h26.699c2.457,0,3.575-2.436,3.575-4.7
			C261.409,259.573,259.939,257.579,257.834,257.579z"/>
	</g>
	<path style="fill:#3C3F4D;" d="M393.136,149.219h-58.497c-4.142,0-7.5-3.358-7.5-7.5s3.358-7.5,7.5-7.5h58.497
		c4.142,0,7.5,3.358,7.5,7.5S397.278,149.219,393.136,149.219z"/>
	<path style="fill:#3C3F4D;" d="M393.136,180.716h-58.497c-4.142,0-7.5-3.358-7.5-7.5s3.358-7.5,7.5-7.5h58.497
		c4.142,0,7.5,3.358,7.5,7.5S397.278,180.716,393.136,180.716z"/>
	<path style="fill:#3C3F4D;" d="M393.136,212.214h-58.497c-4.142,0-7.5-3.358-7.5-7.5s3.358-7.5,7.5-7.5h58.497
		c4.142,0,7.5,3.358,7.5,7.5S397.278,212.214,393.136,212.214z"/>
</g>
<g>
</g>
<g>
</g>
<g>
</g>
<g>
</g>
<g>
</g>
<g>
</g>
<g>
</g>
<g>
</g>
<g>
</g>
<g>
</g>
<g>
</g>
<g>
</g>
<g>
</g>
<g>
</g>
<g>
</g>
</svg>
