<?xml version="1.0" encoding="iso-8859-1"?>
<!-- Generator: Adobe Illustrator 19.0.0, SVG Export Plug-In . SVG Version: 6.00 Build 0)  -->
<svg version="1.1" id="Layer_1" xmlns="http://www.w3.org/2000/svg" xmlns:xlink="http://www.w3.org/1999/xlink" x="0px" y="0px"
	 viewBox="0 0 490 490" style="enable-background:new 0 0 490 490;" xml:space="preserve">
<g>
	<path style="fill:#C4E2F2;" d="M490,42.399v263.99c0,23.47-19.04,42.51-42.52,42.51H42.51c-23.48,0-42.51-19.04-42.51-42.51V42.399
		c0-23.23,18.83-42.07,42.06-42.07h405.87C471.16,0.329,490,19.169,490,42.399z"/>
	<polygon style="fill:#2D303B;" points="343.828,405.62 244.998,428.14 146.158,405.62 159.698,348.9 240.798,319.08 330.288,348.9 
		334.668,367.26 	"/>
	<path style="fill:#3C3F4D;" d="M490,301.379v5c0,23.48-19.04,42.52-42.52,42.52H42.51c-23.48,0-42.51-19.04-42.51-42.52v-5H490z"/>
	<polygon style="fill:#3C3F4D;" points="343.828,405.62 192.658,405.62 201.818,367.26 334.668,367.26 	"/>
	<path style="fill:#2D303B;" d="M402.078,437.2v13.47H87.918V437.2c0-17.44,14.14-31.58,31.58-31.58h251
		C387.938,405.62,402.078,419.76,402.078,437.2z"/>
	<polygon style="fill:#83B2C6;" points="437.61,348.899 215.72,348.899 226.59,244.259 426.74,244.259 	"/>
	<g>
		<path style="fill:#1F81A3;" d="M229.09,126.375l-2.62,20l-8.39,63.89c-1.51,11.51-11.31,20.11-22.92,20.11H95.02
			c-11.61,0-21.41-8.6-22.92-20.11l-11.01-83.89l84-22.5L229.09,126.375z"/>
		<path style="fill:#2C92BF;" d="M226.47,146.375l-8.39,63.89c-1.51,11.51-11.31,20.11-22.92,20.11h-68.14
			c-11.61,0-21.41-8.6-22.92-20.11l-5.686-43.299c-1.433-10.91,7.06-20.591,18.063-20.591H226.47z"/>
		<path style="fill:#1F81A3;" d="M240.59,103.755v12.24c0,5.73-4.65,10.38-10.38,10.38H59.97c-5.73,0-10.38-4.65-10.38-10.38v-12.24
			c0-5.73,4.65-10.38,10.38-10.38h170.24C235.94,93.375,240.59,98.025,240.59,103.755z"/>
		<path style="fill:#2C92BF;" d="M240.59,103.755v12.24c0,5.73-4.65,10.38-10.38,10.38H99.97c-5.73,0-10.38-4.65-10.38-10.38v-12.24
			c0-5.73,4.65-10.38,10.38-10.38h130.24C235.94,93.375,240.59,98.025,240.59,103.755z"/>
		<path style="fill:#3C3F4D;" d="M145.09,46.375L145.09,46.375c-9.389,0-17,7.611-17,17v81c0,9.389,7.611,17,17,17h0
			c9.389,0,17-7.611,17-17v-81C162.09,53.987,154.479,46.375,145.09,46.375z"/>
	</g>
	<polygon style="fill:#2D303B;" points="436.61,348.899 214.72,348.899 219.65,301.379 431.68,301.379 	"/>
	<polygon style="fill:#FF491F;" points="439.737,244.256 239.589,244.256 214.09,489.671 465.236,489.671 	"/>
	<polygon style="fill:#FFE14D;" points="322.327,323.606 183.202,323.606 165.477,489.671 340.051,489.671 	"/>
	<path style="fill:#FFFFFF;" d="M393.66,275.757c-4.143,0-7.5-3.358-7.5-7.5v-49.494c0-25.639-20.858-46.497-46.497-46.497
		s-46.497,20.859-46.497,46.497v49.494c0,4.142-3.357,7.5-7.5,7.5s-7.5-3.358-7.5-7.5v-49.494c0-33.91,27.588-61.497,61.497-61.497
		s61.497,27.588,61.497,61.497v49.494C401.16,272.399,397.803,275.757,393.66,275.757z"/>
	<path style="fill:#3C3F4D;" d="M252.765,425.886c-21.917,0-39.749-17.831-39.749-39.749v-32.248c0-4.142,3.358-7.5,7.5-7.5
		s7.5,3.358,7.5,7.5v32.248c0,13.646,11.102,24.749,24.749,24.749s24.748-11.102,24.748-24.749v-32.248c0-4.142,3.357-7.5,7.5-7.5
		s7.5,3.358,7.5,7.5v32.248C292.513,408.055,274.682,425.886,252.765,425.886z"/>
	<g>
		<path style="fill:#FF491F;" d="M315.894,84.018h-32c-4.143,0-7.5-3.358-7.5-7.5s3.357-7.5,7.5-7.5h32c4.143,0,7.5,3.358,7.5,7.5
			S320.036,84.018,315.894,84.018z"/>
		<path style="fill:#3C3F4D;" d="M452.894,84.018h-104c-4.143,0-7.5-3.358-7.5-7.5s3.357-7.5,7.5-7.5h104c4.143,0,7.5,3.358,7.5,7.5
			S457.036,84.018,452.894,84.018z"/>
		<path style="fill:#FF491F;" d="M315.894,119.018h-32c-4.143,0-7.5-3.358-7.5-7.5s3.357-7.5,7.5-7.5h32c4.143,0,7.5,3.358,7.5,7.5
			S320.036,119.018,315.894,119.018z"/>
		<path style="fill:#3C3F4D;" d="M452.894,119.018h-104c-4.143,0-7.5-3.358-7.5-7.5s3.357-7.5,7.5-7.5h104
			c4.143,0,7.5,3.358,7.5,7.5S457.036,119.018,452.894,119.018z"/>
	</g>
</g>
<g>
</g>
<g>
</g>
<g>
</g>
<g>
</g>
<g>
</g>
<g>
</g>
<g>
</g>
<g>
</g>
<g>
</g>
<g>
</g>
<g>
</g>
<g>
</g>
<g>
</g>
<g>
</g>
<g>
</g>
</svg>
