<?xml version="1.0" encoding="iso-8859-1"?>
<!-- Generator: Adobe Illustrator 19.0.0, SVG Export Plug-In . SVG Version: 6.00 Build 0)  -->
<svg version="1.1" id="Layer_1" xmlns="http://www.w3.org/2000/svg" xmlns:xlink="http://www.w3.org/1999/xlink" x="0px" y="0px"
	 viewBox="0 0 489.305 489.305" style="enable-background:new 0 0 489.305 489.305;" xml:space="preserve">
<g>
	<path style="fill:#C4E2F2;" d="M423,102.919v330.14c0,14.6-11.83,26.43-26.43,26.43H26.43c-14.6,0-26.43-11.83-26.43-26.43v-330.14
		c0-14.6,11.83-26.43,26.43-26.43h370.14C411.17,76.489,423,88.319,423,102.919z"/>
	<path style="fill:#83B2C6;" d="M423,102.919v31.57H0v-31.57c0-14.6,11.83-26.43,26.43-26.43h370.14
		C411.17,76.489,423,88.319,423,102.919z"/>
	<g>
		<path style="fill:#E6E6E6;" d="M34.995,114.989c-6.872,0-10.117-8.953-4.729-13.311c2.32-1.876,5.63-2.203,8.267-0.803
			c2.903,1.543,4.48,4.939,3.8,8.153C41.607,112.46,38.512,114.989,34.995,114.989z"/>
		<path style="fill:#E6E6E6;" d="M85.995,114.989c-6.805,0-10.041-8.77-4.866-13.201c5.226-4.475,13.418,0.21,12.255,6.981
			C92.775,112.322,89.598,114.989,85.995,114.989z"/>
		<path style="fill:#E6E6E6;" d="M60.495,114.989c-3.007,0-5.768-1.862-6.92-4.63c-1.234-2.965-0.38-6.486,2.054-8.571
			c5.226-4.475,13.418,0.21,12.255,6.981C67.275,112.324,64.099,114.989,60.495,114.989z"/>
	</g>
	<path style="fill:#FFE14D;" d="M370.935,100.865l-51.866,12.05c-9.215,2.141-16.41,9.336-18.551,18.551l-12.05,51.866
		c-1.939,8.344,0.565,17.099,6.623,23.156l87.948,87.948c9.688,9.688,25.396,9.688,35.084,0l63.916-63.916
		c9.688-9.688,9.688-25.396,0-35.084l-87.948-87.948C388.033,101.43,379.279,98.926,370.935,100.865z"/>
	<circle style="fill:#C4E2F2;" cx="355.544" cy="167.94" r="21.231"/>
	<path style="fill:#3C3F4D;" d="M361.046,173.039c-1.48,1.6-3.49,2.4-5.5,2.4c-1.83,0-3.66-0.66-5.1-2
		c-0.76-0.7-18.77-17.47-37.15-39.3c-25.43-30.2-38.49-54.53-38.82-72.33c-0.17-8.73,2.6-16,8.22-21.62
		c10.7-10.7,20.85-11.23,27.47-9.79c21.6,4.69,36,36.43,39.92,46.09h-16.35c-6.19-13.22-16.65-29.25-26.76-31.44
		c-1.61-0.35-6.52-1.41-13.67,5.74c-2.7,2.7-3.92,6.12-3.84,10.74c0.55,29.1,51.57,82.71,71.18,100.91
		C363.686,165.259,363.856,170.009,361.046,173.039z"/>
	<path style="fill:#3C3F4D;" d="M379.092,237.896c-1.919,0-3.839-0.732-5.303-2.197c-2.929-2.929-2.929-7.677,0-10.606
		l38.908-38.908c2.929-2.929,7.678-2.929,10.606,0c2.929,2.929,2.929,7.677,0,10.606L384.395,235.7
		C382.931,237.164,381.012,237.896,379.092,237.896z"/>
	<path style="fill:#3C3F4D;" d="M399.592,258.397c-1.919,0-3.839-0.732-5.303-2.197c-2.929-2.929-2.929-7.678,0-10.606
		l38.908-38.908c2.929-2.929,7.678-2.929,10.606,0c2.929,2.929,2.929,7.677,0,10.606L404.895,256.2
		C403.431,257.664,401.512,258.397,399.592,258.397z"/>
	<g>
		<path style="fill:#E2720E;" d="M233.632,324.489l-2.62,20l-8.39,63.89c-1.51,11.51-11.31,20.11-22.92,20.11H99.562
			c-11.61,0-21.41-8.6-22.92-20.11l-11.01-83.89l84-22.5L233.632,324.489z"/>
		<path style="fill:#FF8E1D;" d="M231.012,344.489l-8.39,63.89c-1.51,11.51-11.31,20.11-22.92,20.11h-68.14
			c-11.61,0-21.41-8.6-22.92-20.11l-5.686-43.3c-1.433-10.91,7.06-20.59,18.063-20.59H231.012z"/>
		<path style="fill:#E2720E;" d="M245.132,301.869v12.24c0,5.73-4.65,10.38-10.38,10.38H64.512c-5.73,0-10.38-4.65-10.38-10.38
			v-12.24c0-5.73,4.65-10.38,10.38-10.38h170.24C240.482,291.489,245.132,296.139,245.132,301.869z"/>
		<path style="fill:#FF8E1D;" d="M245.132,301.869v12.24c0,5.73-4.65,10.38-10.38,10.38h-130.24c-5.73,0-10.38-4.65-10.38-10.38
			v-12.24c0-5.73,4.65-10.38,10.38-10.38h130.24C240.482,291.489,245.132,296.139,245.132,301.869z"/>
		<path style="fill:#3C3F4D;" d="M149.632,244.489L149.632,244.489c-9.389,0-17,7.611-17,17v81c0,9.389,7.611,17,17,17h0
			c9.389,0,17-7.611,17-17v-81C166.632,252.1,159.021,244.489,149.632,244.489z"/>
	</g>
	<g>
		<path style="fill:#FF491F;" d="M321,395.989c-4.088,0-7.5-3.417-7.5-7.5c0-2.207,0.987-4.087,2.511-5.617
			c2.174-2.183,4.358-4.358,6.537-6.537c6.877-6.877,13.754-13.754,20.63-20.63c1.783-1.783,3.718-4.292,6.129-5.217
			c3.615-1.388,7.819,0.292,9.476,3.796c1.373,2.906,0.68,6.282-1.527,8.556c-5.234,5.392-10.633,10.633-15.947,15.947
			c-4.998,4.998-9.911,10.103-15.005,15.005C324.868,395.173,323.006,395.989,321,395.989z"/>
		<g>
			<path style="fill:#FF491F;" d="M316.995,360.989c-2.999,0-5.768-1.865-6.92-4.63c-1.277-3.067-0.313-6.741,2.31-8.781
				c5.231-4.067,12.982,0.437,12.029,7.013C323.888,358.227,320.657,360.989,316.995,360.989z"/>
			<path style="fill:#FF491F;" d="M355.995,399.989c-6.595,0-9.976-8.321-5.193-12.902c2.28-2.184,5.779-2.712,8.601-1.28
				c2.821,1.43,4.5,4.647,4.017,7.781C362.862,397.216,359.677,399.989,355.995,399.989z"/>
		</g>
	</g>
	<path style="fill:#3C3F4D;" d="M76.999,179.988h-32c-4.142,0-7.5-3.358-7.5-7.5s3.358-7.5,7.5-7.5h32c4.142,0,7.5,3.358,7.5,7.5
		S81.141,179.988,76.999,179.988z"/>
	<path style="fill:#3C3F4D;" d="M213.999,179.988h-104c-4.142,0-7.5-3.358-7.5-7.5s3.358-7.5,7.5-7.5h104c4.142,0,7.5,3.358,7.5,7.5
		S218.141,179.988,213.999,179.988z"/>
	<path style="fill:#3C3F4D;" d="M76.999,214.989h-32c-4.142,0-7.5-3.358-7.5-7.5s3.358-7.5,7.5-7.5h32c4.142,0,7.5,3.358,7.5,7.5
		S81.141,214.989,76.999,214.989z"/>
	<path style="fill:#3C3F4D;" d="M213.999,214.989h-104c-4.142,0-7.5-3.358-7.5-7.5s3.358-7.5,7.5-7.5h104c4.142,0,7.5,3.358,7.5,7.5
		S218.141,214.989,213.999,214.989z"/>
</g>
<g>
</g>
<g>
</g>
<g>
</g>
<g>
</g>
<g>
</g>
<g>
</g>
<g>
</g>
<g>
</g>
<g>
</g>
<g>
</g>
<g>
</g>
<g>
</g>
<g>
</g>
<g>
</g>
<g>
</g>
</svg>
