<?xml version="1.0" encoding="iso-8859-1"?>
<!-- Generator: Adobe Illustrator 19.0.0, SVG Export Plug-In . SVG Version: 6.00 Build 0)  -->
<svg version="1.1" id="Layer_1" xmlns="http://www.w3.org/2000/svg" xmlns:xlink="http://www.w3.org/1999/xlink" x="0px" y="0px"
	 viewBox="0 0 489.968 489.968" style="enable-background:new 0 0 489.968 489.968;" xml:space="preserve">
<g>
	<path style="fill:#C4E2F2;" d="M423.001,47.864v330.14c0,6.81-2.58,13.02-6.81,17.7c-4.83,5.36-11.83,8.73-19.62,8.73H26.431
		c-14.6,0-26.43-11.83-26.43-26.43V47.864c0-14.6,11.83-26.43,26.43-26.43h370.14C411.171,21.434,423.001,33.264,423.001,47.864z"/>
	<path style="fill:#83B2C6;" d="M423,47.866v31.57H0v-31.57c0-14.6,11.83-26.43,26.43-26.43h370.14
		C411.17,21.436,423,33.266,423,47.866z"/>
	<g>
		<path style="fill:#E6E6E6;" d="M34.997,59.933c-6.746,0-10.022-8.649-4.976-13.103c4.952-4.371,12.929-0.406,12.453,6.154
			C42.193,56.855,38.878,59.933,34.997,59.933z"/>
		<path style="fill:#E6E6E6;" d="M85.997,59.933c-6.746,0-10.042-8.627-4.976-13.103c2.441-2.157,6.037-2.474,8.833-0.822
			c2.672,1.579,4.083,4.776,3.509,7.817C92.702,57.327,89.569,59.933,85.997,59.933z"/>
		<path style="fill:#E6E6E6;" d="M60.497,59.933c-3.275,0-6.211-2.197-7.169-5.318c-0.923-3.009,0.21-6.405,2.766-8.245
			c5.476-3.941,13.205,1.078,11.721,7.712C67.058,57.468,63.961,59.933,60.497,59.933z"/>
	</g>
	<path style="fill:#83B2C6;" d="M459.281,254.934c0,14.65,14.83,32.17,9.55,44.91c-5.48,13.22-28.56,15.05-38.51,25
		c-3,3-5.26,7.2-7.32,11.74c-2.28,5.02-4.31,10.47-6.81,15.21v43.91c-4.83,5.36-11.83,8.73-19.62,8.73h-91.97v-52.64
		c-4.76-9.04-7.8-20.63-14.12-26.95c-9.96-9.95-33.03-11.78-38.51-25c-5.29-12.74,9.55-30.26,9.55-44.91
		c0-14.66-14.84-32.17-9.55-44.92c5.48-13.21,28.55-15.05,38.51-25c9.96-9.96,11.79-33.04,25-38.52
		c12.75-5.28,30.26,9.56,44.92,9.56c14.65,0,32.17-14.84,44.91-9.56c9.24,3.83,12.92,16.26,17.69,26.8
		c2.05,4.54,4.31,8.72,7.31,11.72c9.96,9.95,33.04,11.79,38.52,25C474.111,222.764,459.281,240.274,459.281,254.934z"/>
	<g>
		<path style="fill:#ED3618;" d="M219.241,210.184l-2.62,20l-8.39,63.89c-1.51,11.51-11.31,20.11-22.92,20.11H85.171
			c-11.61,0-21.41-8.6-22.92-20.11l-11.01-83.89l84-22.5L219.241,210.184z"/>
		<path style="fill:#FF491F;" d="M216.621,230.184l-8.39,63.89c-1.51,11.51-11.31,20.11-22.92,20.11h-68.14
			c-11.61,0-21.41-8.6-22.92-20.11l-5.686-43.3c-1.433-10.91,7.06-20.591,18.063-20.591H216.621z"/>
		<path style="fill:#ED3618;" d="M230.741,187.564v12.24c0,5.73-4.65,10.38-10.38,10.38H50.121c-5.73,0-10.38-4.65-10.38-10.38
			v-12.24c0-5.73,4.65-10.38,10.38-10.38h170.24C226.091,177.184,230.741,181.834,230.741,187.564z"/>
		<path style="fill:#FF491F;" d="M230.741,187.564v12.24c0,5.73-4.65,10.38-10.38,10.38H90.121c-5.73,0-10.38-4.65-10.38-10.38
			v-12.24c0-5.73,4.65-10.38,10.38-10.38h130.24C226.091,177.184,230.741,181.834,230.741,187.564z"/>
		<path style="fill:#3C3F4D;" d="M135.241,130.184L135.241,130.184c-9.389,0-17,7.611-17,17v81c0,9.389,7.611,17,17,17h0
			c9.389,0,17-7.611,17-17v-81C152.241,137.796,144.63,130.184,135.241,130.184z"/>
	</g>
	<polygon style="fill:#FF491F;" points="436.191,309.544 436.191,468.534 380.401,429.534 324.601,468.534 324.601,351.794 	"/>
	<path style="fill:#ED3618;" d="M436.191,309.544v63.58c-2.74,5.2-6.05,9.55-10.88,11.55c-12.74,5.29-30.25-9.55-44.91-9.55
		c-14.66,0-32.17,14.84-44.92,9.55c-4.83-2-8.14-6.36-10.88-11.57v-21.31L436.191,309.544z"/>
	<path style="fill:#FFBE1D;" d="M479.279,254.929c0-14.658,14.836-32.17,9.551-44.917c-5.479-13.214-28.554-15.044-38.512-25.002
		c-9.958-9.958-11.788-33.033-25.002-38.512c-12.747-5.286-30.258,9.551-44.917,9.551c-14.658,0-32.17-14.836-44.917-9.551
		c-13.214,5.479-15.044,28.554-25.002,38.512c-9.958,9.958-33.033,11.788-38.512,25.002c-5.286,12.747,9.551,30.258,9.551,44.917
		c0,14.658-14.836,32.17-9.551,44.917c5.479,13.214,28.554,15.044,38.512,25.002c9.958,9.958,11.788,33.033,25.002,38.512
		c12.747,5.286,30.258-9.551,44.917-9.551c14.658,0,32.17,14.836,44.917,9.551c13.214-5.479,15.044-28.554,25.002-38.512
		c9.958-9.958,33.033-11.788,38.512-25.002C494.115,287.099,479.279,269.588,479.279,254.929z"/>
	<circle style="fill:#FFE14D;" cx="380.399" cy="254.929" r="69.919"/>
	<path style="fill:#FFBE1D;" d="M402.899,280.02h-15v-52.236h15c4.142,0,7.5-3.358,7.5-7.5s-3.358-7.5-7.5-7.5h-45
		c-4.142,0-7.5,3.358-7.5,7.5s3.358,7.5,7.5,7.5h15v52.236h-15c-4.142,0-7.5,3.358-7.5,7.5s3.358,7.5,7.5,7.5h45
		c4.142,0,7.5-3.358,7.5-7.5S407.041,280.02,402.899,280.02z"/>
</g>
<g>
</g>
<g>
</g>
<g>
</g>
<g>
</g>
<g>
</g>
<g>
</g>
<g>
</g>
<g>
</g>
<g>
</g>
<g>
</g>
<g>
</g>
<g>
</g>
<g>
</g>
<g>
</g>
<g>
</g>
</svg>
