<?xml version="1.0" encoding="iso-8859-1"?>
<!-- Generator: Adobe Illustrator 19.0.0, SVG Export Plug-In . SVG Version: 6.00 Build 0)  -->
<svg version="1.1" id="Layer_1" xmlns="http://www.w3.org/2000/svg" xmlns:xlink="http://www.w3.org/1999/xlink" x="0px" y="0px"
	 viewBox="0 0 490 490" style="enable-background:new 0 0 490 490;" xml:space="preserve">
<g>
	<path style="fill:#CCCCCC;" d="M457.982,127.16v303.26l-425.97-29.28V127.16c0-21.82,17.68-39.5,39.5-39.5h346.97
		C440.302,87.66,457.982,105.34,457.982,127.16z"/>
	<path style="fill:#E6E6E6;" d="M457.982,127.159v265.98H45.012v-265.98c0-21.82,17.68-39.5,39.5-39.5h333.97
		C440.302,87.659,457.982,105.339,457.982,127.159z"/>
	<path style="fill:#CCCCCC;" d="M370.072,293.419c0,57.87-19.57,86.09-50.36,99.72c-24.52,10.89-56.16,12.51-90.71,12.51
		s-66.19-1.62-90.72-12.51c-30.79-13.63-50.36-41.85-50.36-99.72c0-84.27,41.49-155.61,98.72-179.61h-3.94
		c-3.5,0-6.68-1.42-8.97-3.72c-2.3-2.3-3.72-5.47-3.72-8.98c0-7.01,5.68-12.69,12.69-12.69h9.84c-0.13-0.25-0.25-0.5-0.39-0.76
		h73.69c-0.14,0.26-0.26,0.51-0.39,0.76h9.84c3.51,0,6.68,1.42,8.97,3.72c2.3,2.29,3.72,5.46,3.72,8.97c0,7.01-5.68,12.7-12.69,12.7
		h-3.93C328.572,137.809,370.072,209.149,370.072,293.419z"/>
	<path style="fill:#C4E2F2;" d="M427.982,127.159v243.98H62.012v-243.98c0-5.24,4.26-9.5,9.5-9.5h346.97
		C423.722,117.659,427.982,121.919,427.982,127.159z"/>
	<path style="fill:#83B2C6;" d="M370.072,293.419c0,36.38-7.73,61.03-21.12,77.72h-239.91c-13.39-16.69-21.12-41.34-21.12-77.72
		c0-80.16,37.54-148.62,90.46-175.76h101.24C332.522,144.799,370.072,213.259,370.072,293.419z"/>
	<path style="fill:#FF8E1D;" d="M202.65,113.805c-57.23,23.997-98.73,95.342-98.73,179.619c0,103.97,63.16,112.227,141.08,112.227
		c77.91,0,141.07-8.257,141.07-112.227c0-84.276-41.5-155.621-98.72-179.619l-37.029-15.036"/>
	<path style="fill:#E2720E;" d="M242.88,405.639c-76.94-0.15-138.96-9.2-138.96-112.22c0-84.27,41.5-155.62,98.73-179.61h17.73
		c-33.27,23.99-57.39,95.34-57.39,179.61C162.99,395.769,198.56,405.368,242.88,405.639z"/>
	<path style="fill:#FF8E1D;" d="M281.45,88.419l-39.624,13.175L208.54,88.419c-8.64-17.03-21.55-47.6-9.92-59.22
		c16.28-16.28,45.6,24.4,46.36,25.47c0.01,0.02,0.02,0.02,0.02,0.02s29.88-41.99,46.37-25.49
		C303,40.818,290.09,71.389,281.45,88.419z"/>
	<path style="fill:#E2720E;" d="M231.45,88.419h-22.91c-8.64-17.03-21.55-47.6-9.92-59.22c16.28-16.28,45.6,24.4,46.36,25.47
		c-0.7-0.4-26.06-15.04-31.98-0.25C209.46,63.259,221.21,77.889,231.45,88.419z"/>
	<path style="fill:#ED3618;" d="M303.98,101.108c0,7.01-5.68,12.7-12.69,12.7H198.7c-3.5,0-6.68-1.42-8.97-3.72
		c-2.3-2.3-3.72-5.47-3.72-8.98c0-7.01,5.68-12.69,12.69-12.69h92.59c3.51,0,6.68,1.42,8.97,3.72
		C302.56,94.429,303.98,97.598,303.98,101.108z"/>
	<path style="fill:#FF491F;" d="M303.98,101.108c0,7.01-5.68,12.7-12.69,12.7h-55.92c-3.51,0-6.68-1.42-8.97-3.72
		c-2.3-2.3-3.72-5.47-3.72-8.98c0-7.01,5.68-12.69,12.69-12.69h55.92c3.51,0,6.68,1.42,8.97,3.72
		C302.56,94.429,303.98,97.598,303.98,101.108z"/>
	<path style="fill:#E2720E;" d="M276.97,266.248c-6.106-6.318-14.418-10.028-21.759-12.82v-44.013
		c7.344,0.822,12.008,3.191,15.422,4.925c2.149,1.091,3.847,1.954,5.367,1.954c4.634,0,7.162-5.999,7.162-9.081
		c0-3.613-3.534-6.806-10.22-9.235c-4.915-1.785-11.208-3.037-17.73-3.527v-9.316c0-4.205-3.42-7.625-7.625-7.625
		s-7.625,3.42-7.625,7.625v9.832c-6.156,0.804-14.888,2.907-21.76,8.355c-7.547,5.984-11.374,14.657-11.374,25.778
		c0,11.035,3.721,19.394,11.375,25.553c6.106,4.915,13.775,7.846,21.758,10.65v51.282c-12.648-1.261-19-7.277-23.211-11.266
		c-2.39-2.264-4.117-3.899-6.025-3.899c-3.787,0-7.353,5.116-7.353,9.081c0,8.07,14.25,20.572,36.589,21.846v10.216
		c0,4.205,3.42,7.625,7.625,7.625s7.625-3.42,7.625-7.625v-11.112c9.194-1.671,16.573-5.433,21.932-11.18
		c6.287-6.743,9.475-15.908,9.475-27.241C286.618,281.727,283.462,272.967,276.97,266.248z M270.759,294.566
		c0,6.161-1.683,11.175-5,14.905c-2.569,2.888-6.116,4.964-10.547,6.174v-44.238c4.336,2.097,7.6,4.399,9.972,7.032
		C268.935,282.604,270.759,287.879,270.759,294.566z M222.687,227.563c0-5.369,1.844-9.648,5.481-12.719
		c2.861-2.416,6.829-4.093,11.794-4.986v38.007C229.291,243.578,222.687,238.662,222.687,227.563z"/>
	<path style="fill:#CCCCCC;" d="M490,401.143v10.51c0,29.26-23.72,52.99-52.99,52.99H52.98c-29.26,0-52.98-23.73-52.98-52.99v-10.51
		H490z"/>
	<path style="fill:#E6E6E6;" d="M490,401.143v10.51c0,29.26-23.72,52.99-52.99,52.99H144.48c-29.27,0-52.99-23.73-52.99-52.99
		v-10.51H490z"/>
	<path style="fill:#CCCCCC;" d="M273.314,431.142h-56.628c-13.77,0-24.933-11.163-24.933-24.933v-5.065h106.495v5.065
		C298.247,419.979,287.084,431.142,273.314,431.142z"/>
</g>
<g>
</g>
<g>
</g>
<g>
</g>
<g>
</g>
<g>
</g>
<g>
</g>
<g>
</g>
<g>
</g>
<g>
</g>
<g>
</g>
<g>
</g>
<g>
</g>
<g>
</g>
<g>
</g>
<g>
</g>
</svg>
