<?xml version="1.0" encoding="iso-8859-1"?>
<!-- Generator: Adobe Illustrator 19.0.0, SVG Export Plug-In . SVG Version: 6.00 Build 0)  -->
<svg version="1.1" id="Layer_1" xmlns="http://www.w3.org/2000/svg" xmlns:xlink="http://www.w3.org/1999/xlink" x="0px" y="0px"
	 viewBox="0 0 490.001 490.001" style="enable-background:new 0 0 490.001 490.001;" xml:space="preserve">
<g>
	<path style="fill:#2C92BF;" d="M380.107,89.93v361.9c0,21.08-17.09,38.17-38.17,38.17H38.277c-21.08,0-38.17-17.09-38.17-38.17
		V89.93c0-21.08,17.09-38.17,38.17-38.17h127.93c0,13.21,10.7,23.91,23.9,23.91c13.21,0,23.91-10.7,23.91-23.91h127.92
		C363.017,51.76,380.107,68.85,380.107,89.93z"/>
	<rect x="242.327" y="354" style="fill:#1F81A3;" width="85.78" height="136"/>
	<rect x="52.107" y="99.27" style="fill:#E6E6E6;" width="276" height="330"/>
	<path style="fill:#FFE14D;" d="M238.457,33.27C231.007,13.82,212.177,0,190.107,0c-22.07,0-40.9,13.82-48.34,33.27h-38.093
		c-8.597,0-15.567,6.97-15.567,15.567v80.433h204V48.837c0-8.597-6.97-15.567-15.567-15.567H238.457z M190.107,75.67
		c-13.2,0-23.9-10.7-23.9-23.91c0-13.2,10.7-23.9,23.9-23.9c13.21,0,23.91,10.7,23.91,23.9
		C214.017,64.97,203.317,75.67,190.107,75.67z"/>
	<rect x="242.327" y="293.27" style="fill:#CCCCCC;" width="85.78" height="136"/>
	<rect x="267.379" y="293.27" style="fill:#FF8E1D;" width="222.515" height="196.731"/>
	<polygon style="fill:#FF491F;" points="417.636,387.27 378.636,365.27 339.636,387.27 339.636,293.27 417.636,293.27 	"/>
	<path style="fill:#FFBE1D;" d="M190.107,83.17c-17.314,0-31.4-14.09-31.4-31.41c0-17.314,14.086-31.4,31.4-31.4
		c17.319,0,31.41,14.086,31.41,31.4C221.517,69.08,207.427,83.17,190.107,83.17z M190.107,35.36c-9.043,0-16.4,7.357-16.4,16.4
		c0,9.048,7.357,16.41,16.4,16.41c9.048,0,16.41-7.361,16.41-16.41C206.517,42.717,199.156,35.36,190.107,35.36z"/>
	<path style="fill:#FF491F;" d="M107.896,236.77c-2.599,0-5.021-1.348-6.389-3.573l-17-27.657
		c-2.169-3.529-1.066-8.148,2.462-10.317c3.529-2.168,8.148-1.066,10.317,2.462l10.083,16.404l16.881-32.294
		c1.919-3.67,6.449-5.091,10.121-3.172c3.671,1.919,5.091,6.45,3.172,10.121l-23,44c-1.25,2.392-3.689,3.927-6.386,4.021
		C108.07,236.769,107.983,236.77,107.896,236.77z"/>
	<path style="fill:#3C3F4D;" d="M256.895,214.77h-95.998c-4.142,0-7.5-3.358-7.5-7.5s3.358-7.5,7.5-7.5h95.998
		c4.143,0,7.5,3.358,7.5,7.5S261.038,214.77,256.895,214.77z"/>
	<path style="fill:#FF491F;" d="M107.896,322.31c-2.599,0-5.021-1.348-6.389-3.573l-17-27.657
		c-2.169-3.529-1.066-8.148,2.462-10.317c3.529-2.168,8.148-1.066,10.317,2.462l10.083,16.404l16.881-32.294
		c1.919-3.67,6.449-5.091,10.121-3.172c3.671,1.919,5.091,6.45,3.172,10.121l-23,44c-1.25,2.392-3.689,3.927-6.386,4.021
		C108.07,322.309,107.983,322.31,107.896,322.31z"/>
	<path style="fill:#3C3F4D;" d="M256.895,300.311h-95.998c-4.142,0-7.5-3.358-7.5-7.5s3.358-7.5,7.5-7.5h95.998
		c4.143,0,7.5,3.358,7.5,7.5S261.038,300.311,256.895,300.311z"/>
	<polygon style="fill:#E2720E;" points="267.379,490.001 378.636,468.27 489.894,490.001 	"/>
</g>
<g>
</g>
<g>
</g>
<g>
</g>
<g>
</g>
<g>
</g>
<g>
</g>
<g>
</g>
<g>
</g>
<g>
</g>
<g>
</g>
<g>
</g>
<g>
</g>
<g>
</g>
<g>
</g>
<g>
</g>
</svg>
