<?xml version="1.0" encoding="iso-8859-1"?>
<!-- Generator: Adobe Illustrator 19.0.0, SVG Export Plug-In . SVG Version: 6.00 Build 0)  -->
<svg version="1.1" id="Layer_1" xmlns="http://www.w3.org/2000/svg" xmlns:xlink="http://www.w3.org/1999/xlink" x="0px" y="0px"
	 viewBox="0 0 490.005 490.005" style="enable-background:new 0 0 490.005 490.005;" xml:space="preserve">
<g>
	<path style="fill:#C4E2F2;" d="M490.005,42.502v330.14c0,14.6-11.83,26.43-26.43,26.43H26.435c-14.6,0-26.43-11.83-26.43-26.43
		V42.502c0-14.6,11.83-26.43,26.43-26.43h437.14C478.175,16.072,490.005,27.902,490.005,42.502z"/>
	<polygon style="fill:#83B2C6;" points="439.286,348.471 295.135,399.072 55.576,399.072 28.945,323.211 386.375,197.752 	"/>
	<path style="fill:#83B2C6;" d="M490.001,42.498v31.57H0v-31.57c0-14.6,11.83-26.43,26.43-26.43h437.142
		C478.171,16.068,490.001,27.898,490.001,42.498z"/>
	<path style="fill:#E6E6E6;" d="M396.869,213.25c-1.134,0-2.283-0.257-3.365-0.802l-131.1-65.96c-3.7-1.862-5.19-6.371-3.329-10.071
		c1.863-3.7,6.371-5.19,10.071-3.329l131.1,65.96c3.7,1.862,5.19,6.371,3.329,10.071C402.256,211.738,399.613,213.25,396.869,213.25
		z"/>
	<path style="fill:#E6E6E6;" d="M55.944,335.718c-1.858,0-3.719-0.686-5.171-2.068c-3-2.856-3.116-7.604-0.26-10.604l172.85-181.53
		c2.857-3,7.604-3.115,10.604-0.26c3,2.856,3.116,7.604,0.26,10.604L61.377,333.39C59.903,334.938,57.924,335.718,55.944,335.718z"
		/>
	<g>
		<path style="fill:#E6E6E6;" d="M34.996,54.571c-3.205,0-6.104-2.13-7.111-5.155c-1.03-3.094,0.13-6.607,2.8-8.479
			c5.55-3.89,13.258,1.333,11.588,7.952C41.441,52.186,38.398,54.571,34.996,54.571z"/>
		<path style="fill:#E6E6E6;" d="M85.996,54.571c-6.866,0-10.091-8.94-4.753-13.301c2.369-1.935,5.748-2.228,8.42-0.743
			c2.862,1.59,4.367,4.994,3.651,8.184C92.556,52.086,89.46,54.571,85.996,54.571z"/>
		<path style="fill:#E6E6E6;" d="M60.496,54.571c-6.886,0-10.089-8.929-4.753-13.301c2.528-2.071,6.204-2.246,8.923-0.439
			c2.705,1.798,3.944,5.271,3.015,8.376C66.739,52.351,63.782,54.571,60.496,54.571z"/>
	</g>
	
		<rect x="61.709" y="255.973" transform="matrix(0.9436 -0.3312 0.3312 0.9436 -97.0619 102.1289)" style="fill:#FF491F;" width="378.809" height="159.739"/>
	<g>
		<path style="fill:#FFFFFF;" d="M148.166,381.292c-1.322-0.504-2.957-0.344-5.466,0.536c-4.16,1.46-5.828,3.519-5.101,6.293
			c0.894,3.349,2.244,8.41-4.309,10.71c-2.401,0.844-4.485,0.821-6.195-0.067c-1.768-0.917-3.15-2.769-4.109-5.503l-7.719-21.989
			c-0.959-2.73-1.04-5.039-0.242-6.861c0.77-1.757,2.357-3.069,4.721-3.898c6.99-2.454,9.066,2.819,9.85,4.805
			c1.083,2.61,3.775,3.18,7.998,1.698c4.273-1.5,6.239-3.311,4.394-8.572c-1.783-5.08-5.355-8.604-10.329-10.192
			c-4.744-1.514-10.435-1.198-16.453,0.914c-5.831,2.047-10.168,5.305-12.542,9.421c-2.744,4.757-2.938,10.582-0.576,17.312
			l7.719,21.988c2.362,6.729,6.154,11.155,11.27,13.154c2.021,0.79,4.251,1.184,6.633,1.184c2.832,0,5.879-0.558,9.046-1.669
			c6.015-2.112,10.626-5.501,13.336-9.801c2.835-4.5,3.348-9.691,1.48-15.011C150.698,383.26,149.616,381.846,148.166,381.292z"/>
		<path style="fill:#FFFFFF;" d="M200.297,376.797c-1.118-0.946-2.345-1.222-3.54-0.803l-18.801,6.6l-15.92-45.352
			c-0.458-1.304-1.553-2.117-3.167-2.349c-1.37-0.197-3.087,0.031-4.833,0.644c-1.747,0.613-3.229,1.507-4.176,2.518
			c-1.115,1.19-1.462,2.509-1.004,3.813l18.524,52.772c0.447,1.273,1.45,2.12,2.901,2.448c0.441,0.1,0.913,0.149,1.403,0.149
			c0.924,0,1.914-0.175,2.894-0.519l26.221-9.204c1.198-0.42,1.98-1.402,2.263-2.84c0.247-1.256,0.094-2.773-0.433-4.272
			C202.103,378.904,201.275,377.623,200.297,376.797z"/>
		<path style="fill:#FFFFFF;" d="M239.562,327.642c-4.46-12.704-14.211-17.139-27.445-12.494c-6.167,2.165-10.529,5.385-12.967,9.57
			c-2.75,4.721-2.939,10.544-0.565,17.308l7.719,21.989c2.375,6.764,6.163,11.191,11.26,13.157c2.014,0.777,4.207,1.165,6.564,1.165
			c2.933,0,6.121-0.6,9.538-1.8c13.239-4.647,18.074-14.203,13.615-26.907L239.562,327.642z M216.161,326.669
			c1.139-0.4,2.206-0.6,3.197-0.6c1.05,0,2.014,0.224,2.883,0.672c1.782,0.917,3.176,2.776,4.141,5.527l7.719,21.988
			c1.879,5.351,0.33,9.072-4.479,10.759c-2.335,0.82-4.366,0.791-6.038-0.086c-1.752-0.92-3.132-2.785-4.1-5.542l-7.719-21.989
			c-0.968-2.757-1.057-5.075-0.264-6.888C212.258,328.781,213.826,327.489,216.161,326.669z"/>
		<path style="fill:#FFFFFF;" d="M274.036,318.694c-5.6-0.436-10.022-0.779-11.121-3.91c-0.472-1.343-0.227-2.733,0.71-4.019
			c1.081-1.484,3.073-2.768,5.763-3.712c4.066-1.428,6.641-1.063,8.709-0.77c1.366,0.193,2.546,0.36,3.766-0.068
			c3.674-1.289,3.654-6.431,2.834-8.77c-1-2.847-3.984-4.139-8.867-3.842c-4.412,0.269-9.052,1.798-10.368,2.26
			c-5.675,1.992-10.36,5.209-13.193,9.058c-3.375,4.585-4.1,10.025-2.096,15.734c3.991,11.37,14.577,12.403,23.082,13.233
			c6.172,0.603,11.501,1.123,12.948,5.248c0.627,1.786,0.263,3.474-1.083,5.018c-1.118,1.283-2.882,2.392-4.966,3.124
			c-4.471,1.57-7.962,0.417-10.767-0.507c-2.057-0.678-3.835-1.265-5.494-0.682c-3.287,1.154-4.251,6.322-3.272,9.11
			c1.297,3.693,6.532,5.764,12.92,5.763c3.482,0,7.309-0.616,11.022-1.919c6.104-2.143,10.699-5.604,13.29-10.008
			c2.716-4.618,3.084-10.1,1.064-15.853C294.386,320.276,283.102,319.399,274.036,318.694z"/>
		<path style="fill:#FFFFFF;" d="M347.519,323.072l-22.12,7.765l-4.868-13.87l12.327-4.328c2.761-0.969,3.105-4.009,2.259-6.424
			c-0.904-2.573-3.202-4.695-5.836-3.769l-12.329,4.328l-4.839-13.787l22.119-7.765c2.365-0.831,3.174-3.813,1.967-7.253
			c-0.513-1.46-1.324-2.705-2.286-3.506c-1.145-0.953-2.434-1.216-3.724-0.762l-29.54,10.37c-1.5,0.526-2.773,1.378-3.586,2.397
			c-0.928,1.164-1.182,2.452-0.735,3.726l18.496,52.689c0.447,1.273,1.45,2.12,2.901,2.449c0.441,0.1,0.913,0.149,1.404,0.149
			c0.923,0,1.914-0.175,2.893-0.519l29.54-10.37c2-0.702,3.401-3.166,2.025-7.088C352.379,324.064,349.882,322.242,347.519,323.072z
			"/>
		<path style="fill:#FFFFFF;" d="M400.024,295.454l-7.544-21.491c-4.46-12.704-14.208-17.14-27.444-12.494l-14.688,5.156
			c-1.626,0.571-2.957,1.515-3.747,2.657c-0.766,1.107-0.979,2.309-0.603,3.383l18.554,52.855c0.377,1.074,1.295,1.877,2.585,2.264
			c0.541,0.162,1.132,0.242,1.751,0.242c0.903,0,1.87-0.171,2.834-0.51l14.688-5.156c6.175-2.167,10.551-5.392,13.008-9.583
			C402.193,308.042,402.397,302.214,400.024,295.454z M387.055,306.952c-0.779,1.761-2.357,3.069-4.689,3.887l-7.268,2.551
			l-13.286-37.85l7.267-2.551c4.812-1.688,8.345,0.249,10.222,5.6l7.544,21.491C387.799,302.8,387.87,305.111,387.055,306.952z"/>
	</g>
	<circle style="fill:#3C3F4D;" cx="245" cy="136.04" r="22.535"/>
	<path style="fill:#3C3F4D;" d="M157.573,129.036H46.579c-4.143,0-7.5-3.358-7.5-7.5s3.357-7.5,7.5-7.5h110.994
		c4.143,0,7.5,3.358,7.5,7.5S161.715,129.036,157.573,129.036z"/>
	<path style="fill:#3C3F4D;" d="M118.575,163.534H46.579c-4.143,0-7.5-3.358-7.5-7.5s3.357-7.5,7.5-7.5h71.996
		c4.143,0,7.5,3.358,7.5,7.5S122.717,163.534,118.575,163.534z"/>
</g>
<g>
</g>
<g>
</g>
<g>
</g>
<g>
</g>
<g>
</g>
<g>
</g>
<g>
</g>
<g>
</g>
<g>
</g>
<g>
</g>
<g>
</g>
<g>
</g>
<g>
</g>
<g>
</g>
<g>
</g>
</svg>
