<?xml version="1.0" encoding="iso-8859-1"?>
<!-- Generator: Adobe Illustrator 19.0.0, SVG Export Plug-In . SVG Version: 6.00 Build 0)  -->
<svg version="1.1" id="Layer_1" xmlns="http://www.w3.org/2000/svg" xmlns:xlink="http://www.w3.org/1999/xlink" x="0px" y="0px"
	 viewBox="0 0 490.003 490.003" style="enable-background:new 0 0 490.003 490.003;" xml:space="preserve">
<g>
	<polygon style="fill:#2D303B;" points="343.833,437.092 245.003,459.612 146.163,437.092 159.703,380.372 240.803,350.552 
		330.293,380.372 334.673,398.732 	"/>
	<path style="fill:#C4E2F2;" d="M490.003,66.252v271.6c0,23.48-19.04,42.52-42.52,42.52H42.513c-23.48,0-42.51-19.04-42.51-42.52
		v-271.6H490.003z"/>
	<path style="fill:#3C3F4D;" d="M490.003,332.852v5c0,23.48-19.04,42.52-42.52,42.52H42.513c-23.48,0-42.51-19.04-42.51-42.52v-5
		H490.003z"/>
	<path style="fill:#83B2C6;" d="M449.722,31.421H392h-98h-98H98H40.278C18.033,31.421,0,49.454,0,71.699v44.402
		c0,27.062,21.938,49,49,49h0c27.062,0,49-21.938,49-49c0,27.062,21.938,49,49,49h0c27.062,0,49-21.938,49-49
		c0,27.062,21.938,49,49,49h0c27.062,0,49-21.938,49-49c0,27.062,21.938,49,49,49h0c27.062,0,49-21.938,49-49
		c0,27.062,21.938,49,49,49h0c27.062,0,49-21.938,49-49V71.699C490,49.454,471.967,31.421,449.722,31.421z"/>
	<path style="fill:#FF491F;" d="M449.722,7.861H392h-98h-98H98H40.278C18.033,7.861,0,25.894,0,48.14v44.402
		c0,27.062,21.938,49,49,49h0c27.062,0,49-21.938,49-49c0,27.062,21.938,49,49,49h0c27.062,0,49-21.938,49-49
		c0,27.062,21.938,49,49,49h0c27.062,0,49-21.938,49-49c0,27.062,21.938,49,49,49h0c27.062,0,49-21.938,49-49
		c0,27.062,21.938,49,49,49h0c27.062,0,49-21.938,49-49V48.14C490,25.894,471.967,7.861,449.722,7.861z"/>
	<path style="fill:#ED3618;" d="M60.253,140.232c-0.45,0.11-0.91,0.21-1.36,0.3c-0.92,0.19-1.84,0.35-2.77,0.49
		c-0.93,0.13-1.87,0.25-2.81,0.33c-0.83,0.07-1.67,0.13-2.51,0.15c-0.18,0.01-0.36,0.02-0.54,0.02c-0.42,0.01-0.84,0.02-1.26,0.02
		c-27.07,0-49-21.94-49-49v-44.4c0-15.87,9.17-29.59,22.5-36.15v80.55C22.503,115.732,38.613,135.142,60.253,140.232z"/>
	<path style="fill:#E6E6E6;" d="M147,141.541L147,141.541c-27.062,0-49-21.938-49-49V7.861h98v84.68
		C196,119.603,174.062,141.541,147,141.541z"/>
	<path style="fill:#CCCCCC;" d="M120.499,92.542V7.861H98v84.68c0,27.062,21.938,49,49,49h0c3.873,0,7.636-0.463,11.249-1.313
		C136.612,135.143,120.499,115.73,120.499,92.542z"/>
	<path style="fill:#ED3618;" d="M218.499,92.542V7.861H196v84.68c0,27.062,21.938,49,49,49h0c3.873,0,7.636-0.463,11.249-1.313
		C234.612,135.143,218.499,115.73,218.499,92.542z"/>
	<path style="fill:#ED3618;" d="M414.499,92.542V7.861H392v84.68c0,27.062,21.938,49,49,49h0c3.873,0,7.636-0.463,11.249-1.313
		C430.612,135.143,414.499,115.73,414.499,92.542z"/>
	<path style="fill:#E6E6E6;" d="M343,141.541L343,141.541c-27.062,0-49-21.938-49-49V7.861h98v84.68
		C392,119.603,370.062,141.541,343,141.541z"/>
	<path style="fill:#CCCCCC;" d="M316.499,92.542V7.861H294v84.68c0,27.062,21.938,49,49,49h0c3.873,0,7.636-0.463,11.249-1.313
		C332.612,135.143,316.499,115.73,316.499,92.542z"/>
	<polygon style="fill:#3C3F4D;" points="343.833,437.092 192.663,437.092 201.823,398.732 334.673,398.732 	"/>
	<path style="fill:#2D303B;" d="M402.083,468.672v13.47H87.923v-13.47c0-17.44,14.14-31.58,31.58-31.58h251
		C387.943,437.092,402.083,451.232,402.083,468.672z"/>
	<path style="fill:#3C3F4D;" d="M402.083,468.672v13.47h-260.17v-13.47c0-17.44,14.14-31.58,31.59-31.58h197
		C387.943,437.092,402.083,451.232,402.083,468.672z"/>
	<polygon style="fill:#FFE14D;" points="219.077,195.697 182.125,175.737 80.13,175.737 43.178,195.697 63.138,232.648 
		80.13,223.47 80.13,295.731 182.125,295.731 182.125,223.47 199.117,232.648 	"/>
	<path style="fill:#FFBE1D;" d="M96.127,175.741c0,19.33,15.67,35,35,35s35-15.67,35-35"/>
	<path style="fill:#3C3F4D;" d="M295.617,211.238h-37.498c-4.142,0-7.5-3.358-7.5-7.5s3.358-7.5,7.5-7.5h37.498
		c4.142,0,7.5,3.358,7.5,7.5S299.759,211.238,295.617,211.238z"/>
	<path style="fill:#3C3F4D;" d="M445.61,211.238H325.314c-4.142,0-7.5-3.358-7.5-7.5s3.358-7.5,7.5-7.5H445.61
		c4.142,0,7.5,3.358,7.5,7.5S449.752,211.238,445.61,211.238z"/>
	<path style="fill:#3C3F4D;" d="M295.617,245.737h-37.498c-4.142,0-7.5-3.358-7.5-7.5s3.358-7.5,7.5-7.5h37.498
		c4.142,0,7.5,3.358,7.5,7.5S299.759,245.737,295.617,245.737z"/>
	<path style="fill:#3C3F4D;" d="M445.61,245.737H325.314c-4.142,0-7.5-3.358-7.5-7.5s3.358-7.5,7.5-7.5H445.61
		c4.142,0,7.5,3.358,7.5,7.5S449.752,245.737,445.61,245.737z"/>
	<path style="fill:#3C3F4D;" d="M295.617,280.235h-37.498c-4.142,0-7.5-3.358-7.5-7.5s3.358-7.5,7.5-7.5h37.498
		c4.142,0,7.5,3.358,7.5,7.5S299.759,280.235,295.617,280.235z"/>
	<path style="fill:#3C3F4D;" d="M445.61,280.235H325.314c-4.142,0-7.5-3.358-7.5-7.5s3.358-7.5,7.5-7.5H445.61
		c4.142,0,7.5,3.358,7.5,7.5S449.752,280.235,445.61,280.235z"/>
</g>
<g>
</g>
<g>
</g>
<g>
</g>
<g>
</g>
<g>
</g>
<g>
</g>
<g>
</g>
<g>
</g>
<g>
</g>
<g>
</g>
<g>
</g>
<g>
</g>
<g>
</g>
<g>
</g>
<g>
</g>
</svg>
