<?xml version="1.0" encoding="iso-8859-1"?>
<!-- Generator: Adobe Illustrator 19.0.0, SVG Export Plug-In . SVG Version: 6.00 Build 0)  -->
<svg version="1.1" id="Layer_1" xmlns="http://www.w3.org/2000/svg" xmlns:xlink="http://www.w3.org/1999/xlink" x="0px" y="0px"
	 viewBox="0 0 490 490" style="enable-background:new 0 0 490 490;" xml:space="preserve">
<g>
	<circle style="fill:#3C3F4D;" cx="384.18" cy="402.996" r="58.822"/>
	<path style="fill:#E6E6E6;" d="M384.18,428.268c-13.936,0-25.273-11.337-25.273-25.272c0-13.936,11.337-25.273,25.273-25.273
		s25.273,11.337,25.273,25.273C409.453,416.931,398.116,428.268,384.18,428.268z"/>
	<g>
		<polygon style="fill:#FFE14D;" points="250.454,99.141 25.133,99.141 25.133,302.054 250.454,319.467 		"/>
		<rect x="25.133" y="157.648" style="fill:#FFBE1D;" width="225.32" height="23.306"/>
		<path style="fill:#FF491F;" d="M165.803,99.141c0-15.469-12.54-28.009-28.009-28.009s-28.009,12.54-28.009,28.009"/>
		<path style="fill:#FF491F;" d="M79.305,28.183L79.305,28.183c19.595,0,35.479,15.885,35.479,35.479v35.479H79.305
			c-19.595,0-35.479-15.885-35.479-35.479v0C43.826,44.067,59.711,28.183,79.305,28.183z"/>
		<path style="fill:#FF491F;" d="M196.282,28.183L196.282,28.183c-19.595,0-35.479,15.885-35.479,35.479v35.479h35.479
			c19.595,0,35.479-15.885,35.479-35.479v0C231.761,44.067,215.876,28.183,196.282,28.183z"/>
		<rect x="109.784" y="99.141" style="fill:#FF491F;" width="56.019" height="202.913"/>
	</g>
	<circle style="fill:#3C3F4D;" cx="102.182" cy="402.996" r="58.822"/>
	<path style="fill:#E6E6E6;" d="M300.003,302.054H0v100.942h27.803c0-41.078,33.3-74.378,74.378-74.378s74.378,33.3,74.378,74.378
		h104.844L300.003,302.054z"/>
	<path style="fill:#2C92BF;" d="M281.404,302.054V143.346c0-11.506,9.328-20.834,20.834-20.834h110.731
		c19.086,0,36.204,11.745,43.072,29.551l32.18,83.428c1.177,3.051,1.78,6.292,1.78,9.562v157.943h-31.441
		c0-41.078-33.3-74.378-74.378-74.378s-74.378,33.3-74.378,74.378h-28.398"/>
	<path style="fill:#E6E6E6;" d="M102.181,428.268c-13.936,0-25.273-11.337-25.273-25.272c0-13.936,11.337-25.273,25.273-25.273
		s25.273,11.337,25.273,25.273C127.454,416.931,116.117,428.268,102.181,428.268z"/>
	<path style="fill:#C4E2F2;" d="M456.838,240.109H312.355v-86.653h100.61c6.251,0,11.956,3.92,14.205,9.748L456.838,240.109z"/>
	<g>
		<path style="fill:#CCCCCC;" d="M252.778,346.873h-52.608c-4.143,0-7.5-3.358-7.5-7.5s3.357-7.5,7.5-7.5h52.608
			c4.143,0,7.5,3.358,7.5,7.5S256.92,346.873,252.778,346.873z"/>
		<path style="fill:#CCCCCC;" d="M252.778,373.177h-52.608c-4.143,0-7.5-3.358-7.5-7.5s3.357-7.5,7.5-7.5h52.608
			c4.143,0,7.5,3.358,7.5,7.5S256.92,373.177,252.778,373.177z"/>
	</g>
	<path style="fill:#3C3F4D;" d="M344.068,277.06h-31.713c-4.143,0-7.5-3.358-7.5-7.5s3.357-7.5,7.5-7.5h31.713
		c4.143,0,7.5,3.358,7.5,7.5S348.21,277.06,344.068,277.06z"/>
</g>
<g>
</g>
<g>
</g>
<g>
</g>
<g>
</g>
<g>
</g>
<g>
</g>
<g>
</g>
<g>
</g>
<g>
</g>
<g>
</g>
<g>
</g>
<g>
</g>
<g>
</g>
<g>
</g>
<g>
</g>
</svg>
