<?xml version="1.0" encoding="iso-8859-1"?>
<!-- Generator: Adobe Illustrator 19.0.0, SVG Export Plug-In . SVG Version: 6.00 Build 0)  -->
<svg version="1.1" id="Layer_1" xmlns="http://www.w3.org/2000/svg" xmlns:xlink="http://www.w3.org/1999/xlink" x="0px" y="0px"
	 viewBox="0 0 489.615 489.615" style="enable-background:new 0 0 489.615 489.615;" xml:space="preserve">
<g>
	<path style="fill:#C4E2F2;" d="M254.432,314.638v130.587c0,14.6-11.83,26.43-26.43,26.43H26.459c-14.6,0-26.43-11.83-26.43-26.43
		V314.638c0-14.6,11.83-26.43,26.43-26.43h201.543C242.602,288.208,254.432,300.038,254.432,314.638z"/>
	<path style="fill:#83B2C6;" d="M254.432,314.638v31.57H0.029v-31.57c0-14.6,11.83-26.43,26.43-26.43h201.543
		C242.602,288.208,254.432,300.038,254.432,314.638z"/>
	<g>
		<path style="fill:#E6E6E6;" d="M35.031,326.706c-2.938,0-5.66-1.785-6.855-4.462c-1.337-2.997-0.499-6.638,2.007-8.753
			c5.144-4.341,13.277,0.097,12.263,6.818C41.899,323.936,38.706,326.706,35.031,326.706z"/>
		<path style="fill:#E6E6E6;" d="M86.031,326.706c-6.757,0-10.03-8.635-4.986-13.103c5.133-4.547,13.394-0.065,12.404,6.689
			C92.916,323.926,89.711,326.706,86.031,326.706z"/>
		<path style="fill:#E6E6E6;" d="M60.531,326.706c-3.201,0-6.118-2.105-7.116-5.145c-1-3.046,0.083-6.547,2.709-8.418
			c5.539-3.948,13.383,1.183,11.674,7.891C66.959,324.328,63.937,326.706,60.531,326.706z"/>
	</g>
	<g>
		<path style="fill:#2C92BF;" d="M437.421,411.315h-23.169c-4.142,0-7.5-3.358-7.5-7.5s3.358-7.5,7.5-7.5h23.169
			c3.014,0,5.467-2.452,5.467-5.466v-11.771c0-4.142,3.358-7.5,7.5-7.5s7.5,3.358,7.5,7.5v11.771
			C457.887,402.134,448.706,411.315,437.421,411.315z"/>
		<path style="fill:#2C92BF;" d="M457.885,307.077h-15v-104c0-2.337-0.068-4.683-0.203-6.974l14.975-0.88
			c0.151,2.582,0.229,5.224,0.229,7.854V307.077z"/>
		<path style="fill:#2C92BF;" d="M211.271,300.634h-15v-62.603c0-72.127,58.68-130.807,130.807-130.807
			c23.622,0,46.765,6.363,66.927,18.401c0.141,0.084,0.28,0.173,0.415,0.267l24.651,17.012l-8.52,12.346l-24.445-16.87
			c-17.789-10.57-38.195-16.155-59.028-16.155c-63.856,0-115.807,51.951-115.807,115.807V300.634z"/>
		<path style="fill:#FFDCB6;" d="M422.001,211.077v132.241c0,52.425-42.499,94.923-94.923,94.923h0
			c-52.425,0-94.923-42.499-94.923-94.923v-94.924"/>
		<path style="fill:#EDC59D;" d="M326.404,438.237c-25.947-0.174-49.411-10.764-66.448-27.795
			c-17.178-17.184-27.802-40.909-27.802-67.124v-94.926h42.737v94.926c0,26.215,5.837,49.94,15.283,67.124
			C299.472,427.352,312.258,437.909,326.404,438.237z"/>
		<path style="fill:#FF491F;" d="M327.078,393.713c-10.082,0-20.164-3.838-27.839-11.513c-2.929-2.929-2.929-7.678,0-10.606
			c2.929-2.929,7.678-2.929,10.606,0c9.501,9.501,24.963,9.502,34.465,0c2.929-2.929,7.678-2.929,10.606,0
			c2.929,2.929,2.929,7.678,0,10.606C347.241,389.875,337.159,393.713,327.078,393.713z"/>
		<g>
			<path style="fill:#2D303B;" d="M369.107,335.241c-4.142,0-7.5-3.358-7.5-7.5v-21.442c0-4.142,3.358-7.5,7.5-7.5
				s7.5,3.358,7.5,7.5v21.442C376.607,331.883,373.249,335.241,369.107,335.241z"/>
			<path style="fill:#2D303B;" d="M285.048,335.241c-4.142,0-7.5-3.358-7.5-7.5v-21.442c0-4.142,3.358-7.5,7.5-7.5
				s7.5,3.358,7.5,7.5v21.442C292.548,331.883,289.19,335.241,285.048,335.241z"/>
		</g>
		<path style="fill:#3C3F4D;" d="M462.209,126.211c-15.226-0.047-27.583,12.281-27.583,27.496c0-15.186-12.31-27.496-27.496-27.496
			c-15.186,0-27.496,12.311-27.496,27.496h-87.255c-33.261,0-60.225,26.964-60.225,60.225v23.199v11.263v41.777
			c35.024,0.75,29.402-41.777,29.402-41.777h133.376c51.977,0,94.172-41.88,94.682-93.736
			C489.764,139.385,477.482,126.258,462.209,126.211z"/>
		<path style="fill:#2D303B;" d="M413.686,127.121c-2.244-0.592-4.599-0.91-7.029-0.91c-15.186,0-27.496,12.311-27.496,27.496
			h14.058C393.219,140.952,401.906,130.228,413.686,127.121z"/>
		<path style="fill:#2D303B;" d="M469.151,127.121c-2.244-0.592-4.599-0.91-7.029-0.91c-15.186,0-27.496,12.311-27.496,27.496
			h14.058C448.684,140.952,457.371,130.228,469.151,127.121z"/>
		<path style="fill:#2D303B;" d="M292.376,153.708h24.1c-33.257,0-60.222,26.965-60.222,60.222v64.353
			c-4.237,6.882-11.568,12.157-24.1,11.889V213.93C232.154,180.673,259.119,153.708,292.376,153.708z"/>
		<g>
			<path style="fill:#ED3618;" d="M232.155,300.634v58.733c0,9.033-6.073,16.646-14.364,18.968c-1.7,0.487-3.495,0.742-5.347,0.742
				h-7.661c-10.885,0-19.711-8.826-19.711-19.711v-58.733c0-10.885,8.826-19.711,19.711-19.711h7.661
				c1.851,0,3.647,0.255,5.347,0.742C226.082,283.988,232.155,291.601,232.155,300.634z"/>
			<path style="fill:#FF491F;" d="M232.155,300.634v58.733c0,9.033-6.073,16.646-14.364,18.968
				c-8.291-2.322-14.364-9.935-14.364-18.968v-58.733c0-9.033,6.073-16.646,14.364-18.968
				C226.082,283.988,232.155,291.601,232.155,300.634z"/>
		</g>
		<g>
			<path style="fill:#ED3618;" d="M469.084,300.634v58.733c0,9.033-6.073,16.646-14.364,18.968c-1.7,0.487-3.495,0.742-5.347,0.742
				h-7.661c-10.885,0-19.711-8.826-19.711-19.711v-58.733c0-10.885,8.826-19.711,19.711-19.711h7.661
				c1.851,0,3.647,0.255,5.347,0.742C463.011,283.988,469.084,291.601,469.084,300.634z"/>
			<path style="fill:#FF491F;" d="M469.084,300.634v58.733c0,9.033-6.073,16.646-14.364,18.968
				c-8.291-2.322-14.364-9.935-14.364-18.968v-58.733c0-9.033,6.073-16.646,14.364-18.968
				C463.011,283.988,469.084,291.601,469.084,300.634z"/>
		</g>
		<path style="fill:#3C3F4D;" d="M391.907,387.058h5.586c9.255,0,16.758,7.503,16.758,16.758v0c0,9.255-7.503,16.758-16.758,16.758
			h-5.586c-9.255,0-16.758-7.503-16.758-16.758v0C375.149,394.56,382.652,387.058,391.907,387.058z"/>
	</g>
	<path style="fill:#FFE14D;" d="M24.398,17.96h145.204C183.077,17.96,194,28.883,194,42.358v114.474
		c0,13.475-10.923,24.398-24.398,24.398h-14.283v56l-56-56H24.398C10.923,181.23,0,170.307,0,156.832L0,42.358
		C0,28.883,10.923,17.96,24.398,17.96z"/>
	<g>
		<path style="fill:#FF491F;" d="M45,384.725H27c-4.142,0-7.5-3.358-7.5-7.5s3.358-7.5,7.5-7.5h18c4.142,0,7.5,3.358,7.5,7.5
			S49.142,384.725,45,384.725z"/>
		<path style="fill:#3C3F4D;" d="M137,384.725H69c-4.142,0-7.5-3.358-7.5-7.5s3.358-7.5,7.5-7.5h68c4.142,0,7.5,3.358,7.5,7.5
			S141.142,384.725,137,384.725z"/>
	</g>
	<g>
		<path style="fill:#FFE14D;" d="M45,415.225H27c-4.142,0-7.5-3.358-7.5-7.5s3.358-7.5,7.5-7.5h18c4.142,0,7.5,3.358,7.5,7.5
			S49.142,415.225,45,415.225z"/>
		<path style="fill:#3C3F4D;" d="M137,415.225H69c-4.142,0-7.5-3.358-7.5-7.5s3.358-7.5,7.5-7.5h68c4.142,0,7.5,3.358,7.5,7.5
			S141.142,415.225,137,415.225z"/>
	</g>
	<g>
		<path style="fill:#FFE14D;" d="M45,445.725H27c-4.142,0-7.5-3.358-7.5-7.5s3.358-7.5,7.5-7.5h18c4.142,0,7.5,3.358,7.5,7.5
			S49.142,445.725,45,445.725z"/>
		<path style="fill:#3C3F4D;" d="M137,445.725H69c-4.142,0-7.5-3.358-7.5-7.5s3.358-7.5,7.5-7.5h68c4.142,0,7.5,3.358,7.5,7.5
			S141.142,445.725,137,445.725z"/>
	</g>
	<path style="fill:#32CC77;" d="M104.721,92.45V70.43c3.697,0.575,6.173,1.829,8.172,2.842c1.705,0.864,3.051,1.546,4.553,1.546
		c4.801,0,6.877-5.879,6.877-8.878c0-6.414-10.081-9.379-19.603-10.027v-1.371c0-3.345-2.721-6.065-6.065-6.065
		s-6.065,2.721-6.065,6.065v1.754c-14.567,2.424-22.915,11.307-22.915,24.4c0,16.093,13.191,21.146,22.915,24.804v24.706
		c-5.409-1.014-8.921-3.739-11.752-5.937c-2.291-1.777-4.1-3.182-6.161-3.182c-4.138,0-7.253,5.462-7.253,9.004
		c0,6.708,10.322,14.756,25.166,15.666v0.653c0,1.87,0.863,3.612,2.35,4.762c0.877,0.828,2.152,1.303,3.498,1.303
		c0.03,0,0.061-0.003,0.131-0.007l0.087,0.007c3.344,0,6.065-2.721,6.065-6.065v-1.331c13.892-2.956,21.854-12.557,21.854-26.369
		C126.575,103.079,116.093,96.836,104.721,92.45z M110.819,120.337c0,4.251-2.106,7.38-6.098,9.068v-18.766
		C108.934,113.109,110.819,116.115,110.819,120.337z M92.591,71.151v16.686c-3.763-1.718-7.159-4.009-7.159-8.767
		C85.432,75.255,87.906,72.522,92.591,71.151z"/>
	<path style="fill:#3C3F4D;" d="M465,35.726H283c-4.142,0-7.5-3.358-7.5-7.5s3.358-7.5,7.5-7.5h182c4.142,0,7.5,3.358,7.5,7.5
		S469.142,35.726,465,35.726z"/>
	<path style="fill:#2D303B;" d="M465,66.118H331c-4.142,0-7.5-3.358-7.5-7.5s3.358-7.5,7.5-7.5h134c4.142,0,7.5,3.358,7.5,7.5
		S469.142,66.118,465,66.118z"/>
</g>
<g>
</g>
<g>
</g>
<g>
</g>
<g>
</g>
<g>
</g>
<g>
</g>
<g>
</g>
<g>
</g>
<g>
</g>
<g>
</g>
<g>
</g>
<g>
</g>
<g>
</g>
<g>
</g>
<g>
</g>
</svg>
