<?xml version="1.0" encoding="iso-8859-1"?>
<!-- Generator: Adobe Illustrator 19.0.0, SVG Export Plug-In . SVG Version: 6.00 Build 0)  -->
<svg version="1.1" id="Layer_1" xmlns="http://www.w3.org/2000/svg" xmlns:xlink="http://www.w3.org/1999/xlink" x="0px" y="0px"
	 viewBox="0 0 490.85 490.85" style="enable-background:new 0 0 490.85 490.85;" xml:space="preserve">
<g>
	<path style="fill:#C4E2F2;" d="M490.849,65.354v360.142c0,14.6-11.83,26.43-26.43,26.43H26.435c-14.6,0-26.43-11.83-26.43-26.43
		V65.354c0-14.6,11.83-26.43,26.43-26.43h437.984C479.019,38.924,490.849,50.754,490.849,65.354z"/>
	<path style="fill:#83B2C6;" d="M490.849,65.354v31.57H0.005v-31.57c0-14.6,11.83-26.43,26.43-26.43h437.984
		C479.019,38.924,490.849,50.754,490.849,65.354z"/>
	<g>
		<path style="fill:#E6E6E6;" d="M35,77.424c-3.074,0-5.877-1.943-6.987-4.801c-1.179-3.038-0.2-6.565,2.349-8.588
			c5.33-4.23,13.369,0.67,11.997,7.359C41.649,74.86,38.545,77.424,35,77.424z"/>
		<path style="fill:#E6E6E6;" d="M86,77.424c-3.072,0-5.878-1.946-6.987-4.801c-1.179-3.038-0.2-6.565,2.349-8.588
			c5.353-4.248,13.324,0.677,11.997,7.359C92.672,74.86,89.527,77.424,86,77.424z"/>
		<path style="fill:#E6E6E6;" d="M60.5,77.424c-3.074,0-5.877-1.943-6.987-4.801c-1.179-3.038-0.2-6.565,2.349-8.588
			c5.33-4.23,13.369,0.67,11.997,7.359C67.149,74.86,64.045,77.424,60.5,77.424z"/>
	</g>
	<polygon style="fill:#FFE14D;" points="362.812,185.61 313.493,158.97 177.361,158.97 128.042,185.61 154.682,234.929 
		177.361,222.679 177.361,319.125 313.493,319.125 313.493,222.679 336.171,234.929 	"/>
	<path style="fill:#FFBE1D;" d="M198.713,158.976c0,25.8,20.915,46.714,46.714,46.714s46.714-20.915,46.714-46.714"/>
	<polygon style="fill:#FF491F;" points="490.85,158.964 490.85,319.124 437.37,319.124 437.37,222.674 414.69,234.924 
		388.05,185.604 437.37,158.964 	"/>
	<path style="fill:#ED3618;" d="M490.85,158.974v44.4c-18.66-6.13-32.13-23.69-32.13-44.4H490.85z"/>
	<polygon style="fill:#2C92BF;" points="102.8,185.604 76.16,234.924 53.48,222.674 53.48,319.124 0,319.124 0,158.964 
		53.48,158.964 	"/>
	<path style="fill:#1F81A3;" d="M32.13,158.974c0,20.71-13.47,38.27-32.13,44.4v-44.4H32.13z"/>
	<path style="fill:#E6E6E6;" d="M210.426,375.537H66.533l10.922-10.922c2.929-2.929,2.929-7.678,0-10.606
		c-2.929-2.929-7.678-2.929-10.606,0l-23.726,23.726c-1.407,1.406-2.197,3.314-2.197,5.303s0.79,3.897,2.197,5.303l23.726,23.725
		c1.464,1.464,3.384,2.197,5.303,2.197s3.839-0.732,5.303-2.197c2.929-2.929,2.929-7.678,0-10.606l-10.922-10.922h143.892
		c4.142,0,7.5-3.358,7.5-7.5S214.568,375.537,210.426,375.537z"/>
	<path style="fill:#E6E6E6;" d="M447.73,377.734l-23.726-23.726c-2.929-2.929-7.678-2.929-10.606,0
		c-2.929,2.929-2.929,7.678,0,10.606l10.922,10.922H280.426c-4.142,0-7.5,3.358-7.5,7.5s3.358,7.5,7.5,7.5H424.32l-10.922,10.922
		c-2.929,2.929-2.929,7.678,0,10.606c1.464,1.465,3.384,2.197,5.303,2.197s3.839-0.732,5.303-2.197l23.726-23.725
		c1.407-1.406,2.197-3.314,2.197-5.303S449.137,379.14,447.73,377.734z"/>
	<path style="fill:#83B2C6;" d="M295.976,423.537H194.878c-4.142,0-7.5-3.358-7.5-7.5s3.358-7.5,7.5-7.5h101.098
		c4.142,0,7.5,3.358,7.5,7.5S300.118,423.537,295.976,423.537z"/>
</g>
<g>
</g>
<g>
</g>
<g>
</g>
<g>
</g>
<g>
</g>
<g>
</g>
<g>
</g>
<g>
</g>
<g>
</g>
<g>
</g>
<g>
</g>
<g>
</g>
<g>
</g>
<g>
</g>
<g>
</g>
</svg>
