<?xml version="1.0" encoding="iso-8859-1"?>
<!-- Generator: Adobe Illustrator 19.0.0, SVG Export Plug-In . SVG Version: 6.00 Build 0)  -->
<svg version="1.1" id="Layer_1" xmlns="http://www.w3.org/2000/svg" xmlns:xlink="http://www.w3.org/1999/xlink" x="0px" y="0px"
	 viewBox="0 0 490 490" style="enable-background:new 0 0 490 490;" xml:space="preserve">
<g>
	<rect x="345.998" y="115.639" style="fill:#CCCCCC;" width="30" height="79.631"/>
	<circle style="fill:#FFBE1D;" cx="117.532" cy="88.028" r="88.027"/>
	<circle style="fill:#FFE14D;" cx="117.532" cy="88.028" r="62.099"/>
	<path style="fill:#FFBE1D;" d="M124.074,80.838V62.365c3.082,0.486,5.152,1.535,6.826,2.383c1.44,0.729,2.578,1.306,3.853,1.306
		c4.071,0,5.833-4.978,5.833-7.518c0-5.42-8.484-7.93-16.511-8.482v-1.118c0-2.838-2.31-5.147-5.148-5.147s-5.147,2.309-5.147,5.147
		v1.444c-12.27,2.053-19.301,9.546-19.301,20.584c0,13.569,11.102,17.834,19.301,20.919v20.734
		c-4.521-0.859-7.462-3.142-9.835-4.984c-1.935-1.502-3.463-2.688-5.213-2.688c-3.508,0-6.148,4.624-6.148,7.623
		c0,5.662,8.692,12.453,21.196,13.232v0.513c0,1.587,0.732,3.065,1.991,4.04c0.746,0.705,1.83,1.108,2.973,1.108h0.184
		c2.838,0,5.148-2.31,5.148-5.148v-1.089c11.702-2.502,18.407-10.598,18.407-22.241C142.481,89.805,133.656,84.538,124.074,80.838z
		 M129.131,104.353c0,3.544-1.747,6.157-5.057,7.578V96.254C127.568,98.32,129.131,100.833,129.131,104.353z M113.779,62.978v13.939
		c-3.135-1.438-5.951-3.36-5.951-7.322C107.828,66.416,109.884,64.133,113.779,62.978z"/>
	<path style="fill:#E6E6E6;" d="M462.002,222.129v223.14H27.992v-165.8c0-15.57,12.63-28.2,28.2-28.2h132.81v-29.14
		c0-23.12,18.74-41.86,41.85-41.86h189.29C443.262,180.27,462.002,199.009,462.002,222.129z"/>
	<g>
		<path style="fill:#CCCCCC;" d="M205.499,222.126c0-23.115,18.739-41.854,41.854-41.854h-16.499
			c-23.115,0-41.854,18.739-41.854,41.854v29.146h16.499V222.126z"/>
		<path style="fill:#CCCCCC;" d="M72.691,251.272H56.191c-15.572,0-28.196,12.624-28.196,28.195v165.803h16.499V279.468
			C44.495,263.896,57.119,251.272,72.691,251.272z"/>
	</g>
	<path style="fill:#CCCCCC;" d="M490,447.209v20.85c0,12.12-9.83,21.94-21.95,21.94H21.94c-12.12,0-21.94-9.82-21.94-21.94v-20.85
		c0-12.12,9.82-21.94,21.94-21.94h446.11C480.17,425.269,490,435.09,490,447.209z"/>
	<path style="fill:#3C3F4D;" d="M175.999,308.269h-120c-4.142,0-7.5-3.358-7.5-7.5s3.358-7.5,7.5-7.5h120c4.142,0,7.5,3.358,7.5,7.5
		S180.141,308.269,175.999,308.269z"/>
	<rect x="27.992" y="417.27" style="fill:#CCCCCC;" width="434.01" height="28"/>
	<path style="fill:#E6E6E6;" d="M490,447.209v20.85c0,12.12-9.83,21.94-21.95,21.94H56.6c-12.12,0-21.95-9.82-21.95-21.94v-20.85
		c0-12.12,9.83-21.94,21.95-21.94h411.45C480.17,425.269,490,435.09,490,447.209z"/>
	<path style="fill:#C4E2F2;" d="M214,228.272L214,228.272c0-12.703,10.297-23,23-23h176.998c12.703,0,23,10.297,23,23v0
		c0,12.703-10.297,23-23,23H237C224.297,251.272,214,240.975,214,228.272z"/>
	<rect x="67.999" y="293.269" style="fill:#FFFFFF;" width="96" height="96"/>
	<path style="fill:#C4E2F2;" d="M300.647,22.636H421.35c14.164,0,25.647,11.482,25.647,25.647v56.707
		c0,14.164-11.482,25.647-25.647,25.647H300.647c-14.164,0-25.647-11.482-25.647-25.647V48.283
		C275,34.118,286.482,22.636,300.647,22.636z"/>
	<path style="fill:#83B2C6;" d="M421.35,22.636h-25.499c14.164,0,25.647,11.482,25.647,25.646v56.707
		c0,14.164-11.482,25.647-25.647,25.647h25.499c14.164,0,25.647-11.482,25.647-25.647V48.283
		C446.997,34.119,435.514,22.636,421.35,22.636z"/>
	<g>
		<path style="fill:#3C3F4D;" d="M133.999,336.404h-36c-4.142,0-7.5-3.358-7.5-7.5s3.358-7.5,7.5-7.5h36c4.142,0,7.5,3.358,7.5,7.5
			S138.141,336.404,133.999,336.404z"/>
		<path style="fill:#3C3F4D;" d="M133.999,361.135h-36c-4.142,0-7.5-3.358-7.5-7.5s3.358-7.5,7.5-7.5h36c4.142,0,7.5,3.358,7.5,7.5
			S138.141,361.135,133.999,361.135z"/>
	</g>
	<path style="fill:#FF491F;" d="M413,71.77h-98.002c-4.143,0-7.5-3.358-7.5-7.5s3.357-7.5,7.5-7.5H413c4.143,0,7.5,3.358,7.5,7.5
		S417.142,71.77,413,71.77z"/>
	<path style="fill:#FF491F;" d="M350.998,96.502h-36c-4.143,0-7.5-3.358-7.5-7.5s3.357-7.5,7.5-7.5h36c4.143,0,7.5,3.358,7.5,7.5
		S355.14,96.502,350.998,96.502z"/>
	<path style="fill:#C4E2F2;" d="M117.532,235.558c-4.142,0-7.5-3.358-7.5-7.5V199.27c0-4.142,3.358-7.5,7.5-7.5s7.5,3.358,7.5,7.5
		v28.788C125.032,232.2,121.674,235.558,117.532,235.558z"/>
	<path style="fill:#E6E6E6;" d="M421.35,138.136H300.647c-18.277,0-33.147-14.87-33.147-33.147V48.283
		c0-18.277,14.87-33.146,33.147-33.146H421.35c18.277,0,33.146,14.87,33.146,33.146v56.707
		C454.497,123.267,439.628,138.136,421.35,138.136z M300.647,30.136c-10.007,0-18.147,8.141-18.147,18.146v56.707
		c0,10.006,8.141,18.147,18.147,18.147H421.35c10.006,0,18.146-8.141,18.146-18.147V48.283c0-10.006-8.141-18.146-18.146-18.146
		H300.647z"/>
	<g>
		<g>
			<path style="fill:#3C3F4D;" d="M256,327.269h-25c-9.389,0-17-7.611-17-17v0c0-9.389,7.611-17,17-17h25c9.389,0,17,7.611,17,17v0
				C273,319.658,265.389,327.269,256,327.269z"/>
		</g>
		<g>
			<path style="fill:#3C3F4D;" d="M333,327.269h-25c-9.389,0-17-7.611-17-17v0c0-9.389,7.611-17,17-17h25c9.389,0,17,7.611,17,17v0
				C350,319.658,342.389,327.269,333,327.269z"/>
		</g>
		<g>
			<path style="fill:#3C3F4D;" d="M410,327.269h-25c-9.389,0-17-7.611-17-17v0c0-9.389,7.611-17,17-17h25c9.389,0,17,7.611,17,17v0
				C427,319.658,419.389,327.269,410,327.269z"/>
		</g>
	</g>
	<g>
		<g>
			<path style="fill:#3C3F4D;" d="M256,383.269h-25c-9.389,0-17-7.611-17-17v0c0-9.389,7.611-17,17-17h25c9.389,0,17,7.611,17,17v0
				C273,375.658,265.389,383.269,256,383.269z"/>
		</g>
		<g>
			<path style="fill:#3C3F4D;" d="M333,383.269h-25c-9.389,0-17-7.611-17-17v0c0-9.389,7.611-17,17-17h25c9.389,0,17,7.611,17,17v0
				C350,375.658,342.389,383.269,333,383.269z"/>
		</g>
		<g>
			<path style="fill:#3C3F4D;" d="M410,383.269h-25c-9.389,0-17-7.611-17-17v0c0-9.389,7.611-17,17-17h25c9.389,0,17,7.611,17,17v0
				C427,375.658,419.389,383.269,410,383.269z"/>
		</g>
	</g>
</g>
<g>
</g>
<g>
</g>
<g>
</g>
<g>
</g>
<g>
</g>
<g>
</g>
<g>
</g>
<g>
</g>
<g>
</g>
<g>
</g>
<g>
</g>
<g>
</g>
<g>
</g>
<g>
</g>
<g>
</g>
</svg>
