<?xml version="1.0" encoding="iso-8859-1"?>
<!-- Generator: Adobe Illustrator 19.0.0, SVG Export Plug-In . SVG Version: 6.00 Build 0)  -->
<svg version="1.1" id="Layer_1" xmlns="http://www.w3.org/2000/svg" xmlns:xlink="http://www.w3.org/1999/xlink" x="0px" y="0px"
	 viewBox="0 0 490 490" style="enable-background:new 0 0 490 490;" xml:space="preserve">
<g>
	<polygon style="fill:#2D303B;" points="343.833,437.09 245.003,459.61 146.163,437.09 159.703,380.37 240.803,350.55 
		330.293,380.37 334.673,398.73 	"/>
	<path style="fill:#C4E2F2;" d="M490,66.25v271.6c0,23.48-19.04,42.52-42.52,42.52H42.51C19.03,380.37,0,361.33,0,337.85V66.25H490z
		"/>
	<path style="fill:#3C3F4D;" d="M490,332.85v5c0,23.48-19.04,42.52-42.52,42.52H42.51C19.03,380.37,0,361.33,0,337.85v-5H490z"/>
	<path style="fill:#83B2C6;" d="M449.722,31.42H392h-98h-98H98H40.278C18.033,31.42,0,49.453,0,71.698V116.1
		c0,27.062,21.938,49,49,49h0c27.062,0,49-21.938,49-49c0,27.062,21.938,49,49,49h0c27.062,0,49-21.938,49-49
		c0,27.062,21.938,49,49,49h0c27.062,0,49-21.938,49-49c0,27.062,21.938,49,49,49h0c27.062,0,49-21.938,49-49
		c0,27.062,21.938,49,49,49h0c27.062,0,49-21.938,49-49V71.698C490,49.453,471.967,31.42,449.722,31.42z"/>
	<path style="fill:#FFE14D;" d="M289.329,268.599l-32.976-22.294c-6.859-4.637-15.848-4.637-22.707,0l-32.976,22.294
		c-5.577,3.77-8.918,10.062-8.918,16.794v94.958c0,11.196,9.076,20.271,20.271,20.271h65.952c11.196,0,20.271-9.076,20.271-20.271
		v-94.958C298.247,278.661,294.906,272.369,289.329,268.599z"/>
	<path style="fill:#2C92BF;" d="M142.329,209.598l-32.976-22.294c-6.859-4.637-15.848-4.637-22.707,0l-32.976,22.294
		c-5.577,3.77-8.918,10.062-8.918,16.794v94.958c0,11.196,9.076,20.271,20.271,20.271h65.952c11.196,0,20.271-9.076,20.271-20.271
		v-94.958C151.247,219.661,147.906,213.368,142.329,209.598z"/>
	<path style="fill:#3C3F4D;" d="M98,221.628c-4.143,0-7.5-3.358-7.5-7.5V92.54c0-4.142,3.357-7.5,7.5-7.5s7.5,3.358,7.5,7.5v121.587
		C105.5,218.27,102.143,221.628,98,221.628z"/>
	<path style="fill:#3C3F4D;" d="M245,280.628c-4.143,0-7.5-3.358-7.5-7.5V115.27c0-4.142,3.357-7.5,7.5-7.5s7.5,3.358,7.5,7.5
		v157.858C252.5,277.27,249.143,280.628,245,280.628z"/>
	<path style="fill:#FF491F;" d="M449.722,7.86H392h-98h-98H98H40.278C18.033,7.86,0,25.893,0,48.138V92.54c0,27.062,21.938,49,49,49
		h0c27.062,0,49-21.938,49-49c0,27.062,21.938,49,49,49h0c27.062,0,49-21.938,49-49c0,27.062,21.938,49,49,49h0
		c27.062,0,49-21.938,49-49c0,27.062,21.938,49,49,49h0c27.062,0,49-21.938,49-49c0,27.062,21.938,49,49,49h0
		c27.062,0,49-21.938,49-49V48.138C490,25.893,471.967,7.86,449.722,7.86z"/>
	<path style="fill:#ED3618;" d="M60.253,140.23c-0.45,0.11-0.91,0.21-1.36,0.3c-0.92,0.19-1.84,0.35-2.77,0.49
		c-0.93,0.13-1.87,0.25-2.81,0.33c-0.83,0.07-1.67,0.13-2.51,0.15c-0.18,0.01-0.36,0.02-0.54,0.02c-0.42,0.01-0.84,0.02-1.26,0.02
		c-27.07,0-49-21.94-49-49v-44.4c0-15.87,9.17-29.59,22.5-36.15v80.55C22.503,115.73,38.613,135.14,60.253,140.23z"/>
	<path style="fill:#E6E6E6;" d="M147,141.54L147,141.54c-27.062,0-49-21.938-49-49V7.86h98v84.68
		C196,119.602,174.062,141.54,147,141.54z"/>
	<path style="fill:#32CC77;" d="M436.329,183.155l-32.976-22.294c-6.859-4.637-15.848-4.637-22.707,0l-32.976,22.294
		c-5.577,3.77-8.918,10.062-8.918,16.794v89.957c0,11.196,9.076,20.271,20.271,20.271h65.952c11.196,0,20.271-9.076,20.271-20.271
		v-89.957C445.247,193.217,441.906,186.925,436.329,183.155z"/>
	<path style="fill:#3C3F4D;" d="M391.999,195.184c-4.143,0-7.5-3.358-7.5-7.5V56.096c0-4.142,3.357-7.5,7.5-7.5s7.5,3.358,7.5,7.5
		v131.588C399.499,191.826,396.142,195.184,391.999,195.184z"/>
	<path style="fill:#CCCCCC;" d="M120.499,92.54V7.86H98v84.68c0,27.062,21.938,49,49,49h0c3.873,0,7.636-0.463,11.249-1.313
		C136.612,135.142,120.499,115.729,120.499,92.54z"/>
	<path style="fill:#ED3618;" d="M218.499,92.54V7.86H196v84.68c0,27.062,21.938,49,49,49h0c3.873,0,7.636-0.463,11.249-1.313
		C234.612,135.142,218.499,115.729,218.499,92.54z"/>
	<path style="fill:#ED3618;" d="M414.499,92.54V7.86H392v84.68c0,27.062,21.938,49,49,49h0c3.873,0,7.636-0.463,11.249-1.313
		C430.612,135.142,414.499,115.729,414.499,92.54z"/>
	<path style="fill:#E6E6E6;" d="M343,141.54L343,141.54c-27.062,0-49-21.938-49-49V7.86h98v84.68
		C392,119.602,370.062,141.54,343,141.54z"/>
	<path style="fill:#CCCCCC;" d="M316.499,92.54V7.86H294v84.68c0,27.062,21.938,49,49,49h0c3.873,0,7.636-0.463,11.249-1.313
		C332.612,135.142,316.499,115.729,316.499,92.54z"/>
	<polygon style="fill:#3C3F4D;" points="343.833,437.09 192.663,437.09 201.823,398.73 334.673,398.73 	"/>
	<path style="fill:#2D303B;" d="M402.083,468.67v13.47H87.923v-13.47c0-17.44,14.14-31.58,31.58-31.58h251
		C387.943,437.09,402.083,451.23,402.083,468.67z"/>
	<path style="fill:#3C3F4D;" d="M402.083,468.67v13.47h-260.17v-13.47c0-17.44,14.14-31.58,31.59-31.58h197
		C387.943,437.09,402.083,451.23,402.083,468.67z"/>
	<path style="fill:#FFFFFF;" d="M398.542,240.61v-18.474c3.082,0.486,5.152,1.535,6.826,2.383c1.44,0.729,2.578,1.306,3.853,1.306
		c4.071,0,5.832-4.978,5.832-7.518c0-5.421-8.484-7.93-16.511-8.482v-1.118c0-2.838-2.31-5.148-5.147-5.148
		c-2.839,0-5.148,2.31-5.148,5.148v1.444c-12.269,2.053-19.3,9.546-19.3,20.584c0,13.569,11.102,17.834,19.3,20.918v20.734
		c-4.52-0.859-7.461-3.142-9.834-4.983c-1.936-1.502-3.464-2.688-5.214-2.688c-3.508,0-6.147,4.625-6.147,7.623
		c0,5.662,8.691,12.453,21.195,13.232v0.513c0,1.586,0.732,3.065,1.991,4.04c0.747,0.705,1.831,1.108,2.974,1.108h0.184
		c2.838,0,5.147-2.31,5.147-5.148v-1.089c11.701-2.501,18.406-10.597,18.406-22.241C416.949,249.577,408.124,244.309,398.542,240.61
		z M403.599,264.126c0,3.544-1.746,6.157-5.057,7.578v-15.677C402.036,258.091,403.599,260.604,403.599,264.126z M388.247,222.751
		v13.939c-3.135-1.439-5.95-3.361-5.95-7.323C382.296,226.188,384.352,223.905,388.247,222.751z"/>
	<g>
		<path style="fill:#2D303B;" d="M229.5,359.726c-4.088,0-7.5-3.417-7.5-7.5c0-2.207,0.987-4.087,2.511-5.617
			c2.174-2.183,4.358-4.358,6.537-6.537c6.877-6.877,13.754-13.754,20.63-20.63c1.784-1.784,3.718-4.291,6.129-5.217
			c3.615-1.388,7.82,0.292,9.476,3.796c1.373,2.906,0.68,6.282-1.527,8.557c-5.234,5.392-10.633,10.633-15.947,15.947
			c-4.998,4.998-9.911,10.103-15.005,15.005C233.369,358.91,231.507,359.726,229.5,359.726z"/>
		<g>
			<path style="fill:#2D303B;" d="M225.505,324.73c-3.137,0-6.004-2.035-7.064-4.981c-1.104-3.067-0.03-6.607,2.592-8.548
				c5.468-4.048,13.269,1.036,11.78,7.668C232.058,322.237,228.965,324.73,225.505,324.73z"/>
			<path style="fill:#2D303B;" d="M264.496,363.73c-3.164,0-6.061-2.087-7.09-5.07c-1.095-3.173,0.136-6.807,2.929-8.671
				c5.581-3.722,13.095,1.551,11.427,8.079C270.924,361.352,267.892,363.73,264.496,363.73z"/>
		</g>
	</g>
	<path style="fill:#FFE14D;" d="M94.998,307.225c-2.599,0-5.021-1.348-6.389-3.573l-16.999-27.657
		c-2.169-3.529-1.066-8.148,2.462-10.317c3.529-2.167,8.148-1.067,10.317,2.462l10.082,16.403l16.882-32.294
		c1.919-3.67,6.451-5.09,10.121-3.172c3.671,1.919,5.091,6.45,3.172,10.121l-23.001,44c-1.25,2.392-3.689,3.927-6.386,4.021
		C95.172,307.223,95.085,307.225,94.998,307.225z"/>
</g>
<g>
</g>
<g>
</g>
<g>
</g>
<g>
</g>
<g>
</g>
<g>
</g>
<g>
</g>
<g>
</g>
<g>
</g>
<g>
</g>
<g>
</g>
<g>
</g>
<g>
</g>
<g>
</g>
<g>
</g>
</svg>
