<?xml version="1.0" encoding="iso-8859-1"?>
<!-- Generator: Adobe Illustrator 19.0.0, SVG Export Plug-In . SVG Version: 6.00 Build 0)  -->
<svg version="1.1" id="Layer_1" xmlns="http://www.w3.org/2000/svg" xmlns:xlink="http://www.w3.org/1999/xlink" x="0px" y="0px"
	 viewBox="0 0 490 490" style="enable-background:new 0 0 490 490;" xml:space="preserve">
<g>
	<path style="fill:#CCCCCC;" d="M418.484,112.92H71.509c-21.816,0-39.502,17.686-39.502,39.502v273.982h425.979V152.422
		C457.986,130.605,440.301,112.92,418.484,112.92z"/>
	<path style="fill:#E6E6E6;" d="M457.984,152.42V418.4H45.014V152.42c0-21.82,17.68-39.5,39.5-39.5h333.97
		C440.304,112.92,457.984,130.6,457.984,152.42z"/>
	<path style="fill:#C4E2F2;" d="M62.008,396.404V152.422c0-5.239,4.262-9.502,9.501-9.502h346.975c5.239,0,9.502,4.263,9.502,9.502
		v243.982H62.008z"/>
	<path style="fill:#CCCCCC;" d="M490,426.404v10.51c0,29.26-23.72,52.99-52.99,52.99H52.98c-29.26,0-52.98-23.73-52.98-52.99v-10.51
		H490z"/>
	<path style="fill:#E6E6E6;" d="M490,426.404v10.51c0,29.26-23.72,52.99-52.99,52.99H144.48c-29.27,0-52.99-23.73-52.99-52.99
		v-10.51H490z"/>
	<path style="fill:#CCCCCC;" d="M273.311,456.403h-56.628c-13.77,0-24.933-11.163-24.933-24.933v-5.065h106.495v5.065
		C298.244,445.239,287.081,456.403,273.311,456.403z"/>
	<g>
		<rect x="131.748" y="201.564" style="fill:#3C3F4D;" width="28" height="194.84"/>
		<rect x="330.246" y="201.564" style="fill:#3C3F4D;" width="28" height="194.84"/>
	</g>
	<g>
		<rect x="131.748" y="201.564" style="fill:#2D303B;" width="28" height="56"/>
		<rect x="330.246" y="201.564" style="fill:#2D303B;" width="28" height="56"/>
	</g>
	<path style="fill:#32CC77;" d="M101.018,226.564h287.959c7.779,0,14.086-6.306,14.086-14.086V87.65
		c0-7.779-6.306-14.086-14.086-14.086H101.018c-7.779,0-14.086,6.306-14.086,14.086v124.828
		C86.932,220.257,93.238,226.564,101.018,226.564z"/>
	<path style="fill:#1FB25E;" d="M101.018,73.564h18c-7.779,0-14.086,6.306-14.086,14.086v124.828
		c0,7.779,6.307,14.086,14.086,14.086h-18c-7.779,0-14.086-6.307-14.086-14.086V87.65C86.932,79.87,93.238,73.564,101.018,73.564z"
		/>
	<g>
		<path style="fill:#FFE14D;" d="M66.48,72.099c-1.919,0-3.839-0.732-5.303-2.197l-47-47c-2.929-2.929-2.929-7.678,0-10.606
			c2.929-2.929,7.678-2.929,10.606,0l47,47c2.929,2.929,2.929,7.678,0,10.606C70.319,71.367,68.4,72.099,66.48,72.099z"/>
		<path style="fill:#FFE14D;" d="M423.514,72.099c-1.919,0-3.839-0.732-5.303-2.197c-2.929-2.929-2.929-7.678,0-10.606l47-47
			c2.929-2.929,7.678-2.929,10.606,0c2.929,2.929,2.929,7.678,0,10.606l-47,47C427.353,71.367,425.434,72.099,423.514,72.099z"/>
	</g>
	<g>
		<path style="fill:#FFE14D;" d="M159.508,62.1c-2.797,0-5.481-1.571-6.77-4.263l-22.509-47c-1.789-3.735-0.211-8.214,3.525-10.003
			c3.734-1.791,8.215-0.211,10.003,3.525l22.509,47c1.789,3.735,0.211,8.214-3.525,10.003C161.698,61.863,160.594,62.1,159.508,62.1
			z"/>
		<path style="fill:#FFE14D;" d="M330.486,62.1c-1.086,0-2.189-0.237-3.234-0.738c-3.736-1.789-5.313-6.268-3.524-10.004l22.509-47
			c1.789-3.736,6.267-5.313,10.004-3.524c3.736,1.789,5.313,6.268,3.524,10.004l-22.509,47
			C335.966,60.529,333.282,62.1,330.486,62.1z"/>
	</g>
	<path style="fill:#FFE14D;" d="M244.997,62.098c-4.142,0-7.5-3.358-7.5-7.5v-47c0-4.142,3.358-7.5,7.5-7.5s7.5,3.358,7.5,7.5v47
		C252.497,58.741,249.139,62.098,244.997,62.098z"/>
	<g>
		<path style="fill:#FFE14D;" d="M154.041,121.616c-3.581-3.083-8.609-4.647-14.943-4.647c-6.326,0-11.338,1.563-14.898,4.647
			c-4.014,3.477-6.05,8.812-6.05,15.857V162.3c0,7.045,2.036,12.38,6.05,15.857c3.561,3.083,8.573,4.646,14.898,4.646
			c6.334,0,11.362-1.563,14.943-4.646c4.044-3.482,6.095-8.817,6.095-15.857v-24.828
			C160.135,130.432,158.085,125.097,154.041,121.616z M139.098,172.409c-6.058,0-9.13-3.401-9.13-10.109v-24.828
			c0-6.708,3.072-10.109,9.13-10.109c6.031,0,9.219,3.496,9.219,10.109V162.3C148.317,168.913,145.129,172.409,139.098,172.409z"/>
		<path style="fill:#FFE14D;" d="M211.359,116.969h-31.058c-3.571,0-5.197,1.956-5.197,3.773v57.754
			c0,1.817,1.849,3.773,5.909,3.773c2.937,0,5.909-1.296,5.909-3.773v-24.258h13.491c2.532,0,3.685-2.371,3.685-4.574
			c0-2.289-1.153-4.752-3.685-4.752h-13.491v-17.548h24.437c2.169,0,3.685-2.174,3.685-5.287
			C215.043,119.534,213.904,116.969,211.359,116.969z"/>
		<path style="fill:#FFE14D;" d="M261.905,116.969h-31.058c-3.571,0-5.197,1.956-5.197,3.773v57.754
			c0,1.817,1.849,3.773,5.909,3.773c2.937,0,5.909-1.296,5.909-3.773v-24.258h13.491c2.532,0,3.685-2.371,3.685-4.574
			c0-2.289-1.153-4.752-3.685-4.752h-13.491v-17.548h24.437c2.169,0,3.685-2.174,3.685-5.287
			C265.59,119.534,264.451,116.969,261.905,116.969z"/>
		<path style="fill:#FFE14D;" d="M313.075,127.364c2.222,0,3.774-2.174,3.774-5.287c0-2.46-1.181-5.108-3.774-5.108h-31.68
			c-3.571,0-5.197,1.956-5.197,3.773v57.754c0,1.817,1.626,3.773,5.197,3.773h31.68c2.593,0,3.774-2.648,3.774-5.108
			c0-3.113-1.552-5.287-3.774-5.287h-25.059v-17.637h13.401c2.478,0,3.774-2.301,3.774-4.574c0-2.362-1.296-4.752-3.774-4.752
			h-13.401v-17.548H313.075z"/>
		<path style="fill:#FFE14D;" d="M371.385,175.055l-11.585-21.491c7.482-2.359,11.601-8.699,11.601-17.872
			c0-6.639-2.094-11.587-6.223-14.705c-3.531-2.667-8.576-4.019-14.992-4.019h-17.62c-2.417,0-3.862,1.874-3.862,3.685v57.843
			c0,2.477,2.973,3.773,5.909,3.773c4.06,0,5.909-1.956,5.909-3.773v-23.101h7.274l12.601,24.491
			c0.885,1.771,2.424,2.828,4.116,2.828c3.495,0,7.333-3.232,7.333-6.176C371.845,176.325,371.811,175.584,371.385,175.055z
			 M359.582,136.761c0,6.35-2.986,9.308-9.397,9.308h-9.664v-18.705h9.664C356.508,127.364,359.582,130.437,359.582,136.761z"/>
	</g>
</g>
<g>
</g>
<g>
</g>
<g>
</g>
<g>
</g>
<g>
</g>
<g>
</g>
<g>
</g>
<g>
</g>
<g>
</g>
<g>
</g>
<g>
</g>
<g>
</g>
<g>
</g>
<g>
</g>
<g>
</g>
</svg>
