<?xml version="1.0" encoding="iso-8859-1"?>
<!-- Generator: Adobe Illustrator 19.0.0, SVG Export Plug-In . SVG Version: 6.00 Build 0)  -->
<svg version="1.1" id="Layer_1" xmlns="http://www.w3.org/2000/svg" xmlns:xlink="http://www.w3.org/1999/xlink" x="0px" y="0px"
	 viewBox="0 0 490 490" style="enable-background:new 0 0 490 490;" xml:space="preserve">
<g>
	<path style="fill:#CCCCCC;" d="M457.982,96.008v303.26l-425.97-29.28V96.008c0-21.82,17.68-39.5,39.5-39.5h346.97
		C440.302,56.508,457.982,74.188,457.982,96.008z"/>
	<path style="fill:#E6E6E6;" d="M457.982,96.008v265.98H45.012V96.008c0-21.82,17.68-39.5,39.5-39.5h333.97
		C440.302,56.508,457.982,74.188,457.982,96.008z"/>
	<path style="fill:#C4E2F2;" d="M62.008,339.992V96.009c0-5.239,4.262-9.502,9.501-9.502h346.975c5.239,0,9.502,4.263,9.502,9.502
		v243.982H62.008z"/>
	<path style="fill:#CCCCCC;" d="M490,369.992v10.51c0,29.26-23.72,52.99-52.99,52.99H52.98c-29.26,0-52.98-23.73-52.98-52.99v-10.51
		H490z"/>
	<path style="fill:#E6E6E6;" d="M490,369.992v10.51c0,29.26-23.72,52.99-52.99,52.99H144.48c-29.27,0-52.99-23.73-52.99-52.99
		v-10.51H490z"/>
	<path style="fill:#CCCCCC;" d="M273.311,399.99h-56.628c-13.77,0-24.933-11.163-24.933-24.933v-5.065h106.495v5.065
		C298.244,388.827,287.081,399.99,273.311,399.99z"/>
	<g>
		<path style="fill:#ED3618;" d="M386.513,198.153l-2.62,20l-8.39,63.89c-1.51,11.51-11.31,20.11-22.92,20.11h-100.14
			c-11.61,0-21.41-8.6-22.92-20.11l-11.01-83.89l84-22.5L386.513,198.153z"/>
		<path style="fill:#FF491F;" d="M383.893,218.153l-8.39,63.89c-1.51,11.51-11.31,20.11-22.92,20.11h-68.14
			c-11.61,0-21.41-8.6-22.92-20.11l-5.686-43.3c-1.433-10.91,7.06-20.59,18.063-20.59H383.893z"/>
		<path style="fill:#ED3618;" d="M398.013,175.533v12.24c0,5.73-4.65,10.38-10.38,10.38h-170.24c-5.73,0-10.38-4.65-10.38-10.38
			v-12.24c0-5.73,4.65-10.38,10.38-10.38h170.24C393.363,165.153,398.013,169.802,398.013,175.533z"/>
		<path style="fill:#FF491F;" d="M398.013,175.533v12.24c0,5.73-4.65,10.38-10.38,10.38h-130.24c-5.73,0-10.38-4.65-10.38-10.38
			v-12.24c0-5.73,4.65-10.38,10.38-10.38h130.24C393.363,165.153,398.013,169.802,398.013,175.533z"/>
		<path style="fill:#3C3F4D;" d="M302.513,118.153L302.513,118.153c-9.389,0-17,7.611-17,17v81c0,9.389,7.611,17,17,17h0
			c9.389,0,17-7.611,17-17v-81C319.513,125.764,311.902,118.153,302.513,118.153z"/>
	</g>
	<path style="fill:#FF491F;" d="M94.101,152.998c-3.288,0-6.245-2.211-7.185-5.356c-0.883-2.955,0.189-6.262,2.655-8.119
		c5.409-4.073,13.275,0.874,11.867,7.519C100.713,150.467,97.608,152.998,94.101,152.998z"/>
	<path style="fill:#3C3F4D;" d="M158.595,153h-40.369c-4.142,0-7.5-3.358-7.5-7.5s3.358-7.5,7.5-7.5h40.369
		c4.142,0,7.5,3.358,7.5,7.5S162.737,153,158.595,153z"/>
	<path style="fill:#FF491F;" d="M94.101,187.498c-3.272,0-6.226-2.195-7.178-5.324c-0.904-2.969,0.181-6.282,2.649-8.155
		c5.207-3.953,12.959,0.58,11.946,7.077C100.952,184.72,97.781,187.498,94.101,187.498z"/>
	<path style="fill:#3C3F4D;" d="M158.595,187.498h-40.369c-4.142,0-7.5-3.358-7.5-7.5s3.358-7.5,7.5-7.5h40.369
		c4.142,0,7.5,3.358,7.5,7.5S162.737,187.498,158.595,187.498z"/>
	<path style="fill:#FF491F;" d="M94.101,221.998c-3.135,0-6.007-2.029-7.063-4.977c-1.146-3.201,0.073-6.871,2.893-8.763
		c5.481-3.678,12.965,1.409,11.479,7.879C100.634,219.514,97.577,221.998,94.101,221.998z"/>
	<path style="fill:#3C3F4D;" d="M158.595,221.996h-40.369c-4.142,0-7.5-3.358-7.5-7.5s3.358-7.5,7.5-7.5h40.369
		c4.142,0,7.5,3.358,7.5,7.5S162.737,221.996,158.595,221.996z"/>
	<path style="fill:#FF491F;" d="M94.101,256.498c-3.208,0-6.11-2.123-7.121-5.155c-1.051-3.152,0.184-6.746,2.951-8.585
		c5.564-3.698,13.103,1.522,11.437,8.058C100.53,254.106,97.506,256.498,94.101,256.498z"/>
	<path style="fill:#3C3F4D;" d="M158.595,256.495h-40.369c-4.142,0-7.5-3.358-7.5-7.5s3.358-7.5,7.5-7.5h40.369
		c4.142,0,7.5,3.358,7.5,7.5S162.737,256.495,158.595,256.495z"/>
	<path style="fill:#FF491F;" d="M94.101,290.988c-3.211,0-6.106-2.103-7.121-5.145c-1.051-3.152,0.184-6.746,2.951-8.585
		c5.564-3.698,13.103,1.522,11.437,8.058C100.53,288.607,97.506,290.988,94.101,290.988z"/>
	<path style="fill:#3C3F4D;" d="M158.595,290.993h-40.369c-4.142,0-7.5-3.358-7.5-7.5s3.358-7.5,7.5-7.5h40.369
		c4.142,0,7.5,3.358,7.5,7.5S162.737,290.993,158.595,290.993z"/>
</g>
<g>
</g>
<g>
</g>
<g>
</g>
<g>
</g>
<g>
</g>
<g>
</g>
<g>
</g>
<g>
</g>
<g>
</g>
<g>
</g>
<g>
</g>
<g>
</g>
<g>
</g>
<g>
</g>
<g>
</g>
</svg>
