<?xml version="1.0" encoding="iso-8859-1"?>
<!-- Generator: Adobe Illustrator 19.0.0, SVG Export Plug-In . SVG Version: 6.00 Build 0)  -->
<svg version="1.1" id="Layer_1" xmlns="http://www.w3.org/2000/svg" xmlns:xlink="http://www.w3.org/1999/xlink" x="0px" y="0px"
	 viewBox="0 0 491.732 491.732" style="enable-background:new 0 0 491.732 491.732;" xml:space="preserve">
<g>
	<path style="fill:#1F81A3;" d="M459.596,244.999c0,2.51-0.04,5.01-0.13,7.5c-1.88,54.43-24.11,103.69-59.32,140.41
		c-3.45,3.61-7.04,7.1-10.75,10.47c-28.3,25.66-63.53,43.84-102.53,51.42c-3.48,0.68-6.98,1.27-10.52,1.77
		c-9.96,1.42-20.13,2.16-30.48,2.16c-10.37,0-20.57-0.74-30.55-2.17c-43.16-6.17-82.16-25.25-112.98-53.19
		c-3.7-3.36-7.29-6.85-10.75-10.46c-35.21-36.72-57.44-85.98-59.31-140.41c-0.1-2.49-0.14-4.99-0.14-7.5c0-2.51,0.04-5.01,0.14-7.5
		c1.87-54.43,24.09-103.68,59.3-140.4c3.46-3.61,7.05-7.11,10.76-10.47c30.82-27.95,69.83-47.02,113-53.2
		c9.97-1.42,20.16-2.16,30.53-2.16c10.33,0,20.5,0.73,30.45,2.16c3.55,0.5,7.06,1.09,10.55,1.77
		c39.01,7.58,74.23,25.76,102.54,51.43c3.71,3.37,7.3,6.86,10.75,10.47c35.21,36.72,57.43,85.97,59.31,140.4
		C459.556,239.989,459.596,242.489,459.596,244.999z"/>
	<path style="fill:#2C92BF;" d="M459.593,245.003c0,104.02-74.3,190.68-172.73,209.8c-98.43-19.12-172.73-105.78-172.73-209.8
		s74.3-190.68,172.73-209.8C385.293,54.323,459.593,140.983,459.593,245.003z"/>
	<path style="fill:#15738C;" d="M459.466,252.499c0.09-2.49,0.13-4.99,0.13-7.5c0-2.51-0.04-5.01-0.13-7.5h-111.57
		c-0.52-34-4.59-67.21-11.77-96.89c23.43-10.47,45.07-25.08,63.97-43.45l0.06-0.06c-3.45-3.61-7.04-7.1-10.75-10.47
		c-16.96,16.44-36.28,29.64-57.18,39.29c-2.02-7.01-4.23-13.77-6.62-20.25c-12.65-34.32-29.91-59.49-49.29-72.24
		c-9.95-1.43-20.12-2.16-30.45-2.16c-10.37,0-20.56,0.74-30.53,2.16c-16.4,10.75-31.2,30.25-43.22,57.41
		c-4.79,10.82-9.02,22.58-12.64,35.07c-20.88-9.64-40.2-22.84-57.14-39.28c-3.71,3.36-7.3,6.86-10.76,10.47l0.06,0.06
		c18.88,18.36,40.51,32.96,63.92,43.44c-7.18,29.55-11.22,62.55-11.73,96.9H32.276c-0.1,2.49-0.14,4.99-0.14,7.5
		c0,2.51,0.04,5.01,0.14,7.5h111.55c0.51,34.36,4.55,67.36,11.73,96.91c-23.41,10.48-45.04,25.08-63.92,43.45l-0.05,0.05
		c3.46,3.61,7.05,7.1,10.75,10.46c16.94-16.42,36.26-29.63,57.14-39.27c3.62,12.49,7.85,24.25,12.64,35.07
		c12.02,27.15,26.81,46.64,43.2,57.39c9.98,1.43,20.18,2.17,30.55,2.17c10.35,0,20.52-0.74,30.48-2.16
		c19.37-12.76,36.62-37.92,49.26-72.23c2.39-6.48,4.6-13.24,6.62-20.25c20.89,9.64,40.21,22.85,57.17,39.29
		c3.71-3.37,7.3-6.86,10.75-10.47l-0.05-0.05c-18.9-18.38-40.54-32.99-63.97-43.46c7.18-29.68,11.25-62.89,11.77-96.9H459.466z
		 M185.826,96.909c16.36-36.95,38.24-58.14,60.04-58.14c5.06,0,10.15,1.11,15.13,3.3c19.37,8.5,37.32,32.93,50.54,68.79
		c2.45,6.65,4.71,13.63,6.76,20.87c-22.88,8.57-47.34,13.05-72.43,13.05c-25.11,0-49.58-4.48-72.47-13.06
		C176.946,119.279,181.096,107.609,185.826,96.909z M311.536,379.149c-13.22,35.86-31.17,60.29-50.54,68.79
		c-4.98,2.18-10.07,3.29-15.13,3.29c-21.8,0-43.68-21.19-60.04-58.13c-4.73-10.7-8.88-22.37-12.43-34.81
		c22.89-8.58,47.36-13.07,72.47-13.07c25.09,0,49.55,4.49,72.43,13.06C316.246,365.519,313.986,372.499,311.536,379.149z
		 M322.076,343.689c-24.12-8.84-49.84-13.47-76.21-13.47c-26.4,0-52.14,4.64-76.27,13.49c-6.57-27.83-10.27-58.86-10.77-91.21
		h174.07C332.396,284.519,328.656,315.729,322.076,343.689z M158.826,237.499c0.5-32.34,4.2-63.38,10.77-91.2
		c24.13,8.85,49.87,13.48,76.27,13.48c26.37,0,52.09-4.62,76.21-13.46c6.58,27.96,10.32,59.17,10.82,91.18H158.826z"/>
	<circle style="fill:#32CC77;" cx="417.551" cy="73.317" r="73.317"/>
	<path style="fill:#FF491F;" d="M257.061,298.862h-68.967h-85.005H34.121c-18.368,0-33.258,14.89-33.258,33.258v126.353
		c0,18.368,14.89,33.258,33.258,33.258h68.967h85.005h68.967c18.368,0,33.258-14.89,33.258-33.258V332.12
		C290.319,313.752,275.429,298.862,257.061,298.862z"/>
	<polygon style="fill:#2D303B;" points="188.094,342.27 103.089,342.27 0.863,342.27 0.863,382.608 103.089,382.608 
		188.094,382.608 290.319,382.608 290.319,342.27 	"/>
	<g>
		<path style="fill:#2D303B;" d="M168.426,425.628h-45.669c-4.143,0-7.5-3.358-7.5-7.5s3.357-7.5,7.5-7.5h45.669
			c4.143,0,7.5,3.358,7.5,7.5S172.568,425.628,168.426,425.628z"/>
		<path style="fill:#2D303B;" d="M241.171,425.628h-45.669c-4.143,0-7.5-3.358-7.5-7.5s3.357-7.5,7.5-7.5h45.669
			c4.143,0,7.5,3.358,7.5,7.5S245.313,425.628,241.171,425.628z"/>
		<path style="fill:#2D303B;" d="M95.681,425.628H50.012c-4.143,0-7.5-3.358-7.5-7.5s3.357-7.5,7.5-7.5h45.669
			c4.143,0,7.5,3.358,7.5,7.5S99.823,425.628,95.681,425.628z"/>
	</g>
	<path style="fill:#E6E6E6;" d="M411.72,118.385c-2.718,0-5.23-1.473-6.556-3.858l-20-36c-2.011-3.621-0.707-8.187,2.914-10.198
		c3.624-2.012,8.188-0.707,10.199,2.914l13,23.4l28.698-59.037c1.81-3.725,6.296-5.279,10.024-3.466
		c3.725,1.811,5.277,6.299,3.466,10.024l-35,72c-1.223,2.516-3.744,4.142-6.54,4.218
		C411.856,118.384,411.788,118.385,411.72,118.385z"/>
</g>
<g>
</g>
<g>
</g>
<g>
</g>
<g>
</g>
<g>
</g>
<g>
</g>
<g>
</g>
<g>
</g>
<g>
</g>
<g>
</g>
<g>
</g>
<g>
</g>
<g>
</g>
<g>
</g>
<g>
</g>
</svg>
