<?xml version="1.0" encoding="iso-8859-1"?>
<!-- Generator: Adobe Illustrator 19.0.0, SVG Export Plug-In . SVG Version: 6.00 Build 0)  -->
<svg version="1.1" id="Layer_1" xmlns="http://www.w3.org/2000/svg" xmlns:xlink="http://www.w3.org/1999/xlink" x="0px" y="0px"
	 viewBox="0 0 489.829 489.829" style="enable-background:new 0 0 489.829 489.829;" xml:space="preserve">
<g>
	<path style="fill:#C4E2F2;" d="M431.428,26.43v330.14c0,14.6-11.83,26.43-26.43,26.43H34.858c-14.6,0-26.43-11.83-26.43-26.43
		V26.43C8.428,11.83,20.258,0,34.858,0h370.14C419.598,0,431.428,11.83,431.428,26.43z"/>
	<path style="fill:#83B2C6;" d="M431.428,26.43V58h-423V26.43C8.428,11.83,20.258,0,34.858,0h370.14
		C419.598,0,431.428,11.83,431.428,26.43z"/>
	<g>
		<path style="fill:#E6E6E6;" d="M43.427,38.503c-6.695,0-10.019-8.561-5.036-13.061c2.425-2.19,6.086-2.551,8.889-0.874
			c2.746,1.643,4.161,4.952,3.458,8.074C49.978,36.017,46.901,38.503,43.427,38.503z"/>
		<path style="fill:#E6E6E6;" d="M94.427,38.503c-3.067,0-5.889-1.952-6.987-4.803c-1.172-3.044-0.206-6.608,2.378-8.611
			c2.624-2.035,6.322-2.088,9.017-0.157c2.516,1.802,3.628,5.098,2.816,8.067C100.772,36.208,97.755,38.503,94.427,38.503z"/>
		<path style="fill:#E6E6E6;" d="M68.927,38.503c-6.695,0-10.019-8.561-5.036-13.061c2.425-2.189,6.086-2.55,8.889-0.874
			c2.746,1.643,4.161,4.952,3.458,8.074C75.478,36.017,72.401,38.503,68.927,38.503z"/>
	</g>
	<g>
		<path style="fill:#FF491F;" d="M160.156,105.532H44.662c-4.142,0-7.5-3.358-7.5-7.5s3.358-7.5,7.5-7.5h115.494
			c4.142,0,7.5,3.358,7.5,7.5S164.298,105.532,160.156,105.532z"/>
		<path style="fill:#3C3F4D;" d="M160.156,141.577H44.662c-4.142,0-7.5-3.358-7.5-7.5s3.358-7.5,7.5-7.5h115.494
			c4.142,0,7.5,3.358,7.5,7.5S164.298,141.577,160.156,141.577z"/>
		<path style="fill:#3C3F4D;" d="M140.155,177.622H44.662c-4.142,0-7.5-3.358-7.5-7.5s3.358-7.5,7.5-7.5h95.493
			c4.142,0,7.5,3.358,7.5,7.5S144.297,177.622,140.155,177.622z"/>
		<path style="fill:#3C3F4D;" d="M107.659,213.667H44.662c-4.142,0-7.5-3.358-7.5-7.5s3.358-7.5,7.5-7.5h62.997
			c4.142,0,7.5,3.358,7.5,7.5S111.801,213.667,107.659,213.667z"/>
	</g>
	<g>
		
			<ellipse transform="matrix(0.7071 -0.7071 0.7071 0.7071 -174.6004 409.6035)" style="fill:#FF8E1D;" cx="407.135" cy="415.563" rx="46.667" ry="94.064"/>
		<path style="fill:#E2720E;" d="M473.418,482.296c-18.366,17.881-62.703,2.841-99.28-33.736s-51.617-80.914-33.736-99.28
			c-9.137,10.054,12.735,47.394,49.179,83.838S463.364,491.433,473.418,482.296z"/>
		<circle style="fill:#3C3F4D;" cx="265.802" cy="274.23" r="137.701"/>
		<path style="fill:#FFFFFF;" d="M335.108,343.531c-22.97,22.97-54.49,32.15-84.31,27.56c-19.87-3.06-38.99-12.25-54.3-27.56
			c-38.28-38.27-38.28-100.33,0-138.61c15.31-15.31,34.43-24.49,54.3-27.55c29.82-4.6,61.34,4.59,84.31,27.55
			C373.378,243.201,373.378,305.261,335.108,343.531z"/>
		<path style="fill:#E6E6E6;" d="M305.108,343.531c-15.31,15.31-34.43,24.5-54.31,27.56c-19.87-3.06-38.99-12.25-54.3-27.56
			c-38.28-38.27-38.28-100.33,0-138.61c15.31-15.31,34.43-24.49,54.3-27.55c19.88,3.06,39,12.24,54.31,27.55
			C343.388,243.201,343.388,305.261,305.108,343.531z"/>
		<path style="fill:#2D303B;" d="M265.802,379.693c-27.022,0-54.036-10.282-74.608-30.854c-41.139-41.139-41.139-108.077,0-149.216
			s108.077-41.138,149.216,0l0,0c41.139,41.139,41.139,108.078,0,149.216C319.844,369.405,292.818,379.693,265.802,379.693z
			 M265.802,183.761c-23.178,0-46.356,8.823-64.001,26.468c-35.291,35.291-35.291,92.713,0,128.003
			c35.29,35.29,92.712,35.29,128.003,0c35.291-35.291,35.291-92.712,0-128.003C312.159,192.584,288.98,183.761,265.802,183.761z"/>
		<path style="fill:#32CC77;" d="M265.8,339.476c-4.142,0-7.5-3.358-7.5-7.5V216.482c0-4.142,3.358-7.5,7.5-7.5s7.5,3.358,7.5,7.5
			v115.494C273.3,336.118,269.942,339.476,265.8,339.476z"/>
		<path style="fill:#32CC77;" d="M323.547,281.729H208.053c-4.142,0-7.5-3.358-7.5-7.5s3.358-7.5,7.5-7.5h115.494
			c4.142,0,7.5,3.358,7.5,7.5S327.689,281.729,323.547,281.729z"/>
	</g>
</g>
<g>
</g>
<g>
</g>
<g>
</g>
<g>
</g>
<g>
</g>
<g>
</g>
<g>
</g>
<g>
</g>
<g>
</g>
<g>
</g>
<g>
</g>
<g>
</g>
<g>
</g>
<g>
</g>
<g>
</g>
</svg>
