<?xml version="1.0" encoding="iso-8859-1"?>
<!-- Generator: Adobe Illustrator 19.0.0, SVG Export Plug-In . SVG Version: 6.00 Build 0)  -->
<svg version="1.1" id="Layer_1" xmlns="http://www.w3.org/2000/svg" xmlns:xlink="http://www.w3.org/1999/xlink" x="0px" y="0px"
	 viewBox="0 0 490 490" style="enable-background:new 0 0 490 490;" xml:space="preserve">
<g>
	<path style="fill:#C4E2F2;" d="M490,81.61V345.6c0,23.48-19.04,42.51-42.51,42.51H42.51C19.03,388.11,0,369.08,0,345.6V81.61
		C0,65.44,9.13,51.4,22.51,44.36c5.84-3.07,12.49-4.81,19.55-4.81h405.88C471.17,39.55,490,58.38,490,81.61z"/>
	<polygon style="fill:#2D303B;" points="343.83,444.834 245,467.354 146.16,444.834 159.7,388.114 240.8,358.294 330.29,388.114 
		334.67,406.474 	"/>
	<path style="fill:#3C3F4D;" d="M490,340.594v5c0,23.48-19.04,42.52-42.52,42.52H42.51c-23.48,0-42.51-19.04-42.51-42.52v-5H490z"/>
	<polygon style="fill:#3C3F4D;" points="343.83,444.834 192.66,444.834 201.82,406.474 334.67,406.474 	"/>
	<path style="fill:#2D303B;" d="M402.08,476.414v13.47H87.92v-13.47c0-17.44,14.14-31.58,31.58-31.58h251
		C387.94,444.834,402.08,458.974,402.08,476.414z"/>
	<path style="fill:#3C3F4D;" d="M402.08,476.414v13.47H141.91v-13.47c0-17.44,14.14-31.58,31.59-31.58h197
		C387.94,444.834,402.08,458.974,402.08,476.414z"/>
	<g>
		<polygon style="fill:#32CC77;" points="439.248,176.21 389.929,149.57 253.798,149.57 204.479,176.21 231.119,225.529 
			253.798,213.279 253.798,309.724 389.929,309.724 389.929,213.279 412.608,225.529 		"/>
		<path style="fill:#1FB25E;" d="M275.149,149.575c0,25.8,20.915,46.714,46.714,46.714s46.714-20.915,46.714-46.714"/>
	</g>
	<g>
		<g>
			<path style="fill:#83B2C6;" d="M126.39,72.06c-2.97,2.9-4.33,7.09-3.63,11.19l3.54,20.64c1.77,10.33-9.07,18.21-18.34,13.33
				l-18.54-9.75c-3.69-1.93-8.09-1.93-11.77,0l-18.54,9.75c-9.27,4.88-20.11-3-18.34-13.33l3.54-20.64c0.7-4.1-0.66-8.29-3.64-11.19
				l-15-14.62c-3.78-3.69-4.6-8.77-3.16-13.08c5.84-3.07,12.49-4.81,19.55-4.81h99.59c4.53,4.69,5.1,12.67-0.26,17.89L126.39,72.06z
				"/>
		</g>
		<g>
			<path style="fill:#83B2C6;" d="M272.86,72.06c-2.98,2.9-4.34,7.09-3.64,11.19l3.54,20.64c1.77,10.33-9.07,18.21-18.34,13.33
				l-18.54-9.75c-3.68-1.93-8.08-1.93-11.77,0l-18.54,9.75c-9.27,4.88-20.11-3-18.34-13.33l3.54-20.64c0.7-4.1-0.65-8.29-3.63-11.19
				l-15-14.62c-5.36-5.22-4.79-13.2-0.26-17.89h116.23c4.53,4.7,5.1,12.67-0.25,17.89L272.86,72.06z"/>
		</g>
		<g>
			<path style="fill:#83B2C6;" d="M419.32,72.06c-2.98,2.9-4.34,7.09-3.64,11.19l3.54,20.64c1.77,10.33-9.06,18.21-18.34,13.33
				l-18.54-9.75c-3.68-1.93-8.08-1.93-11.76,0l-18.55,9.75c-9.27,4.88-20.11-3-18.34-13.33l3.54-20.64
				c0.71-4.1-0.65-8.29-3.63-11.19l-15-14.62c-5.35-5.22-4.78-13.19-0.26-17.89h116.23c4.53,4.7,5.1,12.67-0.25,17.89L419.32,72.06z
				"/>
		</g>
	</g>
	<g>
		<g>
			<path style="fill:#FFE14D;" d="M109.871,7.163l9.271,18.784c1.841,3.731,5.401,6.317,9.518,6.915l20.729,3.012
				c10.369,1.507,14.509,14.249,7.006,21.562l-15,14.621c-2.979,2.904-4.339,7.089-3.636,11.189l3.541,20.646
				c1.771,10.327-9.068,18.202-18.342,13.326l-18.541-9.748c-3.683-1.936-8.082-1.936-11.765,0l-18.541,9.748
				c-9.274,4.876-20.113-2.999-18.342-13.326l3.541-20.646c0.703-4.101-0.656-8.285-3.636-11.189l-15-14.621
				c-7.503-7.314-3.363-20.056,7.006-21.562l20.729-3.012c4.117-0.598,7.677-3.184,9.518-6.915l9.271-18.784
				C91.836-2.232,105.234-2.232,109.871,7.163z"/>
		</g>
		<g>
			<path style="fill:#FFE14D;" d="M256.333,7.163l9.271,18.784c1.841,3.731,5.401,6.317,9.518,6.915l20.729,3.012
				c10.369,1.507,14.509,14.249,7.006,21.562l-15,14.621c-2.979,2.904-4.339,7.089-3.636,11.189l3.541,20.646
				c1.771,10.327-9.068,18.202-18.342,13.326l-18.541-9.748c-3.683-1.936-8.082-1.936-11.765,0l-18.541,9.748
				c-9.274,4.876-20.113-2.999-18.342-13.326l3.541-20.646c0.703-4.101-0.656-8.285-3.636-11.189l-15-14.621
				c-7.503-7.314-3.363-20.056,7.006-21.562l20.729-3.012c4.117-0.598,7.677-3.184,9.518-6.915l9.27-18.784
				C238.298-2.232,251.696-2.232,256.333,7.163z"/>
		</g>
		<g>
			<path style="fill:#FFE14D;" d="M402.795,7.163l9.271,18.784c1.841,3.731,5.401,6.317,9.518,6.915l20.729,3.012
				c10.369,1.507,14.509,14.249,7.006,21.562l-15,14.621c-2.979,2.904-4.339,7.089-3.636,11.189l3.541,20.646
				c1.771,10.327-9.068,18.202-18.342,13.326l-18.541-9.748c-3.683-1.936-8.082-1.936-11.765,0l-18.541,9.748
				c-9.274,4.876-20.113-2.999-18.342-13.326l3.541-20.646c0.703-4.101-0.656-8.285-3.636-11.189l-15-14.621
				c-7.503-7.314-3.363-20.056,7.006-21.562l20.729-3.012c4.117-0.598,7.677-3.184,9.518-6.915l9.271-18.784
				C384.76-2.232,398.158-2.232,402.795,7.163z"/>
		</g>
	</g>
	<g>
		<path style="fill:#3C3F4D;" d="M158.125,179.342H42.63c-4.142,0-7.5-3.358-7.5-7.5s3.358-7.5,7.5-7.5h115.494
			c4.142,0,7.5,3.358,7.5,7.5S162.267,179.342,158.125,179.342z"/>
		<path style="fill:#3C3F4D;" d="M158.125,215.387H42.63c-4.142,0-7.5-3.358-7.5-7.5s3.358-7.5,7.5-7.5h115.494
			c4.142,0,7.5,3.358,7.5,7.5S162.267,215.387,158.125,215.387z"/>
		<path style="fill:#3C3F4D;" d="M158.125,251.431H42.63c-4.142,0-7.5-3.358-7.5-7.5s3.358-7.5,7.5-7.5h115.494
			c4.142,0,7.5,3.358,7.5,7.5S162.267,251.431,158.125,251.431z"/>
		<path style="fill:#3C3F4D;" d="M105.627,287.476H42.63c-4.142,0-7.5-3.358-7.5-7.5s3.358-7.5,7.5-7.5h62.997
			c4.142,0,7.5,3.358,7.5,7.5S109.77,287.476,105.627,287.476z"/>
	</g>
</g>
<g>
</g>
<g>
</g>
<g>
</g>
<g>
</g>
<g>
</g>
<g>
</g>
<g>
</g>
<g>
</g>
<g>
</g>
<g>
</g>
<g>
</g>
<g>
</g>
<g>
</g>
<g>
</g>
<g>
</g>
</svg>
