<?xml version="1.0" encoding="iso-8859-1"?>
<!-- Generator: Adobe Illustrator 19.0.0, SVG Export Plug-In . SVG Version: 6.00 Build 0)  -->
<svg version="1.1" id="Layer_1" xmlns="http://www.w3.org/2000/svg" xmlns:xlink="http://www.w3.org/1999/xlink" x="0px" y="0px"
	 viewBox="0 0 490 490" style="enable-background:new 0 0 490 490;" xml:space="preserve">
<g>
	<rect x="35.203" y="147.915" style="fill:#E6E6E6;" width="419.6" height="341.44"/>
	<polygon style="fill:#CCCCCC;" points="429.802,292.621 429.802,148.935 267.283,148.935 267.283,292.621 242.483,292.621 
		242.483,489.353 464.998,489.353 464.998,292.621 	"/>
	<rect x="35.203" y="147.915" style="fill:#CCCCCC;" width="419.6" height="46.87"/>
	<polygon style="fill:#2C92BF;" points="454.511,0.645 35.489,0.645 0,168.782 490,168.782 	"/>
	<polygon style="fill:#FF8E1D;" points="454.803,148.935 292.285,148.935 292.285,292.621 454.803,337.421 	"/>
	<rect x="73.654" y="219.573" style="fill:#2C92BF;" width="145.493" height="269.78"/>
	<rect x="267.485" y="292.621" style="fill:#FF8E1D;" width="222.515" height="196.731"/>
	<polygon style="fill:#FF491F;" points="417.742,386.621 378.742,364.621 339.742,386.621 339.742,292.621 417.742,292.621 	"/>
	<polygon style="fill:#FF491F;" points="402.028,217.59 373.544,201.522 345.059,217.59 345.059,148.935 402.028,148.935 	"/>
	<rect x="106.9" y="253.915" style="fill:#C4E2F2;" width="79" height="105"/>
	<path style="fill:#E6E6E6;" d="M185.9,366.414h-79c-4.142,0-7.5-3.358-7.5-7.5v-105c0-4.142,3.358-7.5,7.5-7.5h79
		c4.142,0,7.5,3.358,7.5,7.5v105C193.4,363.057,190.042,366.414,185.9,366.414z M114.4,351.414h64v-90h-64V351.414z"/>
	<path style="fill:#E6E6E6;" d="M185.9,403.415h-13.897c-4.142,0-7.5-3.358-7.5-7.5s3.358-7.5,7.5-7.5H185.9
		c4.142,0,7.5,3.358,7.5,7.5S190.042,403.415,185.9,403.415z"/>
	<path style="fill:#E6E6E6;" d="M146.4,366.414c-4.142,0-7.5-3.358-7.5-7.5v-105c0-4.142,3.358-7.5,7.5-7.5s7.5,3.358,7.5,7.5v105
		C153.9,363.057,150.542,366.414,146.4,366.414z"/>
	<path style="fill:#E6E6E6;" d="M185.9,313.914h-79c-4.142,0-7.5-3.358-7.5-7.5s3.358-7.5,7.5-7.5h79c4.142,0,7.5,3.358,7.5,7.5
		S190.042,313.914,185.9,313.914z"/>
	<path style="fill:#1F81A3;" d="M442,119.415H48c-4.142,0-7.5-3.358-7.5-7.5s3.358-7.5,7.5-7.5h394c4.142,0,7.5,3.358,7.5,7.5
		S446.142,119.415,442,119.415z"/>
	<path style="fill:#1F81A3;" d="M413.003,66.215H76.997c-4.142,0-7.5-3.358-7.5-7.5s3.358-7.5,7.5-7.5h336.006
		c4.142,0,7.5,3.358,7.5,7.5S417.145,66.215,413.003,66.215z"/>
	<polygon style="fill:#E2720E;" points="267.485,489.352 378.742,463.415 490,489.352 	"/>
	<polygon style="fill:#E2720E;" points="292.285,292.621 373.544,269.925 454.803,292.621 	"/>
</g>
<g>
</g>
<g>
</g>
<g>
</g>
<g>
</g>
<g>
</g>
<g>
</g>
<g>
</g>
<g>
</g>
<g>
</g>
<g>
</g>
<g>
</g>
<g>
</g>
<g>
</g>
<g>
</g>
<g>
</g>
</svg>
