<?xml version="1.0" encoding="iso-8859-1"?>
<!-- Generator: Adobe Illustrator 19.0.0, SVG Export Plug-In . SVG Version: 6.00 Build 0)  -->
<svg version="1.1" id="Layer_1" xmlns="http://www.w3.org/2000/svg" xmlns:xlink="http://www.w3.org/1999/xlink" x="0px" y="0px"
	 viewBox="0 0 498.542 498.542" style="enable-background:new 0 0 498.542 498.542;" xml:space="preserve">
<g>
	<path style="fill:#FF491F;" d="M460.603,301.022h-68.967H306.63h-68.967c-18.368,0-33.258,14.89-33.258,33.258v126.353
		c0,18.368,14.89,33.258,33.258,33.258h68.967h85.005h68.967c18.368,0,33.258-14.89,33.258-33.258V334.281
		C493.861,315.912,478.971,301.022,460.603,301.022z"/>
	<polygon style="fill:#2D303B;" points="391.636,344.43 306.63,344.43 204.405,344.43 204.405,384.769 306.63,384.769 
		391.636,384.769 493.861,384.769 493.861,344.43 	"/>
	<g>
		<path style="fill:#2D303B;" d="M371.967,427.788h-45.669c-4.143,0-7.5-3.358-7.5-7.5s3.357-7.5,7.5-7.5h45.669
			c4.143,0,7.5,3.358,7.5,7.5S376.11,427.788,371.967,427.788z"/>
		<path style="fill:#2D303B;" d="M444.713,427.788h-45.669c-4.143,0-7.5-3.358-7.5-7.5s3.357-7.5,7.5-7.5h45.669
			c4.143,0,7.5,3.358,7.5,7.5S448.855,427.788,444.713,427.788z"/>
		<path style="fill:#2D303B;" d="M299.222,427.788h-45.669c-4.143,0-7.5-3.358-7.5-7.5s3.357-7.5,7.5-7.5h45.669
			c4.143,0,7.5,3.358,7.5,7.5S303.365,427.788,299.222,427.788z"/>
	</g>
	<rect x="3.861" y="4.65" style="fill:#32CC77;" width="360.454" height="209.424"/>
	<path style="fill:#1FB25E;" d="M332.82,143.871V74.853c-21.378,0-38.709-17.331-38.709-38.709H74.064
		c0,21.378-17.331,38.709-38.709,38.709v69.018c21.378,0,38.709,17.331,38.709,38.709h220.047
		C294.111,161.202,311.442,143.871,332.82,143.871z"/>
	<circle style="fill:#32CC77;" cx="184.088" cy="109.362" r="39.003"/>
	<g>
		<g>
			<path style="fill:#32CC77;" d="M290.165,116.862h-23.999c-4.143,0-7.5-3.358-7.5-7.5s3.357-7.5,7.5-7.5h23.999
				c4.143,0,7.5,3.358,7.5,7.5S294.307,116.862,290.165,116.862z"/>
		</g>
		<g>
			<path style="fill:#32CC77;" d="M102.009,116.862H78.01c-4.142,0-7.5-3.358-7.5-7.5s3.358-7.5,7.5-7.5h23.999
				c4.142,0,7.5,3.358,7.5,7.5S106.152,116.862,102.009,116.862z"/>
		</g>
	</g>
	<g>
		<path style="fill:#1FB25E;" d="M332.824,43.64c-3.276,0-6.218-2.188-7.179-5.318c-0.878-2.858,0.108-6.081,2.416-7.973
			c5.178-4.245,13.199,0.266,12.178,6.898C339.682,40.87,336.5,43.64,332.824,43.64z"/>
		<path style="fill:#1FB25E;" d="M332.824,190.08c-3.077,0-5.885-1.939-6.996-4.802c-1.177-3.033-0.195-6.57,2.349-8.588
			c5.33-4.226,13.371,0.668,11.997,7.359C339.464,187.506,336.364,190.08,332.824,190.08z"/>
	</g>
	<g>
		<path style="fill:#1FB25E;" d="M35.354,43.64c-3.28,0-6.206-2.2-7.172-5.318c-0.93-3.001,0.22-6.413,2.769-8.245
			c5.416-3.892,13.059,0.971,11.763,7.533C42.029,41.076,38.876,43.64,35.354,43.64z"/>
		<path style="fill:#1FB25E;" d="M35.354,190.08c-3.274,0-6.214-2.203-7.172-5.323c-0.979-3.185,0.362-6.736,3.166-8.515
			c5.6-3.554,12.912,1.765,11.274,8.179C41.782,187.703,38.747,190.08,35.354,190.08z"/>
	</g>
	<g>
		<path style="fill:#C4E2F2;" d="M178.913,442.881c-39.528-14.25-73.397-39.935-97.947-74.279
			c-21.844-30.559-34.714-65.924-37.673-103.137l18.345,16.112c3.112,2.734,7.85,2.426,10.584-0.686
			c2.733-3.112,2.426-7.851-0.686-10.584l-31.458-27.629c-3.113-2.734-7.851-2.426-10.584,0.686L1.865,274.821
			c-2.733,3.112-2.426,7.851,0.686,10.584c1.424,1.251,3.189,1.865,4.946,1.865c2.083,0,4.155-0.863,5.638-2.551l15.264-17.378
			c3.275,39.675,17.057,77.378,40.364,109.984c26.328,36.833,62.658,64.381,105.063,79.667c0.84,0.303,1.699,0.446,2.543,0.446
			c3.072,0,5.954-1.902,7.056-4.958C184.83,448.583,182.809,444.286,178.913,442.881z"/>
		<path style="fill:#C4E2F2;" d="M496.448,238.861c-2.871-2.985-7.618-3.078-10.605-0.207l-15.822,15.217
			c0.038-1.687,0.071-3.374,0.071-5.058c0-65.978-29.133-128.026-79.93-170.234c-3.185-2.647-7.914-2.21-10.562,0.976
			c-2.647,3.186-2.211,7.914,0.976,10.562c47.355,39.349,74.516,97.192,74.516,158.697c0,2.43-0.058,4.864-0.143,7.298l-17.7-18.406
			c-2.871-2.985-7.618-3.078-10.605-0.207c-2.985,2.871-3.078,7.619-0.207,10.604l29.021,30.178
			c1.258,1.308,2.945,2.104,4.741,2.264c0.061,0.009,0.12,0.023,0.182,0.03c0.286,0.033,0.571,0.048,0.854,0.048
			c2.695,0,5.118-1.455,6.439-3.684l28.567-27.473C499.226,246.595,499.319,241.847,496.448,238.861z"/>
	</g>
</g>
<g>
</g>
<g>
</g>
<g>
</g>
<g>
</g>
<g>
</g>
<g>
</g>
<g>
</g>
<g>
</g>
<g>
</g>
<g>
</g>
<g>
</g>
<g>
</g>
<g>
</g>
<g>
</g>
<g>
</g>
</svg>
