<?xml version="1.0" encoding="iso-8859-1"?>
<!-- Generator: Adobe Illustrator 19.0.0, SVG Export Plug-In . SVG Version: 6.00 Build 0)  -->
<svg version="1.1" id="Layer_1" xmlns="http://www.w3.org/2000/svg" xmlns:xlink="http://www.w3.org/1999/xlink" x="0px" y="0px"
	 viewBox="0 0 490 490" style="enable-background:new 0 0 490 490;" xml:space="preserve">
<g>
	<path style="fill:#FF491F;" d="M456.742,163.411H302.769l-17.766,192.87h171.739c18.368,0,33.258-14.89,33.258-33.258V196.669
		C490,178.301,475.11,163.411,456.742,163.411z"/>
	<polygon style="fill:#2D303B;" points="290.003,247.157 490,247.157 490,206.819 302.769,206.819 	"/>
	<path style="fill:#3C3F4D;" d="M267.237,487.451H35.532C15.908,487.451,0,471.543,0,451.919V38.081
		C0,18.457,15.908,2.549,35.532,2.549h231.706c19.624,0,35.532,15.908,35.532,35.532v413.838
		C302.769,471.543,286.861,487.451,267.237,487.451z"/>
	<path style="fill:#2D303B;" d="M177.885,43.22h-53c-4.143,0-7.5-3.358-7.5-7.5s3.357-7.5,7.5-7.5h53c4.143,0,7.5,3.358,7.5,7.5
		S182.028,43.22,177.885,43.22z"/>
	<circle style="fill:#2D303B;" cx="151.385" cy="456.215" r="22.087"/>
	<path style="fill:#C4E2F2;" d="M255.245,64.709H47.524c-9.899,0-17.923,8.025-17.923,17.923v324.424
		c0,9.899,8.025,17.923,17.923,17.923h207.722c9.899,0,17.923-8.025,17.923-17.923V82.633
		C273.169,72.734,265.144,64.709,255.245,64.709z"/>
	<path style="fill:#83B2C6;" d="M273.169,82.63v324.43c0,9.9-8.03,17.92-17.92,17.92h-25.35c9.9,0,17.93-8.02,17.93-17.92V82.63
		c0-9.9-8.03-17.92-17.93-17.92h25.35C265.139,64.71,273.169,72.73,273.169,82.63z"/>
	<path style="fill:#FF491F;" d="M273.163,122.34v275.01h-145.45c-26.18,0-47.42-21.23-47.42-47.43V169.77
		c0-26.19,21.24-47.43,47.42-47.43H273.163z"/>
	<rect x="254.873" y="122.339" style="fill:#ED3618;" width="18.29" height="275.01"/>
	<polyline style="fill:#2D303B;" points="273.163,184.24 80.295,184.24 80.295,241.752 273.163,241.752 	"/>
	<path style="fill:#2D303B;" d="M369.951,290.176h-45.669c-4.143,0-7.5-3.358-7.5-7.5s3.357-7.5,7.5-7.5h45.669
		c4.143,0,7.5,3.358,7.5,7.5S374.094,290.176,369.951,290.176z"/>
	<path style="fill:#2D303B;" d="M440.852,290.176h-45.669c-4.143,0-7.5-3.358-7.5-7.5s3.357-7.5,7.5-7.5h45.669
		c4.143,0,7.5,3.358,7.5,7.5S444.994,290.176,440.852,290.176z"/>
	<path style="fill:#2D303B;" d="M273.163,282.399v20h-21.7c-5.52,0-10-4.48-10-10c0-5.53,4.48-10,10-10H273.163z"/>
	<path style="fill:#2D303B;" d="M215.488,302.398h-65.116c-5.522,0-10-4.477-10-10s4.478-10,10-10h65.116c5.522,0,10,4.477,10,10
		S221.01,302.398,215.488,302.398z"/>
	<polygon style="fill:#FF8E1D;" points="463.846,55.072 384.352,55.072 384.352,27.54 331.322,80.57 384.352,133.601 
		384.352,106.069 463.846,106.069 	"/>
</g>
<g>
</g>
<g>
</g>
<g>
</g>
<g>
</g>
<g>
</g>
<g>
</g>
<g>
</g>
<g>
</g>
<g>
</g>
<g>
</g>
<g>
</g>
<g>
</g>
<g>
</g>
<g>
</g>
<g>
</g>
</svg>
