<?xml version="1.0" encoding="iso-8859-1"?>
<!-- Generator: Adobe Illustrator 19.0.0, SVG Export Plug-In . SVG Version: 6.00 Build 0)  -->
<svg version="1.1" id="Layer_1" xmlns="http://www.w3.org/2000/svg" xmlns:xlink="http://www.w3.org/1999/xlink" x="0px" y="0px"
	 viewBox="0 0 490.091 490.091" style="enable-background:new 0 0 490.091 490.091;" xml:space="preserve">
<g>
	<path style="fill:#E5E5E5;" d="M365.452,0v106.39h-90.33c-8.55,0-16.29,3.46-21.9,9.05c-5.59,5.61-9.06,13.35-9.06,21.9
		c0,8.54-3.46,16.28-9.05,21.89c-5.61,5.6-13.34,9.06-21.9,9.06c-17.09,0-30.95-13.85-30.95-30.95V0H365.452z"/>
	<path style="fill:#CBCBCB;" d="M365.452,93.001v13.389h-90.33c-8.55,0-16.29,3.46-21.9,9.05c-5.59,5.61-9.06,13.35-9.06,21.9
		c0,8.54-3.46,16.28-9.05,21.89c-5.61,5.6-13.34,9.06-21.9,9.06c-17.09,0-30.95-13.85-30.95-30.95V93.001H365.452z"/>
	<path style="fill:#B3B3B3;" d="M306.073,137.339v30.95h-92.851c8.55,0,16.288-3.463,21.897-9.053
		c5.59-5.61,9.053-13.347,9.053-21.897s3.463-16.288,9.053-21.897c5.61-5.59,13.347-9.053,21.897-9.053s16.288,3.463,21.897,9.053
		C302.61,121.052,306.073,128.789,306.073,137.339z"/>
	<path style="fill:#E5E5E5;" d="M489.252,137.34v322.019h-183.18V137.34c0-8.55-3.46-16.29-9.06-21.9
		c-5.61-5.59-13.33-9.05-21.89-9.05h183.18c8.56,0,16.29,3.46,21.9,9.05C485.792,121.05,489.252,128.79,489.252,137.34z"/>
	<path style="fill:#2C92BF;" d="M233.919,130.996H29.378c-15.762,0-28.54,12.778-28.54,28.54v302.016
		c0,15.762,12.778,28.54,28.54,28.54h204.54c15.762,0,28.54-12.778,28.54-28.54V159.536
		C262.458,143.774,249.681,130.996,233.919,130.996z"/>
	<rect x="30.839" y="160.996" style="fill:#C4E2F2;" width="201.62" height="74.186"/>
	<g>
		<rect x="104.14" y="340.634" style="fill:#E5E5E5;" width="55.016" height="46.434"/>
		<rect x="174.156" y="274.299" style="fill:#E5E5E5;" width="50.802" height="51.335"/>
		<rect x="174.156" y="340.634" style="fill:#E5E5E5;" width="50.802" height="46.434"/>
		<rect x="174.156" y="402.068" style="fill:#E5E5E5;" width="50.802" height="51.335"/>
		<rect x="104.14" y="274.299" style="fill:#E5E5E5;" width="55.016" height="51.335"/>
		<rect x="104.14" y="402.068" style="fill:#E5E5E5;" width="55.016" height="51.335"/>
		<rect x="38.339" y="402.068" style="fill:#E5E5E5;" width="50.802" height="51.335"/>
		<rect x="38.339" y="274.299" style="fill:#E5E5E5;" width="50.802" height="51.335"/>
		<rect x="38.339" y="340.634" style="fill:#E5E5E5;" width="50.802" height="46.434"/>
	</g>
	<g>
		<path style="fill:#3C3F4D;" d="M355.342,151.86h-20c-4.142,0-7.5-3.358-7.5-7.5s3.358-7.5,7.5-7.5h20c4.142,0,7.5,3.358,7.5,7.5
			S359.484,151.86,355.342,151.86z"/>
		<path style="fill:#3C3F4D;" d="M460.342,151.86h-79c-4.142,0-7.5-3.358-7.5-7.5s3.358-7.5,7.5-7.5h79c4.142,0,7.5,3.358,7.5,7.5
			S464.484,151.86,460.342,151.86z"/>
	</g>
	<g>
		<path style="fill:#3C3F4D;" d="M355.342,320.86h-20c-4.142,0-7.5-3.358-7.5-7.5s3.358-7.5,7.5-7.5h20c4.142,0,7.5,3.358,7.5,7.5
			S359.484,320.86,355.342,320.86z"/>
		<path style="fill:#3C3F4D;" d="M460.342,320.86h-79c-4.142,0-7.5-3.358-7.5-7.5s3.358-7.5,7.5-7.5h79c4.142,0,7.5,3.358,7.5,7.5
			S464.484,320.86,460.342,320.86z"/>
	</g>
	<g>
		<path style="fill:#3C3F4D;" d="M355.342,278.61h-20c-4.142,0-7.5-3.358-7.5-7.5s3.358-7.5,7.5-7.5h20c4.142,0,7.5,3.358,7.5,7.5
			S359.484,278.61,355.342,278.61z"/>
		<path style="fill:#3C3F4D;" d="M460.342,278.61h-79c-4.142,0-7.5-3.358-7.5-7.5s3.358-7.5,7.5-7.5h79c4.142,0,7.5,3.358,7.5,7.5
			S464.484,278.61,460.342,278.61z"/>
	</g>
	<g>
		<path style="fill:#3C3F4D;" d="M355.342,236.36h-20c-4.142,0-7.5-3.358-7.5-7.5s3.358-7.5,7.5-7.5h20c4.142,0,7.5,3.358,7.5,7.5
			S359.484,236.36,355.342,236.36z"/>
		<path style="fill:#3C3F4D;" d="M460.342,236.36h-79c-4.142,0-7.5-3.358-7.5-7.5s3.358-7.5,7.5-7.5h79c4.142,0,7.5,3.358,7.5,7.5
			S464.484,236.36,460.342,236.36z"/>
	</g>
	<g>
		<path style="fill:#3C3F4D;" d="M355.342,194.11h-20c-4.142,0-7.5-3.358-7.5-7.5s3.358-7.5,7.5-7.5h20c4.142,0,7.5,3.358,7.5,7.5
			S359.484,194.11,355.342,194.11z"/>
		<path style="fill:#3C3F4D;" d="M460.342,194.11h-79c-4.142,0-7.5-3.358-7.5-7.5s3.358-7.5,7.5-7.5h79c4.142,0,7.5,3.358,7.5,7.5
			S464.484,194.11,460.342,194.11z"/>
	</g>
	<g>
		<path style="fill:#3C3F4D;" d="M231.342,42.471h-20c-4.142,0-7.5-3.358-7.5-7.5s3.358-7.5,7.5-7.5h20c4.142,0,7.5,3.358,7.5,7.5
			S235.484,42.471,231.342,42.471z"/>
		<path style="fill:#3C3F4D;" d="M336.342,42.471h-79c-4.142,0-7.5-3.358-7.5-7.5s3.358-7.5,7.5-7.5h79c4.142,0,7.5,3.358,7.5,7.5
			S340.484,42.471,336.342,42.471z"/>
	</g>
	<g>
		<path style="fill:#3C3F4D;" d="M231.342,84.721h-20c-4.142,0-7.5-3.358-7.5-7.5s3.358-7.5,7.5-7.5h20c4.142,0,7.5,3.358,7.5,7.5
			S235.484,84.721,231.342,84.721z"/>
		<path style="fill:#3C3F4D;" d="M336.342,84.721h-79c-4.142,0-7.5-3.358-7.5-7.5s3.358-7.5,7.5-7.5h79c4.142,0,7.5,3.358,7.5,7.5
			S340.484,84.721,336.342,84.721z"/>
	</g>
	<path style="fill:#3C3F4D;" d="M406.191,382.227v-18.474c3.083,0.486,5.152,1.535,6.826,2.383c1.44,0.729,2.579,1.306,3.853,1.306
		c4.071,0,5.832-4.978,5.832-7.518c0-5.42-8.484-7.93-16.511-8.482v-1.118c0-2.838-2.31-5.147-5.148-5.147s-5.147,2.309-5.147,5.147
		v1.444c-12.269,2.053-19.3,9.546-19.3,20.584c0,13.569,11.102,17.834,19.3,20.919v20.734c-4.521-0.859-7.462-3.142-9.835-4.984
		c-1.935-1.502-3.463-2.688-5.213-2.688c-3.508,0-6.148,4.624-6.148,7.623c0,5.662,8.692,12.453,21.196,13.232v0.513
		c0,1.587,0.732,3.065,1.991,4.04c0.746,0.705,1.83,1.108,2.973,1.108h0.183c2.838,0,5.148-2.31,5.148-5.148v-1.089
		c11.702-2.501,18.407-10.598,18.407-22.241C424.598,391.194,415.773,385.927,406.191,382.227z M411.248,405.743
		c0,3.544-1.747,6.157-5.057,7.578v-15.677C409.684,399.709,411.248,402.222,411.248,405.743z M395.896,364.368v13.939
		c-3.135-1.438-5.951-3.361-5.951-7.322C389.945,367.806,392.001,365.522,395.896,364.368z"/>
	<path style="fill:#3C3F4D;" d="M208.843,218.86h-16c-4.142,0-7.5-3.358-7.5-7.5s3.358-7.5,7.5-7.5h16c4.142,0,7.5,3.358,7.5,7.5
		S212.985,218.86,208.843,218.86z"/>
</g>
<g>
</g>
<g>
</g>
<g>
</g>
<g>
</g>
<g>
</g>
<g>
</g>
<g>
</g>
<g>
</g>
<g>
</g>
<g>
</g>
<g>
</g>
<g>
</g>
<g>
</g>
<g>
</g>
<g>
</g>
</svg>
