<?xml version="1.0" encoding="iso-8859-1"?>
<!-- Generator: Adobe Illustrator 19.0.0, SVG Export Plug-In . SVG Version: 6.00 Build 0)  -->
<svg version="1.1" id="Layer_1" xmlns="http://www.w3.org/2000/svg" xmlns:xlink="http://www.w3.org/1999/xlink" x="0px" y="0px"
	 viewBox="0 0 489.502 489.502" style="enable-background:new 0 0 489.502 489.502;" xml:space="preserve">
<g>
	<path style="fill:#C4E2F2;" d="M489.502,42.138v330.14c0,14.6-11.83,26.43-26.43,26.43H92.932c-14.6,0-26.43-11.83-26.43-26.43
		V42.138c0-14.6,11.83-26.43,26.43-26.43h370.14C477.672,15.708,489.502,27.538,489.502,42.138z"/>
	<rect x="120.492" y="344.188" style="fill:#83B2C6;" width="34.58" height="54.52"/>
	<rect x="188.992" y="284.188" style="fill:#83B2C6;" width="34.57" height="114.52"/>
	<path style="fill:#83B2C6;" d="M489.497,42.137v31.57h-423v-31.57c0-14.6,11.83-26.43,26.43-26.43h370.14
		C477.667,15.707,489.497,27.537,489.497,42.137z"/>
	<g>
		<path style="fill:#E5E5E5;" d="M101.492,54.208c-6.96,0-10.094-9.061-4.638-13.389c5.347-4.241,13.349,0.687,11.997,7.349
			C108.148,51.634,105.036,54.208,101.492,54.208z"/>
		<path style="fill:#E5E5E5;" d="M152.492,54.208c-6.881,0-10.071-8.914-4.752-13.295c2.431-2.002,5.985-2.246,8.673-0.602
			c2.713,1.66,4.114,4.991,3.389,8.088C159.015,51.758,155.951,54.208,152.492,54.208z"/>
		<path style="fill:#E5E5E5;" d="M127.002,54.208c-3.061,0-5.881-1.93-6.993-4.776c-1.206-3.087-0.177-6.699,2.463-8.702
			c5.497-4.172,13.525,1.094,11.795,7.819C133.424,51.826,130.396,54.208,127.002,54.208z"/>
	</g>
	<path style="fill:#FF491F;" d="M397.992,234.698c0,66.27-53.72,119.99-120,119.99c-19.6,0-38.09-4.7-54.43-13.03
		c-13.09-6.67-24.8-15.68-34.57-26.48c-19.26-21.29-30.99-49.51-30.99-80.48c0-66.27,53.72-119.99,119.99-119.99v119.99l94.73-73.66
		C388.562,181.378,397.992,206.938,397.992,234.698z"/>
	<path style="fill:#ED3618;" d="M223.562,284.188v57.47c-13.09-6.67-24.8-15.68-34.57-26.48v-30.99H223.562z"/>
	<path style="fill:#83B2C6;" d="M384.293,105.376l-94.73,73.405V59.207C328.063,59.207,362.343,77.283,384.293,105.376z"/>
	<path style="fill:#2C92BF;" d="M397.987,234.693c0,40.01-19.59,75.45-49.7,97.25l-70.29-97.25l94.72-73.66
		C388.557,181.373,397.987,206.933,397.987,234.693z"/>
	<path style="fill:#FF8E1D;" d="M399.294,105.376l-94.73,73.405V59.207C343.064,59.207,377.344,77.283,399.294,105.376z"/>
	<rect y="249.692" style="fill:#32CC77;" width="34.577" height="224.103"/>
	<rect x="66.497" y="198.695" style="fill:#32CC77;" width="34.577" height="275.099"/>
	<rect x="135.496" y="344.188" style="fill:#32CC77;" width="34.577" height="129.606"/>
	<rect x="203.989" y="284.191" style="fill:#32CC77;" width="34.577" height="189.603"/>
	<path style="fill:#FF491F;" d="M463.556,369.932H384.06c-4.143,0-7.5-3.358-7.5-7.5s3.357-7.5,7.5-7.5h79.495
		c4.143,0,7.5,3.358,7.5,7.5S467.698,369.932,463.556,369.932z"/>
	<path style="fill:#FF8E1D;" d="M463.556,338.189h-55.497c-4.143,0-7.5-3.358-7.5-7.5s3.357-7.5,7.5-7.5h55.497
		c4.143,0,7.5,3.358,7.5,7.5S467.698,338.189,463.556,338.189z"/>
</g>
<g>
</g>
<g>
</g>
<g>
</g>
<g>
</g>
<g>
</g>
<g>
</g>
<g>
</g>
<g>
</g>
<g>
</g>
<g>
</g>
<g>
</g>
<g>
</g>
<g>
</g>
<g>
</g>
<g>
</g>
</svg>
