<?xml version="1.0" encoding="iso-8859-1"?>
<!-- Generator: Adobe Illustrator 19.0.0, SVG Export Plug-In . SVG Version: 6.00 Build 0)  -->
<svg version="1.1" id="Layer_1" xmlns="http://www.w3.org/2000/svg" xmlns:xlink="http://www.w3.org/1999/xlink" x="0px" y="0px"
	 viewBox="0 0 490 490" style="enable-background:new 0 0 490 490;" xml:space="preserve">
<g>
	<path style="fill:#1F81A3;" d="M458.73,244.133c0,2.51-0.04,5.01-0.13,7.5c-1.88,54.43-24.11,103.69-59.32,140.41
		c-3.45,3.61-7.04,7.1-10.75,10.47c-28.3,25.66-63.53,43.84-102.53,51.42c-3.48,0.68-6.98,1.27-10.52,1.77
		c-9.96,1.42-20.13,2.16-30.48,2.16c-10.37,0-20.57-0.74-30.55-2.17c-43.16-6.17-82.16-25.25-112.98-53.19
		c-3.7-3.36-7.29-6.85-10.75-10.46c-35.21-36.72-57.44-85.98-59.31-140.41c-0.1-2.49-0.14-4.99-0.14-7.5c0-2.51,0.04-5.01,0.14-7.5
		c1.87-54.43,24.09-103.68,59.3-140.4c3.46-3.61,7.05-7.11,10.76-10.47c30.82-27.95,69.83-47.02,113-53.2
		c9.97-1.42,20.16-2.16,30.53-2.16c10.33,0,20.5,0.73,30.45,2.16c3.55,0.5,7.06,1.09,10.55,1.77
		c39.01,7.58,74.23,25.76,102.54,51.43c3.71,3.37,7.3,6.86,10.75,10.47c35.21,36.72,57.43,85.97,59.31,140.4
		C458.69,239.123,458.73,241.623,458.73,244.133z"/>
	<path style="fill:#2C92BF;" d="M458.727,244.137c0,104.02-74.3,190.68-172.73,209.8c-98.43-19.12-172.73-105.78-172.73-209.8
		s74.3-190.68,172.73-209.8C384.427,53.457,458.727,140.117,458.727,244.137z"/>
	<path style="fill:#15738C;" d="M458.6,251.633c0.09-2.49,0.13-4.99,0.13-7.5c0-2.51-0.04-5.01-0.13-7.5H347.03
		c-0.52-34-4.59-67.21-11.77-96.89c23.43-10.47,45.07-25.08,63.97-43.45l0.06-0.06c-3.45-3.61-7.04-7.1-10.75-10.47
		c-16.96,16.44-36.28,29.64-57.18,39.29c-2.02-7.01-4.23-13.77-6.62-20.25c-12.65-34.32-29.91-59.49-49.29-72.24
		c-9.95-1.43-20.12-2.16-30.45-2.16c-10.37,0-20.56,0.74-30.53,2.16c-16.4,10.75-31.2,30.25-43.22,57.41
		c-4.79,10.82-9.02,22.58-12.64,35.07c-20.88-9.64-40.2-22.84-57.14-39.28c-3.71,3.36-7.3,6.86-10.76,10.47l0.06,0.06
		c18.88,18.36,40.51,32.96,63.92,43.44c-7.18,29.55-11.22,62.55-11.73,96.9H31.41c-0.1,2.49-0.14,4.99-0.14,7.5
		c0,2.51,0.04,5.01,0.14,7.5h111.55c0.51,34.36,4.55,67.36,11.73,96.91c-23.41,10.48-45.04,25.08-63.92,43.45l-0.05,0.05
		c3.46,3.61,7.05,7.1,10.75,10.46c16.94-16.42,36.26-29.63,57.14-39.27c3.62,12.49,7.85,24.25,12.64,35.07
		c12.02,27.15,26.81,46.64,43.2,57.39c9.98,1.43,20.18,2.17,30.55,2.17c10.35,0,20.52-0.74,30.48-2.16
		c19.37-12.76,36.62-37.92,49.26-72.23c2.39-6.48,4.6-13.24,6.62-20.25c20.89,9.64,40.21,22.85,57.17,39.29
		c3.71-3.37,7.3-6.86,10.75-10.47l-0.05-0.05c-18.9-18.38-40.54-32.99-63.97-43.46c7.18-29.68,11.25-62.89,11.77-96.9H458.6z
		 M184.96,96.043c16.36-36.95,38.24-58.14,60.04-58.14c5.06,0,10.15,1.11,15.13,3.3c19.37,8.5,37.32,32.93,50.54,68.79
		c2.45,6.65,4.71,13.63,6.76,20.87c-22.88,8.57-47.34,13.05-72.43,13.05c-25.11,0-49.58-4.48-72.47-13.06
		C176.08,118.413,180.23,106.743,184.96,96.043z M310.67,378.283c-13.22,35.86-31.17,60.29-50.54,68.79
		c-4.98,2.18-10.07,3.29-15.13,3.29c-21.8,0-43.68-21.19-60.04-58.13c-4.73-10.7-8.88-22.37-12.43-34.81
		c22.89-8.58,47.36-13.07,72.47-13.07c25.09,0,49.55,4.49,72.43,13.06C315.38,364.653,313.12,371.633,310.67,378.283z
		 M321.21,342.823c-24.12-8.84-49.84-13.47-76.21-13.47c-26.4,0-52.14,4.64-76.27,13.49c-6.57-27.83-10.27-58.86-10.77-91.21h174.07
		C331.53,283.653,327.79,314.863,321.21,342.823z M157.96,236.633c0.5-32.34,4.2-63.38,10.77-91.2
		c24.13,8.85,49.87,13.48,76.27,13.48c26.37,0,52.09-4.62,76.21-13.46c6.58,27.96,10.32,59.17,10.82,91.18H157.96z"/>
	<g>
		<path style="fill:#1FB25E;" d="M188.047,380.596l-2.745,20.952l-8.79,66.932c-1.582,12.058-11.849,21.068-24.011,21.068H47.593
			c-12.163,0-22.429-9.01-24.011-21.068l-11.534-87.885l88-23.571L188.047,380.596z"/>
		<path style="fill:#32CC77;" d="M185.302,401.549l-8.79,66.932c-1.582,12.058-11.849,21.068-24.011,21.068H81.117
			c-12.163,0-22.429-9.01-24.011-21.068l-5.957-45.361c-1.501-11.43,7.396-21.571,18.923-21.571H185.302z"/>
		<path style="fill:#1FB25E;" d="M200.095,356.899v12.823c0,6.003-4.871,10.874-10.874,10.874H10.874
			C4.871,380.596,0,375.725,0,369.722v-12.823c0-6.003,4.871-10.874,10.874-10.874h178.346
			C195.223,346.025,200.095,350.896,200.095,356.899z"/>
		<path style="fill:#32CC77;" d="M200.095,356.899v12.823c0,6.003-4.871,10.874-10.874,10.874H52.779
			c-6.003,0-10.874-4.871-10.874-10.874v-12.823c0-6.003,4.871-10.874,10.874-10.874h136.442
			C195.223,346.025,200.095,350.896,200.095,356.899z"/>
		<path style="fill:#3C3F4D;" d="M100.047,296.787L100.047,296.787c-9.836,0-17.81,7.974-17.81,17.809v84.857
			c0,9.836,7.974,17.809,17.809,17.809h0c9.836,0,17.809-7.974,17.809-17.809v-84.857
			C117.857,304.761,109.883,296.787,100.047,296.787z"/>
	</g>
	<g>
		<path style="fill:#FF491F;" d="M489.966,72.731c-2.059-96.372-146.803-96.372-148.862,0c-0.022,1.051-0.034,2.105-0.034,3.162
			c0,54.516,30.04,102.007,74.465,126.848C459.96,177.9,490,130.409,490,75.893C490,74.836,489.989,73.782,489.966,72.731z"/>
		<path style="fill:#ED3618;" d="M415.535,202.741c-44.425-24.84-74.468-72.333-74.468-126.848c0-1.057,0.012-2.11,0.033-3.162
			c1.024-47.906,37.304-71.995,73.786-72.275c-27.305,0.376-54.4,24.465-55.167,72.275c-0.016,1.053-0.029,2.105-0.029,3.162
			C359.691,130.408,382.219,177.901,415.535,202.741z"/>
		<path style="fill:#C4E2F2;" d="M415.75,116.925c-9.589,0-18.405-3.311-25.366-8.849c-4.917-3.912-8.907-8.936-11.594-14.691
			c-1.306-2.798-2.304-5.771-2.951-8.875c0-0.003,0-0.003,0-0.003c-0.562-2.694-0.858-5.485-0.858-8.348
			c0-22.513,18.253-40.766,40.769-40.766c12.085,0,22.945,5.261,30.409,13.619c1.404,1.57,2.687,3.25,3.838,5.027
			c4.124,6.369,6.519,13.963,6.519,22.12c0,0.357-0.003,0.715-0.013,1.069C455.934,99.251,437.906,116.925,415.75,116.925z"/>
		<path style="fill:#83B2C6;" d="M415.75,116.925c-9.589,0-18.405-3.311-25.366-8.849c-4.917-3.912-8.907-8.936-11.594-14.691
			c-1.306-2.798-2.304-5.771-2.951-8.875c0-0.003,0-0.003,0-0.003c-0.562-2.694-0.858-5.485-0.858-8.348
			c0-22.513,18.253-40.766,40.769-40.766c2.164,0,4.289,0.169,6.366,0.494c-19.497,3.051-34.413,19.92-34.413,40.272
			c0,2.863,0.296,5.654,0.858,8.348c0,0,0,0,0,0.003c0.647,3.103,1.644,6.077,2.951,8.875c2.687,5.755,6.678,10.779,11.594,14.691
			c5.391,4.286,11.89,7.24,19.003,8.351C420.036,116.756,417.914,116.925,415.75,116.925z"/>
	</g>
</g>
<g>
</g>
<g>
</g>
<g>
</g>
<g>
</g>
<g>
</g>
<g>
</g>
<g>
</g>
<g>
</g>
<g>
</g>
<g>
</g>
<g>
</g>
<g>
</g>
<g>
</g>
<g>
</g>
<g>
</g>
</svg>
