<?xml version="1.0" encoding="iso-8859-1"?>
<!-- Generator: Adobe Illustrator 19.0.0, SVG Export Plug-In . SVG Version: 6.00 Build 0)  -->
<svg version="1.1" id="Layer_1" xmlns="http://www.w3.org/2000/svg" xmlns:xlink="http://www.w3.org/1999/xlink" x="0px" y="0px"
	 viewBox="0 0 489.996 489.996" style="enable-background:new 0 0 489.996 489.996;" xml:space="preserve">
<g>
	<rect x="129.543" y="140.286" style="fill:#32CC77;" width="360.454" height="209.424"/>
	<path style="fill:#1FB25E;" d="M458.502,279.507v-69.018c-21.378,0-38.709-17.331-38.709-38.709H199.746
		c0,21.378-17.331,38.709-38.709,38.709v69.018c21.378,0,38.709,17.331,38.709,38.709h220.047
		C419.793,296.838,437.124,279.507,458.502,279.507z"/>
	<circle style="fill:#32CC77;" cx="309.77" cy="244.998" r="39.003"/>
	<g>
		<path style="fill:#32CC77;" d="M411.014,252.498h-23.998c-4.143,0-7.5-3.358-7.5-7.5s3.357-7.5,7.5-7.5h23.998
			c4.143,0,7.5,3.358,7.5,7.5S415.157,252.498,411.014,252.498z"/>
	</g>
	<path style="fill:#1FB25E;" d="M458.501,179.277c-6.756,0-10.028-8.63-4.98-13.103c2.533-2.244,6.325-2.482,9.14-0.627
		c2.522,1.662,3.803,4.821,3.177,7.774C465.112,176.751,462.015,179.277,458.501,179.277z"/>
	<path style="fill:#1FB25E;" d="M458.501,325.717c-2.925,0-5.675-1.784-6.855-4.462c-1.327-3.009-0.501-6.629,2.008-8.755
		c5.134-4.352,13.288,0.1,12.263,6.816C465.364,322.941,462.187,325.717,458.501,325.717z"/>
	<path style="fill:#3C3F4D;" d="M267.237,487.449H35.532C15.908,487.449,0,471.541,0,451.917V38.079
		C0,18.456,15.908,2.547,35.532,2.547h231.706c19.624,0,35.532,15.908,35.532,35.532v413.838
		C302.769,471.541,286.861,487.449,267.237,487.449z"/>
	<path style="fill:#C4E2F2;" d="M255.245,64.707H47.524c-9.899,0-17.923,8.025-17.923,17.923v324.424
		c0,9.899,8.025,17.923,17.923,17.923h207.722c9.899,0,17.923-8.025,17.923-17.923V82.631
		C273.169,72.732,265.144,64.707,255.245,64.707z"/>
	<path style="fill:#83B2C6;" d="M273.169,82.628v324.43c0,9.9-8.03,17.92-17.92,17.92h-25.35c9.9,0,17.93-8.02,17.93-17.92V82.628
		c0-9.9-8.03-17.92-17.93-17.92h25.35C265.139,64.708,273.169,72.728,273.169,82.628z"/>
	<rect x="70.942" y="119.188" style="fill:#32CC77;" width="202.23" height="249.56"/>
	<path style="fill:#1FB25E;" d="M273.172,156.718v174.5h-118.57c0-25.48-20.65-46.13-46.13-46.13v-82.24
		c25.48,0,46.13-20.66,46.13-46.13H273.172z"/>
	<path style="fill:#32CC77;" d="M273.172,199.198v89.54c-19.58-5.48-33.94-23.45-33.94-44.77S253.592,204.678,273.172,199.198z"/>
	<g>
		<path style="fill:#32CC77;" d="M193.662,253.467h-28.599c-5.247,0-9.5-4.253-9.5-9.5s4.253-9.5,9.5-9.5h28.599
			c5.247,0,9.5,4.253,9.5,9.5S198.909,253.467,193.662,253.467z"/>
	</g>
	<g>
		<path style="fill:#1FB25E;" d="M108.471,340.717c-3.882,0-7.424-2.442-8.838-6.043c-1.482-3.775-0.336-8.233,2.813-10.797
			c3.124-2.544,7.605-2.844,11.037-0.726c3.309,2.042,5.095,6.103,4.308,9.926C116.89,337.459,112.963,340.717,108.471,340.717z"/>
		<path style="fill:#1FB25E;" d="M108.471,166.217c-3.879,0-7.425-2.445-8.838-6.043c-1.479-3.768-0.339-8.243,2.813-10.801
			c3.122-2.533,7.611-2.848,11.037-0.723c3.305,2.05,5.096,6.097,4.308,9.926C116.89,162.957,112.961,166.217,108.471,166.217z"/>
	</g>
	<path style="fill:#2D303B;" d="M177.883,43.218h-53c-4.143,0-7.5-3.358-7.5-7.5s3.357-7.5,7.5-7.5h53c4.143,0,7.5,3.358,7.5,7.5
		S182.026,43.218,177.883,43.218z"/>
	<circle style="fill:#2D303B;" cx="151.383" cy="456.214" r="22.087"/>
</g>
<g>
</g>
<g>
</g>
<g>
</g>
<g>
</g>
<g>
</g>
<g>
</g>
<g>
</g>
<g>
</g>
<g>
</g>
<g>
</g>
<g>
</g>
<g>
</g>
<g>
</g>
<g>
</g>
<g>
</g>
</svg>
