<?xml version="1.0" encoding="iso-8859-1"?>
<!-- Generator: Adobe Illustrator 19.0.0, SVG Export Plug-In . SVG Version: 6.00 Build 0)  -->
<svg version="1.1" id="Layer_1" xmlns="http://www.w3.org/2000/svg" xmlns:xlink="http://www.w3.org/1999/xlink" x="0px" y="0px"
	 viewBox="0 0 489.332 489.332" style="enable-background:new 0 0 489.332 489.332;" xml:space="preserve">
<g>
	<path style="fill:#CE6209;" d="M113.12,243.411l-69.63,47.525C19.47,290.936,0,223.941,0,199.921c0-12.02,4.87-22.89,12.74-30.76
		s18.74-12.74,30.75-12.74h283.23c20.38,0,36.89,16.51,36.89,36.89v18.5"/>
	<path style="fill:#3C3F4D;" d="M263.12,25.311v218.1H47.38v-218.1c0-13.98,11.33-25.31,25.32-25.31h165.1
		C251.78,0.001,263.12,11.331,263.12,25.311z"/>
	<path style="fill:#C4E2F2;" d="M242.02,57.061v186.35H68.47V57.061c0-7.05,5.72-12.77,12.77-12.77h148.01
		C236.31,44.291,242.02,50.011,242.02,57.061z"/>
	<path style="fill:#83B2C6;" d="M242.024,57.057v231.172c0,7.054-5.722,12.769-12.769,12.769h-18.063
		c7.054,0,12.776-5.715,12.776-12.769V57.057c0-7.054-5.722-12.769-12.776-12.769h18.063
		C236.303,44.288,242.024,50.003,242.024,57.057z"/>
	<path style="fill:#83B2C6;" d="M383.022,99.425H171.348c-15.33,0-27.757,12.427-27.757,27.757v118.887
		c0,15.33,12.427,27.757,27.757,27.757h211.674c16.609,0,30.073-13.464,30.073-30.073V129.499
		C413.095,112.89,399.631,99.425,383.022,99.425z"/>
	<path style="fill:#FF491F;" d="M404.368,99.425H192.694c-15.33,0-27.757,12.427-27.757,27.757v118.887
		c0,15.33,12.427,27.757,27.757,27.757h211.674c16.609,0,30.073-13.464,30.073-30.073V129.499
		C434.441,112.89,420.977,99.425,404.368,99.425z"/>
	<rect x="164.937" y="138.677" style="fill:#2D303B;" width="269.504" height="36.475"/>
	<rect x="101.378" y="211.807" style="fill:#83B2C6;" width="363.954" height="209.424"/>
	<rect x="125.378" y="211.807" style="fill:#32CC77;" width="363.954" height="209.424"/>
	<path style="fill:#1FB25E;" d="M457.838,351.028V282.01c-21.378,0-38.709-17.331-38.709-38.709H195.581
		c0,21.378-17.331,38.709-38.709,38.709v69.018c21.378,0,38.709,17.331,38.709,38.709h223.547
		C419.129,368.359,436.459,351.028,457.838,351.028z"/>
	<g>
		<path style="fill:#32CC77;" d="M410.35,324.019h-23.999c-4.142,0-7.5-3.358-7.5-7.5s3.358-7.5,7.5-7.5h23.999
			c4.142,0,7.5,3.358,7.5,7.5S414.492,324.019,410.35,324.019z"/>
	</g>
	<g>
		<path style="fill:#1FB25E;" d="M457.837,250.795c-6.597,0-9.97-8.326-5.189-12.906c2.169-2.078,5.483-2.661,8.227-1.439
			c2.978,1.327,4.817,4.519,4.401,7.768C464.802,247.927,461.594,250.795,457.837,250.795z"/>
		<path style="fill:#1FB25E;" d="M457.837,397.235c-6.728,0-10.06-8.643-4.963-13.114c2.279-1.999,5.622-2.438,8.333-1.078
			c2.897,1.454,4.568,4.727,4.026,7.931C464.63,394.538,461.459,397.235,457.837,397.235z"/>
	</g>
	<path style="fill:#FF8E1D;" d="M363.61,280.301v172.14c0,20.38-16.51,36.89-36.89,36.89H43.49c-24.02,0-43.49-19.47-43.49-43.5
		v-245.91c0,24.02,19.47,43.49,43.49,43.49h283.23C347.1,243.411,363.61,259.931,363.61,280.301z"/>
	<path style="fill:#E2720E;" d="M47.38,243.411v245.92h-3.89c-24.02,0-43.49-19.47-43.49-43.5v-245.91
		c0,24.02,19.47,43.49,43.49,43.49H47.38z"/>
	<path style="fill:#FFBE1D;" d="M321.618,364.415c0,13.23-9.01,24.35-21.23,27.56c-2.32,0.61-4.76,0.94-7.27,0.94
		c-15.74,0-28.5-12.76-28.5-28.5s12.76-28.5,28.5-28.5c2.51,0,4.95,0.33,7.27,0.94C312.608,340.066,321.618,351.186,321.618,364.415
		z"/>
	<path style="fill:#FFE14D;" d="M321.618,364.415c0,13.23-9.01,24.35-21.23,27.56c-12.21-3.22-21.22-14.34-21.22-27.56
		c0-13.22,9.01-24.34,21.22-27.56C312.608,340.066,321.618,351.186,321.618,364.415z"/>
</g>
<g>
</g>
<g>
</g>
<g>
</g>
<g>
</g>
<g>
</g>
<g>
</g>
<g>
</g>
<g>
</g>
<g>
</g>
<g>
</g>
<g>
</g>
<g>
</g>
<g>
</g>
<g>
</g>
<g>
</g>
</svg>
