<?xml version="1.0" encoding="iso-8859-1"?>
<!-- Generator: Adobe Illustrator 19.0.0, SVG Export Plug-In . SVG Version: 6.00 Build 0)  -->
<svg version="1.1" id="Layer_1" xmlns="http://www.w3.org/2000/svg" xmlns:xlink="http://www.w3.org/1999/xlink" x="0px" y="0px"
	 viewBox="0 0 484.902 484.902" style="enable-background:new 0 0 484.902 484.902;" xml:space="preserve">
<g>
	<path style="fill:#3C3F4D;" d="M358.304,484.902H126.598c-19.624,0-35.532-15.908-35.532-35.532V35.532
		C91.066,15.908,106.974,0,126.598,0h231.706c19.624,0,35.532,15.908,35.532,35.532V449.37
		C393.835,468.994,377.927,484.902,358.304,484.902z"/>
	<circle style="fill:#2D303B;" cx="242.451" cy="453.666" r="22.087"/>
	<path style="fill:#C4E2F2;" d="M346.312,62.16H138.59c-9.899,0-17.923,8.025-17.923,17.923v324.424
		c0,9.899,8.025,17.923,17.923,17.923h207.722c9.899,0,17.923-8.025,17.923-17.923V80.083
		C364.235,70.185,356.21,62.16,346.312,62.16z"/>
	<g>
		<path style="fill:#FF491F;" d="M288.449,133.22L288.449,133.22c-15.74,0-28.5,12.76-28.5,28.5v28.501h28.5
			c15.74,0,28.5-12.76,28.5-28.5v0C316.949,145.981,304.189,133.22,288.449,133.22z"/>
		<path style="fill:#FF491F;" d="M196.449,133.22L196.449,133.22c15.74,0,28.501,12.76,28.501,28.5v28.501h-28.501
			c-15.74,0-28.5-12.76-28.5-28.5v0C167.948,145.981,180.708,133.22,196.449,133.22z"/>
		<rect x="151.949" y="189.721" style="fill:#FFE14D;" width="181" height="163"/>
		<rect x="151.949" y="236.72" style="fill:#FFBE1D;" width="181" height="18.722"/>
		<path style="fill:#FF491F;" d="M264.949,189.721c0-12.426-10.074-22.5-22.5-22.5s-22.5,10.074-22.5,22.5"/>
		<rect x="219.949" y="189.721" style="fill:#FF491F;" width="45" height="163"/>
	</g>
	<path style="fill:#2D303B;" d="M268.951,38.22h-53c-4.143,0-7.5-3.358-7.5-7.5s3.357-7.5,7.5-7.5h53c4.143,0,7.5,3.358,7.5,7.5
		S273.094,38.22,268.951,38.22z"/>
</g>
<g>
</g>
<g>
</g>
<g>
</g>
<g>
</g>
<g>
</g>
<g>
</g>
<g>
</g>
<g>
</g>
<g>
</g>
<g>
</g>
<g>
</g>
<g>
</g>
<g>
</g>
<g>
</g>
<g>
</g>
</svg>
