<?xml version="1.0" encoding="iso-8859-1"?>
<!-- Generator: Adobe Illustrator 19.0.0, SVG Export Plug-In . SVG Version: 6.00 Build 0)  -->
<svg version="1.1" id="Layer_1" xmlns="http://www.w3.org/2000/svg" xmlns:xlink="http://www.w3.org/1999/xlink" x="0px" y="0px"
	 viewBox="0 0 506.114 506.114" style="enable-background:new 0 0 506.114 506.114;" xml:space="preserve">
<g>
	<g>
		<path style="fill:#FFE14D;" d="M102.29,225.418c15.281,29.547,26.949,49.533,55.819,78.402c28.87,28.87,48.848,40.53,78.41,55.811
			l49.731-49.731c5.138-5.138,13.471-5.138,18.609,0l73.522,73.522c5.138,5.138,5.138,13.471,0,18.609l-19.764,19.764
			c-57.482,57.482-169.282,38.888-263.326-55.156C1.238,272.588-17.356,160.788,40.126,103.306L59.89,83.542
			c5.138-5.138,13.471-5.138,18.609,0l73.529,73.529c5.138,5.138,5.138,13.471,0,18.609L102.29,225.418z"/>
		<path style="fill:#FFBE1D;" d="M114.428,347.497C20.38,253.448,1.784,141.648,59.266,84.166l-19.139,19.139
			c-57.482,57.482-38.886,169.282,55.162,263.33s205.848,112.644,263.33,55.162l19.139-19.139
			C320.276,460.141,208.476,441.545,114.428,347.497z"/>
		<path style="fill:#E6E6E6;" d="M78.499,83.542l73.529,73.529c5.138,5.138,5.138,13.471,0,18.609l-19.764,19.764l-92.138-92.138
			L59.89,83.542C65.028,78.404,73.361,78.404,78.499,83.542z"/>
		<path style="fill:#E6E6E6;" d="M304.858,309.901l73.522,73.522c5.138,5.138,5.138,13.471,0,18.609l-19.764,19.764l-92.131-92.131
			l19.764-19.764C291.388,304.763,299.72,304.763,304.858,309.901z"/>
		<path style="fill:#CCCCCC;" d="M122.924,146.575l-19.764,19.764l29.105,29.105l19.764-19.764c5.138-5.138,5.138-13.471,0-18.609
			l-29.105-29.105C128.062,133.104,128.062,141.437,122.924,146.575z"/>
		<g>
			<path style="fill:#32CC77;" d="M474.216,51.692H228.553c-13.475,0-24.398,10.923-24.398,24.398v114.474
				c0,13.475,10.923,24.398,24.398,24.398h14.283v56l56-56h175.38c13.475,0,24.398-10.923,24.398-24.398V76.09
				C498.614,62.615,487.691,51.692,474.216,51.692z"/>
		</g>
	</g>
	<g>
		<path d="M474.216,44.192h-47.587c-4.142,0-7.5,3.358-7.5,7.5s3.358,7.5,7.5,7.5h47.587c9.317,0,16.898,7.581,16.898,16.898
			v114.474c0,9.318-7.581,16.898-16.898,16.898h-175.38c-1.989,0-3.897,0.79-5.303,2.197l-43.197,43.197v-37.894
			c0-4.142-3.358-7.5-7.5-7.5h-14.283c-9.318,0-16.898-7.581-16.898-16.898V76.09c0-9.318,7.581-16.898,16.898-16.898h173.074
			c4.142,0,7.5-3.358,7.5-7.5s-3.358-7.5-7.5-7.5H228.553c-17.589,0-31.898,14.31-31.898,31.898v114.474
			c0,17.589,14.31,31.898,31.898,31.898h6.783v48.5c0,3.034,1.827,5.768,4.63,6.929c0.928,0.384,1.902,0.571,2.869,0.571
			c1.952,0,3.87-0.762,5.305-2.197l53.803-53.803h172.274c17.588,0,31.898-14.31,31.898-31.898V76.09
			C506.114,58.501,491.805,44.192,474.216,44.192z"/>
		<path d="M271.132,140.398c8.894-6.088,19.962-13.665,19.962-26.627c0-6.147-2.488-11.387-7.195-15.152
			c-4.164-3.331-9.902-5.241-15.744-5.241c-10.788,0-22.254,6.633-22.254,18.925c0,5.421,2.283,8.056,6.979,8.056
			c5.296,0,8.154-2.94,8.154-5.707c0-4.587,2.631-7.219,7.219-7.219c5.4,0,7.317,3.678,7.317,6.827
			c0,5.825-6.872,10.869-14.147,16.209c-8.208,6.025-16.697,12.255-16.697,20.412v9.498c0,2.945,4.018,4.825,6.783,4.825h34.858
			c2.518,0,4.727-3.216,4.727-6.881c0-3.561-2.209-6.685-4.727-6.685h-25.529v-0.756
			C260.839,147.444,265.609,144.179,271.132,140.398z"/>
		<path d="M332.585,165.203c5.333,0,7.762-2.501,7.762-4.825v-10.254h4.085c2.435,0,4.825-3.554,4.825-7.175
			c0-4.93-2.501-7.175-4.825-7.175h-4.085v-6.729c0-2.18-2.033-4.727-7.762-4.727s-7.763,2.546-7.763,4.727v6.729h-8.093
			l17.244-34.586c0.259-0.606,0.5-1.256,0.5-1.91c0-1.6-1.024-3.133-2.885-4.316c-1.516-0.964-3.43-1.586-4.877-1.586
			c-2.847,0-5.147,1.415-6.476,3.985l-22.617,44.353c-0.695,1.273-0.799,2.424-0.799,2.997c0,3.237,2.097,5.412,5.217,5.412h22.787
			v10.254C324.822,162.702,327.251,165.203,332.585,165.203z"/>
		<path d="M391.124,91.881l-34.368,70.595c-0.32,0.639-0.503,1.337-0.503,1.917c0,2.566,2.253,5.314,5.608,5.314
			c1.969,0,3.827-1.036,4.519-2.518l34.466-70.596c0.334-0.67,0.405-1.412,0.405-1.916c0-3.179-3.052-5.314-5.902-5.314
			C393.417,89.362,391.877,90.281,391.124,91.881z"/>
		<path d="M417.381,118.204c4.261,0,7.86-2.209,7.86-4.825v-6.436h17.277v6.696l-24.071,41.685
			c-0.485,0.873-0.701,1.677-0.701,2.606c0,4.632,5.175,7.86,9.819,7.86c2.211,0,3.657-0.694,4.419-2.123l22.912-43.865
			c0.738-1.385,3.148-6.151,3.148-9.361v-12.24c0-2.107-3.29-4.825-6.783-4.825H416.5c-3.423,0-6.784,2.39-6.784,4.825v15.177
			C409.716,116.039,413.155,118.204,417.381,118.204z"/>
		<path d="M310.162,304.598c-3.901-3.902-9.089-6.05-14.608-6.05s-10.707,2.148-14.608,6.05L235.1,350.443
			c-18.255-9.542-34.135-18.641-51.883-33.605c-3.167-2.67-7.898-2.267-10.568,0.899s-2.268,7.898,0.899,10.568
			c20.496,17.281,38.335,27.034,59.526,37.989c2.902,1.499,6.438,0.95,8.747-1.359l24.664-24.664l81.317,81.318
			c-26.264,22.546-63.46,30.394-105.692,22.092c-47.496-9.338-97.755-38.582-141.518-82.345
			C56.827,317.57,27.58,267.309,18.242,219.812c-8.304-42.233-0.454-79.429,22.091-105.693l81.325,81.325l-24.671,24.671
			c-2.31,2.309-2.859,5.848-1.358,8.749c14.937,28.88,26.986,50.07,57.177,80.26c2.929,2.929,7.678,2.929,10.606,0
			c2.929-2.929,2.929-7.678,0-10.606c-27.063-27.063-38.404-45.807-51.933-71.682l45.853-45.853c3.901-3.901,6.05-9.089,6.05-14.607
			s-2.148-10.706-6.05-14.607L83.803,78.239c-3.901-3.902-9.089-6.051-14.608-6.051s-10.706,2.149-14.607,6.05L34.823,98.003
			C4.742,128.083-6.374,172.371,3.523,222.706c9.907,50.387,40.613,103.387,86.463,149.236
			c45.846,45.847,98.844,76.551,149.23,86.457c11.994,2.358,23.64,3.523,34.837,3.522c35.793-0.001,66.953-11.91,89.866-34.823
			l19.764-19.764c3.902-3.901,6.05-9.089,6.05-14.608c0-5.518-2.148-10.706-6.05-14.607L310.162,304.598z M65.194,88.845
			c1.068-1.068,2.489-1.657,4.001-1.657s2.933,0.588,4.001,1.657l73.53,73.53c1.068,1.068,1.656,2.489,1.656,4.001
			s-0.588,2.933-1.656,4.001l-14.461,14.461l-81.532-81.532L65.194,88.845z M373.077,396.728l-14.461,14.461l-81.524-81.525
			l14.461-14.461c1.068-1.068,2.49-1.657,4.001-1.657s2.933,0.588,4.001,1.657l73.522,73.522
			C375.283,390.933,375.283,394.522,373.077,396.728z"/>
	</g>
</g>
<g>
</g>
<g>
</g>
<g>
</g>
<g>
</g>
<g>
</g>
<g>
</g>
<g>
</g>
<g>
</g>
<g>
</g>
<g>
</g>
<g>
</g>
<g>
</g>
<g>
</g>
<g>
</g>
<g>
</g>
</svg>
