<?xml version="1.0" encoding="iso-8859-1"?>
<!-- Generator: Adobe Illustrator 19.0.0, SVG Export Plug-In . SVG Version: 6.00 Build 0)  -->
<svg version="1.1" id="Layer_1" xmlns="http://www.w3.org/2000/svg" xmlns:xlink="http://www.w3.org/1999/xlink" x="0px" y="0px"
	 viewBox="0 0 505 505" style="enable-background:new 0 0 505 505;" xml:space="preserve">
<g>
	<g>
		<path style="fill:#E6E6E6;" d="M425.988,97.661H79.013c-21.816,0-39.502,17.686-39.502,39.502v273.982H465.49V137.163
			C465.49,115.346,447.804,97.661,425.988,97.661z"/>
		<path style="fill:#C4E2F2;" d="M69.511,381.145V137.163c0-5.239,4.262-9.502,9.501-9.502h346.975c5.239,0,9.502,4.263,9.502,9.502
			v243.982H69.511z"/>
		<path style="fill:#CCCCCC;" d="M497.503,411.145v10.51c0,29.26-23.72,52.99-52.99,52.99H60.483c-29.26,0-52.98-23.73-52.98-52.99
			v-10.51H497.503z"/>
		<path style="fill:#E6E6E6;" d="M497.503,411.145v10.51c0,29.26-23.72,52.99-52.99,52.99h-292.53c-29.27,0-52.99-23.73-52.99-52.99
			v-10.51H497.503z"/>
		<path style="fill:#CCCCCC;" d="M280.814,441.143h-56.628c-13.77,0-24.933-11.163-24.933-24.933v-5.065h106.495v5.065
			C305.747,429.98,294.584,441.143,280.814,441.143z"/>
		<path style="fill:#FF8E1D;" d="M294.853,118.806c57.22,23.997,98.72,95.342,98.72,179.619c0,103.97-63.16,112.227-141.07,112.227
			c-77.92,0-141.08-8.257-141.08-112.227c0-84.276,41.5-155.621,98.73-179.619"/>
		<path style="fill:#E2720E;" d="M250.383,410.64c-76.94-0.15-138.96-9.2-138.96-112.22c0-84.27,41.5-155.62,98.73-179.61h17.73
			c-33.27,23.99-57.39,95.34-57.39,179.61C170.493,400.77,206.063,410.37,250.383,410.64z"/>
		<path style="fill:#FF8E1D;" d="M288.953,93.42h-72.91c-8.64-17.03-21.55-47.6-9.92-59.22c16.28-16.28,45.6,24.4,46.36,25.47
			c0.01,0.02,0.02,0.02,0.02,0.02s29.88-41.99,46.37-25.49C310.503,45.82,297.593,76.39,288.953,93.42z"/>
		<path style="fill:#E2720E;" d="M238.953,93.42h-22.91c-8.64-17.03-21.55-47.6-9.92-59.22c16.28-16.28,45.6,24.4,46.36,25.47
			c-0.7-0.4-26.06-15.04-31.98-0.25C216.963,68.26,228.713,82.89,238.953,93.42z"/>
		<path style="fill:#ED3618;" d="M311.483,106.11c0,7.01-5.68,12.7-12.69,12.7h-92.59c-3.5,0-6.68-1.42-8.97-3.72
			c-2.3-2.3-3.72-5.47-3.72-8.98c0-7.01,5.68-12.69,12.69-12.69h92.59c3.51,0,6.68,1.42,8.97,3.72
			C310.063,99.43,311.483,102.6,311.483,106.11z"/>
		<path style="fill:#FF491F;" d="M311.483,106.11c0,7.01-5.68,12.7-12.69,12.7h-55.92c-3.51,0-6.68-1.42-8.97-3.72
			c-2.3-2.3-3.72-5.47-3.72-8.98c0-7.01,5.68-12.69,12.69-12.69h55.92c3.51,0,6.68,1.42,8.97,3.72
			C310.063,99.43,311.483,102.6,311.483,106.11z"/>
	</g>
	<g>
		<path d="M497.5,403.645h-24.507V137.16c0-25.916-21.088-47-47.01-47h-114.86c-2.92-2.262-6.462-3.756-10.334-4.138
			c12.381-27.79,13.536-46.986,3.389-57.123c-4.412-4.415-9.997-6.474-16.155-5.963c-13.571,1.133-27.647,15.297-35.52,24.607
			c-7.872-9.31-21.948-23.471-35.522-24.607c-6.158-0.513-11.747,1.546-16.16,5.958c-10.149,10.141-8.995,29.338,3.386,57.127
			c-3.886,0.384-7.44,1.886-10.366,4.162c-0.156-0.01-0.31-0.024-0.468-0.024H79.013c-25.916,0-47,21.084-47,47v183.258
			c0,4.142,3.358,7.5,7.5,7.5s7.5-3.358,7.5-7.5V137.16c0-17.645,14.355-32,32-32h107.049c-0.015,0.318-0.048,0.631-0.048,0.953
			c0,5.305,2.072,10.124,5.429,13.731c-0.181,0.107-0.363,0.209-0.544,0.316H79.013c-9.374,0-17,7.626-17,17v243.99
			c0,4.142,3.358,7.5,7.5,7.5h64.39c4.497,4.296,9.501,8.075,15.029,11.337c2.229,1.315,4.537,2.525,6.901,3.658H47.013V345.42
			c0-4.142-3.358-7.5-7.5-7.5s-7.5,3.358-7.5,7.5v58.225H7.5c-4.142,0-7.5,3.358-7.5,7.5v10.513
			c0,33.351,27.132,60.483,60.483,60.483h384.035c33.35,0,60.482-27.132,60.482-60.483v-10.513
			C505,407.003,501.642,403.645,497.5,403.645z M457.993,137.16v266.485H349.165c2.364-1.133,4.671-2.343,6.901-3.658
			c5.528-3.261,10.532-7.041,15.029-11.337h64.399c4.142,0,7.5-3.358,7.5-7.5V137.16c0-9.374-7.63-17-17.01-17H314.068
			c-0.173-0.103-0.345-0.21-0.518-0.312c3.359-3.608,5.433-8.428,5.433-13.735c0-0.322-0.033-0.635-0.048-0.953h107.049
			C443.634,105.16,457.993,119.515,457.993,137.16z M298.077,418.65c-1.19,8.462-8.478,14.994-17.263,14.994h-56.628
			c-8.785,0-16.073-6.532-17.263-14.994H298.077z M211.426,39.504c1.296-1.297,2.542-1.763,4.3-1.62
			c8.802,0.731,23.233,15.737,30.667,26.156c1.406,1.976,3.682,3.148,6.107,3.149c0.002,0,0.003,0,0.005,0
			c2.423,0,4.699-1.173,6.106-3.146c7.437-10.423,21.867-25.43,30.665-26.159c1.752-0.147,2.997,0.324,4.296,1.623
			c4.182,4.178,4.064,18.806-9.278,46.415h-63.591C207.36,58.313,207.242,43.684,211.426,39.504z M206.206,100.921h82.716
			c0.008,0,0.017,0.001,0.025,0.001c0.007,0,0.014-0.001,0.021-0.001h9.822c2.863,0,5.192,2.329,5.192,5.192
			s-2.329,5.193-5.192,5.193h-92.584c-2.863,0-5.192-2.33-5.192-5.193S203.343,100.921,206.206,100.921z M77.013,137.16
			c0-1.103,0.897-2,2-2h91.301c-14.383,12.56-27.058,28.442-37.535,47.192c-18.878,33.785-28.856,73.922-28.856,116.072
			c0,31.743,5.828,56.657,17.683,75.225H77.013V137.16z M118.923,298.425c0-39.594,9.319-77.201,26.951-108.756
			c16.55-29.62,39.888-52.06,65.836-63.363h81.572c17.689,7.689,33.76,20.099,47.779,36.93c1.483,1.781,3.617,2.7,5.767,2.7
			c1.692,0,3.395-0.57,4.796-1.737c3.183-2.651,3.614-7.38,0.963-10.563c-5.675-6.813-11.676-12.969-17.968-18.476h91.365
			c1.108,0,2.01,0.897,2.01,2v236.49h-44.603c11.855-18.568,17.683-43.482,17.683-75.225c0-45.551-12.097-89.893-34.062-124.857
			c-2.202-3.507-6.831-4.565-10.34-2.361c-3.507,2.203-4.564,6.833-2.361,10.34c20.483,32.605,31.763,74.113,31.763,116.877
			c0,45.331-11.957,73.498-37.63,88.643c-16.365,9.655-38.943,16.084-95.94,16.084c-41.227,0-73.32-2.735-95.95-16.084
			C130.881,371.922,118.923,343.755,118.923,298.425z M490,421.658c0,25.08-20.403,45.483-45.482,45.483H60.483
			C35.404,467.141,15,446.737,15,421.658v-3.013l176.854,0.005c1.253,16.748,15.27,29.994,32.332,29.994h56.628
			c17.062,0,31.08-13.246,32.332-29.994h152.347c0.033,0,0.064-0.004,0.097-0.005H490V421.658z"/>
		<path d="M247.465,337.348v10.216c0,4.205,3.42,7.625,7.625,7.625s7.625-3.42,7.625-7.625v-11.112
			c9.195-1.671,16.574-5.433,21.932-11.18c6.287-6.743,9.475-15.908,9.475-27.241c0-11.303-3.156-20.063-9.647-26.781
			c-6.106-6.318-14.418-10.028-21.759-12.82v-44.013c7.345,0.822,12.008,3.19,15.422,4.924c2.149,1.091,3.847,1.954,5.367,1.954
			c4.634,0,7.162-5.999,7.162-9.081c0-3.613-3.534-6.806-10.22-9.235c-4.916-1.785-11.208-3.036-17.73-3.527v-9.317
			c0-4.205-3.42-7.625-7.625-7.625s-7.625,3.42-7.625,7.625v9.832c-6.156,0.804-14.888,2.907-21.76,8.355
			c-7.547,5.984-11.374,14.657-11.374,25.778c0,11.035,3.721,19.394,11.375,25.553c6.107,4.916,13.775,7.846,21.758,10.651v51.282
			c-12.648-1.261-19-7.278-23.211-11.267c-2.39-2.264-4.117-3.899-6.025-3.899c-3.787,0-7.353,5.116-7.353,9.081
			C210.875,323.572,225.125,336.074,247.465,337.348z M230.19,232.564c0-5.369,1.844-9.648,5.481-12.719
			c2.862-2.416,6.829-4.093,11.794-4.986v38.007C236.794,248.579,230.19,243.663,230.19,232.564z M272.687,283.44
			c3.751,4.166,5.575,9.44,5.575,16.127c0,6.161-1.683,11.175-5,14.905c-2.569,2.888-6.117,4.965-10.547,6.174v-44.239
			C267.052,278.506,270.315,280.808,272.687,283.44z"/>
	</g>
</g>
<g>
</g>
<g>
</g>
<g>
</g>
<g>
</g>
<g>
</g>
<g>
</g>
<g>
</g>
<g>
</g>
<g>
</g>
<g>
</g>
<g>
</g>
<g>
</g>
<g>
</g>
<g>
</g>
<g>
</g>
</svg>
