<?xml version="1.0" encoding="iso-8859-1"?>
<!-- Generator: Adobe Illustrator 19.0.0, SVG Export Plug-In . SVG Version: 6.00 Build 0)  -->
<svg version="1.1" id="Layer_1" xmlns="http://www.w3.org/2000/svg" xmlns:xlink="http://www.w3.org/1999/xlink" x="0px" y="0px"
	 viewBox="0 0 505 505" style="enable-background:new 0 0 505 505;" xml:space="preserve">
<g>
	<g>
		<path style="fill:#E6E6E6;" d="M425.988,64.01H79.013c-21.816,0-39.502,17.686-39.502,39.502v273.982H465.49V103.512
			C465.49,81.696,447.804,64.01,425.988,64.01z"/>
		<path style="fill:#C4E2F2;" d="M69.511,347.494V103.512c0-5.239,4.262-9.502,9.501-9.502h346.975c5.239,0,9.502,4.263,9.502,9.502
			v243.982H69.511z"/>
		<path style="fill:#CCCCCC;" d="M497.503,377.494v10.51c0,29.26-23.72,52.99-52.99,52.99H60.483c-29.26,0-52.98-23.73-52.98-52.99
			v-10.51H497.503z"/>
		<path style="fill:#E6E6E6;" d="M497.503,377.494v10.51c0,29.26-23.72,52.99-52.99,52.99h-292.53c-29.27,0-52.99-23.73-52.99-52.99
			v-10.51H497.503z"/>
		<path style="fill:#CCCCCC;" d="M280.814,407.493h-56.628c-13.77,0-24.933-11.163-24.933-24.933v-5.065h106.495v5.065
			C305.747,396.33,294.584,407.493,280.814,407.493z"/>
		<g>
			<path style="fill:#ED3618;" d="M394.016,205.655l-2.62,20l-8.39,63.89c-1.51,11.51-11.31,20.11-22.92,20.11h-100.14
				c-11.61,0-21.41-8.6-22.92-20.11l-11.01-83.89l84-22.5L394.016,205.655z"/>
			<path style="fill:#FF491F;" d="M391.396,225.655l-8.39,63.89c-1.51,11.51-11.31,20.11-22.92,20.11h-68.14
				c-11.61,0-21.41-8.6-22.92-20.11l-5.686-43.299c-1.433-10.91,7.06-20.591,18.063-20.591H391.396z"/>
			<path style="fill:#ED3618;" d="M405.516,183.035v12.24c0,5.73-4.65,10.38-10.38,10.38h-170.24c-5.73,0-10.38-4.65-10.38-10.38
				v-12.24c0-5.73,4.65-10.38,10.38-10.38h170.24C400.866,172.655,405.516,177.305,405.516,183.035z"/>
			<path style="fill:#FF491F;" d="M405.516,183.035v12.24c0,5.73-4.65,10.38-10.38,10.38h-130.24c-5.73,0-10.38-4.65-10.38-10.38
				v-12.24c0-5.73,4.65-10.38,10.38-10.38h130.24C400.866,172.655,405.516,177.305,405.516,183.035z"/>
			<path style="fill:#3C3F4D;" d="M310.017,125.655L310.017,125.655c-9.389,0-17,7.611-17,17v81c0,9.389,7.611,17,17,17h0
				c9.389,0,17-7.611,17-17v-81C327.016,133.266,319.405,125.655,310.017,125.655z"/>
		</g>
	</g>
	<g>
		<path d="M136.1,354.994h299.39c4.143,0,7.5-3.358,7.5-7.5V103.512c0-9.375-7.627-17.002-17.002-17.002H79.013
			c-9.375,0-17.001,7.627-17.001,17.002v243.982c0,4.142,3.358,7.5,7.5,7.5h41.586c4.142,0,7.5-3.358,7.5-7.5s-3.358-7.5-7.5-7.5
			H77.011V103.512c0-1.104,0.898-2.002,2.001-2.002h346.975c1.104,0,2.002,0.898,2.002,2.002v236.482H136.1
			c-4.142,0-7.5,3.358-7.5,7.5S131.958,354.994,136.1,354.994z"/>
		<path d="M497.5,369.994h-24.511V171.499c0-4.142-3.357-7.5-7.5-7.5s-7.5,3.358-7.5,7.5v198.496H47.011V103.512
			c0-17.646,14.356-32.002,32.002-32.002h346.975c17.646,0,32.002,14.356,32.002,32.002v42.985c0,4.142,3.357,7.5,7.5,7.5
			s7.5-3.358,7.5-7.5v-42.985c0-25.917-21.085-47.002-47.002-47.002H79.013c-25.917,0-47.002,21.085-47.002,47.002v266.482H7.5
			c-4.142,0-7.5,3.358-7.5,7.5v10.513c0,33.35,27.132,60.483,60.483,60.483h384.035c33.35,0,60.482-27.133,60.482-60.483v-10.513
			C505,373.352,501.643,369.994,497.5,369.994z M298.077,384.994c-1.188,8.464-8.477,14.998-17.263,14.998h-56.628
			c-8.787,0-16.076-6.534-17.264-14.998H298.077z M490,388.007c0,25.079-20.403,45.483-45.482,45.483H60.483
			C35.404,433.49,15,413.086,15,388.007v-3.013h176.854c1.25,16.75,15.268,29.998,32.332,29.998h56.628
			c17.064,0,31.081-13.249,32.332-29.998H490V388.007z"/>
		<path d="M310.017,118.155c-13.51,0-24.5,10.991-24.5,24.5v22.5h-60.62c-9.859,0-17.88,8.021-17.88,17.88v12.24
			c0,7.91,5.168,14.626,12.302,16.977l10.271,78.273c1.992,15.182,15.041,26.63,30.353,26.63h100.149
			c15.312,0,28.361-11.448,30.354-26.63l10.271-78.273c7.133-2.35,12.301-9.067,12.301-16.977v-12.24
			c0-9.859-8.021-17.88-17.88-17.88h-60.62v-22.5C334.517,129.146,323.526,118.155,310.017,118.155z M300.517,142.655
			c0-5.238,4.262-9.5,9.5-9.5s9.5,4.262,9.5,9.5v81c0,5.238-4.262,9.5-9.5,9.5s-9.5-4.262-9.5-9.5V142.655z M222.017,183.035
			c0-1.588,1.292-2.88,2.88-2.88h60.62v18h-60.62c-1.588,0-2.88-1.292-2.88-2.88V183.035z M375.571,288.573
			c-1.016,7.743-7.671,13.582-15.48,13.582H259.941c-7.809,0-14.464-5.839-15.48-13.582l-9.896-75.418h50.952v10.5
			c0,13.509,10.99,24.5,24.5,24.5s24.5-10.991,24.5-24.5v-10.5h50.951L375.571,288.573z M395.137,180.155
			c1.588,0,2.88,1.292,2.88,2.88v12.24c0,1.588-1.292,2.88-2.88,2.88h-60.62v-18H395.137z"/>
		<path d="M106.905,147.701c-4.779-4.778-13.202-0.968-12.784,5.768c0.196,3.159,2.426,5.916,5.479,6.755
			c3.107,0.854,6.52-0.41,8.282-3.119C109.789,154.173,109.395,150.173,106.905,147.701z"/>
		<path d="M125.729,160.502h40.369c4.142,0,7.5-3.358,7.5-7.5s-3.358-7.5-7.5-7.5h-40.369c-4.142,0-7.5,3.358-7.5,7.5
			S121.587,160.502,125.729,160.502z"/>
		<path d="M106.905,182.201c-4.577-4.577-12.658-1.314-12.797,5.144c-0.07,3.254,2.053,6.259,5.142,7.272
			c3.033,0.995,6.477-0.07,8.374-2.653C109.793,189.01,109.516,184.793,106.905,182.201z"/>
		<path d="M125.729,195.001h40.369c4.142,0,7.5-3.358,7.5-7.5s-3.358-7.5-7.5-7.5h-40.369c-4.142,0-7.5,3.358-7.5,7.5
			S121.587,195.001,125.729,195.001z"/>
		<path d="M108.955,220.531c-1.361-6.525-10.337-8.208-13.785-2.387c-1.696,2.864-1.305,6.607,1,9.025
			c2.036,2.136,5.241,2.887,8.011,1.868C107.589,227.783,109.685,224.107,108.955,220.531z"/>
		<path d="M125.729,229.499h40.369c4.142,0,7.5-3.358,7.5-7.5s-3.358-7.5-7.5-7.5h-40.369c-4.142,0-7.5,3.358-7.5,7.5
			S121.587,229.499,125.729,229.499z"/>
		<path d="M108.955,255.031c-1.354-6.494-10.248-8.204-13.747-2.452c-1.679,2.76-1.385,6.364,0.716,8.814
			c2.042,2.381,5.484,3.232,8.401,2.091C107.645,262.185,109.687,258.545,108.955,255.031z"/>
		<path d="M125.729,263.997h40.369c4.142,0,7.5-3.358,7.5-7.5s-3.358-7.5-7.5-7.5h-40.369c-4.142,0-7.5,3.358-7.5,7.5
			S121.587,263.997,125.729,263.997z"/>
		<path d="M108.525,288.131c-2.499-6.036-11.349-6.059-13.85,0c-1.27,3.077-0.313,6.729,2.313,8.775
			c2.417,1.883,5.814,2.085,8.448,0.529C108.585,295.573,109.952,291.512,108.525,288.131z"/>
		<path d="M125.729,298.495h40.369c4.142,0,7.5-3.358,7.5-7.5s-3.358-7.5-7.5-7.5h-40.369c-4.142,0-7.5,3.358-7.5,7.5
			S121.587,298.495,125.729,298.495z"/>
	</g>
</g>
<g>
</g>
<g>
</g>
<g>
</g>
<g>
</g>
<g>
</g>
<g>
</g>
<g>
</g>
<g>
</g>
<g>
</g>
<g>
</g>
<g>
</g>
<g>
</g>
<g>
</g>
<g>
</g>
<g>
</g>
</svg>
