<?xml version="1.0" encoding="iso-8859-1"?>
<!-- Generator: Adobe Illustrator 19.0.0, SVG Export Plug-In . SVG Version: 6.00 Build 0)  -->
<svg version="1.1" id="Layer_1" xmlns="http://www.w3.org/2000/svg" xmlns:xlink="http://www.w3.org/1999/xlink" x="0px" y="0px"
	 viewBox="0 0 506.731 506.731" style="enable-background:new 0 0 506.731 506.731;" xml:space="preserve">
<g>
	<g>
		<path style="fill:#1F81A3;" d="M467.096,252.499c0,104.02-74.3,190.68-172.73,209.8c-13.27,2.58-26.98,3.93-41,3.93
			c-118.04,0-213.73-95.69-213.73-213.73s95.69-213.73,213.73-213.73c14.02,0,27.73,1.35,41,3.93
			C392.796,61.819,467.096,148.479,467.096,252.499z"/>
		<path style="fill:#2C92BF;" d="M467.096,252.499c0,104.02-74.3,190.68-172.73,209.8c-98.43-19.12-172.73-105.78-172.73-209.8
			s74.3-190.68,172.73-209.8C392.796,61.819,467.096,148.479,467.096,252.499z"/>
		<circle style="fill:#32CC77;" cx="425.051" cy="80.817" r="73.317"/>
		<path style="fill:#FF491F;" d="M264.561,306.362h-68.967h-85.005H41.621c-18.368,0-33.258,14.89-33.258,33.258v126.353
			c0,18.368,14.89,33.258,33.258,33.258h68.967h85.005h68.967c18.368,0,33.258-14.89,33.258-33.258V339.62
			C297.819,321.252,282.929,306.362,264.561,306.362z"/>
		<polygon style="fill:#2D303B;" points="195.594,349.77 110.588,349.77 8.363,349.77 8.363,390.108 110.588,390.108 
			195.594,390.108 297.819,390.108 297.819,349.77 		"/>
	</g>
	<g>
		<path d="M505.869,80.817C505.869,36.254,469.614,0,425.051,0c-34.812,0-64.554,22.125-75.903,53.051
			c-29.709-14.26-62.625-21.782-95.783-21.782c-59.093,0-114.648,23.012-156.433,64.797
			c-41.761,41.761-64.769,97.277-64.796,156.332c0,0.034-0.005,0.067-0.005,0.102c0,0.038,0.005,0.075,0.006,0.113
			c0.008,15.694,1.686,31.292,4.951,46.508c-20.349,2.262-36.227,19.559-36.227,40.5v126.354c0,22.474,18.284,40.758,40.759,40.758
			h25.744c4.143,0,7.5-3.358,7.5-7.5s-3.357-7.5-7.5-7.5H41.622c-14.203,0-25.759-11.555-25.759-25.758v-68.365h274.456v68.365
			c0,14.203-11.555,25.758-25.758,25.758H92.368c-4.143,0-7.5,3.358-7.5,7.5s3.357,7.5,7.5,7.5h172.193
			c21.933,0,39.867-17.417,40.717-39.146c46.528-11.211,88.69-37.643,119.247-74.907c32.291-39.379,50.074-89.164,50.074-140.183
			c0-33.168-7.522-66.081-21.781-95.775C483.744,145.37,505.869,115.629,505.869,80.817z M345.289,67.845
			c-0.685,4.226-1.055,8.556-1.055,12.972c0,16.026,4.708,30.963,12.785,43.54c-5.627,3.279-11.394,6.277-17.278,8.993
			c-3.626-12.47-7.842-24.208-12.627-35.017c-8.985-20.297-19.522-36.314-31.113-47.598
			C313.088,54.335,329.686,60.077,345.289,67.845z M305.319,443.826c14.165-17.89,25.865-42.822,34.387-72.222
			c18.745,8.651,36.164,20.121,51.673,34.106c-24.537,22.077-54.134,38.101-86.06,46.407V443.826z M305.319,416.889v-26.781v-30.787
			c6.976,1.81,13.832,3.981,20.546,6.502C320.369,385.213,313.447,402.509,305.319,416.889z M305.319,343.861v-4.241
			c0-22.474-18.284-40.758-40.758-40.758h-96.025c-1.266-12.702-2.003-25.722-2.207-38.862h174.077
			c-0.504,32.503-4.284,63.59-10.777,91.216C321.698,348.304,313.582,345.85,305.319,343.861z M52.383,298.862
			c-2.921-12.71-4.628-25.731-5.099-38.862h104.043c0.198,13.127,0.92,26.139,2.146,38.862H52.383z M166.331,245
			c0.497-32.349,4.198-63.384,10.77-91.207c24.132,8.849,49.87,13.482,76.268,13.482c26.222,0,51.995-4.609,76.253-13.513
			c6.578,27.831,10.283,58.877,10.78,91.237H166.331z M253.369,152.275c-25.108,0-49.578-4.488-72.468-13.067
			c3.545-12.438,7.696-24.108,12.43-34.803c16.353-36.946,38.234-58.135,60.035-58.135c21.798,0,43.679,21.189,60.032,58.136
			c4.729,10.684,8.877,22.341,12.42,34.764C302.809,147.799,278.309,152.275,253.369,152.275z M179.614,98.333
			c-4.79,10.822-9.01,22.575-12.638,35.062c-18.623-8.599-35.988-20.035-51.553-34.064c26.49-23.881,59.182-41.001,95.335-48.626
			C199.154,61.992,188.606,78.018,179.614,98.333z M104.628,109.792c17.547,15.96,37.258,28.819,58.436,38.295
			c-7.18,29.553-11.221,62.56-11.735,96.913H47.287C49.169,192.635,70.657,145.185,104.628,109.792z M41.622,313.862h222.939
			c14.203,0,25.758,11.555,25.758,25.758v2.65H15.863v-2.65C15.863,325.417,27.418,313.862,41.622,313.862z M15.863,382.608V357.27
			h274.456v25.338H15.863z M459.448,245h-25.08c-4.143,0-7.5,3.358-7.5,7.5s3.357,7.5,7.5,7.5h25.083
			c-1.646,44.917-18.013,88.396-46.526,123.167c-3.427,4.18-7.018,8.207-10.747,12.087c-17.478-15.906-37.246-28.825-58.574-38.361
			c7.134-29.395,11.278-62.445,11.804-96.893h53.957c4.143,0,7.5-3.358,7.5-7.5s-3.357-7.5-7.5-7.5h-53.962
			c-0.515-34.366-4.56-67.385-11.746-96.948c7.761-3.473,15.334-7.405,22.685-11.781c14.743,15.6,35.601,25.364,58.709,25.364
			c4.416,0,8.746-0.37,12.971-1.055C451.041,186.71,458.377,215.645,459.448,245z M425.051,146.634
			c-36.292,0-65.817-29.525-65.817-65.817c0-36.292,29.525-65.817,65.817-65.817s65.817,29.525,65.817,65.817
			C490.869,117.109,461.343,146.634,425.051,146.634z"/>
		<path d="M175.925,433.127c4.143,0,7.5-3.358,7.5-7.5s-3.357-7.5-7.5-7.5h-45.669c-4.143,0-7.5,3.358-7.5,7.5s3.357,7.5,7.5,7.5
			H175.925z"/>
		<path d="M248.67,433.127c4.143,0,7.5-3.358,7.5-7.5s-3.357-7.5-7.5-7.5h-45.669c-4.143,0-7.5,3.358-7.5,7.5s3.357,7.5,7.5,7.5
			H248.67z"/>
		<path d="M110.68,425.627c0-4.142-3.357-7.5-7.5-7.5H57.511c-4.143,0-7.5,3.358-7.5,7.5s3.357,7.5,7.5,7.5h45.669
			C107.323,433.127,110.68,429.77,110.68,425.627z"/>
		<path d="M457.5,39.64c-3.729-1.813-8.215-0.259-10.024,3.466l-28.698,59.037l-13-23.4c-2.012-3.621-6.575-4.926-10.199-2.914
			c-3.621,2.012-4.925,6.578-2.914,10.198l20,36c1.325,2.385,3.838,3.858,6.556,3.858c0.068,0,0.137-0.001,0.206-0.003
			c2.796-0.076,5.317-1.702,6.54-4.218l35-72C462.777,45.939,461.224,41.451,457.5,39.64z"/>
	</g>
</g>
<g>
</g>
<g>
</g>
<g>
</g>
<g>
</g>
<g>
</g>
<g>
</g>
<g>
</g>
<g>
</g>
<g>
</g>
<g>
</g>
<g>
</g>
<g>
</g>
<g>
</g>
<g>
</g>
<g>
</g>
</svg>
