<?xml version="1.0" encoding="iso-8859-1"?>
<!-- Generator: Adobe Illustrator 19.0.0, SVG Export Plug-In . SVG Version: 6.00 Build 0)  -->
<svg version="1.1" id="Layer_1" xmlns="http://www.w3.org/2000/svg" xmlns:xlink="http://www.w3.org/1999/xlink" x="0px" y="0px"
	 viewBox="0 0 505 505" style="enable-background:new 0 0 505 505;" xml:space="preserve">
<g>
	<g>
		<path style="fill:#C4E2F2;" d="M7.504,89.107v263.99c0,23.479,19.033,42.512,42.512,42.512h404.976
			c23.479,0,42.512-19.033,42.512-42.512V89.107c0-23.23-18.832-42.062-42.061-42.062H49.566
			C26.336,47.045,7.504,65.877,7.504,89.107z"/>
		<polygon style="fill:#2D303B;" points="351.337,452.332 252.507,474.852 153.667,452.332 167.207,395.612 248.307,365.792 
			337.797,395.612 342.177,413.972 		"/>
		<path style="fill:#3C3F4D;" d="M497.507,348.092v5c0,23.48-19.04,42.52-42.52,42.52H50.017c-23.48,0-42.51-19.04-42.51-42.52v-5
			H497.507z"/>
		<polygon style="fill:#3C3F4D;" points="351.337,452.332 200.167,452.332 209.327,413.972 342.177,413.972 		"/>
		<path style="fill:#2D303B;" d="M409.587,483.912v13.47H95.427v-13.47c0-17.44,14.14-31.58,31.58-31.58h251
			C395.447,452.332,409.587,466.472,409.587,483.912z"/>
		<path style="fill:#3C3F4D;" d="M409.587,483.912v13.47h-260.17v-13.47c0-17.44,14.14-31.58,31.59-31.58h197
			C395.447,452.332,409.587,466.472,409.587,483.912z"/>
		<g>
			<polygon style="fill:#32CC77;" points="446.755,183.708 397.436,157.068 261.305,157.068 211.986,183.708 238.626,233.027 
				261.305,220.777 261.305,317.223 397.436,317.223 397.436,220.777 420.115,233.027 			"/>
			<path style="fill:#1FB25E;" d="M282.656,157.074c0,25.8,20.915,46.714,46.714,46.714s46.714-20.915,46.714-46.714"/>
		</g>
		<g>
			<g>
				<path style="fill:#FFE14D;" d="M117.378,14.662l9.271,18.784c1.841,3.731,5.401,6.317,9.518,6.915l20.729,3.012
					c10.369,1.507,14.509,14.249,7.006,21.562l-15,14.621c-2.979,2.904-4.339,7.089-3.636,11.189l3.541,20.646
					c1.771,10.327-9.068,18.202-18.342,13.326l-18.541-9.748c-3.683-1.936-8.082-1.936-11.765,0l-18.541,9.748
					c-9.274,4.876-20.113-2.999-18.342-13.326l3.541-20.646c0.703-4.101-0.656-8.285-3.636-11.189l-15-14.621
					c-7.503-7.314-3.363-20.056,7.006-21.562l20.729-3.012c4.117-0.598,7.677-3.184,9.518-6.915l9.271-18.784
					C99.343,5.266,112.741,5.266,117.378,14.662z"/>
			</g>
			<g>
				<path style="fill:#FFE14D;" d="M263.84,14.662l9.271,18.784c1.841,3.731,5.401,6.317,9.518,6.915l20.729,3.012
					c10.369,1.507,14.509,14.249,7.006,21.562l-15,14.621c-2.979,2.904-4.339,7.089-3.636,11.189l3.541,20.646
					c1.771,10.327-9.068,18.202-18.342,13.326l-18.541-9.748c-3.683-1.936-8.082-1.936-11.765,0l-18.541,9.748
					c-9.274,4.876-20.113-2.999-18.342-13.326l3.541-20.646c0.703-4.101-0.656-8.285-3.636-11.189l-15-14.621
					c-7.503-7.314-3.363-20.056,7.006-21.562l20.729-3.012c4.117-0.598,7.677-3.184,9.518-6.915l9.27-18.784
					C245.805,5.266,259.203,5.266,263.84,14.662z"/>
			</g>
			<g>
				<path style="fill:#FFE14D;" d="M410.302,14.662l9.271,18.784c1.841,3.731,5.401,6.317,9.518,6.915l20.729,3.012
					c10.369,1.507,14.509,14.249,7.006,21.562l-15,14.621c-2.979,2.904-4.339,7.089-3.636,11.189l3.541,20.646
					c1.771,10.327-9.068,18.202-18.342,13.326l-18.541-9.748c-3.683-1.936-8.082-1.936-11.765,0l-18.541,9.748
					c-9.274,4.876-20.113-2.999-18.342-13.326l3.541-20.646c0.703-4.101-0.656-8.285-3.636-11.189l-15-14.621
					c-7.503-7.314-3.363-20.056,7.006-21.562l20.729-3.012c4.117-0.598,7.677-3.184,9.518-6.915l9.271-18.784
					C392.267,5.266,405.665,5.266,410.302,14.662z"/>
			</g>
		</g>
	</g>
	<g>
		<path d="M460.1,39.761c-2.639-1.977-5.776-3.312-9.201-3.809l-20.73-3.012c-1.674-0.244-3.122-1.295-3.871-2.813l-9.271-18.784
			c-3.418-6.925-10.339-11.228-18.062-11.227c-7.723,0-14.644,4.302-18.061,11.227l-9.271,18.784
			c-0.749,1.518-2.196,2.569-3.872,2.813l-20.729,3.012c-3.299,0.479-6.332,1.733-8.909,3.591h-24.778
			c-2.577-1.858-5.61-3.112-8.909-3.591l-20.73-3.012c-1.675-0.244-3.122-1.295-3.871-2.813l-9.271-18.784
			c-3.417-6.925-10.338-11.228-18.061-11.228c0,0,0,0,0,0c-7.722,0-14.644,4.302-18.062,11.227l-9.271,18.784
			c-0.749,1.518-2.196,2.569-3.871,2.813l-20.729,3.012c-3.299,0.479-6.332,1.733-8.91,3.591h-24.778
			c-2.577-1.858-5.61-3.112-8.909-3.591l-20.73-3.012c-1.674-0.244-3.122-1.295-3.871-2.813l-9.271-18.784
			c-3.418-6.925-10.339-11.227-18.062-11.227c-7.723,0-14.644,4.302-18.062,11.227L78.71,30.127
			c-0.749,1.518-2.196,2.569-3.871,2.813L54.11,35.952c-3.425,0.498-6.563,1.832-9.202,3.81C19.515,42.109,0,63.279,0,89.103v263.99
			c0,27.581,22.439,50.02,50.02,50.02h107.686l-9.959,41.716h-20.742c-21.55,0-39.083,17.533-39.083,39.083v13.473
			c0,4.142,3.358,7.5,7.5,7.5h314.163c4.142,0,7.5-3.358,7.5-7.5v-13.473c0-21.55-17.533-39.083-39.083-39.083h-20.742
			l-9.959-41.716H454.99c27.576,0,50.01-22.438,50.01-50.02V89.103C505,63.279,485.488,42.107,460.1,39.761z M345.04,54.295
			c0.297-0.914,1.296-3.084,4.15-3.499l20.729-3.012c6.562-0.953,12.231-5.072,15.166-11.018l9.271-18.785
			c1.276-2.586,3.649-2.865,4.61-2.865c0.961,0,3.334,0.279,4.611,2.866l9.271,18.784c2.935,5.946,8.604,10.065,15.165,11.018
			l20.73,3.012c2.854,0.415,3.854,2.585,4.15,3.499s0.765,3.257-1.301,5.271l-15,14.621c-4.748,4.628-6.914,11.292-5.793,17.828
			l3.541,20.645c0.488,2.844-1.268,4.464-2.045,5.029c-0.778,0.564-2.862,1.734-5.415,0.391l-18.541-9.747
			c-2.935-1.543-6.153-2.314-9.373-2.314c-3.219,0-6.438,0.771-9.373,2.314l-18.541,9.748c-2.55,1.343-4.637,0.173-5.414-0.391
			c-0.778-0.565-2.533-2.186-2.045-5.029l3.541-20.646c1.121-6.535-1.045-13.2-5.793-17.828l-15-14.621
			C344.275,57.552,344.743,55.209,345.04,54.295z M198.578,54.295c0.297-0.914,1.296-3.084,4.151-3.499l20.729-3.012
			c6.562-0.953,12.231-5.072,15.166-11.018l9.271-18.784c1.276-2.586,3.649-2.866,4.61-2.866c0,0,0,0,0,0
			c0.96,0,3.333,0.279,4.61,2.865v0l9.271,18.785c2.935,5.946,8.604,10.065,15.165,11.018l20.73,3.012
			c2.854,0.415,3.853,2.585,4.15,3.499s0.765,3.257-1.301,5.271l-15,14.621c-4.748,4.628-6.914,11.292-5.793,17.828l3.541,20.646
			c0.488,2.843-1.268,4.464-2.045,5.029c-0.777,0.565-2.861,1.734-5.414,0.391l-18.541-9.747c-2.935-1.543-6.154-2.314-9.373-2.314
			c-3.219,0-6.438,0.771-9.373,2.314l-18.541,9.748c-2.554,1.344-4.637,0.173-5.415-0.391c-0.777-0.565-2.533-2.186-2.045-5.029
			l3.541-20.646c1.121-6.535-1.044-13.2-5.793-17.828l-15-14.621C197.813,57.552,198.281,55.209,198.578,54.295z M52.116,54.295
			c0.297-0.914,1.296-3.084,4.15-3.499l20.729-3.012c6.562-0.953,12.231-5.072,15.166-11.018l9.271-18.784
			c1.276-2.587,3.649-2.866,4.611-2.866c0.961,0,3.334,0.279,4.61,2.866l9.271,18.784c2.935,5.946,8.604,10.065,15.165,11.018
			l20.73,3.012c2.854,0.415,3.853,2.585,4.15,3.499s0.765,3.257-1.301,5.271l-15,14.622c-4.748,4.628-6.913,11.293-5.792,17.828
			l3.541,20.645c0.488,2.843-1.268,4.464-2.045,5.029c-0.777,0.565-2.862,1.734-5.415,0.391l-18.541-9.747
			c-5.869-3.086-12.876-3.085-18.746,0l-18.541,9.748c-2.55,1.343-4.636,0.173-5.414-0.391c-0.778-0.565-2.533-2.186-2.045-5.029
			l3.541-20.646c1.121-6.535-1.045-13.2-5.793-17.828l-15-14.621C51.352,57.552,51.819,55.209,52.116,54.295z M402.085,483.912
			v5.973H102.922v-5.973c0-13.279,10.804-24.083,24.083-24.083h250.997C391.282,459.829,402.085,470.633,402.085,483.912z
			 M341.839,444.829H163.168l9.959-41.716H331.88L341.839,444.829z M454.99,388.113H337.851c-0.017,0-287.831,0-287.831,0
			c-18.468,0-33.632-14.372-34.921-32.517h65.034c4.142,0,7.5-3.358,7.5-7.5s-3.358-7.5-7.5-7.5H15V89.103
			c0-14.645,9-27.142,21.882-32.181c0.245,4.976,2.339,9.753,6.065,13.385l15,14.621c1.212,1.182,1.765,2.883,1.479,4.551
			l-3.541,20.646c-1.306,7.612,1.765,15.16,8.012,19.7c3.531,2.565,7.661,3.869,11.82,3.869c3.201,0,6.418-0.772,9.392-2.335
			l18.542-9.748c1.499-0.789,3.287-0.787,4.784,0l18.541,9.748c6.835,3.594,14.964,3.006,21.211-1.533
			c6.248-4.54,9.318-12.088,8.013-19.7l-3.541-20.646c-0.286-1.668,0.267-3.37,1.478-4.551l15-14.621
			c4.317-4.208,6.441-9.952,6.036-15.764h8.198c-0.405,5.811,1.72,11.555,6.037,15.764l15,14.621
			c1.212,1.182,1.765,2.883,1.479,4.551l-3.541,20.646c-1.305,7.612,1.765,15.16,8.013,19.7c6.248,4.539,14.375,5.126,21.212,1.533
			l18.542-9.748c1.498-0.788,3.287-0.787,4.784,0l18.541,9.748c2.973,1.563,6.19,2.335,9.392,2.335c4.159,0,8.29-1.303,11.82-3.869
			c6.248-4.54,9.318-12.088,8.012-19.7l-3.541-20.645c-0.286-1.668,0.267-3.37,1.479-4.551l15-14.621
			c4.317-4.208,6.441-9.952,6.036-15.764h8.198c-0.405,5.812,1.72,11.556,6.037,15.764l15,14.621
			c1.212,1.182,1.765,2.883,1.479,4.551l-3.541,20.646c-1.306,7.612,1.765,15.16,8.012,19.7c3.531,2.565,7.661,3.869,11.82,3.869
			c3.201,0,6.418-0.772,9.392-2.335l18.541-9.748c1.498-0.787,3.286-0.788,4.785,0l18.542,9.748
			c6.835,3.593,14.963,3.007,21.211-1.533c6.248-4.54,9.318-12.088,8.013-19.7l-3.541-20.645c-0.286-1.668,0.267-3.37,1.479-4.551
			l15-14.621c3.726-3.632,5.819-8.408,6.065-13.384C481.004,61.962,490,74.459,490,89.103v251.493H105.134
			c-4.142,0-7.5,3.358-7.5,7.5s3.358,7.5,7.5,7.5h384.766C488.612,373.741,473.452,388.113,454.99,388.113z"/>
		<path d="M232.027,236.592c0.945,1.75,2.547,3.053,4.453,3.622c1.905,0.569,3.959,0.357,5.71-0.588l11.614-6.273v83.87
			c0,4.142,3.358,7.5,7.5,7.5h136.131c4.142,0,7.5-3.358,7.5-7.5v-44.088c0-4.142-3.358-7.5-7.5-7.5s-7.5,3.358-7.5,7.5v36.588
			H268.805v-88.946c0-2.642-1.39-5.088-3.658-6.441c-2.27-1.354-5.082-1.413-7.406-0.157l-16.08,8.686l-19.512-36.122l41.052-22.174
			h12.486c3.662,26.358,26.334,46.72,53.684,46.72c27.35,0,50.021-20.362,53.684-46.72h12.486l41.052,22.174l-19.512,36.122
			L401,214.178c-2.324-1.256-5.137-1.196-7.406,0.157c-2.269,1.353-3.658,3.8-3.658,6.441v27.356c0,4.142,3.358,7.5,7.5,7.5
			s7.5-3.358,7.5-7.5v-14.781l11.614,6.273c1.75,0.945,3.803,1.158,5.71,0.588c1.906-0.569,3.508-1.872,4.453-3.622l26.641-49.319
			c0.946-1.75,1.157-3.804,0.588-5.71c-0.569-1.906-1.872-3.508-3.622-4.453L401,150.469c-1.095-0.592-2.32-0.901-3.564-0.901
			H261.305c-1.245,0-2.469,0.31-3.564,0.901l-49.319,26.64c-1.75,0.945-3.053,2.547-3.622,4.453c-0.569,1.906-0.357,3.96,0.588,5.71
			L232.027,236.592z M329.371,196.288c-19.06,0-34.979-13.671-38.488-31.72h76.975C364.35,182.617,348.43,196.288,329.371,196.288z"
			/>
		<path d="M50.137,186.841h115.494c4.142,0,7.5-3.358,7.5-7.5s-3.358-7.5-7.5-7.5H50.137c-4.142,0-7.5,3.358-7.5,7.5
			S45.995,186.841,50.137,186.841z"/>
		<path d="M50.137,222.885h115.494c4.142,0,7.5-3.358,7.5-7.5s-3.358-7.5-7.5-7.5H50.137c-4.142,0-7.5,3.358-7.5,7.5
			S45.995,222.885,50.137,222.885z"/>
		<path d="M50.137,258.93h115.494c4.142,0,7.5-3.358,7.5-7.5s-3.358-7.5-7.5-7.5H50.137c-4.142,0-7.5,3.358-7.5,7.5
			S45.995,258.93,50.137,258.93z"/>
		<path d="M120.634,287.475c0-4.142-3.358-7.5-7.5-7.5H50.137c-4.142,0-7.5,3.358-7.5,7.5s3.358,7.5,7.5,7.5h62.997
			C117.276,294.975,120.634,291.617,120.634,287.475z"/>
	</g>
</g>
<g>
</g>
<g>
</g>
<g>
</g>
<g>
</g>
<g>
</g>
<g>
</g>
<g>
</g>
<g>
</g>
<g>
</g>
<g>
</g>
<g>
</g>
<g>
</g>
<g>
</g>
<g>
</g>
<g>
</g>
</svg>
