<?xml version="1.0" encoding="iso-8859-1"?>
<!-- Generator: Adobe Illustrator 19.0.0, SVG Export Plug-In . SVG Version: 6.00 Build 0)  -->
<svg version="1.1" id="Layer_1" xmlns="http://www.w3.org/2000/svg" xmlns:xlink="http://www.w3.org/1999/xlink" x="0px" y="0px"
	 viewBox="0 0 505 505" style="enable-background:new 0 0 505 505;" xml:space="preserve">
<g>
	<g>
		<polygon style="fill:#C4E2F2;" points="252.497,40.452 7.497,192.802 7.497,497.501 497.497,497.501 497.497,192.802 		"/>
		<polygon style="fill:#83B2C6;" points="497.497,192.8 252.497,345.15 7.497,192.8 252.497,40.45 		"/>
		<polygon style="fill:#CBCBCB;" points="436.99,7.5 436.99,230.43 252.5,345.15 68.01,230.43 68.01,7.5 		"/>
		<polygon style="fill:#E5E5E5;" points="436.99,7.5 436.99,192.93 252.5,307.65 68.01,192.93 68.01,7.5 		"/>
		<g>
			<path style="fill:#FFBE1D;" d="M340.09,132.529l-2.62,20l-8.39,63.89c-1.51,11.51-11.31,20.11-22.92,20.11H206.02
				c-11.61,0-21.41-8.6-22.92-20.11l-11.01-83.89l84-22.5L340.09,132.529z"/>
			<path style="fill:#FFE14D;" d="M337.47,152.529l-8.39,63.89c-1.51,11.51-11.31,20.11-22.92,20.11h-68.14
				c-11.61,0-21.41-8.6-22.92-20.11l-5.686-43.299c-1.433-10.91,7.06-20.591,18.063-20.591H337.47z"/>
			<path style="fill:#FFBE1D;" d="M351.59,109.909v12.24c0,5.73-4.65,10.38-10.38,10.38H170.97c-5.73,0-10.38-4.65-10.38-10.38
				v-12.24c0-5.73,4.65-10.38,10.38-10.38h170.24C346.94,99.529,351.59,104.179,351.59,109.909z"/>
			<path style="fill:#FFE14D;" d="M351.59,109.909v12.24c0,5.73-4.65,10.38-10.38,10.38H210.97c-5.73,0-10.38-4.65-10.38-10.38
				v-12.24c0-5.73,4.65-10.38,10.38-10.38h130.24C346.94,99.529,351.59,104.179,351.59,109.909z"/>
			<path style="fill:#3C3F4D;" d="M256.09,52.529L256.09,52.529c-9.389,0-17,7.611-17,17v81c0,9.389,7.611,17,17,17h0
				c9.389,0,17-7.611,17-17v-81C273.09,60.14,265.479,52.529,256.09,52.529z"/>
		</g>
	</g>
	<g>
		<path d="M501.461,186.431l-56.971-35.429V7.5c0-4.142-3.357-7.5-7.5-7.5H68.01c-4.142,0-7.5,3.358-7.5,7.5v55.91
			c0,4.142,3.358,7.5,7.5,7.5s7.5-3.358,7.5-7.5V15h353.98v211.26l-61.815,38.44c-3.517,2.188-4.596,6.812-2.408,10.33
			c1.421,2.285,3.87,3.541,6.376,3.541c1.353,0,2.721-0.366,3.954-1.132L490,206.296V490H15V206.296l233.54,145.223
			c1.212,0.754,2.586,1.131,3.96,1.131c1.374,0,2.748-0.377,3.96-1.131l99.02-61.573c3.518-2.188,4.597-6.812,2.409-10.33
			c-2.188-3.518-6.812-4.594-10.33-2.409l-95.059,59.11L75.51,226.26V88.412c0-4.142-3.358-7.5-7.5-7.5s-7.5,3.358-7.5,7.5v62.59
			L3.539,186.431C1.339,187.8,0,190.208,0,192.8v304.7c0,4.142,3.358,7.5,7.5,7.5h490c4.143,0,7.5-3.358,7.5-7.5V192.8
			C505,190.208,503.662,187.8,501.461,186.431z M60.51,216.932L21.702,192.8l38.808-24.134V216.932z M444.49,168.666l38.807,24.134
			l-38.807,24.132V168.666z"/>
		<path d="M256.091,45.029c-13.509,0-24.5,10.991-24.5,24.5v22.5h-60.62c-9.859,0-17.88,8.021-17.88,17.88v12.24
			c0,7.91,5.168,14.626,12.302,16.977l10.271,78.273c1.992,15.182,15.042,26.63,30.353,26.63h100.149
			c15.312,0,28.36-11.448,30.354-26.63l10.271-78.273c7.133-2.351,12.301-9.067,12.301-16.977v-12.24
			c0-9.859-8.021-17.88-17.88-17.88h-60.62v-22.5C280.591,56.02,269.6,45.029,256.091,45.029z M246.591,69.529
			c0-5.238,4.262-9.5,9.5-9.5s9.5,4.262,9.5,9.5v81c0,5.238-4.262,9.5-9.5,9.5s-9.5-4.262-9.5-9.5V69.529z M168.091,109.909
			c0-1.588,1.292-2.88,2.88-2.88h60.62v18h-60.62c-1.588,0-2.88-1.292-2.88-2.88V109.909z M321.645,215.447
			c-1.016,7.743-7.671,13.582-15.48,13.582H206.016c-7.809,0-14.464-5.839-15.481-13.582l-9.896-75.418h50.952v10.5
			c0,13.509,10.991,24.5,24.5,24.5c13.51,0,24.5-10.991,24.5-24.5v-10.5h50.951L321.645,215.447z M341.211,107.029
			c1.588,0,2.88,1.292,2.88,2.88v12.24c0,1.588-1.292,2.88-2.88,2.88h-60.62v-18H341.211z"/>
		<path d="M172.208,437.462c-5.396,0-8.34-2.473-10.705-4.459c-1.546-1.299-2.882-2.42-4.485-2.42c-3.191,0-5.592,4.098-5.592,6.754
			c0,5.466,9.041,11.58,21.14,11.58c13.425,0,21.766-7.622,21.766-19.89c0-14.009-10.269-18.366-18.52-21.867
			c-5.678-2.409-10.163-4.312-10.163-8.512c0-4.055,3.498-6.38,9.597-6.38c4.548,0,6.98,1.249,8.935,2.252
			c1.196,0.614,2.228,1.144,3.396,1.144c3.592,0,5.146-4.414,5.146-6.665c0-6.038-10.986-7.648-17.477-7.648
			c-10.738,0-22.212,4.826-22.212,18.371c0,12.119,9.072,16.147,17.077,19.702c6.227,2.765,11.605,5.153,11.605,10.767
			C181.716,435.551,176.804,437.462,172.208,437.462z"/>
		<path d="M227.432,381.26c0,0-0.001,0-0.001,0c-3.05,0-6.947,1.123-7.895,4.285l-17.251,56.227
			c-0.117,0.466-0.194,0.789-0.194,1.015c0,3.299,4.559,5.325,7.827,5.325c3.063,0,4.091-1.466,4.413-2.686l3.291-11.521h19.708
			l3.289,11.511c0.323,1.23,1.352,2.696,4.415,2.696c3.191,0,7.827-2.075,7.827-5.325c0-0.275-0.067-0.531-0.139-0.801
			l-17.307-56.438C234.468,382.387,230.671,381.26,227.432,381.26z M234.543,423.792l-14.224,0l7.112-25.097L234.543,423.792z"/>
		<path d="M269.699,381.796c-3.832,0-6.308,1.599-6.308,4.074v58.079c0,2.861,2.899,4.164,5.593,4.164h28.325
			c2.614,0,3.983-2.813,3.984-5.593c0-1.441-0.336-2.783-0.944-3.779c-0.727-1.187-1.777-1.813-3.039-1.813h-0.001l-21.303,0V385.87
			C276.007,383.056,272.839,381.796,269.699,381.796z"/>
		<path d="M349.405,392.982c1.257,0,2.365-0.631,3.121-1.777c0.672-1.021,1.043-2.408,1.042-3.905c0-2.651-1.303-5.504-4.163-5.504
			h-31.809c-2.693,0-5.593,1.303-5.593,4.164v57.989c0,2.861,2.899,4.164,5.593,4.164h31.809c1.328,0,2.432-0.632,3.192-1.829
			c0.626-0.986,0.972-2.292,0.971-3.675c0-3.346-1.712-5.683-4.163-5.683h-24.787v-16.959l13.083,0c2.732,0,4.162-2.499,4.162-4.967
			c0-1.335-0.375-2.586-1.056-3.522c-0.762-1.047-1.864-1.624-3.105-1.624h-0.001l-13.083,0l0.001-16.87H349.405z"/>
		<path d="M394.583,322.396c10.817,0,16.666-5.119,20.938-8.856c3.665-3.208,5.878-5.144,11.059-5.144
			c5.182,0,7.395,1.937,11.062,5.145c4.271,3.737,10.12,8.855,20.938,8.855c4.143,0,7.5-3.358,7.5-7.5s-3.357-7.5-7.5-7.5
			c-5.182,0-7.395-1.937-11.062-5.145c-4.271-3.737-10.12-8.855-20.938-8.855c-10.817,0-16.666,5.119-20.938,8.856
			c-3.665,3.208-5.878,5.144-11.059,5.144c-4.143,0-7.5,3.358-7.5,7.5S390.44,322.396,394.583,322.396z"/>
		<path d="M394.583,356.148c10.817,0,16.666-5.119,20.938-8.856c3.665-3.208,5.878-5.144,11.059-5.144
			c5.182,0,7.395,1.937,11.062,5.145c4.271,3.737,10.12,8.855,20.938,8.855c4.143,0,7.5-3.358,7.5-7.5s-3.357-7.5-7.5-7.5
			c-5.182,0-7.395-1.937-11.062-5.145c-4.271-3.737-10.12-8.855-20.938-8.855c-10.817,0-16.666,5.119-20.938,8.856
			c-3.665,3.208-5.878,5.144-11.059,5.144c-4.143,0-7.5,3.358-7.5,7.5S390.44,356.148,394.583,356.148z"/>
	</g>
</g>
<g>
</g>
<g>
</g>
<g>
</g>
<g>
</g>
<g>
</g>
<g>
</g>
<g>
</g>
<g>
</g>
<g>
</g>
<g>
</g>
<g>
</g>
<g>
</g>
<g>
</g>
<g>
</g>
<g>
</g>
</svg>
