<?xml version="1.0" encoding="iso-8859-1"?>
<!-- Generator: Adobe Illustrator 19.0.0, SVG Export Plug-In . SVG Version: 6.00 Build 0)  -->
<svg version="1.1" id="Layer_1" xmlns="http://www.w3.org/2000/svg" xmlns:xlink="http://www.w3.org/1999/xlink" x="0px" y="0px"
	 viewBox="0 0 505 505" style="enable-background:new 0 0 505 505;" xml:space="preserve">
<g>
	<g>
		<polygon style="fill:#FF491F;" points="62.244,127.383 364.093,127.383 402.549,497.5 23.789,497.5 		"/>
		<polygon style="fill:#ED3618;" points="218.315,247.053 428.134,247.053 454.865,497.5 191.584,497.5 		"/>
		<polygon style="fill:#FFE14D;" points="239.314,247.053 449.133,247.053 475.864,497.5 212.583,497.5 		"/>
		<circle style="fill:#32CC77;" cx="407.895" cy="119.317" r="73.317"/>
	</g>
	<g>
		<path d="M443.809,88.164c1.812-3.725,0.259-8.213-3.466-10.024c-3.729-1.813-8.215-0.259-10.024,3.466l-28.698,59.037l-13-23.4
			c-2.012-3.621-6.576-4.926-10.199-2.914c-3.621,2.012-4.925,6.578-2.914,10.198l20,36c1.325,2.385,3.838,3.858,6.556,3.858
			c0.068,0,0.137-0.001,0.206-0.003c2.796-0.076,5.317-1.702,6.54-4.218L443.809,88.164z"/>
		<path d="M456.591,246.257c-0.407-3.813-3.624-6.704-7.458-6.704H383.29l-4.665-44.928c9.083,3.542,18.949,5.509,29.27,5.509
			c44.563,0,80.817-36.254,80.817-80.817c0-44.563-36.255-80.817-80.817-80.817s-80.817,36.254-80.817,80.817
			c0,0.188,0.013,0.374,0.014,0.563h-24.988V88.935C302.104,39.896,262.207,0,213.169,0c-49.039,0-88.935,39.896-88.935,88.935
			v30.944H62.248c-3.842,0-7.063,2.903-7.46,6.725l-9.455,90.994c-0.428,4.12,2.565,7.807,6.685,8.235
			c0.264,0.027,0.525,0.041,0.785,0.041c3.793,0,7.05-2.869,7.451-6.726l8.756-84.269h55.225v28.7c0,4.142,3.358,7.5,7.5,7.5
			s7.5-3.358,7.5-7.5v-28.7h147.87v28.7c0,4.142,3.357,7.5,7.5,7.5s7.5-3.358,7.5-7.5v-28.7h26.492
			c4.172,21.296,16.722,39.626,34.08,51.388l5.533,53.287H239.314c-3.834,0-7.051,2.892-7.458,6.704l-26.015,243.742H32.108
			l25.199-242.502c0.428-4.12-2.565-7.807-6.685-8.235c-4.121-0.427-7.807,2.564-8.235,6.685L16.328,496.724
			c-0.219,2.113,0.467,4.22,1.889,5.797c1.422,1.578,3.447,2.478,5.571,2.478h188.777c0.006,0,0.012,0.001,0.018,0.001h164.964
			c4.143,0,7.5-3.358,7.5-7.5s-3.357-7.5-7.5-7.5H220.927l25.129-235.447h196.335L467.521,490h-64.972c-4.143,0-7.5,3.358-7.5,7.5
			s3.357,7.5,7.5,7.5h73.314c2.128,0,4.155-0.904,5.577-2.486c1.423-1.583,2.106-3.694,1.881-5.81L456.591,246.257z
			 M139.234,119.879V88.935c0-40.768,33.167-73.935,73.935-73.935s73.935,33.167,73.935,73.935v30.944H139.234z M342.077,119.316
			c0-36.292,29.525-65.817,65.817-65.817s65.817,29.525,65.817,65.817c0,36.292-29.525,65.817-65.817,65.817
			S342.077,155.608,342.077,119.316z"/>
		<path d="M295.589,285.223c-4.143,0-7.5,3.358-7.5,7.5v48.635c0,30.953,25.182,56.135,56.135,56.135s56.135-25.182,56.135-56.135
			v-48.635c0-4.142-3.357-7.5-7.5-7.5s-7.5,3.358-7.5,7.5v48.635c0,22.682-18.453,41.135-41.135,41.135
			s-41.135-18.453-41.135-41.135v-48.635C303.089,288.581,299.732,285.223,295.589,285.223z"/>
	</g>
</g>
<g>
</g>
<g>
</g>
<g>
</g>
<g>
</g>
<g>
</g>
<g>
</g>
<g>
</g>
<g>
</g>
<g>
</g>
<g>
</g>
<g>
</g>
<g>
</g>
<g>
</g>
<g>
</g>
<g>
</g>
</svg>
