<?xml version="1.0" encoding="iso-8859-1"?>
<!-- Generator: Adobe Illustrator 19.0.0, SVG Export Plug-In . SVG Version: 6.00 Build 0)  -->
<svg version="1.1" id="Layer_1" xmlns="http://www.w3.org/2000/svg" xmlns:xlink="http://www.w3.org/1999/xlink" x="0px" y="0px"
	 viewBox="0 0 506.48 506.48" style="enable-background:new 0 0 506.48 506.48;" xml:space="preserve">
<g>
	<g>
		<path style="fill:#C4E2F2;" d="M430.499,130.355v330.14c0,14.6-11.83,26.43-26.43,26.43H33.929c-14.6,0-26.43-11.83-26.43-26.43
			v-330.14c0-14.6,11.83-26.43,26.43-26.43h370.14C418.669,103.925,430.499,115.755,430.499,130.355z"/>
		<path style="fill:#83B2C6;" d="M430.499,130.355v31.57h-423v-31.57c0-14.6,11.83-26.43,26.43-26.43h370.14
			C418.669,103.925,430.499,115.755,430.499,130.355z"/>
		<g>
			<polygon style="fill:#FF491F;" points="336.384,294.497 287.065,267.857 150.933,267.857 101.614,294.497 128.254,343.816 
				150.933,331.566 150.933,428.012 287.065,428.012 287.065,331.566 309.743,343.816 			"/>
			<path style="fill:#ED3618;" d="M172.285,267.863c0,25.8,20.915,46.714,46.714,46.714s46.714-20.915,46.714-46.714"/>
		</g>
		<g>
			<path style="fill:#FFE14D;" d="M424.508,29.978l13.711,27.781c2.723,5.518,7.988,9.343,14.077,10.228l30.658,4.455
				c15.335,2.228,21.458,21.074,10.362,31.89l-22.185,21.625c-4.406,4.295-6.417,10.484-5.377,16.549l5.237,30.535
				c2.62,15.273-13.411,26.92-27.128,19.709l-27.422-14.416c-5.447-2.864-11.954-2.864-17.4,0l-27.422,14.416
				c-13.716,7.211-29.747-4.436-27.128-19.709l5.237-30.535c1.04-6.065-0.971-12.254-5.377-16.549l-22.185-21.625
				c-11.097-10.817-4.973-29.662,10.362-31.89l30.658-4.455c6.09-0.885,11.354-4.71,14.077-10.228l13.711-27.781
				C397.835,16.082,417.65,16.082,424.508,29.978z"/>
		</g>
	</g>
	<g>
		<path d="M38.183,128.795c-2.566,1.799-3.755,5.111-2.907,8.129c0.901,3.208,3.874,5.495,7.218,5.495
			c3.597,0,6.779-2.658,7.39-6.211C50.99,129.763,43.546,125.034,38.183,128.795z"/>
		<path d="M88.326,129.494c-4.793,4.569-1.457,12.925,5.168,12.925c3.662,0,6.89-2.757,7.42-6.393
			c0.452-3.098-1.113-6.242-3.885-7.712C94.205,126.817,90.646,127.283,88.326,129.494z"/>
		<path d="M63.241,129.128c-5.305,4.353-2.164,13.301,4.753,13.301c3.656,0,6.896-2.774,7.42-6.403
			C76.37,129.403,68.453,124.852,63.241,129.128z"/>
		<path d="M114.789,407.968H41.293c-4.143,0-7.5,3.358-7.5,7.5s3.357,7.5,7.5,7.5h73.496c4.143,0,7.5-3.358,7.5-7.5
			S118.932,407.968,114.789,407.968z"/>
		<path d="M114.789,443.696H41.293c-4.143,0-7.5,3.358-7.5,7.5s3.357,7.5,7.5,7.5h73.496c4.143,0,7.5-3.358,7.5-7.5
			S118.932,443.696,114.789,443.696z"/>
		<path d="M290.627,324.967c-2.323-1.255-5.137-1.195-7.406,0.158c-2.269,1.353-3.658,3.8-3.658,6.441v88.946h-20.061
			c-4.143,0-7.5,3.358-7.5,7.5s3.357,7.5,7.5,7.5h27.561c4.143,0,7.5-3.358,7.5-7.5v-83.871l11.614,6.273
			c3.647,1.97,8.195,0.61,10.163-3.034l26.641-49.319c0.945-1.75,1.157-3.804,0.588-5.71c-0.569-1.906-1.872-3.508-3.622-4.453
			l-49.319-26.64c-1.095-0.592-2.32-0.901-3.564-0.901H150.932c-1.244,0-2.47,0.31-3.564,0.901l-49.319,26.64
			c-1.75,0.945-3.053,2.547-3.622,4.453c-0.569,1.906-0.357,3.96,0.588,5.71l26.641,49.319c1.968,3.644,6.52,5.004,10.163,3.034
			l11.614-6.273v83.871c0,4.142,3.357,7.5,7.5,7.5H234.5c4.143,0,7.5-3.358,7.5-7.5s-3.357-7.5-7.5-7.5h-76.068v-88.946
			c0-2.642-1.39-5.088-3.658-6.441c-2.269-1.354-5.083-1.413-7.406-0.158l-16.08,8.686l-19.512-36.122l41.053-22.174h12.485
			c3.663,26.358,26.334,46.72,53.684,46.72s50.021-20.361,53.684-46.72h12.485l41.053,22.174l-19.512,36.122L290.627,324.967z
			 M218.997,307.077c-19.06,0-34.979-13.67-38.487-31.72h76.974C253.976,293.407,238.057,307.077,218.997,307.077z"/>
		<path d="M226.497,234.195v-24c0-4.142-3.357-7.5-7.5-7.5s-7.5,3.358-7.5,7.5v24c0,4.142,3.357,7.5,7.5,7.5
			S226.497,238.337,226.497,234.195z"/>
		<path d="M294.069,241.118c0.943,0.393,1.92,0.579,2.882,0.579c2.937,0,5.726-1.737,6.926-4.617l10-24
			c1.594-3.824-0.215-8.215-4.038-9.808c-3.822-1.592-8.214,0.214-9.808,4.038l-10,24
			C288.438,235.134,290.246,239.525,294.069,241.118z"/>
		<path d="M382.196,239.892l-25,25c-2.929,2.929-2.929,7.678,0,10.606c1.465,1.464,3.385,2.197,5.304,2.197s3.839-0.732,5.304-2.197
			l25-25c2.929-2.929,2.929-7.678,0-10.606C389.874,236.963,385.126,236.963,382.196,239.892z"/>
		<path d="M141.043,241.697c0.962,0,1.938-0.186,2.882-0.579c3.823-1.593,5.632-5.984,4.038-9.808l-10-24
			c-1.593-3.823-5.983-5.632-9.808-4.038c-3.823,1.593-5.632,5.984-4.038,9.808l10,24
			C135.317,239.96,138.105,241.697,141.043,241.697z"/>
		<path d="M75.494,277.695c1.919,0,3.839-0.732,5.304-2.197c2.929-2.929,2.929-7.678,0-10.606l-25-25
			c-2.93-2.929-7.678-2.929-10.607,0c-2.929,2.929-2.929,7.678,0,10.606l25,25C71.655,276.963,73.575,277.695,75.494,277.695z"/>
		<path d="M498.55,109.703c7.192-7.011,9.732-17.301,6.629-26.854c-3.104-9.553-11.207-16.384-21.147-17.829l-30.658-4.455
			c-3.647-0.53-6.799-2.819-8.43-6.125l-13.711-27.781c-4.445-9.007-13.447-14.603-23.491-14.603
			c-10.045,0-19.047,5.595-23.492,14.603l-13.711,27.782c-1.631,3.305-4.782,5.594-8.43,6.124L331.45,65.02
			c-9.94,1.444-18.043,8.276-21.147,17.829c-1.463,4.502-1.657,9.166-0.716,13.575H167.502c-4.143,0-7.5,3.358-7.5,7.5
			s3.357,7.5,7.5,7.5h151.194l20.42,19.904c2.64,2.573,3.843,6.278,3.221,9.91l-2.262,13.186H15v-24.07
			c0-10.438,8.492-18.93,18.931-18.93H142.5c4.143,0,7.5-3.358,7.5-7.5s-3.357-7.5-7.5-7.5H33.931
			C15.222,96.424,0,111.645,0,130.354v330.14c0,18.709,15.222,33.93,33.931,33.93h370.14c18.709,0,33.93-15.221,33.93-33.93V210.725
			c0-4.142-3.357-7.5-7.5-7.5s-7.5,3.358-7.5,7.5v249.769c0,10.438-8.492,18.93-18.93,18.93H33.931
			c-10.438,0-18.931-8.492-18.931-18.93v-291.07h322.502l-0.403,2.349c-1.697,9.9,2.296,19.718,10.422,25.622
			c8.127,5.905,18.699,6.667,27.589,1.994l27.42-14.417c3.263-1.714,7.159-1.715,10.422,0l27.421,14.417
			c3.867,2.033,8.052,3.037,12.216,3.037c5.408,0,10.781-1.695,15.373-5.031c8.126-5.904,12.119-15.722,10.421-25.622l-5.236-30.534
			c-0.623-3.633,0.58-7.338,3.22-9.911L498.55,109.703z M465.895,120.587c-6.175,6.02-8.991,14.688-7.533,23.188l5.237,30.534
			c0.736,4.296-0.929,8.39-4.455,10.951c-3.525,2.561-7.935,2.88-11.791,0.852l-27.422-14.417
			c-3.816-2.006-8.003-3.009-12.189-3.009c-4.188,0-8.374,1.003-12.191,3.009l-27.421,14.417c-3.855,2.029-8.264,1.71-11.791-0.852
			c-3.526-2.562-5.191-6.655-4.455-10.951l5.238-30.535c1.457-8.5-1.359-17.167-7.534-23.187l-22.185-21.625
			c-3.121-3.042-4.181-7.333-2.834-11.478c1.347-4.145,4.726-6.993,9.038-7.62l30.658-4.455c8.535-1.24,15.909-6.597,19.725-14.33
			L397.7,33.298c1.929-3.908,5.683-6.241,10.041-6.241c4.357,0,8.111,2.333,10.04,6.241l13.711,27.78
			c3.815,7.734,11.189,13.091,19.725,14.331l30.658,4.455c4.313,0.627,7.691,3.476,9.038,7.62c1.347,4.145,0.287,8.436-2.834,11.478
			L465.895,120.587z"/>
	</g>
</g>
<g>
</g>
<g>
</g>
<g>
</g>
<g>
</g>
<g>
</g>
<g>
</g>
<g>
</g>
<g>
</g>
<g>
</g>
<g>
</g>
<g>
</g>
<g>
</g>
<g>
</g>
<g>
</g>
<g>
</g>
</svg>
