<?xml version="1.0" encoding="iso-8859-1"?>
<!-- Generator: Adobe Illustrator 19.0.0, SVG Export Plug-In . SVG Version: 6.00 Build 0)  -->
<svg version="1.1" id="Layer_1" xmlns="http://www.w3.org/2000/svg" xmlns:xlink="http://www.w3.org/1999/xlink" x="0px" y="0px"
	 viewBox="0 0 504.991 504.991" style="enable-background:new 0 0 504.991 504.991;" xml:space="preserve">
<g>
	<g>
		<g>
			<rect x="137.042" y="147.784" style="fill:#32CC77;" width="360.454" height="209.424"/>
			<path style="fill:#1FB25E;" d="M466.002,287.004v-69.018c-21.378,0-38.709-17.331-38.709-38.709H207.246
				c0,21.378-17.331,38.709-38.709,38.709v69.018c21.378,0,38.709,17.331,38.709,38.709h220.047
				C427.293,304.335,444.624,287.004,466.002,287.004z"/>
			<circle style="fill:#32CC77;" cx="317.269" cy="252.496" r="39.003"/>
		</g>
		<path style="fill:#3C3F4D;" d="M274.737,494.946H43.031c-19.624,0-35.532-15.908-35.532-35.532V45.576
			c0-19.624,15.908-35.532,35.532-35.532h231.706c19.624,0,35.532,15.908,35.532,35.532v413.838
			C310.269,479.038,294.361,494.946,274.737,494.946z"/>
		<circle style="fill:#2D303B;" cx="158.884" cy="463.711" r="31.235"/>
		<path style="fill:#C4E2F2;" d="M262.745,72.205H55.023c-9.899,0-17.923,8.025-17.923,17.923v324.424
			c0,9.899,8.025,17.923,17.923,17.923h207.722c9.899,0,17.923-8.025,17.923-17.923V90.128
			C280.668,80.229,272.644,72.205,262.745,72.205z"/>
		<path style="fill:#83B2C6;" d="M280.668,90.125v324.43c0,9.9-8.03,17.92-17.92,17.92h-25.35c9.9,0,17.93-8.02,17.93-17.92V90.125
			c0-9.9-8.03-17.92-17.93-17.92h25.35C272.638,72.205,280.668,80.225,280.668,90.125z"/>
		<g>
			<rect x="78.441" y="126.685" style="fill:#32CC77;" width="202.23" height="249.56"/>
			<path style="fill:#1FB25E;" d="M280.671,164.215v174.5h-118.57c0-25.48-20.65-46.13-46.13-46.13v-82.24
				c25.48,0,46.13-20.66,46.13-46.13H280.671z"/>
			<path style="fill:#32CC77;" d="M280.671,206.695v89.54c-19.58-5.48-33.94-23.45-33.94-44.77S261.091,212.175,280.671,206.695z"/>
		</g>
	</g>
	<g>
		<path d="M394.516,259.995h23.998c4.143,0,7.5-3.358,7.5-7.5s-3.357-7.5-7.5-7.5h-23.998c-4.143,0-7.5,3.358-7.5,7.5
			S390.373,259.995,394.516,259.995z"/>
		<path d="M497.491,140.285h-80.98c-4.143,0-7.5,3.358-7.5,7.5s3.357,7.5,7.5,7.5h73.48v194.42H335.272c-4.143,0-7.5,3.358-7.5,7.5
			s3.357,7.5,7.5,7.5h162.219c4.143,0,7.5-3.358,7.5-7.5v-209.42C504.991,143.643,501.634,140.285,497.491,140.285z"/>
		<path d="M427.291,333.215c4.143,0,7.5-3.358,7.5-7.5c0-17.209,14.001-31.21,31.21-31.21c4.143,0,7.5-3.358,7.5-7.5v-69.02
			c0-4.142-3.357-7.5-7.5-7.5c-17.209,0-31.21-14.001-31.21-31.21c0-4.142-3.357-7.5-7.5-7.5H317.769v-16.49h73.74
			c4.143,0,7.5-3.358,7.5-7.5s-3.357-7.5-7.5-7.5h-73.74V45.577c0-23.728-19.304-43.032-43.031-43.032H43.031
			C19.304,2.545,0,21.849,0,45.577v413.838c0,23.728,19.304,43.032,43.031,43.032h231.706c23.728,0,43.031-19.304,43.031-43.032
			V333.215H427.291z M420.399,186.775c3.193,19.483,18.618,34.908,38.102,38.102v55.236c-19.483,3.194-34.908,18.618-38.102,38.102
			H317.769v-19.233c25.412-0.269,46.003-21.014,46.003-46.487s-20.591-46.219-46.003-46.487v-19.233H420.399z M317.769,221.008
			c17.14,0.268,31.003,14.285,31.003,31.487s-13.863,31.22-31.003,31.487V221.008z M135.148,463.711
			c0-13.088,10.647-23.735,23.735-23.735s23.735,10.648,23.735,23.735c0,13.088-10.647,23.736-23.735,23.736
			S135.148,476.799,135.148,463.711z M302.769,459.415c0,15.457-12.575,28.032-28.031,28.032h-85.275
			c5.105-6.562,8.157-14.797,8.157-23.736s-3.052-17.174-8.157-23.736h73.279c14.021,0,25.43-11.403,25.43-25.42V90.125
			c0-14.017-11.408-25.42-25.43-25.42H55.021c-14.017,0-25.42,11.403-25.42,25.42v324.43c0,14.017,11.403,25.42,25.42,25.42h5.004
			c4.143,0,7.5-3.358,7.5-7.5s-3.357-7.5-7.5-7.5h-5.004c-5.745,0-10.42-4.674-10.42-10.42V90.125c0-5.746,4.675-10.42,10.42-10.42
			h207.72c5.751,0,10.43,4.674,10.43,10.42v29.06H78.451c-4.143,0-7.5,3.358-7.5,7.5v249.56c0,4.142,3.357,7.5,7.5,7.5h194.72v30.81
			c0,5.746-4.679,10.42-10.43,10.42H85.027c-4.143,0-7.5,3.358-7.5,7.5s3.357,7.5,7.5,7.5h43.278
			c-5.105,6.562-8.157,14.797-8.157,23.736s3.052,17.174,8.157,23.736H43.031C27.575,487.446,15,474.871,15,459.415V45.577
			c0-15.457,12.575-28.032,28.031-28.032h231.706c15.456,0,28.031,12.575,28.031,28.032V459.415z M273.171,284.889
			c-11.501-6.923-18.939-19.539-18.939-33.423c0-13.881,7.438-26.5,18.939-33.428V284.889z M273.171,156.715h-32.648
			c-4.143,0-7.5,3.358-7.5,7.5s3.357,7.5,7.5,7.5h32.648v29.627c-20.239,8.109-33.939,27.955-33.939,50.123
			c0,22.172,13.701,42.014,33.939,50.115v29.635H169.079c-3.314-23.583-22.025-42.293-45.607-45.607v-68.285
			c23.582-3.314,42.293-22.025,45.607-45.607h46.441c4.143,0,7.5-3.358,7.5-7.5s-3.357-7.5-7.5-7.5h-53.419
			c-4.143,0-7.5,3.358-7.5,7.5c0,21.301-17.329,38.63-38.63,38.63c-4.143,0-7.5,3.358-7.5,7.5v82.24c0,4.142,3.357,7.5,7.5,7.5
			c21.301,0,38.63,17.329,38.63,38.63c0,4.142,3.357,7.5,7.5,7.5h111.069v22.53H85.951v-234.56h187.22V156.715z"/>
		<path d="M463.131,186.204c6.476,2.732,12.789-4.579,9.395-10.619c-1.563-2.781-4.864-4.292-7.995-3.661
			c-2.948,0.593-5.291,2.948-5.881,5.89C457.952,181.295,459.873,184.83,463.131,186.204z"/>
		<path d="M472.241,321.555c-3.626-5.436-12.318-3.721-13.591,2.69c-1.355,6.826,6.918,11.71,12.223,7.171
			C473.706,328.992,474.334,324.659,472.241,321.555z"/>
		<path d="M185.384,35.716h-53c-4.143,0-7.5,3.358-7.5,7.5s3.357,7.5,7.5,7.5h53c4.143,0,7.5-3.358,7.5-7.5
			S189.526,35.716,185.384,35.716z"/>
		<path d="M201.161,243.964h-28.599c-4.143,0-7.5,3.358-7.5,7.5s3.357,7.5,7.5,7.5h28.599c4.143,0,7.5-3.358,7.5-7.5
			S205.304,243.964,201.161,243.964z"/>
		<path d="M111.811,344.954c2.736,1.845,6.536,1.613,9.033-0.539c2.432-2.095,3.291-5.598,2.057-8.572
			c-1.173-2.826-4.049-4.703-7.112-4.625c-3.148,0.08-5.936,2.169-6.931,5.144C107.79,339.55,109.056,343.074,111.811,344.954z"/>
		<path d="M109.051,167.084c1.13,2.831,4.071,4.703,7.104,4.625c3-0.076,5.733-2.003,6.813-4.799
			c2.513-6.506-4.859-12.726-10.849-9.131C108.968,159.669,107.646,163.691,109.051,167.084z"/>
	</g>
</g>
<g>
</g>
<g>
</g>
<g>
</g>
<g>
</g>
<g>
</g>
<g>
</g>
<g>
</g>
<g>
</g>
<g>
</g>
<g>
</g>
<g>
</g>
<g>
</g>
<g>
</g>
<g>
</g>
<g>
</g>
</svg>
