<?xml version="1.0" encoding="iso-8859-1"?>
<!-- Generator: Adobe Illustrator 19.0.0, SVG Export Plug-In . SVG Version: 6.00 Build 0)  -->
<svg version="1.1" id="Layer_1" xmlns="http://www.w3.org/2000/svg" xmlns:xlink="http://www.w3.org/1999/xlink" x="0px" y="0px"
	 viewBox="0 0 504.752 504.752" style="enable-background:new 0 0 504.752 504.752;" xml:space="preserve">
<g>
	<path d="M310.559,347.429c-3.902-3.902-9.09-6.051-14.607-6.051c-5.519,0-10.706,2.149-14.608,6.051l-45.847,45.847
		c-25.875-13.524-44.621-24.862-71.692-51.934c-27.063-27.062-38.402-45.804-51.934-71.676l45.855-45.854
		c8.054-8.054,8.055-21.161,0-29.216l-73.529-73.53c-8.056-8.055-21.161-8.055-29.217,0l-19.765,19.765
		c-40.634,40.635-46.099,106.36-14.618,175.816c1.71,3.772,6.153,5.444,9.927,3.735c3.773-1.71,5.445-6.155,3.735-9.927
		C6.885,250.058,9.462,193.373,40.738,156.962l81.311,81.312l-24.672,24.672c-2.31,2.31-2.858,5.848-1.357,8.75
		c14.938,28.878,26.989,50.065,57.177,80.253c30.2,30.201,51.392,42.247,80.273,57.178c2.9,1.499,6.438,0.951,8.748-1.359
		l24.663-24.663l81.316,81.316c-26.264,22.544-63.46,30.394-105.691,22.089c-47.496-9.339-97.756-38.584-141.521-82.349
		c-22.127-22.127-40.493-45.727-54.589-70.143c-2.071-3.588-6.657-4.815-10.245-2.746c-3.587,2.071-4.816,6.658-2.745,10.245
		c14.75,25.551,33.919,50.196,56.972,73.25c45.849,45.848,98.847,76.553,149.234,86.461c11.994,2.358,23.644,3.523,34.84,3.523
		c35.794,0,66.951-11.909,89.864-34.822l19.764-19.764c8.055-8.055,8.055-21.161,0-29.216L310.559,347.429z M51.125,146.135
		l14.462-14.462c2.205-2.206,5.797-2.206,8.002,0l73.529,73.53c2.207,2.206,2.207,5.796,0,8.002l-14.462,14.462L51.125,146.135z
		 M373.472,439.559l-14.462,14.462l-81.522-81.523l14.463-14.462c1.068-1.069,2.489-1.657,4.001-1.657c1.511,0,2.932,0.589,4,1.657
		l73.521,73.521C375.679,433.763,375.679,437.353,373.472,439.559z"/>
	<path d="M472.513,117.999h-13.599c-4.143,0-7.5,3.358-7.5,7.5s3.357,7.5,7.5,7.5h13.599c9.318,0,16.899,7.581,16.899,16.9v114.47
		c0,9.319-7.581,16.9-16.899,16.9h-15.601c-4.143,0-7.5,3.358-7.5,7.5v37.893l-43.196-43.197c-1.407-1.406-3.314-2.197-5.304-2.197
		h-73.6c-9.319,0-16.9-7.581-16.9-16.9v-86.099h22.102c17.589,0,31.898-14.31,31.898-31.898v-13.373h69.5c4.143,0,7.5-3.358,7.5-7.5
		s-3.357-7.5-7.5-7.5h-69.5V31.898C364.413,14.31,350.103,0,332.514,0H187.311c-17.589,0-31.898,14.31-31.898,31.898v114.474
		c0,17.589,14.31,31.898,31.898,31.898h6.782v48.5c0,3.033,1.827,5.768,4.63,6.929c0.928,0.384,1.902,0.571,2.868,0.571
		c1.952,0,3.87-0.762,5.306-2.197l53.803-53.803h34.713v86.099c0,17.59,14.311,31.9,31.9,31.9h70.493l53.803,53.803
		c1.436,1.435,3.354,2.197,5.306,2.197c0.966,0,1.94-0.187,2.868-0.571c2.803-1.161,4.63-3.896,4.63-6.929v-48.5h8.101
		c17.59,0,31.899-14.31,31.899-31.9v-114.47C504.413,132.31,490.103,117.999,472.513,117.999z M257.593,163.271
		c-1.989,0-3.896,0.79-5.304,2.197l-43.196,43.197v-37.893c0-4.142-3.357-7.5-7.5-7.5h-14.282c-9.317,0-16.898-7.581-16.898-16.898
		V31.898c0-9.318,7.581-16.898,16.898-16.898h145.203c9.317,0,16.898,7.581,16.898,16.898v114.474
		c0,9.318-7.581,16.898-16.898,16.898H257.593z"/>
	<path d="M397.574,231.897c-4.737,0-8.591,3.904-8.591,8.702s3.854,8.702,8.591,8.702c4.717,0,8.702-3.985,8.702-8.702
		C406.276,235.882,402.29,231.897,397.574,231.897z"/>
	<path d="M422.873,185.461c0-5.169-2.331-9.862-6.563-13.214c-4.37-3.461-10.348-5.29-17.287-5.29
		c-15.056,0-22.069,8.981-22.069,15.051c0,4.205,3.508,6.474,6.809,6.474c2.6,0,3.648-1.547,4.862-3.337
		c1.666-2.456,3.554-5.24,10.063-5.24c4.786,0,9.9,1.957,9.9,7.449c0,4.861-4.07,7.985-7.661,10.742
		c-0.791,0.608-1.539,1.181-2.21,1.75c-3.494,3.013-7.506,7.672-7.506,17.026c0,5.744,1.52,7.588,6.252,7.588
		c3.055,0,6.696-0.814,6.696-4.692c0-5.604,0-8.986,6.19-13.825v0C418.659,199.481,422.873,192.59,422.873,185.461z"/>
	<path d="M250.036,78.999V63.182c0-5.228-1.646-9.182-4.893-11.752c-2.858-2.263-6.876-3.41-11.94-3.41
		c-13.913,0-16.833,8.246-16.833,15.163v15.817c0,6.917,2.92,15.163,16.833,15.163c5.064,0,9.082-1.147,11.94-3.41
		C248.389,88.181,250.036,84.227,250.036,78.999z M227.87,63.182c0-3.465,1.794-5.222,5.333-5.222c3.562,0,5.444,1.806,5.444,5.222
		v15.817c0,3.416-1.883,5.222-5.444,5.222c-3.539,0-5.333-1.757-5.333-5.222V63.182z"/>
	<path d="M296.271,87.297c-2.858-2.263-6.876-3.41-11.94-3.41c-13.913,0-16.834,8.246-16.834,15.163v15.817
		c0,6.917,2.921,15.163,16.834,15.163c5.064,0,9.082-1.147,11.94-3.41c3.246-2.57,4.893-6.524,4.893-11.752V99.049
		C301.164,93.821,299.517,89.867,296.271,87.297z M278.997,99.049c0-3.465,1.795-5.222,5.334-5.222c3.562,0,5.444,1.806,5.444,5.222
		v15.817c0,3.416-1.883,5.222-5.444,5.222c-3.539,0-5.334-1.757-5.334-5.222V99.049z"/>
	<path d="M284.567,49.481c0-3.606-3.463-6.029-6.697-6.029c-2.19,0-3.938,1.041-4.791,2.855l-39.097,80.311
		c-0.362,0.725-0.57,1.516-0.57,2.172c0,2.912,2.557,6.029,6.363,6.029c2.233,0,4.341-1.175,5.124-2.855l39.208-80.311
		C284.487,50.896,284.567,50.053,284.567,49.481z"/>
</g>
<g>
</g>
<g>
</g>
<g>
</g>
<g>
</g>
<g>
</g>
<g>
</g>
<g>
</g>
<g>
</g>
<g>
</g>
<g>
</g>
<g>
</g>
<g>
</g>
<g>
</g>
<g>
</g>
<g>
</g>
</svg>
