<?xml version="1.0" encoding="iso-8859-1"?>
<!-- Generator: Adobe Illustrator 19.0.0, SVG Export Plug-In . SVG Version: 6.00 Build 0)  -->
<svg version="1.1" id="Layer_1" xmlns="http://www.w3.org/2000/svg" xmlns:xlink="http://www.w3.org/1999/xlink" x="0px" y="0px"
	 viewBox="0 0 505.822 505.822" style="enable-background:new 0 0 505.822 505.822;" xml:space="preserve">
<g>
	<path d="M459.831,112.391h-92.506V37.58c0-20.722-16.854-37.58-37.57-37.58H93.074c-19.437,0-35.25,15.817-35.25,35.26v77.132
		H45.991c-23.727,0-43.03,19.303-43.03,43.03v37.963c0,4.142,3.358,7.5,7.5,7.5s7.5-3.358,7.5-7.5v-37.963
		c0-15.456,12.574-28.03,28.03-28.03h413.84c15.456,0,28.03,12.574,28.03,28.03v6.961c0,4.142,3.358,7.5,7.5,7.5s7.5-3.358,7.5-7.5
		v-6.961C502.861,131.695,483.558,112.391,459.831,112.391z M72.824,54.256h279.501v21.475H72.824V54.256z M93.074,15h236.682
		c12.445,0,22.57,10.129,22.57,22.58v1.676H72.824V35.26C72.824,24.088,81.908,15,93.074,15z M72.824,90.731h279.501v21.66H72.824
		V90.731z"/>
	<path d="M495.361,179.885c-4.142,0-7.5,3.358-7.5,7.5v199.747c0,15.456-12.574,28.03-28.03,28.03h-49.13v-14.6h4.58
		c14.017,0,25.42-11.408,25.42-25.43v-207.72c0-14.017-11.403-25.42-25.42-25.42H90.851c-14.017,0-25.42,11.403-25.42,25.42v73.283
		c-6.562-5.104-14.796-8.156-23.734-8.156c-8.939,0-17.174,3.052-23.736,8.157v-22.31c0-4.142-3.358-7.5-7.5-7.5s-7.5,3.358-7.5,7.5
		v168.746c0,23.727,19.303,43.03,43.03,43.03h118.725v68.161c0,2.673,1.423,5.145,3.735,6.487c2.313,1.342,5.164,1.352,7.486,0.025
		l34.78-19.874l34.78,19.874c2.307,1.318,5.137,1.317,7.442,0l34.774-19.874l34.776,19.874c2.306,1.317,5.137,1.317,7.442,0
		l34.774-19.874l34.773,19.874c1.153,0.659,2.437,0.988,3.721,0.988c1.3,0,2.601-0.338,3.764-1.013
		c2.313-1.342,3.736-3.813,3.736-6.487v-68.161h49.13c23.727,0,43.03-19.303,43.03-43.03V187.385
		C502.861,183.243,499.503,179.885,495.361,179.885z M425.701,167.411v207.72c0,5.751-4.674,10.43-10.42,10.43h-4.58v-181.06
		c0-19.001-8.532-36.037-21.955-47.511h26.534C421.027,156.991,425.701,161.666,425.701,167.411z M41.697,247.539
		c13.069,0,23.702,10.616,23.734,23.678v0.115C65.4,284.394,54.766,295.01,41.697,295.01c-13.088,0-23.735-10.647-23.735-23.735
		S28.609,247.539,41.697,247.539z M45.991,415.161c-15.456,0-28.03-12.574-28.03-28.03v-85.279
		c6.562,5.105,14.797,8.157,23.736,8.157c8.938,0,17.172-3.051,23.734-8.156v73.277c0,14.022,11.403,25.43,25.42,25.43h56.369
		c4.142,0,7.5-3.358,7.5-7.5s-3.358-7.5-7.5-7.5H90.851c-5.746,0-10.42-4.679-10.42-10.43V271.332c0-0.019,0.001-0.038,0.001-0.058
		s-0.001-0.038-0.001-0.058V167.411c0-5.746,4.674-10.42,10.42-10.42h26.345c0.003,0,0.006,0,0.01,0
		c26.197,0,47.51,21.313,47.51,47.51v210.659H45.991z M368.429,469.811c-2.307-1.317-5.137-1.317-7.443,0l-34.774,19.874
		l-34.776-19.874c-2.306-1.317-5.137-1.317-7.442,0l-34.775,19.874l-34.78-19.874c-1.153-0.659-2.437-0.988-3.721-0.988
		s-2.568,0.33-3.721,0.988l-27.28,15.588V204.502c0-18.993-8.516-36.036-21.929-47.51h190.403c26.197,0,47.511,21.313,47.511,47.51
		v280.896L368.429,469.811z"/>
	<path d="M465.643,305.274c4.142,0,7.5-3.358,7.5-7.5v-53c0-4.142-3.358-7.5-7.5-7.5s-7.5,3.358-7.5,7.5v53
		C458.143,301.917,461.501,305.274,465.643,305.274z"/>
	<path d="M236.407,248.764h-32c-4.142,0-7.5,3.358-7.5,7.5s3.358,7.5,7.5,7.5h32c4.142,0,7.5-3.358,7.5-7.5
		S240.549,248.764,236.407,248.764z"/>
	<path d="M373.407,248.764h-104c-4.142,0-7.5,3.358-7.5,7.5s3.358,7.5,7.5,7.5h104c4.142,0,7.5-3.358,7.5-7.5
		S377.549,248.764,373.407,248.764z"/>
	<path d="M236.407,211.324h-32c-4.142,0-7.5,3.358-7.5,7.5s3.358,7.5,7.5,7.5h32c4.142,0,7.5-3.358,7.5-7.5
		S240.549,211.324,236.407,211.324z"/>
	<path d="M373.407,211.324h-104c-4.142,0-7.5,3.358-7.5,7.5s3.358,7.5,7.5,7.5h104c4.142,0,7.5-3.358,7.5-7.5
		S377.549,211.324,373.407,211.324z"/>
	<path d="M233.906,181.385c0-4.142-3.358-7.5-7.5-7.5h-32c-4.142,0-7.5,3.358-7.5,7.5s3.358,7.5,7.5,7.5h32
		C230.548,188.885,233.906,185.527,233.906,181.385z"/>
	<path d="M370.906,181.385c0-4.142-3.358-7.5-7.5-7.5h-104c-4.142,0-7.5,3.358-7.5,7.5s3.358,7.5,7.5,7.5h104
		C367.548,188.885,370.906,185.527,370.906,181.385z"/>
	<path d="M236.407,286.379h-32c-4.142,0-7.5,3.358-7.5,7.5s3.358,7.5,7.5,7.5h32c4.142,0,7.5-3.358,7.5-7.5
		S240.549,286.379,236.407,286.379z"/>
	<path d="M373.407,286.379h-104c-4.142,0-7.5,3.358-7.5,7.5s3.358,7.5,7.5,7.5h104c4.142,0,7.5-3.358,7.5-7.5
		S377.549,286.379,373.407,286.379z"/>
	<path d="M236.407,323.995h-32c-4.142,0-7.5,3.358-7.5,7.5s3.358,7.5,7.5,7.5h32c4.142,0,7.5-3.358,7.5-7.5
		S240.549,323.995,236.407,323.995z"/>
	<path d="M373.407,323.995h-104c-4.142,0-7.5,3.358-7.5,7.5s3.358,7.5,7.5,7.5h104c4.142,0,7.5-3.358,7.5-7.5
		S377.549,323.995,373.407,323.995z"/>
	<path d="M294.254,393.525v-18.474c3.082,0.486,5.152,1.535,6.826,2.383c1.44,0.729,2.578,1.306,3.853,1.306
		c4.071,0,5.833-4.978,5.833-7.518c0-5.42-8.484-7.93-16.511-8.482v-1.118c0-2.838-2.31-5.147-5.148-5.147s-5.147,2.309-5.147,5.147
		v1.444c-12.27,2.053-19.301,9.546-19.301,20.584c0,13.569,11.102,17.834,19.301,20.919v20.734
		c-4.521-0.859-7.462-3.142-9.835-4.984c-1.935-1.502-3.463-2.688-5.213-2.688c-3.508,0-6.148,4.624-6.148,7.623
		c0,5.662,8.692,12.453,21.196,13.232v0.513c0,1.587,0.732,3.065,1.991,4.04c0.746,0.705,1.83,1.108,2.973,1.108h0.184
		c2.838,0,5.148-2.31,5.148-5.148v-1.089c11.702-2.502,18.407-10.598,18.407-22.241C312.66,402.492,303.835,397.225,294.254,393.525
		z M299.31,417.041c0,3.544-1.747,6.157-5.057,7.578v-15.677C297.747,411.007,299.31,413.52,299.31,417.041z M283.958,375.666
		v13.939c-3.135-1.438-5.951-3.36-5.951-7.322C278.008,379.104,280.063,376.82,283.958,375.666z"/>
</g>
<g>
</g>
<g>
</g>
<g>
</g>
<g>
</g>
<g>
</g>
<g>
</g>
<g>
</g>
<g>
</g>
<g>
</g>
<g>
</g>
<g>
</g>
<g>
</g>
<g>
</g>
<g>
</g>
<g>
</g>
</svg>
