<?xml version="1.0" encoding="iso-8859-1"?>
<!-- Generator: Adobe Illustrator 19.0.0, SVG Export Plug-In . SVG Version: 6.00 Build 0)  -->
<svg version="1.1" id="Layer_1" xmlns="http://www.w3.org/2000/svg" xmlns:xlink="http://www.w3.org/1999/xlink" x="0px" y="0px"
	 viewBox="0 0 504.958 504.958" style="enable-background:new 0 0 504.958 504.958;" xml:space="preserve">
<g>
	<path d="M45.367,53.006c-6.315-2.664-12.584,4.251-9.558,10.29c1.437,2.867,4.621,4.51,7.794,4.05
		c3.289-0.477,5.944-3.202,6.335-6.501C50.328,57.561,48.465,54.246,45.367,53.006z"/>
	<path d="M99.737,55.767c-1.756-2.667-5.171-3.912-8.236-3.058c-3.021,0.842-5.24,3.534-5.481,6.667
		c-0.225,2.929,1.361,5.783,3.947,7.166c2.924,1.564,6.649,0.976,8.947-1.418C101.325,62.613,101.646,58.663,99.737,55.767z"/>
	<path d="M74.237,55.767c-3.613-5.488-12.288-3.66-13.59,2.7c-0.641,3.13,0.888,6.42,3.661,7.985
		c2.663,1.503,6.04,1.215,8.419-0.699C75.712,63.351,76.331,58.944,74.237,55.767z"/>
	<path d="M192.815,314.178H92.666c-7.81,0-14.464-5.839-15.48-13.582l-3.535-26.938c-0.539-4.106-4.303-7-8.412-6.46
		c-4.107,0.539-6.999,4.305-6.46,8.412l3.535,26.938c1.992,15.182,15.041,26.63,30.353,26.63h100.149
		c15.312,0,28.36-11.448,30.353-26.63l10.271-78.273c7.133-2.35,12.302-9.067,12.302-16.977v-12.24c0-9.859-8.021-17.88-17.88-17.88
		h-60.62v-22.5c0-13.509-10.991-24.5-24.5-24.5s-24.5,10.991-24.5,24.5v22.5h-60.62c-9.859,0-17.88,8.021-17.88,17.88v12.24
		c0,7.91,5.168,14.626,12.302,16.977l3.586,27.33c0.495,3.776,3.718,6.525,7.427,6.525c0.325,0,0.654-0.021,0.985-0.065
		c4.107-0.539,7-4.305,6.46-8.412l-3.212-24.475h50.952v10.5c0,13.509,10.991,24.5,24.5,24.5s24.5-10.991,24.5-24.5v-10.5h50.952
		l-9.897,75.418C207.279,308.339,200.625,314.178,192.815,314.178z M57.621,210.178c-1.588,0-2.88-1.292-2.88-2.88v-12.24
		c0-1.588,1.292-2.88,2.88-2.88h60.62v18H57.621z M152.241,235.678c0,5.238-4.262,9.5-9.5,9.5s-9.5-4.262-9.5-9.5v-81
		c0-5.238,4.262-9.5,9.5-9.5s9.5,4.262,9.5,9.5V235.678z M167.241,192.178h60.62c1.588,0,2.88,1.292,2.88,2.88v12.24
		c0,1.588-1.292,2.88-2.88,2.88h-60.62V192.178z"/>
	<path d="M494.278,262.423c0-4.844,2.489-11.053,4.896-17.057c3.877-9.67,8.271-20.632,4.083-30.733
		c-4.351-10.493-15.466-15.188-25.272-19.331c-5.757-2.432-11.709-4.947-14.864-8.101c-3.154-3.155-5.669-9.107-8.101-14.865
		c-4.143-9.806-8.838-20.92-19.331-25.272c-10.103-4.188-21.063,0.206-30.733,4.083c-6.004,2.407-12.213,4.896-17.057,4.896
		s-11.052-2.489-17.057-4.896c-9.67-3.877-20.631-8.272-30.733-4.083c-10.493,4.351-15.188,15.466-19.332,25.273
		c-2.432,5.757-4.947,11.709-8.101,14.864c-3.154,3.154-9.107,5.668-14.864,8.101c-9.807,4.143-20.921,8.838-25.273,19.331
		c-4.188,10.101,0.206,21.063,4.083,30.733c2.407,6.004,4.896,12.213,4.896,17.057s-2.489,11.052-4.896,17.057
		c-3.877,9.67-8.271,20.632-4.083,30.732c4.352,10.494,15.466,15.189,25.272,19.332c5.757,2.432,11.71,4.947,14.865,8.101
		c3.154,3.154,5.668,9.107,8.101,14.864c1.186,2.808,2.423,5.719,3.823,8.552v43.369H33.93c-10.438,0-18.93-8.492-18.93-18.93V94.43
		h408v34.562c0,4.142,3.358,7.5,7.5,7.5s7.5-3.358,7.5-7.5V55.36c0-18.709-15.221-33.93-33.93-33.93H148.123
		c-4.142,0-7.5,3.358-7.5,7.5s3.358,7.5,7.5,7.5H404.07c10.438,0,18.93,8.492,18.93,18.93v24.07H15V55.36
		c0-10.438,8.492-18.93,18.93-18.93h89.191c4.142,0,7.5-3.358,7.5-7.5s-3.358-7.5-7.5-7.5H33.93C15.221,21.43,0,36.651,0,55.36
		V385.5c0,18.709,15.221,33.93,33.93,33.93h290.671v56.598c0,2.795,1.555,5.359,4.034,6.651c2.479,1.292,5.471,1.098,7.762-0.503
		l51.501-35.994l51.496,35.994c1.284,0.897,2.788,1.353,4.297,1.353c1.186,0,2.375-0.281,3.465-0.849
		c2.479-1.292,4.034-3.855,4.034-6.651v-44.249c0-4.142-3.358-7.5-7.5-7.5s-7.5,3.358-7.5,7.5v29.856l-43.996-30.751
		c-2.58-1.803-6.012-1.804-8.593,0l-44.001,30.752v-84.094c0.172,0.076,0.333,0.166,0.508,0.239c2.91,1.207,5.889,1.701,8.889,1.701
		c7.417,0,14.958-3.023,21.844-5.783c6.004-2.407,12.213-4.896,17.057-4.896s11.053,2.489,17.057,4.896
		c9.67,3.877,20.631,8.273,30.733,4.083c0.173-0.072,0.332-0.161,0.502-0.236v29.233c0,4.142,3.358,7.5,7.5,7.5s7.5-3.358,7.5-7.5
		v-45.705c1.402-2.836,2.641-5.752,3.829-8.564c2.432-5.757,4.947-11.709,8.101-14.864c3.154-3.154,9.107-5.668,14.864-8.101
		c9.807-4.143,20.921-8.838,25.272-19.331c4.189-10.102-0.206-21.063-4.083-30.733C496.767,273.475,494.278,267.267,494.278,262.423
		z M485.251,285.061c2.948,7.352,5.996,14.955,4.149,19.406c-1.996,4.813-9.752,8.09-17.253,11.259
		c-7.083,2.992-14.408,6.086-19.633,11.312s-8.32,12.55-11.313,19.634c-3.168,7.501-6.445,15.257-11.259,17.254
		c-4.449,1.845-12.053-1.203-19.405-4.15c-7.325-2.937-14.9-5.973-22.639-5.973c-7.738,0-15.313,3.037-22.638,5.973
		c-7.352,2.948-14.953,5.996-19.406,4.149c-4.813-1.996-8.09-9.752-11.259-17.253c-2.993-7.083-6.086-14.408-11.312-19.633
		s-12.55-8.32-19.634-11.313c-7.501-3.168-15.258-6.445-17.254-11.259c-1.846-4.451,1.202-12.053,4.15-19.405
		c2.937-7.325,5.973-14.9,5.973-22.638s-3.037-15.313-5.973-22.638c-2.948-7.353-5.996-14.955-4.149-19.406
		c1.996-4.813,9.752-8.09,17.253-11.259c7.083-2.993,14.408-6.086,19.633-11.312s8.32-12.55,11.312-19.633
		c3.169-7.501,6.446-15.258,11.26-17.254c4.451-1.844,12.053,1.203,19.405,4.15c7.325,2.937,14.9,5.973,22.638,5.973
		s15.313-3.037,22.638-5.973c7.353-2.948,14.958-5.995,19.406-4.15c4.814,1.996,8.09,9.752,11.259,17.253
		c2.993,7.083,6.087,14.408,11.313,19.634s12.55,8.32,19.634,11.313c7.501,3.168,15.257,6.445,17.254,11.259
		c1.845,4.451-1.202,12.053-4.15,19.405c-2.937,7.325-5.973,14.9-5.973,22.639C479.278,270.161,482.315,277.736,485.251,285.061z"/>
	<path d="M387.898,185.004c-42.688,0-77.418,34.73-77.418,77.419c0,42.688,34.73,77.418,77.418,77.418
		c42.689,0,77.419-34.73,77.419-77.418C465.317,219.734,430.587,185.004,387.898,185.004z M387.898,324.842
		c-34.417,0-62.418-28.001-62.418-62.418c0-34.418,28.001-62.419,62.418-62.419c34.418,0,62.419,28.001,62.419,62.419
		C450.317,296.841,422.316,324.842,387.898,324.842z"/>
	<path d="M410.398,235.278c4.142,0,7.5-3.358,7.5-7.5s-3.358-7.5-7.5-7.5h-45c-4.142,0-7.5,3.358-7.5,7.5s3.358,7.5,7.5,7.5h15
		v52.236h-15c-4.142,0-7.5,3.358-7.5,7.5s3.358,7.5,7.5,7.5h45c4.142,0,7.5-3.358,7.5-7.5s-3.358-7.5-7.5-7.5h-15v-52.236H410.398z"
		/>
</g>
<g>
</g>
<g>
</g>
<g>
</g>
<g>
</g>
<g>
</g>
<g>
</g>
<g>
</g>
<g>
</g>
<g>
</g>
<g>
</g>
<g>
</g>
<g>
</g>
<g>
</g>
<g>
</g>
<g>
</g>
</svg>
