<?xml version="1.0" encoding="iso-8859-1"?>
<!-- Generator: Adobe Illustrator 19.0.0, SVG Export Plug-In . SVG Version: 6.00 Build 0)  -->
<svg version="1.1" id="Layer_1" xmlns="http://www.w3.org/2000/svg" xmlns:xlink="http://www.w3.org/1999/xlink" x="0px" y="0px"
	 viewBox="0 0 504.615 504.615" style="enable-background:new 0 0 504.615 504.615;" xml:space="preserve">
<g>
	<path d="M48.76,322.546c-3.604-5.468-12.323-3.685-13.58,2.7c-1.342,6.817,6.919,11.709,12.22,7.161
		C50.238,329.974,50.859,325.658,48.76,322.546z"/>
	<path d="M96.4,319.786c-3.026-1.25-6.635-0.357-8.696,2.197c-1.853,2.295-2.181,5.532-0.84,8.156
		c1.501,2.935,4.887,4.576,8.126,3.927c3.088-0.62,5.495-3.167,5.958-6.274C101.444,324.47,99.539,321.039,96.4,319.786z"/>
	<path d="M74.26,322.546c-3.602-5.465-12.309-3.681-13.58,2.7c-0.626,3.143,0.872,6.409,3.657,7.985
		c2.706,1.532,6.155,1.201,8.534-0.796C75.744,330.025,76.357,325.655,74.26,322.546z"/>
	<path d="M351.81,374.092c-9.502,9.502-24.964,9.501-34.465,0c-2.929-2.929-7.678-2.929-10.606,0c-2.929,2.929-2.929,7.678,0,10.606
		c7.675,7.675,17.757,11.513,27.839,11.513c10.082,0,20.164-3.838,27.839-11.513c2.929-2.929,2.929-7.678,0-10.606
		C359.488,371.164,354.739,371.164,351.81,374.092z"/>
	<path d="M384.107,335.241v-21.442c0-4.142-3.358-7.5-7.5-7.5s-7.5,3.358-7.5,7.5v21.442c0,4.142,3.358,7.5,7.5,7.5
		S384.107,339.383,384.107,335.241z"/>
	<path d="M292.548,306.298c-4.142,0-7.5,3.358-7.5,7.5v21.442c0,4.142,3.358,7.5,7.5,7.5s7.5-3.358,7.5-7.5v-21.442
		C300.048,309.656,296.69,306.298,292.548,306.298z"/>
	<path d="M465.385,282.295v-36.764c0-1.259-0.02-2.521-0.055-3.778c3.135-2.458,6.15-5.108,9.021-7.953
		c19.249-19.071,29.996-44.488,30.262-71.568c0.093-9.482-3.703-18.82-10.414-25.619c-6.593-6.679-15.283-10.373-24.467-10.401
		c-9.323-0.037-18.183,3.598-24.817,10.212c-1.002,0.999-1.937,2.048-2.801,3.142c-6.414-8.128-16.35-13.354-27.484-13.354
		c-6.27,0-12.16,1.657-17.255,4.557c-19.165-10.507-40.771-16.043-62.797-16.043c-72.127,0-130.807,58.68-130.807,130.807v36.764
		c-10.846,3.582-18.697,13.808-18.697,25.838v38.075H15.03v-24.073c0-10.438,8.492-18.93,18.93-18.93H171.5
		c4.142,0,7.5-3.358,7.5-7.5s-3.358-7.5-7.5-7.5H33.96c-18.709,0-33.93,15.221-33.93,33.93v31.553c0,0.007-0.001,0.013-0.001,0.019
		s0.001,0.013,0.001,0.019v98.998c0,18.709,15.221,33.93,33.93,33.93h129.538c4.142,0,7.5-3.358,7.5-7.5s-3.358-7.5-7.5-7.5H33.96
		c-10.438,0-18.93-8.492-18.93-18.93v-91.517h170.044v5.66c0,15.003,12.206,27.209,27.209,27.209h7.663
		c7.207,0,13.764-2.822,18.637-7.412c3.74,10.031,9.065,19.444,15.846,27.932v38.128c0,10.438-8.492,18.93-18.93,18.93h-47
		c-4.142,0-7.5,3.358-7.5,7.5s3.358,7.5,7.5,7.5h47c18.709,0,33.93-15.221,33.93-33.93v-22.867
		c18.303,15.142,41.092,23.383,65.148,23.383c21.224,0,41.419-6.371,58.669-18.462c1.968,0.517,4.032,0.795,6.16,0.795h5.586
		c10.759,0,19.899-7.043,23.066-16.758h16.862c11.286,0,20.467-9.181,20.467-20.466v-5.644
		c10.844-3.583,18.694-13.808,18.694-25.837v-58.735C484.082,296.102,476.23,285.877,465.385,282.295z M450.385,280.923h-1.176
		c-4.389,0-8.534,1.051-12.209,2.904v-26.409c4.597-1.648,9.069-3.626,13.385-5.926V280.923z M334.578,129.724
		c17.797,0,35.275,4.09,51.084,11.867c-2.456,3.615-4.254,7.711-5.219,12.115h-80.564c-37.343,0-67.725,30.381-67.725,67.725v62.395
		c-3.674-1.853-7.819-2.903-12.208-2.903h-1.175v-35.393C218.771,181.675,270.722,129.724,334.578,129.724z M232.156,366.868
		c0,6.732-5.477,12.209-12.209,12.209h-7.663c-6.732,0-12.209-5.477-12.209-12.209v-58.735c0-6.732,5.477-12.209,12.209-12.209
		h7.663c6.732,0,12.209,5.477,12.209,12.209v42.686V366.868z M272.761,412.635c-16.512-16.512-25.605-38.465-25.605-61.816v-42.686
		v-3.436c7.894-1.188,14.411-4.594,19.426-10.193c8.362-9.337,10.13-22.556,10.287-31.11H367.5c4.142,0,7.5-3.358,7.5-7.5
		c0-4.142-3.358-7.5-7.5-7.5h-98.445c-2.154,0-4.203,0.936-5.626,2.552s-2.083,3.776-1.811,5.913
		c0.643,5.055,0.774,19.879-6.238,27.669c-2.154,2.393-4.873,4.014-8.224,4.886v-33.517c0-0.013-0.002-0.026-0.002-0.039v-34.427
		c0-29.072,23.652-52.725,52.725-52.725h87.255c4.142,0,7.5-3.358,7.5-7.5c0-11.026,8.97-19.997,19.997-19.997
		c11.026,0,19.996,8.97,19.996,19.997c0,4.142,3.358,7.5,7.5,7.5s7.5-3.358,7.5-7.5c0-5.353,2.088-10.382,5.878-14.161
		c3.776-3.765,8.788-5.835,14.118-5.835c0.021,0,0.042,0,0.063,0c5.159,0.016,10.074,2.125,13.839,5.939
		c3.924,3.975,6.144,9.418,6.09,14.933c-0.228,23.104-9.397,44.789-25.82,61.06c-16.434,16.283-38.226,25.25-61.362,25.25h-9.93
		c-4.142,0-7.5,3.358-7.5,7.5c0,4.142,3.358,7.5,7.5,7.5h9.93c6.641,0,13.186-0.634,19.568-1.867v89.292
		c0,13.124-2.953,26.031-8.571,37.754c-2.629-0.978-5.47-1.515-8.436-1.515h-5.586c-13.376,0-24.258,10.882-24.258,24.258
		c0,5.345,1.741,10.289,4.681,14.302c-13.609,8.274-29.076,12.624-45.253,12.624C311.227,438.241,289.273,429.147,272.761,412.635z
		 M404.993,420.573h-5.586c-5.105,0-9.258-4.153-9.258-9.258s4.153-9.258,9.258-9.258h5.586c5.105,0,9.258,4.153,9.258,9.258
		S410.098,420.573,404.993,420.573z M444.92,403.815h-16.862c-0.652-2-1.557-3.885-2.678-5.619c1.959-3.75,3.682-7.612,5.156-11.564
		c4.877,4.61,11.448,7.446,18.672,7.446h1.178v4.271C450.387,401.363,447.935,403.815,444.92,403.815z M469.082,366.868
		c0,6.732-5.477,12.209-12.209,12.209h-7.664c-6.732,0-12.209-5.477-12.209-12.209v-16.049v-42.686
		c0-6.732,5.477-12.209,12.209-12.209h7.664c6.732,0,12.209,5.477,12.209,12.209V366.868z"/>
	<path d="M31.898,196.23h71.814l53.803,53.803c1.435,1.435,3.353,2.197,5.305,2.197c0.966,0,1.941-0.187,2.869-0.571
		c2.803-1.161,4.63-3.896,4.63-6.929v-48.5h6.783c17.589,0,31.898-14.31,31.898-31.898V49.858c0-17.588-14.31-31.898-31.898-31.898
		H31.898C14.31,17.96,0,32.269,0,49.858v114.474C0,181.92,14.31,196.23,31.898,196.23z M15,49.858
		c0-9.317,7.581-16.898,16.898-16.898h145.204c9.318,0,16.898,7.581,16.898,16.898v114.474c0,9.317-7.581,16.898-16.898,16.898
		h-14.283c-4.142,0-7.5,3.358-7.5,7.5v37.894l-43.197-43.197c-1.406-1.407-3.314-2.197-5.303-2.197H31.898
		c-9.317,0-16.898-7.581-16.898-16.898V49.858z"/>
	<path d="M52.5,377.225h-18c-4.142,0-7.5,3.358-7.5,7.5s3.358,7.5,7.5,7.5h18c4.142,0,7.5-3.358,7.5-7.5
		S56.642,377.225,52.5,377.225z"/>
	<path d="M144.5,377.225h-68c-4.142,0-7.5,3.358-7.5,7.5s3.358,7.5,7.5,7.5h68c4.142,0,7.5-3.358,7.5-7.5
		S148.642,377.225,144.5,377.225z"/>
	<path d="M52.5,407.725h-18c-4.142,0-7.5,3.358-7.5,7.5s3.358,7.5,7.5,7.5h18c4.142,0,7.5-3.358,7.5-7.5
		S56.642,407.725,52.5,407.725z"/>
	<path d="M144.5,407.725h-68c-4.142,0-7.5,3.358-7.5,7.5s3.358,7.5,7.5,7.5h68c4.142,0,7.5-3.358,7.5-7.5
		S148.642,407.725,144.5,407.725z"/>
	<path d="M52.5,438.225h-18c-4.142,0-7.5,3.358-7.5,7.5s3.358,7.5,7.5,7.5h18c4.142,0,7.5-3.358,7.5-7.5
		S56.642,438.225,52.5,438.225z"/>
	<path d="M144.5,438.225h-68c-4.142,0-7.5,3.358-7.5,7.5s3.358,7.5,7.5,7.5h68c4.142,0,7.5-3.358,7.5-7.5
		S148.642,438.225,144.5,438.225z"/>
	<path d="M88.338,131.769c-2.291-1.777-4.1-3.182-6.161-3.182c-4.138,0-7.253,5.462-7.253,9.004
		c0,6.708,10.322,14.756,25.166,15.666v0.653c0,1.87,0.863,3.612,2.35,4.762c0.877,0.828,2.152,1.303,3.498,1.303
		c0.03,0,0.061-0.003,0.131-0.007l0.087,0.007c3.344,0,6.065-2.721,6.065-6.065v-1.331c13.892-2.956,21.854-12.557,21.854-26.369
		c0-15.632-10.482-21.875-21.854-26.261V77.929c3.697,0.575,6.173,1.829,8.172,2.842c1.705,0.864,3.051,1.546,4.553,1.546
		c4.801,0,6.877-5.879,6.877-8.878c0-6.414-10.081-9.379-19.603-10.027v-1.371c0-3.345-2.721-6.065-6.065-6.065
		s-6.065,2.721-6.065,6.065v1.754c-14.567,2.424-22.915,11.307-22.915,24.4c0,16.093,13.191,21.146,22.915,24.804v24.706
		C94.682,136.692,91.17,133.966,88.338,131.769z M92.932,86.569c0-3.814,2.474-6.547,7.159-7.918v16.686
		C96.328,93.618,92.932,91.327,92.932,86.569z M112.221,136.905v-18.766c4.213,2.47,6.098,5.476,6.098,9.698
		C118.318,132.088,116.212,135.216,112.221,136.905z"/>
	<path d="M290.5,33.225h182c4.142,0,7.5-3.358,7.5-7.5s-3.358-7.5-7.5-7.5h-182c-4.142,0-7.5,3.358-7.5,7.5
		S286.358,33.225,290.5,33.225z"/>
	<path d="M472.5,48.617h-134c-4.142,0-7.5,3.358-7.5,7.5s3.358,7.5,7.5,7.5h134c4.142,0,7.5-3.358,7.5-7.5
		S476.642,48.617,472.5,48.617z"/>
</g>
<g>
</g>
<g>
</g>
<g>
</g>
<g>
</g>
<g>
</g>
<g>
</g>
<g>
</g>
<g>
</g>
<g>
</g>
<g>
</g>
<g>
</g>
<g>
</g>
<g>
</g>
<g>
</g>
<g>
</g>
</svg>
