<?xml version="1.0" encoding="iso-8859-1"?>
<!-- Generator: Adobe Illustrator 19.0.0, SVG Export Plug-In . SVG Version: 6.00 Build 0)  -->
<svg version="1.1" id="Layer_1" xmlns="http://www.w3.org/2000/svg" xmlns:xlink="http://www.w3.org/1999/xlink" x="0px" y="0px"
	 viewBox="0 0 505.512 505.512" style="enable-background:new 0 0 505.512 505.512;" xml:space="preserve">
<g>
	<path d="M48.738,120.047c-3.697-5.626-12.648-3.539-13.655,3.067c-1.014,6.653,6.974,11.106,12.145,6.922
		C50.212,127.622,50.844,123.235,48.738,120.047z"/>
	<path d="M99.738,120.047c-3.794-5.774-13.012-3.376-13.702,3.435c-0.675,6.665,7.472,10.75,12.448,6.338
		C101.263,127.357,101.775,123.132,99.738,120.047z"/>
	<path d="M70.868,117.287c-6.195-2.619-12.498,4.094-9.64,10.134c1.338,2.828,4.393,4.57,7.509,4.259
		c3.265-0.326,5.959-2.798,6.621-6.002C76.073,122.216,74.121,118.63,70.868,117.287z"/>
	<path d="M97.876,332.835c-25.088,0-45.499,20.411-45.499,45.5s20.411,45.5,45.499,45.5H212.88c21.747,0,39.969-15.34,44.44-35.765
		h82.812c25.089,0,45.5-20.411,45.5-45.5s-20.411-45.5-45.5-45.5h-50.001v-27.208c0-4.142-3.357-7.5-7.5-7.5
		c-14.888,0-26.999-12.111-26.999-26.999c0-14.887,12.111-26.998,26.999-26.998c14.887,0,26.998,12.111,26.998,26.998
		c0,4.142,3.357,7.5,7.5,7.5s7.5-3.358,7.5-7.5c0-23.158-18.84-41.998-41.998-41.998s-41.999,18.84-41.999,41.998
		c0,20.598,14.907,37.781,34.499,41.328v20.379h-50.002c-21.747,0-39.969,15.34-44.44,35.765h-17.811v-27.208
		c0-4.142-3.357-7.5-7.5-7.5c-14.887,0-26.998-12.111-26.998-26.998c0-14.887,12.111-26.999,26.998-26.999
		s26.998,12.111,26.998,26.999c0,4.142,3.357,7.5,7.5,7.5s7.5-3.358,7.5-7.5c0-23.158-18.84-41.999-41.998-41.999
		s-41.998,18.84-41.998,41.999c0,20.598,14.907,37.781,34.498,41.327v20.379H97.876z M212.88,408.835H97.876
		c-16.817,0-30.499-13.682-30.499-30.5s13.682-30.5,30.499-30.5h82.067c2.619,22.616,21.878,40.235,45.186,40.235h16.648
		C237.705,400.127,226.293,408.835,212.88,408.835z M195.093,347.835h17.787c15.021,0,27.533,10.919,30.036,25.235h-17.787
		C210.108,373.07,197.596,362.152,195.093,347.835z M225.129,312.07h115.003c16.817,0,30.5,13.682,30.5,30.5s-13.683,30.5-30.5,30.5
		h-82.066c-2.619-22.616-21.878-40.235-45.186-40.235h-16.648C200.304,320.778,211.715,312.07,225.129,312.07z"/>
	<path d="M505.512,102.619c0-44.563-36.255-80.817-80.817-80.817c-38.764,0-71.228,27.438-79.024,63.909H160.011
		c-4.143,0-7.5,3.358-7.5,7.5s3.357,7.5,7.5,7.5h183.915c-0.015,0.636-0.048,1.268-0.048,1.908c0,14.996,4.12,29.042,11.266,41.092
		H15v-24.07c0-10.438,8.492-18.93,18.93-18.93h101.08c4.143,0,7.5-3.358,7.5-7.5s-3.357-7.5-7.5-7.5H33.93
		C15.221,85.71,0,100.931,0,119.64v330.14c0,18.709,15.221,33.93,33.93,33.93h370.14c18.709,0,33.931-15.221,33.931-33.93V277.572
		c0-4.142-3.357-7.5-7.5-7.5s-7.5,3.358-7.5,7.5V449.78c0,10.438-8.492,18.93-18.931,18.93H33.93c-10.438,0-18.93-8.492-18.93-18.93
		V158.71h351.595c14.34,14.848,34.29,24.223,56.405,24.682v69.178c0,4.142,3.357,7.5,7.5,7.5s7.5-3.358,7.5-7.5v-70.249
		C476.251,175.955,505.512,142.648,505.512,102.619z M424.694,168.436c-36.292,0-65.817-29.525-65.817-65.817
		c0-36.292,29.525-65.817,65.817-65.817s65.817,29.525,65.817,65.817C490.512,138.91,460.986,168.436,424.694,168.436z"/>
	<path d="M454.394,72.92c-2.929-2.929-7.677-2.93-10.607,0l-19.092,19.092L405.603,72.92c-2.93-2.929-7.678-2.929-10.607,0
		c-2.929,2.929-2.929,7.678,0,10.606l19.092,19.092l-19.092,19.092c-2.929,2.929-2.929,7.678,0,10.606
		c1.465,1.465,3.384,2.197,5.304,2.197c1.919,0,3.839-0.732,5.304-2.197l19.092-19.092l19.092,19.092
		c1.465,1.464,3.385,2.197,5.304,2.197s3.839-0.732,5.304-2.197c2.929-2.929,2.929-7.678,0-10.606l-19.092-19.092l19.092-19.092
		C457.322,80.598,457.322,75.849,454.394,72.92z"/>
</g>
<g>
</g>
<g>
</g>
<g>
</g>
<g>
</g>
<g>
</g>
<g>
</g>
<g>
</g>
<g>
</g>
<g>
</g>
<g>
</g>
<g>
</g>
<g>
</g>
<g>
</g>
<g>
</g>
<g>
</g>
</svg>
