<?xml version="1.0" encoding="iso-8859-1"?>
<!-- Generator: Adobe Illustrator 19.0.0, SVG Export Plug-In . SVG Version: 6.00 Build 0)  -->
<svg version="1.1" id="Layer_1" xmlns="http://www.w3.org/2000/svg" xmlns:xlink="http://www.w3.org/1999/xlink" x="0px" y="0px"
	 viewBox="0 0 505 505" style="enable-background:new 0 0 505 505;" xml:space="preserve">
<g>
	<path d="M69.515,303.252c4.142,0,7.5-3.358,7.5-7.5V148.435c0-1.103,0.897-2,2-2h56.848c4.142,0,7.5-3.358,7.5-7.5
		s-3.358-7.5-7.5-7.5H79.015c-9.374,0-17,7.626-17,17v147.317C62.015,299.894,65.373,303.252,69.515,303.252z"/>
	<path d="M497.5,414.915h-24.516v-266.48c0-25.916-21.084-47-47-47h-63.282c-2.483-12.959-8.746-25.174-18.407-34.834
		c-17.268-17.267-42.69-23.704-65.945-17.04l-35.774-35.774c-1.662-1.661-4.006-2.447-6.332-2.126
		c-2.327,0.322-4.369,1.716-5.516,3.766l-48.139,86.008H79.015c-25.916,0-47,21.084-47,47v266.48H7.5c-4.142,0-7.5,3.358-7.5,7.5
		v10.513c0,33.35,27.132,60.482,60.483,60.482h384.035c33.35,0,60.482-27.132,60.482-60.482v-10.513
		C505,418.273,501.643,414.915,497.5,414.915z M333.688,77.207c11.303,11.303,16.622,27.105,14.914,42.606l-57.519-57.519
		C306.584,60.587,322.387,65.905,333.688,77.207z M238.978,31.401l140.521,140.521l-96.408,53.96l-98.073-98.072L238.978,31.401z
		 M301.596,277.344l-30.397-20.938l15.171-15.171l13.225-7.402C307.363,247.047,308.1,263.51,301.596,277.344z M212.075,294.316
		c-2.718,2.718-6.333,4.215-10.176,4.215c-3.844,0-7.458-1.497-10.177-4.215l-75.14-75.14c-2.718-2.718-4.215-6.332-4.215-10.176
		c0-3.844,1.497-7.458,4.215-10.176l59.118-59.118l95.493,95.493L212.075,294.316z M260.413,267.191l39.307,27.076
		c0.012,0.008,0.022,0.018,0.033,0.026c0.008,0.006,0.017,0.009,0.025,0.015l38.299,26.381c1.769,1.218,2.174,2.94,2.257,3.858
		c0.084,0.917-0.002,2.684-1.521,4.203l-23.789,23.789c-1.797,1.796-4.619,2.053-6.71,0.613l-79.264-54.599L260.413,267.191z
		 M490,432.928c0,25.079-20.403,45.482-45.482,45.482H60.483C35.404,478.41,15,458.007,15,432.928v-3.013h176.854
		c1.25,16.75,15.268,29.999,32.332,29.999h56.628c17.064,0,31.082-13.249,32.332-29.999h54.441c4.143,0,7.5-3.358,7.5-7.5
		s-3.357-7.5-7.5-7.5H47.015v-266.48c0-17.645,14.355-32,32-32h95.179l-4.531,8.095l-63.687,63.687
		c-5.551,5.551-8.609,12.932-8.609,20.783c0,7.851,3.058,15.232,8.609,20.783l75.14,75.14c5.551,5.551,12.932,8.609,20.783,8.609
		c5.68,0,11.11-1.608,15.783-4.596l82.123,56.569c3.486,2.401,7.499,3.577,11.49,3.577c5.227,0,10.416-2.016,14.337-5.937
		l23.789-23.789c4.268-4.268,6.4-10.163,5.852-16.174s-3.715-11.422-8.686-14.846l-32.516-22.398
		c9.687-18.625,9.122-41.301-1.391-59.429l82.791-46.339c2.05-1.147,3.444-3.189,3.766-5.516c0.322-2.327-0.464-4.67-2.125-6.332
		l-21.888-21.888h50.76c1.103,0,2,0.897,2,2v236.48H77.015v-59.161c0-4.142-3.358-7.5-7.5-7.5s-7.5,3.358-7.5,7.5v66.661
		c0,4.142,3.358,7.5,7.5,7.5h365.97c4.143,0,7.5-3.358,7.5-7.5v-243.98c0-9.374-7.626-17-17-17h-64.352
		c1.324-4.943,2.067-9.975,2.239-15h62.113c17.645,0,32,14.355,32,32v266.48h-65.396c-4.143,0-7.5,3.358-7.5,7.5s3.357,7.5,7.5,7.5
		H490V432.928z M206.922,429.915h91.156c-1.188,8.464-8.478,14.999-17.264,14.999h-56.628
		C215.399,444.913,208.11,438.379,206.922,429.915z"/>
	<path d="M182.083,177.906c-2.929-2.929-7.678-2.929-10.606,0l-33.939,33.939c-2.929,2.929-2.929,7.678,0,10.606
		c1.464,1.464,3.384,2.197,5.303,2.197s3.839-0.732,5.303-2.197l33.939-33.939C185.013,185.584,185.013,180.835,182.083,177.906z"/>
	<path d="M201.709,197.532c-2.929-2.93-7.678-2.929-10.606,0l-33.939,33.939c-2.929,2.929-2.929,7.678,0,10.606
		c1.464,1.465,3.384,2.197,5.303,2.197c1.919,0,3.839-0.732,5.303-2.197l33.939-33.939
		C204.639,205.21,204.639,200.461,201.709,197.532z"/>
	<path d="M210.729,217.158l-33.939,33.939c-2.929,2.929-2.929,7.678,0,10.606c1.464,1.464,3.384,2.197,5.303,2.197
		s3.839-0.732,5.303-2.197l33.939-33.939c2.929-2.929,2.929-7.678,0-10.606C218.407,214.23,213.658,214.23,210.729,217.158z"/>
</g>
<g>
</g>
<g>
</g>
<g>
</g>
<g>
</g>
<g>
</g>
<g>
</g>
<g>
</g>
<g>
</g>
<g>
</g>
<g>
</g>
<g>
</g>
<g>
</g>
<g>
</g>
<g>
</g>
<g>
</g>
</svg>
