<?xml version="1.0" encoding="iso-8859-1"?>
<!-- Generator: Adobe Illustrator 19.0.0, SVG Export Plug-In . SVG Version: 6.00 Build 0)  -->
<svg version="1.1" id="Layer_1" xmlns="http://www.w3.org/2000/svg" xmlns:xlink="http://www.w3.org/1999/xlink" x="0px" y="0px"
	 viewBox="0 0 505.007 505.007" style="enable-background:new 0 0 505.007 505.007;" xml:space="preserve">
<g>
	<path d="M95.957,210.787c0,2.783,3.371,4.051,6.504,4.051s6.505-1.268,6.505-4.051v-27.32l15.306,27.871
		c1.674,3.084,4.592,3.5,7.225,3.5c3.133,0,6.504-1.268,6.504-4.051v-52.017c0-2.929-3.504-3.969-6.504-3.969
		c-3.001,0-6.505,1.04-6.505,3.969v27.3l-13.013-24.822c-3.097-5.946-4.862-6.446-9.518-6.446c-3.237,0-6.504,1.252-6.504,4.051
		V210.787z"/>
	<path d="M186.297,166.175c2.337,0,3.97-2.372,3.97-5.769c0-3.872-1.994-5.604-3.97-5.604h-29.116c-2.739,0-5.687,1.268-5.687,4.051
		v51.935c0,2.783,2.947,4.051,5.687,4.051h29.116c1.976,0,3.97-1.733,3.97-5.604c0-3.396-1.633-5.769-3.97-5.769h-21.794v-13.654
		h12.144c2.727,0,3.969-2.566,3.969-4.95c0-2.542-1.363-5.114-3.969-5.114h-12.144v-13.571H186.297z"/>
	<path d="M221.306,215.328c3.559,0,7.699-1.361,8.383-4.35l4.13-18.827l4.132,18.828c0.684,2.988,4.824,4.349,8.382,4.349
		c4.287,0,7.64-1.702,8.542-4.336l16.277-49.892c0.081-0.248,0.169-0.667,0.169-1.103c0-1.337-0.999-2.646-2.813-3.686
		c-1.648-0.945-3.731-1.509-5.572-1.509c-2.294,0-3.75,0.852-4.21,2.461l-12.297,41.503l-6.354-27.183
		c-0.527-2.371-3.613-3.451-6.257-3.451s-5.729,1.08-6.256,3.45l-6.354,27.184l-12.297-41.502c-0.461-1.611-1.916-2.463-4.209-2.463
		c-1.841,0-3.924,0.564-5.573,1.509c-1.813,1.04-2.813,2.349-2.813,3.686c0,0.44,0.088,0.858,0.169,1.102l16.275,49.89
		C213.392,212.991,216.007,215.328,221.306,215.328z"/>
	<path d="M357.14,209.276c-17.304,0-33.919,2.998-49.365,8.485c3.763-12.487,5.664-25.461,5.664-38.755
		c0-74.125-60.306-134.43-134.431-134.43c-25.405,0-50.146,7.124-71.545,20.601c-3.505,2.208-4.557,6.838-2.35,10.343
		c2.208,3.505,6.84,4.557,10.344,2.349c19.002-11.968,40.978-18.293,63.551-18.293c65.854,0,119.431,53.576,119.431,119.43
		c0,16.364-3.243,32.173-9.629,47.037c-26.778,14.013-48.753,35.989-62.767,62.766c-14.863,6.385-30.672,9.627-47.035,9.627
		c-65.854,0-119.43-53.576-119.43-119.43c0-31.9,12.423-61.892,34.981-84.449c2.929-2.929,2.929-7.678,0-10.606
		c-2.93-2.929-7.678-2.93-10.607,0c-25.391,25.39-39.374,59.148-39.374,95.056c0,74.125,60.305,134.43,134.43,134.43
		c13.293,0,26.266-1.9,38.752-5.663c-3.055,8.599-5.344,17.557-6.765,26.799c-10.509-4.198-21.325-8.297-31.987-8.297
		c-11.293,0-22.762,4.598-33.854,9.045c-12.862,5.157-25.013,10.025-33.572,6.478c-9.142-3.793-14.371-16.172-19.908-29.278
		c-4.523-10.709-9.202-21.782-16.792-29.377c-7.597-7.597-18.676-12.276-29.391-16.801c-13.103-5.534-25.479-10.761-29.267-19.901
		c-3.554-8.563,1.316-20.712,6.471-33.576c4.446-11.093,9.043-22.563,9.043-33.859c0-11.291-4.597-22.758-9.041-33.848
		c-5.156-12.863-10.026-25.013-6.471-33.581c3.787-9.139,16.166-14.369,29.271-19.905c10.71-4.524,21.784-9.203,29.375-16.793
		c7.595-7.595,12.275-18.673,16.803-29.387c5.537-13.104,10.767-25.481,19.908-29.27c8.562-3.553,20.71,1.318,33.574,6.477
		c11.091,4.447,22.559,9.046,33.851,9.046c11.297,0,22.767-4.6,33.858-9.047c12.86-5.158,25.007-10.031,33.581-6.474
		c9.136,3.786,14.363,16.162,19.896,29.265c4.525,10.714,9.205,21.794,16.801,29.39c7.592,7.591,18.667,12.27,29.378,16.794
		c13.106,5.537,25.486,10.766,29.277,19.904c3.55,8.563-1.32,20.711-6.477,33.573c-4.447,11.092-9.045,22.562-9.045,33.854
		c0,6.13,1.351,12.902,4.251,21.312c1.35,3.916,5.619,5.998,9.535,4.646c3.915-1.351,5.995-5.62,4.645-9.535
		c-2.341-6.789-3.431-12.007-3.431-16.422c0-8.398,4.051-18.501,7.968-28.272c6.048-15.087,12.302-30.687,6.41-44.901
		c-6.148-14.818-21.983-21.507-37.297-27.976c-9.816-4.146-19.088-8.063-24.607-13.583c-5.524-5.525-9.442-14.8-13.59-24.62
		c-6.467-15.312-13.153-31.145-27.97-37.285c-14.221-5.898-29.823,0.358-44.909,6.408c-9.771,3.918-19.874,7.97-28.275,7.97
		c-8.396,0-18.498-4.051-28.268-7.969c-15.088-6.051-30.69-12.308-44.903-6.41C91.018,8.509,84.329,24.342,77.858,39.654
		c-4.149,9.819-8.068,19.094-13.593,24.619c-5.519,5.519-14.79,9.436-24.604,13.582c-15.314,6.47-31.149,13.159-37.289,27.976
		c-5.899,14.215,0.354,29.818,6.402,44.908c3.916,9.769,7.965,19.87,7.965,28.267c0,8.402-4.05,18.507-7.966,28.279
		c-6.048,15.089-12.301,30.692-6.403,44.902c6.142,14.818,21.975,21.505,37.286,27.973c9.819,4.147,19.095,8.064,24.618,13.588
		c5.52,5.523,9.437,14.794,13.583,24.61c6.47,15.313,13.159,31.147,27.979,37.296c4.027,1.67,8.166,2.364,12.373,2.364
		c10.64,0,21.716-4.44,32.526-8.774c9.771-3.917,19.875-7.968,28.272-7.968c8.394,0,18.491,4.047,28.256,7.96
		c0.718,0.288,1.453,0.58,2.182,0.871c-0.11,2.332-0.171,4.676-0.171,7.035c0,81.533,66.332,147.866,147.865,147.866
		c50.67,0,97.254-25.508,124.611-68.233c2.233-3.488,1.216-8.127-2.272-10.36c-3.486-2.234-8.127-1.218-10.36,2.271
		c-24.586,38.398-66.447,61.322-111.979,61.322c-73.262,0-132.865-59.604-132.865-132.866s59.604-132.866,132.865-132.866
		s132.865,59.604,132.865,132.866c0,16.858-3.112,33.282-9.251,48.814c-1.522,3.853,0.365,8.209,4.218,9.732
		c3.853,1.521,8.21-0.365,9.731-4.218c6.836-17.295,10.302-35.574,10.302-54.328C505.005,275.608,438.673,209.276,357.14,209.276z"
		/>
	<path d="M305.701,369.926v-1.718c0-8.599-3.916-11.418-8.225-13.095c4.357-2.031,6.752-6.574,6.752-12.832
		c0-12.135-8.963-14.683-16.482-14.683h-16.767c-2.738,0-5.686,1.268-5.686,4.051v52.017c0,1.972,1.953,3.969,5.686,3.969h18.157
		c5.005,0,8.965-1.339,11.771-3.98C304.088,380.661,305.701,376.042,305.701,369.926z M286.682,350.09h-8.462v-11.118h8.462
		c3.117,0,4.537,2.903,4.537,5.6C291.219,347.313,289.661,350.09,286.682,350.09z M292.692,367.554v1.309
		c0,4.91-2.159,7.399-6.418,7.399h-8.054v-16.107h8.054C290.653,360.154,292.692,362.505,292.692,367.554z"/>
	<path d="M316.987,331.649v51.935c0,2.783,2.947,4.051,5.686,4.051h29.117c1.976,0,3.969-1.733,3.969-5.604
		c0-3.396-1.632-5.769-3.969-5.769h-21.795v-13.654h12.144c2.727,0,3.969-2.566,3.969-4.95c0-2.542-1.363-5.114-3.969-5.114h-12.144
		v-13.571h21.795c2.337,0,3.969-2.372,3.969-5.769c0-3.872-1.993-5.604-3.969-5.604h-29.117
		C319.934,327.598,316.987,328.866,316.987,331.649z"/>
	<path d="M382.954,388.453c12.688,0,20.571-7.005,20.571-18.282c0-12.727-9.635-16.974-17.377-20.387
		c-4.776-2.106-8.55-3.769-8.55-6.849c0-2.312,2.115-4.782,8.054-4.782c4.004,0,6.15,1.113,7.876,2.007
		c1.141,0.591,2.125,1.102,3.329,1.102c3.627,0,5.196-4.524,5.196-6.832c0-2.81-2.222-4.866-6.604-6.111
		c-3.957-1.124-8.5-1.211-9.798-1.211c-5.595,0-10.699,1.38-14.373,3.886c-4.376,2.985-6.689,7.539-6.689,13.168
		c0,11.213,8.974,15.382,16.185,18.732c5.228,2.428,9.742,4.525,9.742,8.585c0,3.892-4.206,5.272-7.809,5.272
		c-4.402,0-7.11-2.084-9.286-3.76c-1.598-1.23-2.978-2.292-4.617-2.292c-3.245,0-5.687,4.244-5.687,6.995
		C363.118,383.326,372.572,388.453,382.954,388.453z"/>
	<path d="M453.991,333.367c0-2.871-1.228-5.769-3.969-5.769H414.69c-2.741,0-3.969,2.897-3.969,5.769
		c0,3.493,1.632,5.932,3.969,5.932h11.162v44.285c0,2.783,3.371,4.051,6.504,4.051s6.505-1.268,6.505-4.051v-44.285h11.161
		C452.359,339.299,453.991,336.86,453.991,333.367z"/>
	<path d="M357.14,284.64c4.143,0,7.5-3.358,7.5-7.5v-31.998c0-4.142-3.357-7.5-7.5-7.5s-7.5,3.358-7.5,7.5v31.998
		C349.64,281.282,352.997,284.64,357.14,284.64z"/>
	<path d="M357.14,476.641c4.143,0,7.5-3.358,7.5-7.5v-31.998c0-4.142-3.357-7.5-7.5-7.5s-7.5,3.358-7.5,7.5v31.998
		C349.64,473.283,352.997,476.641,357.14,476.641z"/>
	<path d="M429.014,295.874l12.625-12.625c2.929-2.929,2.929-7.678,0-10.606c-2.93-2.929-7.678-2.929-10.607,0l-12.625,12.625
		c-2.929,2.929-2.929,7.678,0,10.606c1.465,1.464,3.385,2.197,5.304,2.197S427.549,297.339,429.014,295.874z"/>
	<path d="M285.266,418.408l-12.625,12.625c-2.929,2.929-2.929,7.678,0.001,10.606c1.464,1.465,3.384,2.197,5.303,2.197
		s3.839-0.732,5.304-2.197l12.625-12.625c2.929-2.929,2.929-7.678-0.001-10.606C292.945,415.478,288.196,415.479,285.266,418.408z"
		/>
	<path d="M285.266,295.874c1.465,1.464,3.385,2.197,5.304,2.197s3.839-0.732,5.304-2.197c2.929-2.929,2.929-7.678,0-10.606
		l-12.625-12.625c-2.93-2.929-7.678-2.929-10.607,0c-2.929,2.929-2.929,7.678,0,10.606L285.266,295.874z"/>
	<path d="M418.408,418.408c-2.93,2.929-2.93,7.677-0.001,10.606l12.625,12.625c1.465,1.465,3.384,2.197,5.304,2.197
		c1.919,0,3.839-0.732,5.303-2.197c2.93-2.929,2.93-7.677,0.001-10.606l-12.625-12.625
		C426.085,415.479,421.336,415.479,418.408,418.408z"/>
</g>
<g>
</g>
<g>
</g>
<g>
</g>
<g>
</g>
<g>
</g>
<g>
</g>
<g>
</g>
<g>
</g>
<g>
</g>
<g>
</g>
<g>
</g>
<g>
</g>
<g>
</g>
<g>
</g>
<g>
</g>
</svg>
