<?xml version="1.0" encoding="iso-8859-1"?>
<!-- Generator: Adobe Illustrator 19.0.0, SVG Export Plug-In . SVG Version: 6.00 Build 0)  -->
<svg version="1.1" id="Layer_1" xmlns="http://www.w3.org/2000/svg" xmlns:xlink="http://www.w3.org/1999/xlink" x="0px" y="0px"
	 viewBox="0 0 505 505" style="enable-background:new 0 0 505 505;" xml:space="preserve">
<g>
	<path d="M497.497,292.618H469.8V183.775h27.7c2.261,0,4.401-1.02,5.825-2.776c1.424-1.756,1.98-4.061,1.513-6.273l-35.49-168.13
		c-0.732-3.469-3.793-5.951-7.338-5.951H108.5c-4.142,0-7.5,3.358-7.5,7.5s3.358,7.5,7.5,7.5h347.428l32.324,153.13H469.8v-12.344
		c0-4.142-3.358-7.5-7.5-7.5H299.781c-4.142,0-7.5,3.358-7.5,7.5v12.344H16.749l32.324-153.13H83.5c4.142,0,7.5-3.358,7.5-7.5
		s-3.358-7.5-7.5-7.5H42.99c-3.545,0-6.606,2.482-7.338,5.951l-35.49,168.13c-0.467,2.212,0.089,4.517,1.513,6.273
		c1.424,1.756,3.564,2.776,5.825,2.776h27.7v313.08c0,4.142,3.358,7.5,7.5,7.5l454.797-0.006c4.142,0,7.5-3.358,7.5-7.5V379.411
		c0-4.142-3.358-7.5-7.5-7.5s-7.5,3.358-7.5,7.5v109.938H282.482V307.618h57.258v86.5c0,2.666,1.416,5.132,3.718,6.477
		s5.146,1.366,7.467,0.056l35.315-19.921l35.315,19.921c1.145,0.646,2.415,0.968,3.685,0.968c1.308,0,2.615-0.342,3.782-1.023
		c2.302-1.345,3.718-3.811,3.718-6.477v-86.5h57.258v46.792c0,4.142,3.358,7.5,7.5,7.5s7.5-3.358,7.5-7.5v-54.292
		C504.997,295.976,501.639,292.618,497.497,292.618z M402.025,163.931v48.313l-17.299-9.759c-1.144-0.645-2.415-0.968-3.685-0.968
		s-2.542,0.323-3.685,0.968l-17.299,9.759v-48.313H402.025z M88.65,489.349v-254.78h130.493v254.78H88.65z M274.982,292.618
		c-4.142,0-7.5,3.358-7.5,7.5v189.237h-33.338V227.069c0-4.142-3.358-7.5-7.5-7.5H81.15c-4.142,0-7.5,3.358-7.5,7.5v262.286H50.2
		v-305.57h242.081v108.833H274.982z M307.281,163.931h37.775v61.155c0,2.666,1.416,5.132,3.718,6.477s5.145,1.366,7.467,0.056
		l24.799-13.99l24.799,13.99c1.145,0.646,2.415,0.968,3.685,0.968c1.308,0,2.615-0.342,3.782-1.023
		c2.302-1.345,3.718-3.811,3.718-6.477v-61.155H454.8v128.687H307.281V163.931z M417.739,381.276l-27.815-15.69
		c-1.144-0.645-2.415-0.968-3.685-0.968s-2.542,0.323-3.685,0.968l-27.815,15.69v-73.658h63V381.276z"/>
	<path d="M193.397,253.911h-79c-4.142,0-7.5,3.358-7.5,7.5v52.49c0,0.003,0,0.006,0,0.01s0,0.006,0,0.01v52.49
		c0,4.142,3.358,7.5,7.5,7.5h79c4.142,0,7.5-3.358,7.5-7.5v-105C200.897,257.269,197.539,253.911,193.397,253.911z M185.897,306.411
		h-24.5v-37.5h24.5V306.411z M146.397,268.911v37.5h-24.5v-37.5H146.397z M121.897,321.411h24.5v37.5h-24.5V321.411z
		 M161.397,358.911v-37.5h24.5v37.5H161.397z"/>
	<path d="M193.397,385.911H179.5c-4.142,0-7.5,3.358-7.5,7.5s3.358,7.5,7.5,7.5h13.897c4.142,0,7.5-3.358,7.5-7.5
		S197.539,385.911,193.397,385.911z"/>
	<path d="M47.997,119.411c0,4.142,3.358,7.5,7.5,7.5h394c4.142,0,7.5-3.358,7.5-7.5s-3.358-7.5-7.5-7.5h-394
		C51.355,111.911,47.997,115.269,47.997,119.411z"/>
	<path d="M420.5,58.711H84.494c-4.142,0-7.5,3.358-7.5,7.5s3.358,7.5,7.5,7.5H420.5c4.142,0,7.5-3.358,7.5-7.5
		S424.642,58.711,420.5,58.711z"/>
</g>
<g>
</g>
<g>
</g>
<g>
</g>
<g>
</g>
<g>
</g>
<g>
</g>
<g>
</g>
<g>
</g>
<g>
</g>
<g>
</g>
<g>
</g>
<g>
</g>
<g>
</g>
<g>
</g>
<g>
</g>
</svg>
