<?xml version="1.0" encoding="iso-8859-1"?>
<!-- Generator: Adobe Illustrator 19.0.0, SVG Export Plug-In . SVG Version: 6.00 Build 0)  -->
<svg version="1.1" id="Layer_1" xmlns="http://www.w3.org/2000/svg" xmlns:xlink="http://www.w3.org/1999/xlink" x="0px" y="0px"
	 viewBox="0 0 505 505" style="enable-background:new 0 0 505 505;" xml:space="preserve">
<g>
	<path d="M464.242,296.751H241.302c-22.474,0-40.758,18.284-40.758,40.758v126.353c0,22.474,18.284,40.758,40.758,40.758h172.193
		c4.143,0,7.5-3.358,7.5-7.5s-3.357-7.5-7.5-7.5H241.302c-14.203,0-25.758-11.555-25.758-25.758v-68.365H490v68.365
		c0,14.203-11.556,25.758-25.759,25.758h-25.744c-4.143,0-7.5,3.358-7.5,7.5s3.357,7.5,7.5,7.5h25.744
		c22.475,0,40.759-18.284,40.759-40.758V337.51C505,315.036,486.716,296.751,464.242,296.751z M241.302,311.751h222.939
		c14.203,0,25.759,11.555,25.759,25.758v2.65H215.544v-2.65C215.544,323.307,227.099,311.751,241.302,311.751z M215.544,380.498
		V355.16H490v25.338H215.544z"/>
	<path d="M329.938,416.017c-4.143,0-7.5,3.358-7.5,7.5s3.357,7.5,7.5,7.5h45.669c4.143,0,7.5-3.358,7.5-7.5s-3.357-7.5-7.5-7.5
		H329.938z"/>
	<path d="M455.852,423.517c0-4.142-3.357-7.5-7.5-7.5h-45.669c-4.143,0-7.5,3.358-7.5,7.5s3.357,7.5,7.5,7.5h45.669
		C452.495,431.017,455.852,427.659,455.852,423.517z"/>
	<path d="M257.193,416.017c-4.143,0-7.5,3.358-7.5,7.5s3.357,7.5,7.5,7.5h45.669c4.143,0,7.5-3.358,7.5-7.5s-3.357-7.5-7.5-7.5
		H257.193z"/>
	<path d="M367.954,224.803c4.143,0,7.5-3.358,7.5-7.5V7.879c0-4.142-3.357-7.5-7.5-7.5H7.5c-4.142,0-7.5,3.358-7.5,7.5v54.598
		c0,4.142,3.358,7.5,7.5,7.5s7.5-3.358,7.5-7.5V15.379h345.454v194.423H15V87.479c0-4.142-3.358-7.5-7.5-7.5S0,83.337,0,87.479
		v129.824c0,4.142,3.358,7.5,7.5,7.5H367.954z"/>
	<path d="M273.595,193.309h24.155c4.143,0,7.5-3.358,7.5-7.5c0-17.208,14-31.209,31.209-31.209c4.143,0,7.5-3.358,7.5-7.5V78.082
		c0-4.142-3.357-7.5-7.5-7.5c-17.209,0-31.209-14-31.209-31.209c0-4.142-3.357-7.5-7.5-7.5H77.704c-4.142,0-7.5,3.358-7.5,7.5
		c0,17.208-14,31.209-31.209,31.209c-4.142,0-7.5,3.358-7.5,7.5V147.1c0,4.142,3.358,7.5,7.5,7.5c17.208,0,31.209,14,31.209,31.209
		c0,4.142,3.358,7.5,7.5,7.5h170.89c4.142,0,7.5-3.358,7.5-7.5s-3.358-7.5-7.5-7.5H84.595
		c-3.194-19.483-18.618-34.907-38.101-38.101V84.974c19.483-3.194,34.907-18.618,38.101-38.101h206.264
		c3.193,19.483,18.617,34.907,38.101,38.101v55.235c-19.483,3.194-34.907,18.618-38.101,38.101h-17.264c-4.143,0-7.5,3.358-7.5,7.5
		S269.453,193.309,273.595,193.309z"/>
	<path d="M141.224,112.591c0,25.642,20.861,46.503,46.503,46.503s46.503-20.861,46.503-46.503c0-25.642-20.861-46.503-46.503-46.503
		S141.224,86.949,141.224,112.591z M219.23,112.591c0,17.371-14.132,31.503-31.503,31.503s-31.503-14.132-31.503-31.503
		c0-17.371,14.132-31.503,31.503-31.503S219.23,95.22,219.23,112.591z"/>
	<path d="M293.804,120.091c4.143,0,7.5-3.358,7.5-7.5s-3.357-7.5-7.5-7.5h-23.999c-4.143,0-7.5,3.358-7.5,7.5s3.357,7.5,7.5,7.5
		H293.804z"/>
	<path d="M81.65,105.091c-4.142,0-7.5,3.358-7.5,7.5s3.358,7.5,7.5,7.5h23.999c4.142,0,7.5-3.358,7.5-7.5s-3.358-7.5-7.5-7.5H81.65z
		"/>
	<path d="M384.215,93.345c47.355,39.349,74.516,97.192,74.516,158.697c0,2.43-0.058,4.864-0.143,7.298l-17.7-18.406
		c-2.871-2.985-7.618-3.078-10.605-0.207c-2.985,2.871-3.078,7.619-0.207,10.604l29.021,30.178c1.258,1.308,2.945,2.104,4.741,2.264
		c0.061,0.009,0.12,0.023,0.182,0.03c0.286,0.033,0.571,0.048,0.854,0.048c2.695,0,5.118-1.455,6.439-3.684l28.567-27.473
		c2.985-2.871,3.078-7.619,0.207-10.604s-7.618-3.078-10.605-0.207L473.66,257.1c0.038-1.687,0.071-3.374,0.071-5.058
		c0-65.978-29.133-128.026-79.93-170.234c-3.185-2.647-7.914-2.21-10.562,0.976C380.592,85.969,381.029,90.697,384.215,93.345z"/>
	<path d="M182.552,446.11c-39.528-14.25-73.397-39.935-97.947-74.279c-21.844-30.559-34.714-65.924-37.673-103.137l18.345,16.112
		c3.112,2.733,7.85,2.426,10.584-0.686c2.733-3.112,2.426-7.851-0.686-10.584l-31.458-27.629c-3.113-2.733-7.851-2.426-10.584,0.686
		L5.504,278.05c-2.733,3.112-2.426,7.851,0.686,10.584c1.424,1.251,3.189,1.865,4.946,1.865c2.083,0,4.155-0.863,5.638-2.551
		l15.264-17.378c3.275,39.675,17.057,77.378,40.364,109.984c26.328,36.833,62.658,64.381,105.063,79.667
		c0.84,0.303,1.699,0.446,2.543,0.446c3.072,0,5.954-1.902,7.056-4.958C188.469,451.813,186.449,447.515,182.552,446.11z"/>
	<g>
		<path d="M336.463,46.869c-3.276,0-6.218-2.188-7.179-5.318c-0.878-2.858,0.108-6.081,2.416-7.973
			c5.178-4.245,13.199,0.266,12.178,6.898C343.321,44.099,340.139,46.869,336.463,46.869z"/>
		<path d="M336.463,193.309c-3.077,0-5.885-1.939-6.996-4.802c-1.177-3.033-0.195-6.57,2.349-8.588
			c5.33-4.226,13.371,0.668,11.997,7.359C343.103,190.735,340.004,193.309,336.463,193.309z"/>
	</g>
	<g>
		<path d="M38.993,46.869c-3.28,0-6.206-2.2-7.172-5.318c-0.93-3.001,0.22-6.413,2.769-8.245c5.416-3.892,13.059,0.971,11.763,7.533
			C45.668,44.305,42.516,46.869,38.993,46.869z"/>
		<path d="M38.993,193.309c-3.274,0-6.214-2.203-7.172-5.323c-0.979-3.185,0.362-6.736,3.166-8.515
			c5.6-3.554,12.912,1.765,11.274,8.179C45.422,190.932,42.386,193.309,38.993,193.309z"/>
	</g>
</g>
<g>
</g>
<g>
</g>
<g>
</g>
<g>
</g>
<g>
</g>
<g>
</g>
<g>
</g>
<g>
</g>
<g>
</g>
<g>
</g>
<g>
</g>
<g>
</g>
<g>
</g>
<g>
</g>
<g>
</g>
</svg>
