<?xml version="1.0" encoding="iso-8859-1"?>
<!-- Generator: Adobe Illustrator 19.0.0, SVG Export Plug-In . SVG Version: 6.00 Build 0)  -->
<svg version="1.1" id="Layer_1" xmlns="http://www.w3.org/2000/svg" xmlns:xlink="http://www.w3.org/1999/xlink" x="0px" y="0px"
	 viewBox="0 0 505 505" style="enable-background:new 0 0 505 505;" xml:space="preserve">
<g>
	<path d="M185.385,35.72h-53c-4.143,0-7.5,3.358-7.5,7.5s3.357,7.5,7.5,7.5h53c4.143,0,7.5-3.358,7.5-7.5
		S189.527,35.72,185.385,35.72z"/>
	<path d="M464.241,163.411H317.769V45.581c0-23.728-19.304-43.032-43.031-43.032H43.031C19.304,2.549,0,21.853,0,45.581v413.838
		c0,23.728,19.304,43.032,43.031,43.032h231.706c23.728,0,43.031-19.304,43.031-43.032V371.28h93.29c4.143,0,7.5-3.358,7.5-7.5
		s-3.357-7.5-7.5-7.5h-93.29v-94.124H490v68.365c0,14.203-11.556,25.758-25.759,25.758h-28.181c-4.143,0-7.5,3.358-7.5,7.5
		s3.357,7.5,7.5,7.5h28.181c22.475,0,40.759-18.284,40.759-40.758v-75.865v-40.338v-10.15
		C505,181.695,486.716,163.411,464.241,163.411z M464.241,178.411c14.203,0,25.759,11.555,25.759,25.758v2.65H317.769v-28.408
		H464.241z M135.148,463.715c0-13.088,10.648-23.735,23.736-23.735s23.735,10.648,23.735,23.735
		c0,13.088-10.647,23.736-23.735,23.736S135.148,476.803,135.148,463.715z M302.769,459.419c0,15.457-12.575,28.032-28.031,28.032
		h-85.274c5.105-6.562,8.157-14.797,8.157-23.736c0-8.939-3.052-17.173-8.157-23.735h73.282c14.019,0,25.424-11.405,25.424-25.423
		V90.133c0-14.019-11.405-25.424-25.424-25.424H55.023c-14.019,0-25.424,11.405-25.424,25.424v37.436c0,4.142,3.357,7.5,7.5,7.5
		s7.5-3.358,7.5-7.5V90.133c0-5.748,4.676-10.424,10.424-10.424h207.722c5.748,0,10.424,4.676,10.424,10.424v32.208H135.214
		c-30.282,0-54.919,24.642-54.919,54.931v14.468v57.512V357.42c0,30.289,24.637,54.93,54.919,54.93h137.955v2.207
		c0,5.748-4.676,10.423-10.424,10.423H55.023c-5.748,0-10.424-4.676-10.424-10.423V152.571c0-4.142-3.357-7.5-7.5-7.5
		s-7.5,3.358-7.5,7.5v261.986c0,14.019,11.405,25.423,25.424,25.423h73.282c-5.105,6.562-8.157,14.797-8.157,23.735
		c0,8.939,3.052,17.174,8.157,23.736H43.031C27.575,487.451,15,474.876,15,459.419V45.581c0-15.457,12.575-28.032,28.031-28.032
		h231.706c15.456,0,28.031,12.575,28.031,28.032V459.419z M273.169,241.752H95.295V199.24h177.874V241.752z M273.169,184.24H95.295
		v-6.968c0-22.018,17.907-39.931,39.919-39.931h137.955V184.24z M95.295,256.752h177.874v35.645h-14.202c-4.143,0-7.5,3.358-7.5,7.5
		s3.357,7.5,7.5,7.5h14.202v89.954H135.214c-22.012,0-39.919-17.913-39.919-39.93V256.752z M317.769,247.157v-25.338H490v25.338
		H317.769z"/>
	<path d="M331.782,282.676c-4.143,0-7.5,3.358-7.5,7.5s3.357,7.5,7.5,7.5h45.669c4.143,0,7.5-3.358,7.5-7.5s-3.357-7.5-7.5-7.5
		H331.782z"/>
	<path d="M455.852,290.176c0-4.142-3.357-7.5-7.5-7.5h-45.669c-4.143,0-7.5,3.358-7.5,7.5s3.357,7.5,7.5,7.5h45.669
		C452.494,297.676,455.852,294.318,455.852,290.176z"/>
	<path d="M157.871,307.398h65.116c4.143,0,7.5-3.358,7.5-7.5s-3.357-7.5-7.5-7.5h-65.116c-4.143,0-7.5,3.358-7.5,7.5
		S153.729,307.398,157.871,307.398z"/>
	<path d="M386.548,146.404c1.436,1.435,3.354,2.197,5.306,2.197c0.966,0,1.94-0.187,2.868-0.571c2.803-1.161,4.63-3.896,4.63-6.929
		v-20.032h71.994c4.143,0,7.5-3.358,7.5-7.5V62.572c0-4.142-3.357-7.5-7.5-7.5h-71.994V35.04c0-3.033-1.827-5.768-4.63-6.929
		c-2.803-1.161-6.028-0.519-8.174,1.626l-53.03,53.03c-2.929,2.929-2.929,7.677,0,10.606L386.548,146.404z M384.352,53.147v9.425
		c0,4.142,3.357,7.5,7.5,7.5h71.994v35.998h-71.994c-4.143,0-7.5,3.358-7.5,7.5v9.425L349.428,88.07L384.352,53.147z"/>
</g>
<g>
</g>
<g>
</g>
<g>
</g>
<g>
</g>
<g>
</g>
<g>
</g>
<g>
</g>
<g>
</g>
<g>
</g>
<g>
</g>
<g>
</g>
<g>
</g>
<g>
</g>
<g>
</g>
<g>
</g>
</svg>
