<?xml version="1.0" encoding="iso-8859-1"?>
<!-- Generator: Adobe Illustrator 19.0.0, SVG Export Plug-In . SVG Version: 6.00 Build 0)  -->
<svg version="1.1" id="Layer_1" xmlns="http://www.w3.org/2000/svg" xmlns:xlink="http://www.w3.org/1999/xlink" x="0px" y="0px"
	 viewBox="0 0 505 505" style="enable-background:new 0 0 505 505;" xml:space="preserve">
<g>
	<path d="M440.29,182.419c-1.203-56.324-22.064-103.634-60.328-136.816C346.049,16.196,300.783,0,252.5,0
		c-48.282,0-93.549,16.196-127.461,45.604C86.775,78.786,65.914,126.096,64.71,182.418c-0.056,2.588-0.084,5.22-0.084,7.821
		c0,65.11,17.602,128.889,50.9,184.441c32.337,53.946,78.436,98.68,133.313,129.365c1.137,0.636,2.398,0.954,3.66,0.954
		s2.523-0.318,3.66-0.954c39.895-22.308,74.787-51.632,103.707-87.158c2.615-3.212,2.131-7.937-1.082-10.551
		c-3.21-2.615-7.936-2.129-10.551,1.082c-26.831,32.96-59.023,60.349-95.733,81.46c-50.986-29.334-93.836-71.409-124.107-121.91
		C96.49,313.746,79.626,252.634,79.626,190.24c0-2.495,0.027-5.018,0.08-7.5c1.11-51.971,20.185-95.474,55.159-125.804
		C166.05,29.893,207.827,15,252.5,15c44.674,0,86.45,14.893,117.635,41.936c34.975,30.33,54.049,73.833,55.159,125.805
		c0.053,2.481,0.08,5.004,0.08,7.499c0,70.626-21.23,138.495-61.396,196.268c-2.364,3.401-1.524,8.075,1.877,10.439
		c3.399,2.364,8.074,1.523,10.439-1.877c41.921-60.299,64.079-131.128,64.079-204.831
		C440.374,187.638,440.345,185.007,440.29,182.419z"/>
	<path d="M401.049,190.878c0-38.864-14.947-75.581-42.087-103.388c-27.093-27.759-63.341-43.597-102.054-44.596
		c-1.289-0.036-2.591-0.048-3.892-0.048c-28.629,0-56.406,8.187-80.329,23.675c-6.42,4.155-12.562,8.844-18.251,13.933
		c-31.428,28.067-49.453,68.315-49.453,110.424c0,81.631,66.407,148.043,148.033,148.043c10.146,0,20.286-1.036,30.139-3.08
		c0.061-0.011,0.12-0.022,0.18-0.035c11.122-2.317,21.968-5.923,32.238-10.718c20.656-9.646,39.101-24.202,53.341-42.096
		C389.937,256.565,401.049,224.712,401.049,190.878z M357.177,273.653c-12.804,16.088-29.384,29.174-47.95,37.844
		c-9.171,4.282-18.856,7.508-28.788,9.591c-0.059,0.011-0.117,0.022-0.176,0.035c-8.901,1.857-18.068,2.799-27.246,2.799
		c-73.354,0-133.033-59.683-133.033-133.043c0-37.841,16.199-74.012,44.449-99.241c5.116-4.576,10.636-8.79,16.406-12.524
		c21.489-13.914,46.448-21.268,72.178-21.268c1.162,0,2.325,0.01,3.491,0.042c34.798,0.898,67.371,15.132,91.719,40.079
		c24.391,24.989,37.822,57.985,37.822,92.911C386.049,221.286,376.065,249.909,357.177,273.653z"/>
	<path d="M337.617,132.97h-60.62v-22.5c0-13.509-10.99-24.5-24.5-24.5s-24.5,10.991-24.5,24.5v22.5h-60.62
		c-9.859,0-17.88,8.021-17.88,17.88v12.24c0,7.91,5.168,14.626,12.301,16.977l3.399,25.906c0.496,3.776,3.719,6.525,7.427,6.525
		c0.325,0,0.654-0.021,0.985-0.065c4.107-0.539,7-4.305,6.461-8.412l-3.025-23.052h50.951v10.5c0,13.509,10.99,24.5,24.5,24.5
		s24.5-10.99,24.5-24.5v-10.5h50.951l-9.896,75.418c-1.016,7.743-7.671,13.582-15.48,13.582H202.421
		c-7.81,0-14.464-5.838-15.479-13.582l-4.319-32.915c-0.54-4.106-4.313-7.003-8.412-6.46c-4.107,0.539-7,4.305-6.461,8.412
		l4.319,32.914c1.991,15.182,15.04,26.63,30.353,26.63h100.149c15.312,0,28.361-11.448,30.354-26.63l10.271-78.273
		c7.133-2.351,12.301-9.067,12.301-16.977v-12.24C355.497,140.991,347.476,132.97,337.617,132.97z M167.376,165.97
		c-1.588,0-2.88-1.292-2.88-2.88v-12.24c0-1.588,1.292-2.88,2.88-2.88h60.62v18H167.376z M261.997,191.47c0,5.238-4.262,9.5-9.5,9.5
		s-9.5-4.261-9.5-9.5v-81c0-5.238,4.262-9.5,9.5-9.5s9.5,4.262,9.5,9.5V191.47z M276.997,147.97h60.62c1.588,0,2.88,1.292,2.88,2.88
		v12.24c0,1.588-1.292,2.88-2.88,2.88h-60.62V147.97z"/>
</g>
<g>
</g>
<g>
</g>
<g>
</g>
<g>
</g>
<g>
</g>
<g>
</g>
<g>
</g>
<g>
</g>
<g>
</g>
<g>
</g>
<g>
</g>
<g>
</g>
<g>
</g>
<g>
</g>
<g>
</g>
</svg>
