<?xml version="1.0" encoding="iso-8859-1"?>
<!-- Generator: Adobe Illustrator 19.0.0, SVG Export Plug-In . SVG Version: 6.00 Build 0)  -->
<svg version="1.1" id="Layer_1" xmlns="http://www.w3.org/2000/svg" xmlns:xlink="http://www.w3.org/1999/xlink" x="0px" y="0px"
	 viewBox="0 0 504.493 504.493" style="enable-background:new 0 0 504.493 504.493;" xml:space="preserve">
<g>
	<path d="M115.92,51.335c-2.484-5.873-11.022-6.108-13.725-0.28c-1.353,2.916-0.656,6.467,1.709,8.655
		c2.397,2.218,6.063,2.607,8.881,0.966C115.965,58.824,117.351,54.737,115.92,51.335z"/>
	<path d="M166.92,51.335c-2.54-6.004-11.313-6.065-13.851,0c-1.281,3.062-0.309,6.704,2.283,8.759
		c2.409,1.91,5.849,2.117,8.483,0.551C166.981,58.776,168.344,54.719,166.92,51.335z"/>
	<path d="M141.42,51.335c-1.161-2.745-3.862-4.595-6.854-4.626c-3.302-0.035-6.276,2.173-7.244,5.319
		c-0.897,2.914,0.152,6.18,2.531,8.066c2.496,1.979,6.082,2.119,8.741,0.388C141.574,58.542,142.804,54.623,141.42,51.335z"/>
	<path d="M470.563,15.701H100.423c-18.709,0-33.93,15.221-33.93,33.93v131.56c0,4.142,3.357,7.5,7.5,7.5s7.5-3.358,7.5-7.5v-92.49
		h223.071v97.577c0,2.862,1.629,5.475,4.199,6.734c1.047,0.514,2.176,0.766,3.3,0.766c1.633,0,3.255-0.533,4.595-1.572
		l94.729-73.405c1.576-1.221,2.602-3.021,2.849-5s-0.305-3.975-1.532-5.546c-5.675-7.263-12.026-13.793-18.919-19.555h95.708v291.07
		c0,10.438-8.492,18.93-18.93,18.93H253.566v-33.059c10.368,2.68,21.065,4.039,31.927,4.039c70.304,0,127.5-57.192,127.5-127.49
		c0-8.088-0.764-16.184-2.27-24.06c-0.777-4.069-4.71-6.733-8.774-5.958c-4.068,0.778-6.736,4.707-5.958,8.775
		c1.328,6.951,2.002,14.098,2.002,21.244c0,34.757-15.849,65.881-40.698,86.531l-61.48-85.057l82.899-64.46
		c4.331,6.397,7.992,13.218,10.918,20.354c1.571,3.832,5.95,5.666,9.785,4.094c3.832-1.572,5.665-5.953,4.094-9.785
		c-4.39-10.705-10.234-20.78-17.37-29.944c-2.545-3.267-7.255-3.854-10.521-1.313l-82.627,64.248V122.201c0-4.142-3.357-7.5-7.5-7.5
		c-70.299,0-127.49,57.191-127.49,127.49c0,38.183,16.712,73.705,45.985,98.039v58.472h-18.914v-47.016c0-4.142-3.357-7.5-7.5-7.5
		h-34.578c-4.143,0-7.5,3.358-7.5,7.5v47.016h-19.421V206.193c0-4.142-3.357-7.5-7.5-7.5H73.997c-4.143,0-7.5,3.358-7.5,7.5v275.099
		c0,4.142,3.357,7.5,7.5,7.5h34.578c4.143,0,7.5-3.358,7.5-7.5v-67.591h19.421v67.591c0,4.142,3.357,7.5,7.5,7.5h34.578
		c4.143,0,7.5-3.358,7.5-7.5v-67.591h18.914v67.591c0,4.142,3.357,7.5,7.5,7.5h34.578c4.143,0,7.5-3.358,7.5-7.5v-67.591h216.997
		c18.709,0,33.93-15.221,33.93-33.93V49.631C504.493,30.922,489.272,15.701,470.563,15.701z M81.497,473.792V213.693h19.578v260.099
		H81.497z M150.496,473.792V359.186h19.578v114.606H150.496z M173.003,242.191c0-59.506,46.448-108.368,104.99-112.243v112.243
		c0,1.609,0.53,3.13,1.438,4.385l-0.012,0.009l65.728,90.936c-17.304,10.866-37.756,17.161-59.654,17.161
		c-10.909,0-21.622-1.556-31.927-4.61v-58.382c0-4.142-3.357-7.5-7.5-7.5h-34.578c-4.143,0-7.5,3.358-7.5,7.5v28.053
		C184.133,298.948,173.003,271.456,173.003,242.191z M218.988,473.792V299.189h19.578v174.603H218.988z M319.564,170.979V74.448
		c29.554,1.925,56.786,15.19,76.488,37.261L319.564,170.979z M371.383,73.701c-18.002-9.434-38.247-14.497-59.319-14.497
		c-4.143,0-7.5,3.358-7.5,7.5v6.997H81.493v-24.07c0-10.438,8.492-18.93,18.93-18.93h370.141c10.438,0,18.93,8.492,18.93,18.93
		v24.07H371.383z"/>
	<path d="M42.077,249.689H7.5c-4.143,0-7.5,3.358-7.5,7.5v224.103c0,4.142,3.357,7.5,7.5,7.5h34.577c4.143,0,7.5-3.358,7.5-7.5
		v-60.61c0-4.142-3.357-7.5-7.5-7.5s-7.5,3.358-7.5,7.5v53.11H15V264.689h19.577v130.991c0,4.142,3.357,7.5,7.5,7.5
		s7.5-3.358,7.5-7.5V257.189C49.577,253.047,46.22,249.689,42.077,249.689z"/>
	<path d="M471.056,362.43H391.56c-4.143,0-7.5,3.358-7.5,7.5s3.357,7.5,7.5,7.5h79.496c4.143,0,7.5-3.358,7.5-7.5
		S475.198,362.43,471.056,362.43z"/>
	<path d="M471.056,330.687h-55.497c-4.143,0-7.5,3.358-7.5,7.5s3.357,7.5,7.5,7.5h55.497c4.143,0,7.5-3.358,7.5-7.5
		S475.198,330.687,471.056,330.687z"/>
</g>
<g>
</g>
<g>
</g>
<g>
</g>
<g>
</g>
<g>
</g>
<g>
</g>
<g>
</g>
<g>
</g>
<g>
</g>
<g>
</g>
<g>
</g>
<g>
</g>
<g>
</g>
<g>
</g>
<g>
</g>
</svg>
