<?xml version="1.0" encoding="iso-8859-1"?>
<!-- Generator: Adobe Illustrator 19.0.0, SVG Export Plug-In . SVG Version: 6.00 Build 0)  -->
<svg version="1.1" id="Layer_1" xmlns="http://www.w3.org/2000/svg" xmlns:xlink="http://www.w3.org/1999/xlink" x="0px" y="0px"
	 viewBox="0 0 504.333 504.333" style="enable-background:new 0 0 504.333 504.333;" xml:space="preserve">
<g>
	<path d="M393.854,331.519h23.999c4.142,0,7.5-3.358,7.5-7.5s-3.358-7.5-7.5-7.5h-23.999c-4.142,0-7.5,3.358-7.5,7.5
		S389.712,331.519,393.854,331.519z"/>
	<path d="M496.833,211.811h-47.39v-29.14c0-0.007,0.001-0.013,0.001-0.019v-36.475c0-0.007-0.001-0.013-0.001-0.019v-9.156
		c0-20.722-16.854-37.58-37.57-37.58h-133.75v-66.61c0-18.092-14.723-32.81-32.82-32.81h-165.1c-18.097,0-32.82,14.719-32.82,32.81
		v123.75c-12.257,0.853-23.668,6.021-32.443,14.797c-9.599,9.6-14.897,22.354-14.933,35.926C0.006,207.329,0,207.372,0,207.418
		v245.917c0,28.12,22.877,50.998,50.998,50.998h228.621c4.142,0,7.5-3.358,7.5-7.5s-3.358-7.5-7.5-7.5H50.998
		c-19.85,0-35.998-16.148-35.998-35.998V243.503c9.229,9.207,21.958,14.909,35.993,14.909l283.233,0.004
		c16.205,0,29.388,13.183,29.388,29.388v109.418c0,0.007-0.001,0.013-0.001,0.019s0.001,0.013,0.001,0.019v31.451
		c0,0.007-0.001,0.013-0.001,0.019s0.001,0.013,0.001,0.019v31.194c0,16.205-13.183,29.388-29.388,29.388h-29.606
		c-4.142,0-7.5,3.358-7.5,7.5s3.358,7.5,7.5,7.5h29.606c24.476,0,44.388-19.912,44.388-44.388v-23.713h118.219
		c4.142,0,7.5-3.358,7.5-7.5v-209.42C504.333,215.169,500.976,211.811,496.833,211.811z M179.943,211.811v-21.659h254.5v21.659
		H179.943z M434.443,137.001v1.676h-72.329c-4.142,0-7.5,3.358-7.5,7.5s3.358,7.5,7.5,7.5h72.329v21.475h-254.5v-21.475h157.17
		c4.142,0,7.5-3.358,7.5-7.5s-3.358-7.5-7.5-7.5h-157.17v-3.996c0-11.171,9.084-20.26,20.25-20.26h211.68
		C424.318,114.421,434.443,124.551,434.443,137.001z M62.383,32.811c0-9.821,7.994-17.81,17.82-17.81h165.1
		c9.826,0,17.82,7.99,17.82,17.81v66.61h-6.09v-34.86c0-11.177-9.098-20.27-20.28-20.27H88.743c-11.177,0-20.27,9.093-20.27,20.27
		v26.67c0,4.142,3.358,7.5,7.5,7.5s7.5-3.358,7.5-7.5v-26.67c0-2.906,2.364-5.27,5.27-5.27h148.01c2.911,0,5.28,2.364,5.28,5.27
		v34.86h-41.84c-19.437,0-35.25,15.818-35.25,35.26v77.13h-32.064c-4.142,0-7.5,3.358-7.5,7.5v24.104l-41.906-0.004v-127.86
		c0-4.142-3.358-7.5-7.5-7.5s-7.5,3.358-7.5,7.5v127.86h-6.09V32.811z M15.003,207.421c0-9.617,3.744-18.657,10.543-25.457
		c5.941-5.94,13.59-9.548,21.837-10.365v71.63C29.227,241.413,15.003,226.048,15.003,207.421z M367.353,258.301h52.388
		c3.194,19.483,18.618,34.908,38.102,38.102v55.236c-19.483,3.194-34.908,18.618-38.102,38.102h-41.127V287.803
		C378.614,276.486,374.351,266.15,367.353,258.301z M489.333,421.231H378.614v-16.49h48.019c4.142,0,7.5-3.358,7.5-7.5
		c0-17.209,14.001-31.21,31.21-31.21c4.142,0,7.5-3.358,7.5-7.5v-69.02c0-4.142-3.358-7.5-7.5-7.5
		c-17.209,0-31.21-14.001-31.21-31.21c0-4.142-3.358-7.5-7.5-7.5l-286.254,0.114v-16.604h348.954V421.231z"/>
	<path d="M458.421,253.666c1.046,2.678,3.757,4.507,6.608,4.623c3.177,0.129,6.167-1.827,7.306-4.794
		c1.17-3.045,0.195-6.605-2.385-8.604c-2.476-1.919-5.935-2.092-8.592-0.438C458.306,246.353,457.018,250.342,458.421,253.666z"/>
	<path d="M472.271,394.366c-1.216-2.88-4.164-4.781-7.302-4.611c-3.074,0.166-5.766,2.217-6.741,5.133
		c-2.207,6.604,5.477,12.464,11.273,8.588C472.478,401.485,473.564,397.668,472.271,394.366z"/>
	<path d="M336.617,371.913c0-19.85-16.149-35.999-35.999-35.999s-35.999,16.149-35.999,35.999c0,19.85,16.149,35.999,35.999,35.999
		S336.617,391.762,336.617,371.913z M279.62,371.913c0-11.579,9.42-20.999,20.999-20.999s20.999,9.42,20.999,20.999
		c0,11.579-9.42,20.999-20.999,20.999S279.62,383.491,279.62,371.913z"/>
</g>
<g>
</g>
<g>
</g>
<g>
</g>
<g>
</g>
<g>
</g>
<g>
</g>
<g>
</g>
<g>
</g>
<g>
</g>
<g>
</g>
<g>
</g>
<g>
</g>
<g>
</g>
<g>
</g>
<g>
</g>
</svg>
